<?xml version="1.0" encoding="UTF-8" standalone="no"?>
<!-- Generator: Adobe Illustrator 19.0.0, SVG Export Plug-In . SVG Version: 6.00 Build 0)  -->

<svg
   xmlns:dc="http://purl.org/dc/elements/1.1/"
   xmlns:cc="http://creativecommons.org/ns#"
   xmlns:rdf="http://www.w3.org/1999/02/22-rdf-syntax-ns#"
   xmlns:svg="http://www.w3.org/2000/svg"
   xmlns="http://www.w3.org/2000/svg"
   xmlns:sodipodi="http://sodipodi.sourceforge.net/DTD/sodipodi-0.dtd"
   xmlns:inkscape="http://www.inkscape.org/namespaces/inkscape"
   version="1.1"
   id="Capa_1"
   x="0px"
   y="0px"
   viewBox="0 0 359.89999 45.700001"
   xml:space="preserve"
   sodipodi:docname="titulo_034svg.svg"
   inkscape:version="0.92.1 r15371"
   width="359.89999"
   height="45.700001"><metadata
     id="metadata1439"><rdf:RDF><cc:Work
         rdf:about=""><dc:format>image/svg+xml</dc:format><dc:type
           rdf:resource="http://purl.org/dc/dcmitype/StillImage" /><dc:title></dc:title></cc:Work></rdf:RDF></metadata><defs
     id="defs1437" /><sodipodi:namedview
     pagecolor="#ffffff"
     bordercolor="#666666"
     borderopacity="1"
     objecttolerance="10"
     gridtolerance="10"
     guidetolerance="10"
     inkscape:pageopacity="0"
     inkscape:pageshadow="2"
     inkscape:window-width="1920"
     inkscape:window-height="1007"
     id="namedview1435"
     showgrid="false"
     inkscape:zoom="0.89224233"
     inkscape:cx="189.5918"
     inkscape:cy="116.18905"
     inkscape:window-x="0"
     inkscape:window-y="25"
     inkscape:window-maximized="1"
     inkscape:current-layer="Capa_1"
     fit-margin-top="0"
     fit-margin-left="0"
     fit-margin-right="0"
     fit-margin-bottom="0" /><style
     type="text/css"
     id="style2">
	.st0{fill:#88C1FF;}
	.st1{fill:#2251D6;}
	.st2{fill:#FFFFFF;}
	.st3{fill:#E3E7F5;}
	.st4{fill:#1A3789;}
	.st5{fill:#222221;}
	.st6{fill-rule:evenodd;clip-rule:evenodd;fill:#2251D6;}
	.st7{fill:#FDFFFE;}
	.st8{fill-rule:evenodd;clip-rule:evenodd;fill:#1A3789;}
	.st9{fill:none;stroke:#88C1FF;stroke-width:4;stroke-miterlimit:10;}
	.st10{fill:#6A5588;}
	.st11{fill-rule:evenodd;clip-rule:evenodd;fill:#88C1FF;}
</style><g
     id="XMLID_433_"
     transform="translate(-161.04531,-294.98539)" /><style
     id="style2-3"
     type="text/css">
	.st0{fill:#88C1FF;}
	.st1{fill:#2251D6;}
	.st2{fill:#FFFFFF;}
	.st3{fill:#E3E7F5;}
	.st4{fill:#1A3789;}
	.st5{fill:#222221;}
	.st6{fill-rule:evenodd;clip-rule:evenodd;fill:#2251D6;}
	.st7{fill:#FDFFFE;}
	.st8{fill-rule:evenodd;clip-rule:evenodd;fill:#1A3789;}
	.st9{fill:none;stroke:#88C1FF;stroke-width:4;stroke-miterlimit:10;}
	.st10{fill:#6A5588;}
	.st11{fill-rule:evenodd;clip-rule:evenodd;fill:#88C1FF;}
</style><path
     inkscape:connector-curvature="0"
     id="XMLID_60_"
     class="st5"
     d="M 8.299997,7.49998"
     style="fill:#222221" /><polygon
     transform="translate(-246.6,-1734.3)"
     id="XMLID_153_"
     class="st0"
     points="246.6,1768 251.3,1771.7 246.6,1780 606.5,1780 600.2,1773 606.5,1768 601.4,1762.6 606.5,1757.2 601.8,1751.8 606.5,1747.2 599.9,1743 606.5,1734.3 246.6,1734.3 251.3,1741.8 246.6,1746.4 251.3,1750.5 246.6,1756.8 251.3,1763 "
     style="fill:#88c1ff" /><g
     transform="translate(-246.6,-1734.3)"
     id="XMLID_397_"><g
       id="XMLID_4157_"><path
         inkscape:connector-curvature="0"
         id="XMLID_4198_"
         class="st2"
         d="m 268.8,1763.4 6.1,-13.7 c 0.4,-0.9 1.2,-1.5 2.2,-1.5 h 0.2 c 1,0 1.8,0.6 2.2,1.5 l 6.1,13.7 c 0.1,0.3 0.2,0.5 0.2,0.8 0,1 -0.8,1.8 -1.8,1.8 -0.9,0 -1.5,-0.5 -1.8,-1.3 L 281,1762 h -7.7 l -1.2,2.9 c -0.3,0.7 -1,1.2 -1.8,1.2 -1,0 -1.8,-0.8 -1.8,-1.8 0.1,-0.4 0.2,-0.6 0.3,-0.9 z m 10.8,-4.8 -2.4,-5.7 -2.4,5.7 z"
         style="fill:#ffffff" /><path
         inkscape:connector-curvature="0"
         id="XMLID_4195_"
         class="st2"
         d="m 288.8,1750.4 c 0,-1.1 0.8,-1.9 1.9,-1.9 h 5.2 c 4.2,0 6.7,2.5 6.7,6 v 0.1 c 0,4 -3.1,6.1 -7,6.1 h -2.9 v 3.5 c 0,1.1 -0.8,1.9 -1.9,1.9 -1.1,0 -1.9,-0.8 -1.9,-1.9 v -13.8 z m 6.9,6.8 c 1.9,0 3,-1.1 3,-2.6 v 0 c 0,-1.7 -1.2,-2.6 -3.1,-2.6 h -3 v 5.3 h 3.1 z"
         style="fill:#ffffff" /><path
         inkscape:connector-curvature="0"
         id="XMLID_4193_"
         class="st2"
         d="m 305.4,1763.9 v -13.6 c 0,-1.1 0.8,-1.9 1.9,-1.9 h 9.7 c 0.9,0 1.7,0.8 1.7,1.7 0,0.9 -0.8,1.7 -1.7,1.7 h -7.8 v 3.5 h 6.6 c 0.9,0 1.7,0.8 1.7,1.7 0,0.9 -0.8,1.7 -1.7,1.7 h -6.6 v 3.7 h 7.9 c 0.9,0 1.7,0.8 1.7,1.7 0,0.9 -0.8,1.7 -1.7,1.7 h -9.8 c -1,0.1 -1.9,-0.8 -1.9,-1.9 z"
         style="fill:#ffffff" /><path
         inkscape:connector-curvature="0"
         id="XMLID_4190_"
         class="st2"
         d="m 322.1,1750.4 c 0,-1.1 0.8,-1.9 1.9,-1.9 h 6 c 2.2,0 3.9,0.6 5.1,1.8 1,1 1.5,2.3 1.5,4 v 0.1 c 0,2.7 -1.4,4.4 -3.5,5.3 l 2.7,3.2 c 0.4,0.5 0.6,0.9 0.6,1.5 0,1.1 -0.9,1.8 -1.8,1.8 -0.9,0 -1.4,-0.4 -1.9,-1 l -3.7,-4.7 h -3.1 v 3.8 c 0,1.1 -0.8,1.9 -1.9,1.9 -1.1,0 -1.9,-0.8 -1.9,-1.9 z m 7.7,6.5 c 1.9,0 2.9,-1 2.9,-2.5 v -0.1 c 0,-1.6 -1.1,-2.5 -3,-2.5 h -3.8 v 5 h 3.9 z"
         style="fill:#ffffff" /><path
         inkscape:connector-curvature="0"
         id="XMLID_4188_"
         class="st2"
         d="m 344.1,1752 h -3.7 c -1,0 -1.8,-0.8 -1.8,-1.8 0,-1 0.8,-1.8 1.8,-1.8 h 11.2 c 1,0 1.8,0.8 1.8,1.8 0,1 -0.8,1.8 -1.8,1.8 H 348 v 12.1 c 0,1.1 -0.8,1.9 -1.9,1.9 -1.1,0 -1.9,-0.8 -1.9,-1.9 V 1752 Z"
         style="fill:#ffffff" /><path
         inkscape:connector-curvature="0"
         id="XMLID_4186_"
         class="st2"
         d="m 355.9,1758.4 v -8.2 c 0,-1.1 0.8,-1.9 1.9,-1.9 1.1,0 1.9,0.8 1.9,1.9 v 8.1 c 0,2.8 1.4,4.3 3.8,4.3 2.3,0 3.8,-1.4 3.8,-4.2 v -8.2 c 0,-1.1 0.8,-1.9 1.9,-1.9 1.1,0 1.9,0.8 1.9,1.9 v 8.1 c 0,5.3 -3,7.9 -7.6,7.9 -4.7,-0.1 -7.6,-2.7 -7.6,-7.8 z"
         style="fill:#ffffff" /><path
         inkscape:connector-curvature="0"
         id="XMLID_4183_"
         class="st2"
         d="m 375,1750.4 c 0,-1.1 0.8,-1.9 1.9,-1.9 h 6 c 2.2,0 3.9,0.6 5.1,1.8 1,1 1.5,2.3 1.5,4 v 0.1 c 0,2.7 -1.4,4.4 -3.5,5.3 l 2.7,3.2 c 0.4,0.5 0.6,0.9 0.6,1.5 0,1.1 -0.9,1.8 -1.8,1.8 -0.9,0 -1.4,-0.4 -1.9,-1 l -3.7,-4.7 h -3.1 v 3.8 c 0,1.1 -0.8,1.9 -1.9,1.9 -1.1,0 -1.9,-0.8 -1.9,-1.9 z m 7.7,6.5 c 1.9,0 2.9,-1 2.9,-2.5 v -0.1 c 0,-1.6 -1.1,-2.5 -3,-2.5 h -3.8 v 5 h 3.9 z"
         style="fill:#ffffff" /><path
         inkscape:connector-curvature="0"
         id="XMLID_4180_"
         class="st2"
         d="m 392,1763.4 6.1,-13.7 c 0.4,-0.9 1.2,-1.5 2.2,-1.5 h 0.2 c 1,0 1.8,0.6 2.2,1.5 l 6.1,13.7 c 0.1,0.3 0.2,0.5 0.2,0.8 0,1 -0.8,1.8 -1.8,1.8 -0.9,0 -1.5,-0.5 -1.8,-1.3 l -1.2,-2.7 h -7.7 l -1.2,2.9 c -0.3,0.7 -1,1.2 -1.8,1.2 -1,0 -1.8,-0.8 -1.8,-1.8 0.1,-0.4 0.2,-0.6 0.3,-0.9 z m 10.8,-4.8 -2.4,-5.7 -2.4,5.7 z"
         style="fill:#ffffff" /><path
         inkscape:connector-curvature="0"
         id="XMLID_4177_"
         class="st2"
         d="m 419.5,1750.4 c 0,-1.1 0.8,-1.9 1.9,-1.9 h 4.9 c 5.5,0 9.3,3.8 9.3,8.7 v 0.1 c 0,4.9 -3.8,8.7 -9.3,8.7 h -4.9 c -1.1,0 -1.9,-0.8 -1.9,-1.9 z m 6.8,12 c 3.1,0 5.2,-2.1 5.2,-5.2 v 0 c 0,-3.1 -2.1,-5.2 -5.2,-5.2 h -3 v 10.5 h 3 z"
         style="fill:#ffffff" /><path
         inkscape:connector-curvature="0"
         id="XMLID_4175_"
         class="st2"
         d="m 439,1763.9 v -13.6 c 0,-1.1 0.8,-1.9 1.9,-1.9 h 9.7 c 0.9,0 1.7,0.8 1.7,1.7 0,0.9 -0.8,1.7 -1.7,1.7 h -7.8 v 3.5 h 6.6 c 0.9,0 1.7,0.8 1.7,1.7 0,0.9 -0.8,1.7 -1.7,1.7 h -6.6 v 3.7 h 7.9 c 0.9,0 1.7,0.8 1.7,1.7 0,0.9 -0.8,1.7 -1.7,1.7 h -9.8 c -1.1,0.1 -1.9,-0.8 -1.9,-1.9 z"
         style="fill:#ffffff" /><path
         inkscape:connector-curvature="0"
         id="XMLID_4172_"
         class="st2"
         d="m 462.3,1757.2 v 0 c 0,-5 3.9,-9.1 9.3,-9.1 5.4,0 9.2,4 9.2,9 v 0.1 c 0,4.9 -3.9,9 -9.3,9 -5.4,0 -9.2,-4.1 -9.2,-9 z m 14.5,0 v 0 c 0,-3 -2.2,-5.5 -5.3,-5.5 -3.1,0 -5.2,2.4 -5.2,5.4 v 0.1 c 0,3 2.2,5.5 5.3,5.5 3.1,0 5.2,-2.5 5.2,-5.5 z"
         style="fill:#ffffff" /><path
         inkscape:connector-curvature="0"
         id="XMLID_4170_"
         class="st2"
         d="m 484.2,1750.4 c 0,-1.1 0.8,-1.9 1.9,-1.9 h 9.8 c 1,0 1.7,0.8 1.7,1.7 0,0.9 -0.8,1.7 -1.7,1.7 h -7.8 v 3.7 h 6.7 c 1,0 1.7,0.8 1.7,1.7 0,1 -0.8,1.7 -1.7,1.7 h -6.7 v 5 c 0,1.1 -0.8,1.9 -1.9,1.9 -1.1,0 -1.9,-0.8 -1.9,-1.9 v -13.6 z"
         style="fill:#ffffff" /><path
         inkscape:connector-curvature="0"
         id="XMLID_4168_"
         class="st2"
         d="m 500.6,1763.9 v -13.6 c 0,-1.1 0.8,-1.9 1.9,-1.9 h 9.7 c 0.9,0 1.7,0.8 1.7,1.7 0,0.9 -0.8,1.7 -1.7,1.7 h -7.8 v 3.5 h 6.6 c 0.9,0 1.7,0.8 1.7,1.7 0,0.9 -0.8,1.7 -1.7,1.7 h -6.6 v 3.7 h 7.9 c 0.9,0 1.7,0.8 1.7,1.7 0,0.9 -0.8,1.7 -1.7,1.7 h -9.8 c -1.1,0.1 -1.9,-0.8 -1.9,-1.9 z"
         style="fill:#ffffff" /><path
         inkscape:connector-curvature="0"
         id="XMLID_4165_"
         class="st2"
         d="m 517.2,1750.4 c 0,-1.1 0.8,-1.9 1.9,-1.9 h 6 c 2.2,0 3.9,0.6 5.1,1.8 1,1 1.5,2.3 1.5,4 v 0.1 c 0,2.7 -1.4,4.4 -3.5,5.3 l 2.7,3.2 c 0.4,0.5 0.6,0.9 0.6,1.5 0,1.1 -0.9,1.8 -1.8,1.8 -0.9,0 -1.4,-0.4 -1.9,-1 l -3.7,-4.7 H 521 v 3.8 c 0,1.1 -0.8,1.9 -1.9,1.9 -1.1,0 -1.9,-0.8 -1.9,-1.9 z m 7.7,6.5 c 1.9,0 2.9,-1 2.9,-2.5 v -0.1 c 0,-1.6 -1.1,-2.5 -3,-2.5 H 521 v 5 h 3.9 z"
         style="fill:#ffffff" /><path
         inkscape:connector-curvature="0"
         id="XMLID_4163_"
         class="st2"
         d="m 539.3,1752 h -3.7 c -1,0 -1.8,-0.8 -1.8,-1.8 0,-1 0.8,-1.8 1.8,-1.8 h 11.2 c 1,0 1.8,0.8 1.8,1.8 0,1 -0.8,1.8 -1.8,1.8 h -3.7 v 12.1 c 0,1.1 -0.8,1.9 -1.9,1.9 -1.1,0 -1.9,-0.8 -1.9,-1.9 z"
         style="fill:#ffffff" /><path
         inkscape:connector-curvature="0"
         id="XMLID_4160_"
         class="st2"
         d="m 548.5,1763.4 6.1,-13.7 c 0.4,-0.9 1.2,-1.5 2.2,-1.5 h 0.2 c 1,0 1.8,0.6 2.2,1.5 l 6.1,13.7 c 0.1,0.3 0.2,0.5 0.2,0.8 0,1 -0.8,1.8 -1.8,1.8 -0.9,0 -1.5,-0.5 -1.8,-1.3 l -1.2,-2.7 H 553 l -1.2,2.9 c -0.3,0.7 -1,1.2 -1.8,1.2 -1,0 -1.8,-0.8 -1.8,-1.8 0.1,-0.4 0.2,-0.6 0.3,-0.9 z m 10.8,-4.8 -2.4,-5.7 -2.4,5.7 z"
         style="fill:#ffffff" /><path
         inkscape:connector-curvature="0"
         id="XMLID_4158_"
         class="st2"
         d="m 568,1764 c -0.4,-0.3 -0.7,-0.8 -0.7,-1.4 0,-1 0.8,-1.8 1.8,-1.8 0.5,0 0.8,0.2 1.1,0.3 1.3,1 2.8,1.6 4.5,1.6 1.6,0 2.5,-0.6 2.5,-1.6 v -0.1 c 0,-1 -0.6,-1.5 -3.5,-2.2 -3.5,-0.9 -5.8,-1.9 -5.8,-5.3 v -0.1 c 0,-3.2 2.5,-5.2 6.1,-5.2 2.1,0 4,0.5 5.5,1.5 0.4,0.2 0.8,0.8 0.8,1.5 0,1 -0.8,1.8 -1.8,1.8 -0.4,0 -0.7,-0.1 -1,-0.3 -1.3,-0.7 -2.5,-1.2 -3.7,-1.2 -1.5,0 -2.2,0.7 -2.2,1.5 v 0 c 0,1.1 0.7,1.5 3.8,2.3 3.5,0.9 5.5,2.2 5.5,5.2 v 0.1 c 0,3.5 -2.6,5.4 -6.4,5.4 -2.2,0.1 -4.5,-0.6 -6.5,-2 z"
         style="fill:#ffffff" /></g></g></svg>