<?xml version="1.0" encoding="UTF-8" standalone="no"?>
<!-- Generator: Adobe Illustrator 19.0.0, SVG Export Plug-In . SVG Version: 6.00 Build 0)  -->

<svg
   xmlns:dc="http://purl.org/dc/elements/1.1/"
   xmlns:cc="http://creativecommons.org/ns#"
   xmlns:rdf="http://www.w3.org/1999/02/22-rdf-syntax-ns#"
   xmlns:svg="http://www.w3.org/2000/svg"
   xmlns="http://www.w3.org/2000/svg"
   xmlns:sodipodi="http://sodipodi.sourceforge.net/DTD/sodipodi-0.dtd"
   xmlns:inkscape="http://www.inkscape.org/namespaces/inkscape"
   version="1.1"
   id="Capa_1"
   x="0px"
   y="0px"
   viewBox="0 0 564.29997 91.400002"
   xml:space="preserve"
   sodipodi:docname="titulo_02.svg"
   inkscape:version="0.92.1 r15371"
   width="564.29999"
   height="91.400002"><metadata
     id="metadata1439"><rdf:RDF><cc:Work
         rdf:about=""><dc:format>image/svg+xml</dc:format><dc:type
           rdf:resource="http://purl.org/dc/dcmitype/StillImage" /><dc:title></dc:title></cc:Work></rdf:RDF></metadata><defs
     id="defs1437" /><sodipodi:namedview
     pagecolor="#ffffff"
     bordercolor="#666666"
     borderopacity="1"
     objecttolerance="10"
     gridtolerance="10"
     guidetolerance="10"
     inkscape:pageopacity="0"
     inkscape:pageshadow="2"
     inkscape:window-width="1920"
     inkscape:window-height="1007"
     id="namedview1435"
     showgrid="false"
     inkscape:zoom="0.89224233"
     inkscape:cx="486.63319"
     inkscape:cy="-35.984343"
     inkscape:window-x="0"
     inkscape:window-y="25"
     inkscape:window-maximized="1"
     inkscape:current-layer="Capa_1"
     fit-margin-top="0"
     fit-margin-left="0"
     fit-margin-right="0"
     fit-margin-bottom="0" /><style
     type="text/css"
     id="style2">
	.st0{fill:#88C1FF;}
	.st1{fill:#2251D6;}
	.st2{fill:#FFFFFF;}
	.st3{fill:#E3E7F5;}
	.st4{fill:#1A3789;}
	.st5{fill:#222221;}
	.st6{fill-rule:evenodd;clip-rule:evenodd;fill:#2251D6;}
	.st7{fill:#FDFFFE;}
	.st8{fill-rule:evenodd;clip-rule:evenodd;fill:#1A3789;}
	.st9{fill:none;stroke:#88C1FF;stroke-width:4;stroke-miterlimit:10;}
	.st10{fill:#6A5588;}
	.st11{fill-rule:evenodd;clip-rule:evenodd;fill:#88C1FF;}
</style><g
     id="XMLID_433_"
     transform="translate(135.99607,-97.11199)" /><style
     id="style2-3"
     type="text/css">
	.st0{fill:#88C1FF;}
	.st1{fill:#2251D6;}
	.st2{fill:#FFFFFF;}
	.st3{fill:#E3E7F5;}
	.st4{fill:#1A3789;}
	.st5{fill:#222221;}
	.st6{fill-rule:evenodd;clip-rule:evenodd;fill:#2251D6;}
	.st7{fill:#FDFFFE;}
	.st8{fill-rule:evenodd;clip-rule:evenodd;fill:#1A3789;}
	.st9{fill:none;stroke:#88C1FF;stroke-width:4;stroke-miterlimit:10;}
	.st10{fill:#6A5588;}
	.st11{fill-rule:evenodd;clip-rule:evenodd;fill:#88C1FF;}
</style><polygon
     transform="translate(-142.3,-940.4)"
     id="XMLID_67_"
     class="st1"
     points="142.3,1019.7 147,1023.5 142.3,1031.8 706.6,1031.8 700.3,1024.7 706.6,1019.7 701.5,1014.3 706.6,1008.9 701.9,1003.5 706.6,998.9 700,994.8 706.6,986.1 142.3,986.1 147,993.5 142.3,998.1 147,1002.3 142.3,1008.5 147,1014.7 "
     style="fill:#2251d6" /><polygon
     transform="translate(-142.3,-938.4)"
     id="XMLID_77_"
     class="st1"
     points="147,977.8 142.3,986.1 706.6,986.1 700.3,979 706.6,974 701.5,968.6 706.6,963.2 701.9,957.8 706.6,953.3 700,949.1 706.6,940.4 142.3,940.4 147,947.9 142.3,952.4 147,956.6 142.3,962.8 147,969 142.3,974 "
     style="fill:#2251d6" /><g
     transform="translate(-142.3,-940.4)"
     id="XMLID_1222_"><path
       inkscape:connector-curvature="0"
       id="XMLID_1223_"
       class="st2"
       d="m 185.8,980.2 v -13.6 c 0,-1.1 0.8,-1.9 1.9,-1.9 h 9.7 c 0.9,0 1.7,0.8 1.7,1.7 0,0.9 -0.8,1.7 -1.7,1.7 h -7.8 v 3.5 h 6.6 c 0.9,0 1.7,0.8 1.7,1.7 0,0.9 -0.8,1.7 -1.7,1.7 h -6.6 v 3.7 h 7.9 c 0.9,0 1.7,0.8 1.7,1.7 0,0.9 -0.8,1.7 -1.7,1.7 h -9.8 c -1.1,0 -1.9,-0.9 -1.9,-1.9 z"
       style="fill:#ffffff" /><path
       inkscape:connector-curvature="0"
       id="XMLID_1225_"
       class="st2"
       d="m 202.4,966.4 c 0,-1.1 0.8,-1.9 1.9,-1.9 1.1,0 1.9,0.8 1.9,1.9 v 12.2 h 7.1 c 1,0 1.7,0.8 1.7,1.7 0,0.9 -0.8,1.7 -1.7,1.7 h -9 c -1.1,0 -1.9,-0.8 -1.9,-1.9 z"
       style="fill:#ffffff" /><path
       inkscape:connector-curvature="0"
       id="XMLID_1227_"
       class="st2"
       d="m 216.9,979.6 6.1,-13.7 c 0.4,-0.9 1.2,-1.5 2.2,-1.5 h 0.2 c 1,0 1.8,0.6 2.2,1.5 l 6.1,13.7 c 0.1,0.3 0.2,0.5 0.2,0.8 0,1 -0.8,1.8 -1.8,1.8 -0.9,0 -1.5,-0.5 -1.8,-1.3 l -1.2,-2.7 h -7.7 l -1.2,2.9 c -0.3,0.7 -1,1.2 -1.8,1.2 -1,0 -1.8,-0.8 -1.8,-1.8 0,-0.3 0.1,-0.6 0.3,-0.9 z m 10.7,-4.8 -2.4,-5.7 -2.4,5.7 z"
       style="fill:#ffffff" /><path
       inkscape:connector-curvature="0"
       id="XMLID_1230_"
       class="st2"
       d="m 236.9,966.6 c 0,-1.1 0.8,-1.9 1.9,-1.9 h 6.2 c 2,0 3.6,0.5 4.6,1.5 0.8,0.8 1.2,1.8 1.2,3 v 0 c 0,2 -1,3.1 -2.3,3.8 2,0.8 3.3,1.9 3.3,4.3 v 0 c 0,3.2 -2.6,4.8 -6.5,4.8 h -6.4 c -1.1,0 -1.9,-0.8 -1.9,-1.9 v -13.6 z m 7.2,5.1 c 1.7,0 2.8,-0.5 2.8,-1.8 v 0 c 0,-1.1 -0.9,-1.8 -2.5,-1.8 h -3.8 v 3.7 h 3.5 z m 1.1,7 c 1.7,0 2.7,-0.6 2.7,-1.9 v 0 c 0,-1.2 -0.9,-1.9 -2.8,-1.9 h -4.4 v 3.8 z"
       style="fill:#ffffff" /><path
       inkscape:connector-curvature="0"
       id="XMLID_1234_"
       class="st2"
       d="m 254.1,973.4 v 0 c 0,-5 3.9,-9.1 9.3,-9.1 5.4,0 9.2,4 9.2,9 v 0 c 0,4.9 -3.9,9 -9.3,9 -5.4,0 -9.2,-3.9 -9.2,-8.9 z m 14.5,0 v 0 c 0,-3 -2.2,-5.5 -5.3,-5.5 -3.1,0 -5.2,2.4 -5.2,5.4 v 0 c 0,3 2.2,5.5 5.3,5.5 3.1,0 5.2,-2.4 5.2,-5.4 z"
       style="fill:#ffffff" /><path
       inkscape:connector-curvature="0"
       id="XMLID_1237_"
       class="st2"
       d="m 276,966.6 c 0,-1.1 0.8,-1.9 1.9,-1.9 h 6 c 2.2,0 3.9,0.6 5.1,1.8 1,1 1.5,2.3 1.5,4 v 0 c 0,2.7 -1.4,4.4 -3.5,5.3 l 2.7,3.2 c 0.4,0.5 0.6,0.9 0.6,1.5 0,1.1 -0.9,1.8 -1.8,1.8 -0.9,0 -1.4,-0.4 -1.9,-1 l -3.7,-4.7 h -3.1 v 3.8 c 0,1.1 -0.8,1.9 -1.9,1.9 -1.1,0 -1.9,-0.8 -1.9,-1.9 z m 7.7,6.5 c 1.9,0 2.9,-1 2.9,-2.5 v 0 c 0,-1.6 -1.1,-2.5 -3,-2.5 h -3.8 v 5 z"
       style="fill:#ffffff" /><path
       inkscape:connector-curvature="0"
       id="XMLID_1240_"
       class="st2"
       d="m 293,979.6 6.1,-13.7 c 0.4,-0.9 1.2,-1.5 2.2,-1.5 h 0.2 c 1,0 1.8,0.6 2.2,1.5 l 6.1,13.7 c 0.1,0.3 0.2,0.5 0.2,0.8 0,1 -0.8,1.8 -1.8,1.8 -0.9,0 -1.5,-0.5 -1.8,-1.3 l -1.2,-2.7 h -7.7 l -1.2,2.9 c -0.3,0.7 -1,1.2 -1.8,1.2 -1,0 -1.8,-0.8 -1.8,-1.8 0.1,-0.3 0.2,-0.6 0.3,-0.9 z m 10.8,-4.8 -2.4,-5.7 -2.4,5.7 z"
       style="fill:#ffffff" /><path
       inkscape:connector-curvature="0"
       id="XMLID_1243_"
       class="st2"
       d="m 311.6,973.4 v 0 c 0,-5 3.7,-9.1 9.1,-9.1 2.6,0 4.4,0.7 5.8,1.8 0.4,0.3 0.7,0.8 0.7,1.5 0,1 -0.8,1.9 -1.9,1.9 -0.5,0 -0.9,-0.2 -1.1,-0.4 -1.1,-0.8 -2.2,-1.2 -3.6,-1.2 -2.9,0 -5,2.4 -5,5.4 v 0 c 0,3 2.1,5.5 5,5.5 1.6,0 2.7,-0.5 3.8,-1.4 0.3,-0.2 0.7,-0.4 1.1,-0.4 1,0 1.8,0.8 1.8,1.8 0,0.6 -0.3,1.1 -0.6,1.4 -1.6,1.4 -3.4,2.2 -6.2,2.2 -5.1,0 -8.9,-4 -8.9,-9 z"
       style="fill:#ffffff" /><path
       inkscape:connector-curvature="0"
       id="XMLID_1245_"
       class="st2"
       d="m 330.9,966.4 c 0,-1.1 0.8,-1.9 1.9,-1.9 1.1,0 1.9,0.8 1.9,1.9 v 13.9 c 0,1.1 -0.8,1.9 -1.9,1.9 -1.1,0 -1.9,-0.8 -1.9,-1.9 z"
       style="fill:#ffffff" /><path
       inkscape:connector-curvature="0"
       id="XMLID_1247_"
       class="st2"
       d="m 338.3,973.4 v 0 c 0,-5 3.9,-9.1 9.3,-9.1 5.4,0 9.2,4 9.2,9 v 0 c 0,4.9 -3.9,9 -9.3,9 -5.3,0.1 -9.2,-3.9 -9.2,-8.9 z m 14.5,0 v 0 c 0,-3 -2.2,-5.5 -5.3,-5.5 -3.1,0 -5.2,2.4 -5.2,5.4 v 0 c 0,3 2.2,5.5 5.3,5.5 3.1,0 5.2,-2.4 5.2,-5.4 z m -6.2,-10.9 c 0,-0.2 0.1,-0.5 0.2,-0.7 l 1.4,-2.1 c 0.3,-0.5 0.8,-0.8 1.4,-0.8 0.9,0 2.1,0.6 2.1,1.1 0,0.3 -0.2,0.6 -0.5,0.9 l -1.5,1.4 c -0.7,0.7 -1.3,0.8 -2.2,0.8 -0.5,0.1 -0.9,-0.2 -0.9,-0.6 z"
       style="fill:#ffffff" /><path
       inkscape:connector-curvature="0"
       id="XMLID_1251_"
       class="st2"
       d="m 360.3,966.5 c 0,-1.1 0.8,-1.9 1.9,-1.9 h 0.4 c 0.9,0 1.5,0.4 2,1.1 l 7.4,9.7 v -9 c 0,-1 0.8,-1.9 1.9,-1.9 1,0 1.9,0.8 1.9,1.9 v 13.9 c 0,1.1 -0.8,1.9 -1.9,1.9 h -0.1 c -0.9,0 -1.5,-0.4 -2,-1.1 l -7.7,-10 v 9.3 c 0,1 -0.8,1.9 -1.9,1.9 -1.1,0 -1.9,-0.8 -1.9,-1.9 z"
       style="fill:#ffffff" /><path
       inkscape:connector-curvature="0"
       id="XMLID_1253_"
       class="st2"
       d="m 387.4,966.6 c 0,-1.1 0.8,-1.9 1.9,-1.9 h 4.9 c 5.5,0 9.3,3.8 9.3,8.7 v 0 c 0,4.9 -3.8,8.7 -9.3,8.7 h -4.9 c -1.1,0 -1.9,-0.8 -1.9,-1.9 z m 6.8,12 c 3.1,0 5.2,-2.1 5.2,-5.2 v 0 c 0,-3.1 -2.1,-5.2 -5.2,-5.2 h -3 v 10.5 h 3 z"
       style="fill:#ffffff" /><path
       inkscape:connector-curvature="0"
       id="XMLID_1256_"
       class="st2"
       d="m 406.8,980.2 v -13.6 c 0,-1.1 0.8,-1.9 1.9,-1.9 h 9.7 c 0.9,0 1.7,0.8 1.7,1.7 0,0.9 -0.8,1.7 -1.7,1.7 h -7.8 v 3.5 h 6.6 c 0.9,0 1.7,0.8 1.7,1.7 0,0.9 -0.8,1.7 -1.7,1.7 h -6.6 v 3.7 h 7.9 c 0.9,0 1.7,0.8 1.7,1.7 0,0.9 -0.8,1.7 -1.7,1.7 h -9.8 c -1,0 -1.9,-0.9 -1.9,-1.9 z"
       style="fill:#ffffff" /><path
       inkscape:connector-curvature="0"
       id="XMLID_1258_"
       class="st2"
       d="m 431,966.6 c 0,-1.1 0.8,-1.9 1.9,-1.9 h 5.2 c 4.2,0 6.7,2.5 6.7,6 v 0 c 0,4 -3.1,6.1 -7,6.1 h -2.9 v 3.5 c 0,1.1 -0.8,1.9 -1.9,1.9 -1.1,0 -1.9,-0.8 -1.9,-1.9 v -13.7 z m 6.8,6.8 c 1.9,0 3,-1.1 3,-2.6 v 0 c 0,-1.7 -1.2,-2.6 -3.1,-2.6 h -3 v 5.3 h 3.1 z"
       style="fill:#ffffff" /><path
       inkscape:connector-curvature="0"
       id="XMLID_1261_"
       class="st2"
       d="m 447.6,966.6 c 0,-1.1 0.8,-1.9 1.9,-1.9 h 6.2 c 2,0 3.6,0.5 4.6,1.5 0.8,0.8 1.2,1.8 1.2,3 v 0 c 0,2 -1,3.1 -2.3,3.8 2,0.8 3.3,1.9 3.3,4.3 v 0 c 0,3.2 -2.6,4.8 -6.5,4.8 h -6.4 c -1.1,0 -1.9,-0.8 -1.9,-1.9 v -13.6 z m 7.2,5.1 c 1.7,0 2.8,-0.5 2.8,-1.8 v 0 c 0,-1.1 -0.9,-1.8 -2.5,-1.8 h -3.8 v 3.7 h 3.5 z m 1.1,7 c 1.7,0 2.7,-0.6 2.7,-1.9 v 0 c 0,-1.2 -0.9,-1.9 -2.8,-1.9 h -4.4 v 3.8 z"
       style="fill:#ffffff" /><path
       inkscape:connector-curvature="0"
       id="XMLID_1265_"
       class="st2"
       d="m 464.8,973.4 v 0 c 0,-5 3.7,-9.1 9.1,-9.1 2.6,0 4.4,0.7 5.8,1.8 0.4,0.3 0.7,0.8 0.7,1.5 0,1 -0.8,1.9 -1.9,1.9 -0.5,0 -0.9,-0.2 -1.1,-0.4 -1.1,-0.8 -2.2,-1.2 -3.6,-1.2 -2.9,0 -5,2.4 -5,5.4 v 0 c 0,3 2.1,5.5 5,5.5 1.6,0 2.7,-0.5 3.8,-1.4 0.3,-0.2 0.7,-0.4 1.1,-0.4 1,0 1.8,0.8 1.8,1.8 0,0.6 -0.3,1.1 -0.6,1.4 -1.6,1.4 -3.4,2.2 -6.2,2.2 -5.1,0 -8.9,-4 -8.9,-9 z"
       style="fill:#ffffff" /><path
       inkscape:connector-curvature="0"
       id="XMLID_1267_"
       class="st2"
       d="m 483.9,966.6 c 0,-1.1 0.8,-1.9 1.9,-1.9 h 5.2 c 4.2,0 6.7,2.5 6.7,6 v 0 c 0,4 -3.1,6.1 -7,6.1 h -2.9 v 3.5 c 0,1.1 -0.8,1.9 -1.9,1.9 -1.1,0 -1.9,-0.8 -1.9,-1.9 v -13.7 z m 6.9,6.8 c 1.9,0 3,-1.1 3,-2.6 v 0 c 0,-1.7 -1.2,-2.6 -3.1,-2.6 h -3 v 5.3 h 3.1 z"
       style="fill:#ffffff" /><path
       inkscape:connector-curvature="0"
       id="XMLID_1270_"
       class="st2"
       d="m 513.5,985.2 c -4.1,-2.5 -6.2,-5.7 -6.2,-10.2 0,-4.5 2.1,-7.8 6.2,-10.2 0.1,-0.1 0.5,-0.2 0.9,-0.2 0.7,0 1.4,0.8 1.4,1.5 0,0.6 -0.3,1 -0.6,1.2 -2.9,2.2 -4.2,4.4 -4.2,7.7 0,3.3 1.3,5.5 4.2,7.7 0.3,0.2 0.6,0.6 0.6,1.2 0,0.8 -0.7,1.5 -1.4,1.5 -0.4,0 -0.7,-0.1 -0.9,-0.2 z"
       style="fill:#ffffff" /><path
       inkscape:connector-curvature="0"
       id="XMLID_1272_"
       class="st2"
       d="m 519,966.6 c 0,-1.1 0.8,-1.9 1.9,-1.9 h 5.2 c 4.2,0 6.7,2.5 6.7,6 v 0 c 0,4 -3.1,6.1 -7,6.1 h -2.9 v 3.5 c 0,1.1 -0.8,1.9 -1.9,1.9 -1.1,0 -1.9,-0.8 -1.9,-1.9 v -13.7 z m 6.9,6.8 c 1.9,0 3,-1.1 3,-2.6 v 0 c 0,-1.7 -1.2,-2.6 -3.1,-2.6 h -3 v 5.3 h 3.1 z"
       style="fill:#ffffff" /><path
       inkscape:connector-curvature="0"
       id="XMLID_1275_"
       class="st2"
       d="m 535.7,966.4 c 0,-1.1 0.8,-1.9 1.9,-1.9 1.1,0 1.9,0.8 1.9,1.9 v 12.2 h 7.1 c 1,0 1.7,0.8 1.7,1.7 0,0.9 -0.8,1.7 -1.7,1.7 h -9 c -1.1,0 -1.9,-0.8 -1.9,-1.9 z"
       style="fill:#ffffff" /><path
       inkscape:connector-curvature="0"
       id="XMLID_1277_"
       class="st2"
       d="m 551.2,966.4 c 0,-1.1 0.8,-1.9 1.9,-1.9 1.1,0 1.9,0.8 1.9,1.9 v 13.9 c 0,1.1 -0.8,1.9 -1.9,1.9 -1.1,0 -1.9,-0.8 -1.9,-1.9 z"
       style="fill:#ffffff" /><path
       inkscape:connector-curvature="0"
       id="XMLID_1279_"
       class="st2"
       d="m 559.4,980.2 v -13.6 c 0,-1.1 0.8,-1.9 1.9,-1.9 h 9.7 c 0.9,0 1.7,0.8 1.7,1.7 0,0.9 -0.8,1.7 -1.7,1.7 h -7.8 v 3.5 h 6.6 c 0.9,0 1.7,0.8 1.7,1.7 0,0.9 -0.8,1.7 -1.7,1.7 h -6.6 v 3.7 h 7.9 c 0.9,0 1.7,0.8 1.7,1.7 0,0.9 -0.8,1.7 -1.7,1.7 h -9.8 c -1,0 -1.9,-0.9 -1.9,-1.9 z"
       style="fill:#ffffff" /><path
       inkscape:connector-curvature="0"
       id="XMLID_1281_"
       class="st2"
       d="m 575.3,973.4 v 0 c 0,-5 3.9,-9.1 9.1,-9.1 2.6,0 4.4,0.6 5.9,1.7 0.4,0.3 0.8,0.8 0.8,1.5 0,1 -0.8,1.9 -1.9,1.9 -0.5,0 -0.9,-0.2 -1.2,-0.4 -1,-0.7 -2.2,-1.2 -3.8,-1.2 -2.8,0 -5,2.5 -5,5.4 v 0 c 0,3.2 2.2,5.5 5.3,5.5 1.4,0 2.6,-0.3 3.6,-1 v -2.5 h -2.6 c -0.9,0 -1.7,-0.7 -1.7,-1.6 0,-0.9 0.7,-1.7 1.7,-1.7 h 4.4 c 1.1,0 1.9,0.8 1.9,1.9 v 4.2 c 0,1.1 -0.4,1.9 -1.3,2.4 -1.4,0.9 -3.5,1.7 -6.1,1.7 -5.4,0.3 -9.1,-3.5 -9.1,-8.7 z"
       style="fill:#ffffff" /><path
       inkscape:connector-curvature="0"
       id="XMLID_1283_"
       class="st2"
       d="m 594.8,973.4 v 0 c 0,-5 3.9,-9.1 9.3,-9.1 5.4,0 9.2,4 9.2,9 v 0 c 0,4.9 -3.9,9 -9.3,9 -5.3,0.1 -9.2,-3.9 -9.2,-8.9 z m 14.5,0 v 0 c 0,-3 -2.2,-5.5 -5.3,-5.5 -3.1,0 -5.2,2.4 -5.2,5.4 v 0 c 0,3 2.2,5.5 5.3,5.5 3.1,0 5.2,-2.4 5.2,-5.4 z"
       style="fill:#ffffff" /><path
       inkscape:connector-curvature="0"
       id="XMLID_1286_"
       class="st2"
       d="m 624.2,966.6 c 0,-1.1 0.8,-1.9 1.9,-1.9 h 4.9 c 5.5,0 9.3,3.8 9.3,8.7 v 0 c 0,4.9 -3.8,8.7 -9.3,8.7 h -4.9 c -1.1,0 -1.9,-0.8 -1.9,-1.9 z m 6.8,12 c 3.1,0 5.2,-2.1 5.2,-5.2 v 0 c 0,-3.1 -2.1,-5.2 -5.2,-5.2 h -3 v 10.5 h 3 z"
       style="fill:#ffffff" /><path
       inkscape:connector-curvature="0"
       id="XMLID_1293_"
       class="st2"
       d="m 643.6,980.2 v -13.6 c 0,-1.1 0.8,-1.9 1.9,-1.9 h 9.7 c 0.9,0 1.7,0.8 1.7,1.7 0,0.9 -0.8,1.7 -1.7,1.7 h -7.8 v 3.5 h 6.6 c 0.9,0 1.7,0.8 1.7,1.7 0,0.9 -0.8,1.7 -1.7,1.7 h -6.6 v 3.7 h 7.9 c 0.9,0 1.7,0.8 1.7,1.7 0,0.9 -0.8,1.7 -1.7,1.7 h -9.8 c -1,0 -1.9,-0.9 -1.9,-1.9 z"
       style="fill:#ffffff" /><path
       inkscape:connector-curvature="0"
       id="XMLID_1295_"
       class="st2"
       d="m 162.2,996.4 c 0,-1.1 0.8,-1.9 1.9,-1.9 h 6.2 c 2,0 3.6,0.5 4.6,1.5 0.8,0.8 1.2,1.8 1.2,3 v 0 c 0,2 -1,3.1 -2.3,3.8 2,0.8 3.3,1.9 3.3,4.3 v 0 c 0,3.2 -2.6,4.8 -6.5,4.8 h -6.4 c -1.1,0 -1.9,-0.8 -1.9,-1.9 v -13.6 z m 7.3,5.1 c 1.7,0 2.8,-0.5 2.8,-1.8 v 0 c 0,-1.1 -0.9,-1.8 -2.5,-1.8 H 166 v 3.7 h 3.5 z m 1,7.1 c 1.7,0 2.7,-0.6 2.7,-1.9 v 0 c 0,-1.2 -0.9,-1.9 -2.8,-1.9 H 166 v 3.8 z"
       style="fill:#ffffff" /><path
       inkscape:connector-curvature="0"
       id="XMLID_1299_"
       class="st2"
       d="m 179.2,1009.5 6.1,-13.7 c 0.4,-0.9 1.2,-1.5 2.2,-1.5 h 0.2 c 1,0 1.8,0.6 2.2,1.5 l 6.1,13.7 c 0.1,0.3 0.2,0.5 0.2,0.8 0,1 -0.8,1.8 -1.8,1.8 -0.9,0 -1.5,-0.5 -1.8,-1.3 l -1.2,-2.7 h -7.7 l -1.2,2.9 c -0.3,0.7 -1,1.2 -1.8,1.2 -1,0 -1.8,-0.8 -1.8,-1.8 0.1,-0.4 0.2,-0.7 0.3,-0.9 z m 10.8,-4.9 -2.4,-5.7 -2.4,5.7 z"
       style="fill:#ffffff" /><path
       inkscape:connector-curvature="0"
       id="XMLID_1302_"
       class="st2"
       d="m 198.8,1010.1 c -0.4,-0.3 -0.7,-0.8 -0.7,-1.4 0,-1 0.8,-1.8 1.8,-1.8 0.5,0 0.8,0.2 1.1,0.3 1.3,1 2.8,1.6 4.5,1.6 1.6,0 2.5,-0.6 2.5,-1.6 v 0 c 0,-1 -0.6,-1.5 -3.5,-2.2 -3.5,-0.9 -5.8,-1.9 -5.8,-5.3 v 0 c 0,-3.2 2.5,-5.2 6.1,-5.2 2.1,0 4,0.5 5.5,1.5 0.4,0.2 0.8,0.8 0.8,1.5 0,1 -0.8,1.8 -1.8,1.8 -0.4,0 -0.7,-0.1 -1,-0.3 -1.3,-0.7 -2.5,-1.2 -3.7,-1.2 -1.5,0 -2.2,0.7 -2.2,1.5 v 0 c 0,1.1 0.7,1.5 3.8,2.3 3.5,0.9 5.5,2.2 5.5,5.2 v 0 c 0,3.5 -2.6,5.4 -6.4,5.4 -2.3,0 -4.6,-0.7 -6.5,-2.1 z"
       style="fill:#ffffff" /><path
       inkscape:connector-curvature="0"
       id="XMLID_1304_"
       class="st2"
       d="m 215,1010 v -13.6 c 0,-1.1 0.8,-1.9 1.9,-1.9 h 9.7 c 0.9,0 1.7,0.8 1.7,1.7 0,0.9 -0.8,1.7 -1.7,1.7 h -7.8 v 3.5 h 6.6 c 0.9,0 1.7,0.8 1.7,1.7 0,0.9 -0.8,1.7 -1.7,1.7 h -6.6 v 3.7 h 7.9 c 0.9,0 1.7,0.8 1.7,1.7 0,0.9 -0.8,1.7 -1.7,1.7 H 217 c -1.1,0 -2,-0.8 -2,-1.9 z"
       style="fill:#ffffff" /><path
       inkscape:connector-curvature="0"
       id="XMLID_1306_"
       class="st2"
       d="m 231.4,1010.1 c -0.4,-0.3 -0.7,-0.8 -0.7,-1.4 0,-1 0.8,-1.8 1.8,-1.8 0.5,0 0.8,0.2 1.1,0.3 1.3,1 2.8,1.6 4.5,1.6 1.6,0 2.5,-0.6 2.5,-1.6 v 0 c 0,-1 -0.6,-1.5 -3.5,-2.2 -3.5,-0.9 -5.8,-1.9 -5.8,-5.3 v 0 c 0,-3.2 2.5,-5.2 6.1,-5.2 2.1,0 4,0.5 5.5,1.5 0.4,0.2 0.8,0.8 0.8,1.5 0,1 -0.8,1.8 -1.8,1.8 -0.4,0 -0.7,-0.1 -1,-0.3 -1.3,-0.7 -2.5,-1.2 -3.7,-1.2 -1.5,0 -2.2,0.7 -2.2,1.5 v 0 c 0,1.1 0.7,1.5 3.8,2.3 3.5,0.9 5.5,2.2 5.5,5.2 v 0 c 0,3.5 -2.6,5.4 -6.4,5.4 -2.3,0 -4.6,-0.7 -6.5,-2.1 z"
       style="fill:#ffffff" /><path
       inkscape:connector-curvature="0"
       id="XMLID_1308_"
       class="st2"
       d="m 259.6,1005.2 -5.6,-7.6 c -0.3,-0.4 -0.5,-0.8 -0.5,-1.4 0,-1 0.8,-1.8 1.9,-1.8 0.9,0 1.4,0.5 1.9,1.2 l 4.2,6.1 4.3,-6.1 c 0.5,-0.7 1,-1.1 1.8,-1.1 1.2,0 1.9,0.8 1.9,1.9 0,0.5 -0.2,1 -0.5,1.3 l -5.6,7.6 v 5 c 0,1.1 -0.8,1.9 -1.9,1.9 -1.1,0 -1.9,-0.8 -1.9,-1.9 z"
       style="fill:#ffffff" /><path
       inkscape:connector-curvature="0"
       id="XMLID_1310_"
       class="st2"
       d="m 278.9,1003.3 v 0 c 0,-5 3.7,-9.1 9.1,-9.1 2.6,0 4.4,0.7 5.8,1.8 0.4,0.3 0.7,0.8 0.7,1.5 0,1 -0.8,1.9 -1.9,1.9 -0.5,0 -0.9,-0.2 -1.1,-0.4 -1.1,-0.8 -2.2,-1.2 -3.6,-1.2 -2.9,0 -5,2.4 -5,5.4 v 0 c 0,3 2.1,5.5 5,5.5 1.6,0 2.7,-0.5 3.8,-1.4 0.3,-0.2 0.7,-0.4 1.1,-0.4 1,0 1.8,0.8 1.8,1.8 0,0.6 -0.3,1.1 -0.6,1.4 -1.6,1.4 -3.4,2.2 -6.2,2.2 -5.1,-0.1 -8.9,-4 -8.9,-9 z"
       style="fill:#ffffff" /><path
       inkscape:connector-curvature="0"
       id="XMLID_1312_"
       class="st2"
       d="m 296.8,1003.3 v 0 c 0,-5 3.9,-9.1 9.3,-9.1 5.4,0 9.2,4 9.2,9 v 0 c 0,4.9 -3.9,9 -9.3,9 -5.4,0 -9.2,-4 -9.2,-8.9 z m 14.5,0 v 0 c 0,-3 -2.2,-5.5 -5.3,-5.5 -3.1,0 -5.2,2.4 -5.2,5.4 v 0 c 0,3 2.2,5.5 5.3,5.5 3.1,0 5.2,-2.5 5.2,-5.4 z"
       style="fill:#ffffff" /><path
       inkscape:connector-curvature="0"
       id="XMLID_1316_"
       class="st2"
       d="m 318.7,996.3 c 0,-1.1 0.8,-1.9 1.9,-1.9 h 0.4 c 0.9,0 1.5,0.4 2,1.1 l 7.4,9.7 v -9 c 0,-1 0.8,-1.9 1.9,-1.9 1,0 1.9,0.8 1.9,1.9 v 13.9 c 0,1.1 -0.8,1.9 -1.9,1.9 h -0.1 c -0.9,0 -1.5,-0.4 -2,-1.1 l -7.7,-10 v 9.3 c 0,1 -0.8,1.9 -1.9,1.9 -1.1,0 -1.9,-0.8 -1.9,-1.9 z"
       style="fill:#ffffff" /><path
       inkscape:connector-curvature="0"
       id="XMLID_1319_"
       class="st2"
       d="m 338.3,996.4 c 0,-1.1 0.8,-1.9 1.9,-1.9 h 4.9 c 5.5,0 9.3,3.8 9.3,8.7 v 0 c 0,4.9 -3.8,8.7 -9.3,8.7 h -4.9 c -1.1,0 -1.9,-0.8 -1.9,-1.9 z m 6.8,12.1 c 3.1,0 5.2,-2.1 5.2,-5.2 v 0 c 0,-3.1 -2.1,-5.2 -5.2,-5.2 h -3 v 10.5 h 3 z"
       style="fill:#ffffff" /><path
       inkscape:connector-curvature="0"
       id="XMLID_1324_"
       class="st2"
       d="m 357.9,996.3 c 0,-1.1 0.8,-1.9 1.9,-1.9 1.1,0 1.9,0.8 1.9,1.9 v 13.9 c 0,1.1 -0.8,1.9 -1.9,1.9 -1.1,0 -1.9,-0.8 -1.9,-1.9 z"
       style="fill:#ffffff" /><path
       inkscape:connector-curvature="0"
       id="XMLID_1326_"
       class="st2"
       d="m 365.4,1003.3 v 0 c 0,-5 3.7,-9.1 9.1,-9.1 2.6,0 4.4,0.7 5.8,1.8 0.4,0.3 0.7,0.8 0.7,1.5 0,1 -0.8,1.9 -1.9,1.9 -0.5,0 -0.9,-0.2 -1.1,-0.4 -1.1,-0.8 -2.2,-1.2 -3.6,-1.2 -2.9,0 -5,2.4 -5,5.4 v 0 c 0,3 2.1,5.5 5,5.5 1.6,0 2.7,-0.5 3.8,-1.4 0.3,-0.2 0.7,-0.4 1.1,-0.4 1,0 1.8,0.8 1.8,1.8 0,0.6 -0.3,1.1 -0.6,1.4 -1.6,1.4 -3.4,2.2 -6.2,2.2 -5.1,-0.1 -8.9,-4 -8.9,-9 z"
       style="fill:#ffffff" /><path
       inkscape:connector-curvature="0"
       id="XMLID_1328_"
       class="st2"
       d="m 384.7,996.3 c 0,-1.1 0.8,-1.9 1.9,-1.9 1.1,0 1.9,0.8 1.9,1.9 v 13.9 c 0,1.1 -0.8,1.9 -1.9,1.9 -1.1,0 -1.9,-0.8 -1.9,-1.9 z"
       style="fill:#ffffff" /><path
       inkscape:connector-curvature="0"
       id="XMLID_1330_"
       class="st2"
       d="m 392.1,1003.3 v 0 c 0,-5 3.9,-9.1 9.3,-9.1 5.4,0 9.2,4 9.2,9 v 0 c 0,4.9 -3.9,9 -9.3,9 -5.4,0 -9.2,-4 -9.2,-8.9 z m 14.5,0 v 0 c 0,-3 -2.2,-5.5 -5.3,-5.5 -3.1,0 -5.2,2.4 -5.2,5.4 v 0 c 0,3 2.2,5.5 5.3,5.5 3.1,0 5.2,-2.5 5.2,-5.4 z"
       style="fill:#ffffff" /><path
       inkscape:connector-curvature="0"
       id="XMLID_1333_"
       class="st2"
       d="m 414,996.3 c 0,-1.1 0.8,-1.9 1.9,-1.9 h 0.4 c 0.9,0 1.5,0.4 2,1.1 l 7.4,9.7 v -9 c 0,-1 0.8,-1.9 1.9,-1.9 1,0 1.9,0.8 1.9,1.9 v 13.9 c 0,1.1 -0.8,1.9 -1.9,1.9 h -0.1 c -0.9,0 -1.5,-0.4 -2,-1.1 l -7.7,-10 v 9.3 c 0,1 -0.8,1.9 -1.9,1.9 -1.1,0 -1.9,-0.8 -1.9,-1.9 z"
       style="fill:#ffffff" /><path
       inkscape:connector-curvature="0"
       id="XMLID_1335_"
       class="st2"
       d="m 433.6,1010 v -13.6 c 0,-1.1 0.8,-1.9 1.9,-1.9 h 9.7 c 0.9,0 1.7,0.8 1.7,1.7 0,0.9 -0.8,1.7 -1.7,1.7 h -7.8 v 3.5 h 6.6 c 0.9,0 1.7,0.8 1.7,1.7 0,0.9 -0.8,1.7 -1.7,1.7 h -6.6 v 3.7 h 7.9 c 0.9,0 1.7,0.8 1.7,1.7 0,0.9 -0.8,1.7 -1.7,1.7 h -9.8 c -1,0 -1.9,-0.8 -1.9,-1.9 z"
       style="fill:#ffffff" /><path
       inkscape:connector-curvature="0"
       id="XMLID_1337_"
       class="st2"
       d="m 450,1010.1 c -0.4,-0.3 -0.7,-0.8 -0.7,-1.4 0,-1 0.8,-1.8 1.8,-1.8 0.5,0 0.8,0.2 1.1,0.3 1.3,1 2.8,1.6 4.5,1.6 1.6,0 2.5,-0.6 2.5,-1.6 v 0 c 0,-1 -0.6,-1.5 -3.5,-2.2 -3.5,-0.9 -5.8,-1.9 -5.8,-5.3 v 0 c 0,-3.2 2.5,-5.2 6.1,-5.2 2.1,0 4,0.5 5.5,1.5 0.4,0.2 0.8,0.8 0.8,1.5 0,1 -0.8,1.8 -1.8,1.8 -0.4,0 -0.7,-0.1 -1,-0.3 -1.3,-0.7 -2.5,-1.2 -3.7,-1.2 -1.5,0 -2.2,0.7 -2.2,1.5 v 0 c 0,1.1 0.7,1.5 3.8,2.3 3.5,0.9 5.5,2.2 5.5,5.2 v 0 c 0,3.5 -2.6,5.4 -6.4,5.4 -2.3,0 -4.6,-0.7 -6.5,-2.1 z"
       style="fill:#ffffff" /><path
       inkscape:connector-curvature="0"
       id="XMLID_1339_"
       class="st2"
       d="m 473.7,996.4 c 0,-1.1 0.8,-1.9 1.9,-1.9 h 5.2 c 4.2,0 6.7,2.5 6.7,6 v 0 c 0,4 -3.1,6.1 -7,6.1 h -2.9 v 3.5 c 0,1.1 -0.8,1.9 -1.9,1.9 -1.1,0 -1.9,-0.8 -1.9,-1.9 v -13.7 z m 6.9,6.9 c 1.9,0 3,-1.1 3,-2.6 v 0 c 0,-1.7 -1.2,-2.6 -3.1,-2.6 h -3 v 5.3 h 3.1 z"
       style="fill:#ffffff" /><path
       inkscape:connector-curvature="0"
       id="XMLID_1342_"
       class="st2"
       d="m 488.1,1009.5 6.1,-13.7 c 0.4,-0.9 1.2,-1.5 2.2,-1.5 h 0.2 c 1,0 1.8,0.6 2.2,1.5 l 6.1,13.7 c 0.1,0.3 0.2,0.5 0.2,0.8 0,1 -0.8,1.8 -1.8,1.8 -0.9,0 -1.5,-0.5 -1.8,-1.3 l -1.2,-2.7 h -7.7 l -1.2,2.9 c -0.3,0.7 -1,1.2 -1.8,1.2 -1,0 -1.8,-0.8 -1.8,-1.8 0.1,-0.4 0.2,-0.7 0.3,-0.9 z m 10.8,-4.9 -2.4,-5.7 -2.4,5.7 z"
       style="fill:#ffffff" /><path
       inkscape:connector-curvature="0"
       id="XMLID_1345_"
       class="st2"
       d="m 508.1,996.4 c 0,-1.1 0.8,-1.9 1.9,-1.9 h 6 c 2.2,0 3.9,0.6 5.1,1.8 1,1 1.5,2.3 1.5,4 v 0 c 0,2.7 -1.4,4.4 -3.5,5.3 l 2.7,3.2 c 0.4,0.5 0.6,0.9 0.6,1.5 0,1.1 -0.9,1.8 -1.8,1.8 -0.9,0 -1.4,-0.4 -1.9,-1 l -3.7,-4.7 h -3.1 v 3.8 c 0,1.1 -0.8,1.9 -1.9,1.9 -1.1,0 -1.9,-0.8 -1.9,-1.9 z m 7.7,6.6 c 1.9,0 2.9,-1 2.9,-2.5 v 0 c 0,-1.6 -1.1,-2.5 -3,-2.5 h -3.8 v 5 z"
       style="fill:#ffffff" /><path
       inkscape:connector-curvature="0"
       id="XMLID_1348_"
       class="st2"
       d="m 530.2,998 h -3.7 c -1,0 -1.8,-0.8 -1.8,-1.8 0,-1 0.8,-1.8 1.8,-1.8 h 11.2 c 1,0 1.8,0.8 1.8,1.8 0,1 -0.8,1.8 -1.8,1.8 H 534 v 12.1 c 0,1.1 -0.8,1.9 -1.9,1.9 -1.1,0 -1.9,-0.8 -1.9,-1.9 z"
       style="fill:#ffffff" /><path
       inkscape:connector-curvature="0"
       id="XMLID_1351_"
       class="st2"
       d="m 542.4,996.3 c 0,-1.1 0.8,-1.9 1.9,-1.9 1.1,0 1.9,0.8 1.9,1.9 v 13.9 c 0,1.1 -0.8,1.9 -1.9,1.9 -1.1,0 -1.9,-0.8 -1.9,-1.9 z"
       style="fill:#ffffff" /><path
       inkscape:connector-curvature="0"
       id="XMLID_1353_"
       class="st2"
       d="m 549.8,1003.3 v 0 c 0,-5 3.7,-9.1 9.1,-9.1 2.6,0 4.4,0.7 5.8,1.8 0.4,0.3 0.7,0.8 0.7,1.5 0,1 -0.8,1.9 -1.9,1.9 -0.5,0 -0.9,-0.2 -1.1,-0.4 -1.1,-0.8 -2.2,-1.2 -3.6,-1.2 -2.9,0 -5,2.4 -5,5.4 v 0 c 0,3 2.1,5.5 5,5.5 1.6,0 2.7,-0.5 3.8,-1.4 0.3,-0.2 0.7,-0.4 1.1,-0.4 1,0 1.8,0.8 1.8,1.8 0,0.6 -0.3,1.1 -0.6,1.4 -1.6,1.4 -3.4,2.2 -6.2,2.2 -5.1,-0.1 -8.9,-4 -8.9,-9 z"
       style="fill:#ffffff" /><path
       inkscape:connector-curvature="0"
       id="XMLID_1355_"
       class="st2"
       d="m 568.7,1004.5 v -8.2 c 0,-1.1 0.8,-1.9 1.9,-1.9 1.1,0 1.9,0.8 1.9,1.9 v 8.1 c 0,2.8 1.4,4.3 3.8,4.3 2.4,0 3.8,-1.4 3.8,-4.2 v -8.2 c 0,-1.1 0.8,-1.9 1.9,-1.9 1.1,0 1.9,0.8 1.9,1.9 v 8.1 c 0,5.3 -3,7.9 -7.6,7.9 -4.6,0 -7.6,-2.7 -7.6,-7.8 z"
       style="fill:#ffffff" /><path
       inkscape:connector-curvature="0"
       id="XMLID_1357_"
       class="st2"
       d="m 587.7,996.3 c 0,-1.1 0.8,-1.9 1.9,-1.9 1.1,0 1.9,0.8 1.9,1.9 v 12.2 h 7.1 c 1,0 1.7,0.8 1.7,1.7 0,0.9 -0.8,1.7 -1.7,1.7 h -9 c -1.1,0 -1.9,-0.8 -1.9,-1.9 z"
       style="fill:#ffffff" /><path
       inkscape:connector-curvature="0"
       id="XMLID_1359_"
       class="st2"
       d="m 602.2,1009.5 6.1,-13.7 c 0.4,-0.9 1.2,-1.5 2.2,-1.5 h 0.2 c 1,0 1.8,0.6 2.2,1.5 l 6.1,13.7 c 0.1,0.3 0.2,0.5 0.2,0.8 0,1 -0.8,1.8 -1.8,1.8 -0.9,0 -1.5,-0.5 -1.8,-1.3 l -1.2,-2.7 h -7.7 l -1.2,2.9 c -0.3,0.7 -1,1.2 -1.8,1.2 -1,0 -1.8,-0.8 -1.8,-1.8 0,-0.4 0.1,-0.7 0.3,-0.9 z m 10.7,-4.9 -2.4,-5.7 -2.4,5.7 z"
       style="fill:#ffffff" /><path
       inkscape:connector-curvature="0"
       id="XMLID_1362_"
       class="st2"
       d="m 622.2,996.4 c 0,-1.1 0.8,-1.9 1.9,-1.9 h 6 c 2.2,0 3.9,0.6 5.1,1.8 1,1 1.5,2.3 1.5,4 v 0 c 0,2.7 -1.4,4.4 -3.5,5.3 l 2.7,3.2 c 0.4,0.5 0.6,0.9 0.6,1.5 0,1.1 -0.9,1.8 -1.8,1.8 -0.9,0 -1.4,-0.4 -1.9,-1 l -3.7,-4.7 H 626 v 3.8 c 0,1.1 -0.8,1.9 -1.9,1.9 -1.1,0 -1.9,-0.8 -1.9,-1.9 z m 7.7,6.6 c 1.9,0 2.9,-1 2.9,-2.5 v 0 c 0,-1.6 -1.1,-2.5 -3,-2.5 H 626 v 5 z"
       style="fill:#ffffff" /><path
       inkscape:connector-curvature="0"
       id="XMLID_1365_"
       class="st2"
       d="m 640.2,1010 v -13.6 c 0,-1.1 0.8,-1.9 1.9,-1.9 h 9.7 c 0.9,0 1.7,0.8 1.7,1.7 0,0.9 -0.8,1.7 -1.7,1.7 H 644 v 3.5 h 6.6 c 0.9,0 1.7,0.8 1.7,1.7 0,0.9 -0.8,1.7 -1.7,1.7 H 644 v 3.7 h 7.9 c 0.9,0 1.7,0.8 1.7,1.7 0,0.9 -0.8,1.7 -1.7,1.7 h -9.8 c -1.1,0 -1.9,-0.8 -1.9,-1.9 z"
       style="fill:#ffffff" /><path
       inkscape:connector-curvature="0"
       id="XMLID_1367_"
       class="st2"
       d="m 656.5,1010.1 c -0.4,-0.3 -0.7,-0.8 -0.7,-1.4 0,-1 0.8,-1.8 1.8,-1.8 0.5,0 0.8,0.2 1.1,0.3 1.3,1 2.8,1.6 4.5,1.6 1.6,0 2.5,-0.6 2.5,-1.6 v 0 c 0,-1 -0.6,-1.5 -3.5,-2.2 -3.5,-0.9 -5.8,-1.9 -5.8,-5.3 v 0 c 0,-3.2 2.5,-5.2 6.1,-5.2 2.1,0 4,0.5 5.5,1.5 0.4,0.2 0.8,0.8 0.8,1.5 0,1 -0.8,1.8 -1.8,1.8 -0.4,0 -0.7,-0.1 -1,-0.3 -1.3,-0.7 -2.5,-1.2 -3.7,-1.2 -1.5,0 -2.2,0.7 -2.2,1.5 v 0 c 0,1.1 0.7,1.5 3.8,2.3 3.5,0.9 5.5,2.2 5.5,5.2 v 0 c 0,3.5 -2.6,5.4 -6.4,5.4 -2.3,0 -4.6,-0.7 -6.5,-2.1 z"
       style="fill:#ffffff" /><path
       inkscape:connector-curvature="0"
       id="XMLID_1369_"
       class="st2"
       d="m 671.7,1013.7 c 0,-0.6 0.3,-1 0.6,-1.2 2.9,-2.2 4.2,-4.4 4.2,-7.7 0,-3.3 -1.3,-5.5 -4.2,-7.7 -0.3,-0.2 -0.6,-0.6 -0.6,-1.2 0,-0.8 0.7,-1.5 1.4,-1.5 0.4,0 0.8,0.1 0.9,0.2 4.1,2.5 6.2,5.7 6.2,10.2 0,4.5 -2.1,7.8 -6.2,10.2 -0.1,0.1 -0.5,0.2 -0.9,0.2 -0.7,0 -1.4,-0.7 -1.4,-1.5 z"
       style="fill:#ffffff" /></g></svg>