<?xml version="1.0" encoding="UTF-8" standalone="no"?>
<!-- Generator: Adobe Illustrator 19.0.0, SVG Export Plug-In . SVG Version: 6.00 Build 0)  -->

<svg
   xmlns:dc="http://purl.org/dc/elements/1.1/"
   xmlns:cc="http://creativecommons.org/ns#"
   xmlns:rdf="http://www.w3.org/1999/02/22-rdf-syntax-ns#"
   xmlns:svg="http://www.w3.org/2000/svg"
   xmlns="http://www.w3.org/2000/svg"
   xmlns:sodipodi="http://sodipodi.sourceforge.net/DTD/sodipodi-0.dtd"
   xmlns:inkscape="http://www.inkscape.org/namespaces/inkscape"
   version="1.1"
   id="Capa_1"
   x="0px"
   y="0px"
   viewBox="0 0 269.89999 45.700001"
   xml:space="preserve"
   sodipodi:docname="titulo_03.svg"
   inkscape:version="0.92.1 r15371"
   width="269.89999"
   height="45.700001"><metadata
     id="metadata1439"><rdf:RDF><cc:Work
         rdf:about=""><dc:format>image/svg+xml</dc:format><dc:type
           rdf:resource="http://purl.org/dc/dcmitype/StillImage" /><dc:title></dc:title></cc:Work></rdf:RDF></metadata><defs
     id="defs1437" /><sodipodi:namedview
     pagecolor="#ffffff"
     bordercolor="#666666"
     borderopacity="1"
     objecttolerance="10"
     gridtolerance="10"
     guidetolerance="10"
     inkscape:pageopacity="0"
     inkscape:pageshadow="2"
     inkscape:window-width="1920"
     inkscape:window-height="1007"
     id="namedview1435"
     showgrid="false"
     inkscape:zoom="0.89224233"
     inkscape:cx="484.84903"
     inkscape:cy="-78.139044"
     inkscape:window-x="0"
     inkscape:window-y="25"
     inkscape:window-maximized="1"
     inkscape:current-layer="Capa_1"
     fit-margin-top="0"
     fit-margin-left="0"
     fit-margin-right="0"
     fit-margin-bottom="0" /><style
     type="text/css"
     id="style2">
	.st0{fill:#88C1FF;}
	.st1{fill:#2251D6;}
	.st2{fill:#FFFFFF;}
	.st3{fill:#E3E7F5;}
	.st4{fill:#1A3789;}
	.st5{fill:#222221;}
	.st6{fill-rule:evenodd;clip-rule:evenodd;fill:#2251D6;}
	.st7{fill:#FDFFFE;}
	.st8{fill-rule:evenodd;clip-rule:evenodd;fill:#1A3789;}
	.st9{fill:none;stroke:#88C1FF;stroke-width:4;stroke-miterlimit:10;}
	.st10{fill:#6A5588;}
	.st11{fill-rule:evenodd;clip-rule:evenodd;fill:#88C1FF;}
</style><g
     id="XMLID_433_"
     transform="translate(134.21191,-100.65729)" /><style
     id="style2-3"
     type="text/css">
	.st0{fill:#88C1FF;}
	.st1{fill:#2251D6;}
	.st2{fill:#FFFFFF;}
	.st3{fill:#E3E7F5;}
	.st4{fill:#1A3789;}
	.st5{fill:#222221;}
	.st6{fill-rule:evenodd;clip-rule:evenodd;fill:#2251D6;}
	.st7{fill:#FDFFFE;}
	.st8{fill-rule:evenodd;clip-rule:evenodd;fill:#1A3789;}
	.st9{fill:none;stroke:#88C1FF;stroke-width:4;stroke-miterlimit:10;}
	.st10{fill:#6A5588;}
	.st11{fill-rule:evenodd;clip-rule:evenodd;fill:#88C1FF;}
</style><circle
     id="XMLID_123_"
     class="st1"
     cx="137.90001"
     cy="6.2999825"
     r="4"
     style="fill:#2251d6" /><polygon
     transform="translate(-286,-1418.5)"
     id="XMLID_51_"
     class="st1"
     points="290.7,1455.8 286,1464.2 555.9,1464.2 549.6,1457.1 555.9,1452.1 550.8,1446.7 555.9,1441.3 551.2,1435.9 555.9,1431.3 549.2,1427.2 555.9,1418.5 286,1418.5 290.7,1425.9 286,1430.5 290.7,1434.7 286,1440.9 290.7,1447.1 286,1452.1 "
     style="fill:#2251d6" /><g
     transform="translate(-286,-1418.5)"
     id="XMLID_1191_"><g
       id="XMLID_4066_"><path
         inkscape:connector-curvature="0"
         id="XMLID_4095_"
         class="st2"
         d="m 315.3,1442.5 v 0 c 0,-5 3.7,-9.1 9.1,-9.1 2.6,0 4.4,0.7 5.8,1.8 0.4,0.3 0.7,0.8 0.7,1.5 0,1 -0.8,1.9 -1.9,1.9 -0.5,0 -0.9,-0.2 -1.1,-0.4 -1.1,-0.8 -2.2,-1.2 -3.6,-1.2 -2.9,0 -5,2.4 -5,5.4 v 0.1 c 0,3 2.1,5.5 5,5.5 1.6,0 2.7,-0.5 3.8,-1.4 0.3,-0.2 0.7,-0.4 1.1,-0.4 1,0 1.8,0.8 1.8,1.8 0,0.6 -0.3,1.1 -0.6,1.4 -1.6,1.4 -3.4,2.2 -6.2,2.2 -5.1,-0.1 -8.9,-4.1 -8.9,-9.1 z"
         style="fill:#ffffff" /><path
         inkscape:connector-curvature="0"
         id="XMLID_4092_"
         class="st2"
         d="m 333.2,1442.5 v 0 c 0,-5 3.9,-9.1 9.3,-9.1 5.4,0 9.2,4 9.2,9 v 0.1 c 0,4.9 -3.9,9 -9.3,9 -5.4,0 -9.2,-4 -9.2,-9 z m 14.5,0 v 0 c 0,-3 -2.2,-5.5 -5.3,-5.5 -3.1,0 -5.2,2.4 -5.2,5.4 v 0.1 c 0,3 2.2,5.5 5.3,5.5 3.1,-0.1 5.2,-2.5 5.2,-5.5 z"
         style="fill:#ffffff" /><path
         inkscape:connector-curvature="0"
         id="XMLID_4090_"
         class="st2"
         d="m 355.1,1435.6 c 0,-1.1 0.8,-1.9 1.9,-1.9 h 0.4 c 0.9,0 1.5,0.4 2,1.1 l 7.4,9.7 v -9 c 0,-1 0.8,-1.9 1.9,-1.9 1,0 1.9,0.8 1.9,1.9 v 13.9 c 0,1.1 -0.8,1.9 -1.9,1.9 h -0.1 c -0.9,0 -1.5,-0.4 -2,-1.1 l -7.7,-10 v 9.3 c 0,1 -0.8,1.9 -1.9,1.9 -1.1,0 -1.9,-0.8 -1.9,-1.9 z"
         style="fill:#ffffff" /><path
         inkscape:connector-curvature="0"
         id="XMLID_4088_"
         class="st2"
         d="m 379.4,1449.9 -5.6,-13.5 c -0.1,-0.3 -0.2,-0.6 -0.2,-0.9 0,-1.1 0.8,-1.9 1.9,-1.9 1,0 1.6,0.6 1.9,1.3 l 4.4,11.3 4.4,-11.4 c 0.2,-0.6 0.9,-1.2 1.8,-1.2 1,0 1.9,0.8 1.9,1.8 0,0.3 -0.1,0.6 -0.2,0.8 l -5.7,13.6 c -0.4,0.9 -1.1,1.5 -2.2,1.5 h -0.2 c -1.1,0.1 -1.8,-0.4 -2.2,-1.4 z"
         style="fill:#ffffff" /><path
         inkscape:connector-curvature="0"
         id="XMLID_4085_"
         class="st2"
         d="m 391.4,1442.5 v 0 c 0,-5 3.9,-9.1 9.3,-9.1 5.4,0 9.2,4 9.2,9 v 0.1 c 0,4.9 -3.9,9 -9.3,9 -5.3,0 -9.2,-4 -9.2,-9 z m 14.5,0 v 0 c 0,-3 -2.2,-5.5 -5.3,-5.5 -3.1,0 -5.2,2.4 -5.2,5.4 v 0.1 c 0,3 2.2,5.5 5.3,5.5 3.1,-0.1 5.2,-2.5 5.2,-5.5 z"
         style="fill:#ffffff" /><path
         inkscape:connector-curvature="0"
         id="XMLID_4083_"
         class="st2"
         d="m 412.6,1442.5 v 0 c 0,-5 3.7,-9.1 9.1,-9.1 2.6,0 4.4,0.7 5.8,1.8 0.4,0.3 0.7,0.8 0.7,1.5 0,1 -0.8,1.9 -1.9,1.9 -0.5,0 -0.9,-0.2 -1.1,-0.4 -1.1,-0.8 -2.2,-1.2 -3.6,-1.2 -2.9,0 -5,2.4 -5,5.4 v 0.1 c 0,3 2.1,5.5 5,5.5 1.6,0 2.7,-0.5 3.8,-1.4 0.3,-0.2 0.7,-0.4 1.1,-0.4 1,0 1.8,0.8 1.8,1.8 0,0.6 -0.3,1.1 -0.6,1.4 -1.6,1.4 -3.4,2.2 -6.2,2.2 -5.1,-0.1 -8.9,-4.1 -8.9,-9.1 z"
         style="fill:#ffffff" /><path
         inkscape:connector-curvature="0"
         id="XMLID_4080_"
         class="st2"
         d="m 430.7,1448.7 6.1,-13.7 c 0.4,-0.9 1.2,-1.5 2.2,-1.5 h 0.2 c 1,0 1.8,0.6 2.2,1.5 l 6.1,13.7 c 0.1,0.3 0.2,0.5 0.2,0.8 0,1 -0.8,1.8 -1.8,1.8 -0.9,0 -1.5,-0.5 -1.8,-1.3 l -1.2,-2.7 h -7.7 l -1.2,2.9 c -0.3,0.7 -1,1.2 -1.8,1.2 -1,0 -1.8,-0.8 -1.8,-1.8 0.1,-0.4 0.2,-0.6 0.3,-0.9 z m 10.8,-4.8 -2.4,-5.7 -2.4,5.7 z"
         style="fill:#ffffff" /><path
         inkscape:connector-curvature="0"
         id="XMLID_4078_"
         class="st2"
         d="m 452.9,1437.3 h -3.7 c -1,0 -1.8,-0.8 -1.8,-1.8 0,-1 0.8,-1.8 1.8,-1.8 h 11.2 c 1,0 1.8,0.8 1.8,1.8 0,1 -0.8,1.8 -1.8,1.8 h -3.7 v 12.1 c 0,1.1 -0.8,1.9 -1.9,1.9 -1.1,0 -1.9,-0.8 -1.9,-1.9 z"
         style="fill:#ffffff" /><path
         inkscape:connector-curvature="0"
         id="XMLID_4075_"
         class="st2"
         d="m 463.5,1442.5 v 0 c 0,-5 3.9,-9.1 9.3,-9.1 5.4,0 9.2,4 9.2,9 v 0.1 c 0,4.9 -3.9,9 -9.3,9 -5.4,0 -9.2,-4 -9.2,-9 z m 14.5,0 v 0 c 0,-3 -2.2,-5.5 -5.3,-5.5 -3.1,0 -5.2,2.4 -5.2,5.4 v 0.1 c 0,3 2.2,5.5 5.3,5.5 3.1,0 5.2,-2.5 5.2,-5.5 z"
         style="fill:#ffffff" /><path
         inkscape:connector-curvature="0"
         id="XMLID_4072_"
         class="st2"
         d="m 485.4,1435.7 c 0,-1.1 0.8,-1.9 1.9,-1.9 h 6 c 2.2,0 3.9,0.6 5.1,1.8 1,1 1.5,2.3 1.5,4 v 0.1 c 0,2.7 -1.4,4.4 -3.5,5.3 l 2.7,3.2 c 0.4,0.5 0.6,0.9 0.6,1.5 0,1.1 -0.9,1.8 -1.8,1.8 -0.9,0 -1.4,-0.4 -1.9,-1 l -3.7,-4.7 h -3.1 v 3.8 c 0,1.1 -0.8,1.9 -1.9,1.9 -1.1,0 -1.9,-0.8 -1.9,-1.9 z m 7.7,6.5 c 1.9,0 2.9,-1 2.9,-2.5 v -0.1 c 0,-1.6 -1.1,-2.5 -3,-2.5 h -3.8 v 5 h 3.9 z"
         style="fill:#ffffff" /><path
         inkscape:connector-curvature="0"
         id="XMLID_4070_"
         class="st2"
         d="m 503.6,1435.5 c 0,-1.1 0.8,-1.9 1.9,-1.9 1.1,0 1.9,0.8 1.9,1.9 v 13.9 c 0,1.1 -0.8,1.9 -1.9,1.9 -1.1,0 -1.9,-0.8 -1.9,-1.9 z"
         style="fill:#ffffff" /><path
         inkscape:connector-curvature="0"
         id="XMLID_4067_"
         class="st2"
         d="m 510.8,1448.7 6.1,-13.7 c 0.4,-0.9 1.2,-1.5 2.2,-1.5 h 0.2 c 1,0 1.8,0.6 2.2,1.5 l 6.1,13.7 c 0.1,0.3 0.2,0.5 0.2,0.8 0,1 -0.8,1.8 -1.8,1.8 -0.9,0 -1.5,-0.5 -1.8,-1.3 l -1.2,-2.7 h -7.7 l -1.2,2.9 c -0.3,0.7 -1,1.2 -1.8,1.2 -1,0 -1.8,-0.8 -1.8,-1.8 0.1,-0.4 0.2,-0.6 0.3,-0.9 z m 10.7,-4.8 -2.4,-5.7 -2.4,5.7 z"
         style="fill:#ffffff" /></g></g></svg>