<?xml version="1.0" encoding="UTF-8" standalone="no"?>
<!-- Generator: Adobe Illustrator 19.0.0, SVG Export Plug-In . SVG Version: 6.00 Build 0)  -->

<svg
   xmlns:dc="http://purl.org/dc/elements/1.1/"
   xmlns:cc="http://creativecommons.org/ns#"
   xmlns:rdf="http://www.w3.org/1999/02/22-rdf-syntax-ns#"
   xmlns:svg="http://www.w3.org/2000/svg"
   xmlns="http://www.w3.org/2000/svg"
   xmlns:sodipodi="http://sodipodi.sourceforge.net/DTD/sodipodi-0.dtd"
   xmlns:inkscape="http://www.inkscape.org/namespaces/inkscape"
   version="1.1"
   id="Capa_1"
   x="0px"
   y="0px"
   viewBox="0 0 385.39999 45.700001"
   xml:space="preserve"
   sodipodi:docname="titulo_05.svg"
   inkscape:version="0.92.1 r15371"
   width="385.39999"
   height="45.700001"><metadata
     id="metadata1439"><rdf:RDF><cc:Work
         rdf:about=""><dc:format>image/svg+xml</dc:format><dc:type
           rdf:resource="http://purl.org/dc/dcmitype/StillImage" /><dc:title></dc:title></cc:Work></rdf:RDF></metadata><defs
     id="defs1437" /><sodipodi:namedview
     pagecolor="#ffffff"
     bordercolor="#666666"
     borderopacity="1"
     objecttolerance="10"
     gridtolerance="10"
     guidetolerance="10"
     inkscape:pageopacity="0"
     inkscape:pageshadow="2"
     inkscape:window-width="1920"
     inkscape:window-height="1007"
     id="namedview1435"
     showgrid="false"
     inkscape:zoom="0.89224233"
     inkscape:cx="163.74131"
     inkscape:cy="79.638124"
     inkscape:window-x="0"
     inkscape:window-y="25"
     inkscape:window-maximized="1"
     inkscape:current-layer="Capa_1"
     fit-margin-top="0"
     fit-margin-left="0"
     fit-margin-right="0"
     fit-margin-bottom="0" /><style
     type="text/css"
     id="style2">
	.st0{fill:#88C1FF;}
	.st1{fill:#2251D6;}
	.st2{fill:#FFFFFF;}
	.st3{fill:#E3E7F5;}
	.st4{fill:#1A3789;}
	.st5{fill:#222221;}
	.st6{fill-rule:evenodd;clip-rule:evenodd;fill:#2251D6;}
	.st7{fill:#FDFFFE;}
	.st8{fill-rule:evenodd;clip-rule:evenodd;fill:#1A3789;}
	.st9{fill:none;stroke:#88C1FF;stroke-width:4;stroke-miterlimit:10;}
	.st10{fill:#6A5588;}
	.st11{fill-rule:evenodd;clip-rule:evenodd;fill:#88C1FF;}
</style><g
     id="XMLID_433_"
     transform="translate(-186.8958,-213.60359)" /><style
     id="style2-3"
     type="text/css">
	.st0{fill:#88C1FF;}
	.st1{fill:#2251D6;}
	.st2{fill:#FFFFFF;}
	.st3{fill:#E3E7F5;}
	.st4{fill:#1A3789;}
	.st5{fill:#222221;}
	.st6{fill-rule:evenodd;clip-rule:evenodd;fill:#2251D6;}
	.st7{fill:#FDFFFE;}
	.st8{fill-rule:evenodd;clip-rule:evenodd;fill:#1A3789;}
	.st9{fill:none;stroke:#88C1FF;stroke-width:4;stroke-miterlimit:10;}
	.st10{fill:#6A5588;}
	.st11{fill-rule:evenodd;clip-rule:evenodd;fill:#88C1FF;}
</style><polygon
     transform="translate(-232.2,-1988.6)"
     id="XMLID_374_"
     class="st1"
     points="232.2,2022.2 237.1,2025.9 232.2,2034.3 617.6,2034.3 611.1,2027.2 617.6,2022.2 612.3,2016.8 617.6,2011.4 612.7,2006 617.6,2001.4 610.6,1997.3 617.6,1988.6 232.2,1988.6 237.1,1996 232.2,2000.6 237.1,2004.8 232.2,2011 237.1,2017.2 "
     style="fill:#2251d6" /><g
     transform="translate(-232.2,-1988.6)"
     id="XMLID_1021_"><g
       id="XMLID_4268_"><path
         inkscape:connector-curvature="0"
         id="XMLID_4313_"
         class="st2"
         d="m 255.2,2018.9 v -13.6 c 0,-1.1 0.8,-1.9 1.9,-1.9 h 9.7 c 0.9,0 1.7,0.8 1.7,1.7 0,0.9 -0.8,1.7 -1.7,1.7 H 259 v 3.5 h 6.6 c 0.9,0 1.7,0.8 1.7,1.7 0,0.9 -0.8,1.7 -1.7,1.7 H 259 v 3.7 h 7.9 c 0.9,0 1.7,0.8 1.7,1.7 0,0.9 -0.8,1.7 -1.7,1.7 h -9.8 c -1.1,0 -1.9,-0.9 -1.9,-1.9 z"
         style="fill:#ffffff" /><path
         inkscape:connector-curvature="0"
         id="XMLID_4311_"
         class="st2"
         d="m 276.5,2019.5 -5.6,-13.5 c -0.1,-0.3 -0.2,-0.6 -0.2,-0.9 0,-1.1 0.8,-1.9 1.9,-1.9 1,0 1.6,0.6 1.9,1.3 l 4.4,11.3 4.4,-11.4 c 0.2,-0.6 0.9,-1.2 1.8,-1.2 1,0 1.9,0.8 1.9,1.8 0,0.3 -0.1,0.6 -0.2,0.8 l -5.7,13.6 c -0.4,0.9 -1.1,1.5 -2.2,1.5 h -0.2 c -1.1,0.2 -1.8,-0.4 -2.2,-1.4 z"
         style="fill:#ffffff" /><path
         inkscape:connector-curvature="0"
         id="XMLID_4308_"
         class="st2"
         d="m 287.2,2018.3 6.1,-13.7 c 0.4,-0.9 1.2,-1.5 2.2,-1.5 h 0.2 c 1,0 1.8,0.6 2.2,1.5 l 6.1,13.7 c 0.1,0.3 0.2,0.5 0.2,0.8 0,1 -0.8,1.8 -1.8,1.8 -0.9,0 -1.5,-0.5 -1.8,-1.3 l -1.2,-2.7 h -7.7 l -1.2,2.9 c -0.3,0.7 -1,1.2 -1.8,1.2 -1,0 -1.8,-0.8 -1.8,-1.8 0.1,-0.3 0.2,-0.6 0.3,-0.9 z m 10.8,-4.8 -2.4,-5.7 -2.4,5.7 z"
         style="fill:#ffffff" /><path
         inkscape:connector-curvature="0"
         id="XMLID_4306_"
         class="st2"
         d="m 307.2,2005.1 c 0,-1.1 0.8,-1.9 1.9,-1.9 1.1,0 1.9,0.8 1.9,1.9 v 12.2 h 7.1 c 1,0 1.7,0.8 1.7,1.7 0,0.9 -0.8,1.7 -1.7,1.7 h -9 c -1.1,0 -1.9,-0.8 -1.9,-1.9 z"
         style="fill:#ffffff" /><path
         inkscape:connector-curvature="0"
         id="XMLID_4304_"
         class="st2"
         d="m 321.8,2013.3 v -8.2 c 0,-1.1 0.8,-1.9 1.9,-1.9 1.1,0 1.9,0.8 1.9,1.9 v 8.1 c 0,2.8 1.4,4.3 3.8,4.3 2.4,0 3.8,-1.4 3.8,-4.2 v -8.2 c 0,-1.1 0.8,-1.9 1.9,-1.9 1.1,0 1.9,0.8 1.9,1.9 v 8.1 c 0,5.3 -3,7.9 -7.6,7.9 -4.7,0 -7.6,-2.6 -7.6,-7.8 z"
         style="fill:#ffffff" /><path
         inkscape:connector-curvature="0"
         id="XMLID_4301_"
         class="st2"
         d="m 339.6,2018.3 6.1,-13.7 c 0.4,-0.9 1.2,-1.5 2.2,-1.5 h 0.2 c 1,0 1.8,0.6 2.2,1.5 l 6.1,13.7 c 0.1,0.3 0.2,0.5 0.2,0.8 0,1 -0.8,1.8 -1.8,1.8 -0.9,0 -1.5,-0.5 -1.8,-1.3 l -1.2,-2.7 h -7.7 l -1.2,2.9 c -0.3,0.7 -1,1.2 -1.8,1.2 -1,0 -1.8,-0.8 -1.8,-1.8 0.1,-0.3 0.2,-0.6 0.3,-0.9 z m 10.7,-4.8 -2.4,-5.7 -2.4,5.7 z"
         style="fill:#ffffff" /><path
         inkscape:connector-curvature="0"
         id="XMLID_4299_"
         class="st2"
         d="m 358.2,2012.1 v 0 c 0,-5 3.7,-9.1 9.1,-9.1 2.6,0 4.4,0.7 5.8,1.8 0.4,0.3 0.7,0.8 0.7,1.5 0,1 -0.8,1.9 -1.9,1.9 -0.5,0 -0.9,-0.2 -1.1,-0.4 -1.1,-0.8 -2.2,-1.2 -3.6,-1.2 -2.9,0 -5,2.4 -5,5.4 v 0 c 0,3 2.1,5.5 5,5.5 1.6,0 2.7,-0.5 3.8,-1.4 0.3,-0.2 0.7,-0.4 1.1,-0.4 1,0 1.8,0.8 1.8,1.8 0,0.6 -0.3,1.1 -0.6,1.4 -1.6,1.4 -3.4,2.2 -6.2,2.2 -5.1,0 -8.9,-4 -8.9,-9 z"
         style="fill:#ffffff" /><path
         inkscape:connector-curvature="0"
         id="XMLID_4297_"
         class="st2"
         d="m 377.5,2005.1 c 0,-1.1 0.8,-1.9 1.9,-1.9 1.1,0 1.9,0.8 1.9,1.9 v 13.9 c 0,1.1 -0.8,1.9 -1.9,1.9 -1.1,0 -1.9,-0.8 -1.9,-1.9 z"
         style="fill:#ffffff" /><path
         inkscape:connector-curvature="0"
         id="XMLID_4293_"
         class="st2"
         d="m 384.9,2012.1 v 0 c 0,-5 3.9,-9.1 9.3,-9.1 5.4,0 9.2,4 9.2,9 v 0 c 0,4.9 -3.9,9 -9.3,9 -5.3,0.1 -9.2,-3.9 -9.2,-8.9 z m 14.5,0 v 0 c 0,-3 -2.2,-5.5 -5.3,-5.5 -3.1,0 -5.2,2.4 -5.2,5.4 v 0 c 0,3 2.2,5.5 5.3,5.5 3.1,0.1 5.2,-2.4 5.2,-5.4 z m -6.3,-10.8 c 0,-0.2 0.1,-0.5 0.2,-0.7 l 1.4,-2.1 c 0.3,-0.5 0.8,-0.8 1.4,-0.8 0.9,0 2.1,0.6 2.1,1.1 0,0.3 -0.2,0.6 -0.5,0.9 l -1.5,1.4 c -0.7,0.7 -1.3,0.8 -2.2,0.8 -0.5,0 -0.9,-0.2 -0.9,-0.6 z"
         style="fill:#ffffff" /><path
         inkscape:connector-curvature="0"
         id="XMLID_4291_"
         class="st2"
         d="m 406.8,2005.2 c 0,-1.1 0.8,-1.9 1.9,-1.9 h 0.4 c 0.9,0 1.5,0.4 2,1.1 l 7.4,9.7 v -9 c 0,-1 0.8,-1.9 1.9,-1.9 1,0 1.9,0.8 1.9,1.9 v 13.9 c 0,1.1 -0.8,1.9 -1.9,1.9 h -0.1 c -0.9,0 -1.5,-0.4 -2,-1.1 l -7.7,-10 v 9.3 c 0,1 -0.8,1.9 -1.9,1.9 -1.1,0 -1.9,-0.8 -1.9,-1.9 z"
         style="fill:#ffffff" /><path
         inkscape:connector-curvature="0"
         id="XMLID_4288_"
         class="st2"
         d="m 434,2005.3 c 0,-1.1 0.8,-1.9 1.9,-1.9 h 4.9 c 5.5,0 9.3,3.8 9.3,8.7 v 0 c 0,4.9 -3.8,8.7 -9.3,8.7 h -4.9 c -1.1,0 -1.9,-0.8 -1.9,-1.9 z m 6.7,12 c 3.1,0 5.2,-2.1 5.2,-5.2 v 0 c 0,-3.1 -2.1,-5.2 -5.2,-5.2 h -3 v 10.5 h 3 z"
         style="fill:#ffffff" /><path
         inkscape:connector-curvature="0"
         id="XMLID_4286_"
         class="st2"
         d="m 453.4,2018.9 v -13.6 c 0,-1.1 0.8,-1.9 1.9,-1.9 h 9.7 c 0.9,0 1.7,0.8 1.7,1.7 0,0.9 -0.8,1.7 -1.7,1.7 h -7.8 v 3.5 h 6.6 c 0.9,0 1.7,0.8 1.7,1.7 0,0.9 -0.8,1.7 -1.7,1.7 h -6.6 v 3.7 h 7.9 c 0.9,0 1.7,0.8 1.7,1.7 0,0.9 -0.8,1.7 -1.7,1.7 h -9.8 c -1.1,0 -1.9,-0.9 -1.9,-1.9 z"
         style="fill:#ffffff" /><path
         inkscape:connector-curvature="0"
         id="XMLID_4283_"
         class="st2"
         d="m 476.8,2012.1 v 0 c 0,-5 3.9,-9.1 9.3,-9.1 5.4,0 9.2,4 9.2,9 v 0 c 0,4.9 -3.9,9 -9.3,9 -5.4,0.1 -9.2,-3.9 -9.2,-8.9 z m 14.5,0 v 0 c 0,-3 -2.2,-5.5 -5.3,-5.5 -3.1,0 -5.2,2.4 -5.2,5.4 v 0 c 0,3 2.2,5.5 5.3,5.5 3,0.1 5.2,-2.4 5.2,-5.4 z"
         style="fill:#ffffff" /><path
         inkscape:connector-curvature="0"
         id="XMLID_4281_"
         class="st2"
         d="m 498.7,2005.3 c 0,-1.1 0.8,-1.9 1.9,-1.9 h 9.7 c 1,0 1.7,0.8 1.7,1.7 0,1 -0.8,1.7 -1.7,1.7 h -7.8 v 3.7 h 6.7 c 1,0 1.7,0.8 1.7,1.7 0,0.9 -0.8,1.7 -1.7,1.7 h -6.7 v 5 c 0,1.1 -0.8,1.9 -1.9,1.9 -1.1,0 -1.9,-0.8 -1.9,-1.9 z"
         style="fill:#ffffff" /><path
         inkscape:connector-curvature="0"
         id="XMLID_4279_"
         class="st2"
         d="m 515,2018.9 v -13.6 c 0,-1.1 0.8,-1.9 1.9,-1.9 h 9.7 c 0.9,0 1.7,0.8 1.7,1.7 0,0.9 -0.8,1.7 -1.7,1.7 h -7.8 v 3.5 h 6.6 c 0.9,0 1.7,0.8 1.7,1.7 0,0.9 -0.8,1.7 -1.7,1.7 h -6.6 v 3.7 h 7.9 c 0.9,0 1.7,0.8 1.7,1.7 0,0.9 -0.8,1.7 -1.7,1.7 h -9.8 c -1.1,0 -1.9,-0.9 -1.9,-1.9 z"
         style="fill:#ffffff" /><path
         inkscape:connector-curvature="0"
         id="XMLID_4276_"
         class="st2"
         d="m 531.7,2005.3 c 0,-1.1 0.8,-1.9 1.9,-1.9 h 6 c 2.2,0 3.9,0.6 5.1,1.8 1,1 1.5,2.3 1.5,4 v 0 c 0,2.7 -1.4,4.4 -3.5,5.3 l 2.7,3.2 c 0.4,0.5 0.6,0.9 0.6,1.5 0,1.1 -0.9,1.8 -1.8,1.8 -0.9,0 -1.4,-0.4 -1.9,-1 l -3.7,-4.7 h -3.1 v 3.8 c 0,1.1 -0.8,1.9 -1.9,1.9 -1.1,0 -1.9,-0.8 -1.9,-1.9 z m 7.7,6.5 c 1.9,0 2.9,-1 2.9,-2.5 v 0 c 0,-1.6 -1.1,-2.5 -3,-2.5 h -3.8 v 5 z"
         style="fill:#ffffff" /><path
         inkscape:connector-curvature="0"
         id="XMLID_4274_"
         class="st2"
         d="M 553.7,2006.9 H 550 c -1,0 -1.8,-0.8 -1.8,-1.8 0,-1 0.8,-1.8 1.8,-1.8 h 11.2 c 1,0 1.8,0.8 1.8,1.8 0,1 -0.8,1.8 -1.8,1.8 h -3.7 v 12.1 c 0,1.1 -0.8,1.9 -1.9,1.9 -1.1,0 -1.9,-0.8 -1.9,-1.9 z"
         style="fill:#ffffff" /><path
         inkscape:connector-curvature="0"
         id="XMLID_4271_"
         class="st2"
         d="m 562.9,2018.3 6.1,-13.7 c 0.4,-0.9 1.2,-1.5 2.2,-1.5 h 0.2 c 1,0 1.8,0.6 2.2,1.5 l 6.1,13.7 c 0.1,0.3 0.2,0.5 0.2,0.8 0,1 -0.8,1.8 -1.8,1.8 -0.9,0 -1.5,-0.5 -1.8,-1.3 l -1.2,-2.7 h -7.7 l -1.2,2.9 c -0.3,0.7 -1,1.2 -1.8,1.2 -1,0 -1.8,-0.8 -1.8,-1.8 0.1,-0.3 0.2,-0.6 0.3,-0.9 z m 10.8,-4.8 -2.4,-5.7 -2.4,5.7 z"
         style="fill:#ffffff" /><path
         inkscape:connector-curvature="0"
         id="XMLID_4269_"
         class="st2"
         d="m 582.5,2019 c -0.4,-0.3 -0.7,-0.8 -0.7,-1.4 0,-1 0.8,-1.8 1.8,-1.8 0.5,0 0.8,0.2 1.1,0.3 1.3,1 2.8,1.6 4.5,1.6 1.6,0 2.5,-0.6 2.5,-1.6 v 0 c 0,-1 -0.6,-1.5 -3.5,-2.2 -3.5,-0.9 -5.8,-1.9 -5.8,-5.3 v 0 c 0,-3.2 2.5,-5.2 6.1,-5.2 2.1,0 4,0.5 5.5,1.5 0.4,0.2 0.8,0.8 0.8,1.5 0,1 -0.8,1.8 -1.8,1.8 -0.4,0 -0.7,-0.1 -1,-0.3 -1.3,-0.7 -2.5,-1.2 -3.7,-1.2 -1.5,0 -2.2,0.7 -2.2,1.5 v 0 c 0,1.1 0.7,1.5 3.8,2.3 3.5,0.9 5.5,2.2 5.5,5.2 v 0 c 0,3.5 -2.6,5.4 -6.4,5.4 -2.3,-0.1 -4.6,-0.8 -6.5,-2.1 z"
         style="fill:#ffffff" /></g></g></svg>