<?xml version="1.0" encoding="UTF-8" standalone="no"?>
<!-- Generator: Adobe Illustrator 19.0.0, SVG Export Plug-In . SVG Version: 6.00 Build 0)  -->

<svg
   xmlns:dc="http://purl.org/dc/elements/1.1/"
   xmlns:cc="http://creativecommons.org/ns#"
   xmlns:rdf="http://www.w3.org/1999/02/22-rdf-syntax-ns#"
   xmlns:svg="http://www.w3.org/2000/svg"
   xmlns="http://www.w3.org/2000/svg"
   xmlns:sodipodi="http://sodipodi.sourceforge.net/DTD/sodipodi-0.dtd"
   xmlns:inkscape="http://www.inkscape.org/namespaces/inkscape"
   version="1.1"
   id="Capa_1"
   x="0px"
   y="0px"
   viewBox="0 0 376.89397 42.52998"
   xml:space="preserve"
   sodipodi:docname="titulo_09.svg"
   inkscape:version="0.92.1 r15371"
   width="376.89398"
   height="42.52998"><metadata
     id="metadata1439"><rdf:RDF><cc:Work
         rdf:about=""><dc:format>image/svg+xml</dc:format><dc:type
           rdf:resource="http://purl.org/dc/dcmitype/StillImage" /><dc:title></dc:title></cc:Work></rdf:RDF></metadata><defs
     id="defs1437" /><sodipodi:namedview
     pagecolor="#ffffff"
     bordercolor="#666666"
     borderopacity="1"
     objecttolerance="10"
     gridtolerance="10"
     guidetolerance="10"
     inkscape:pageopacity="0"
     inkscape:pageshadow="2"
     inkscape:window-width="1920"
     inkscape:window-height="1007"
     id="namedview1435"
     showgrid="false"
     inkscape:zoom="2.5236424"
     inkscape:cx="224.72891"
     inkscape:cy="46.141384"
     inkscape:window-x="0"
     inkscape:window-y="25"
     inkscape:window-maximized="1"
     inkscape:current-layer="Capa_1"
     fit-margin-top="0"
     fit-margin-left="0"
     fit-margin-right="0"
     fit-margin-bottom="0" /><style
     type="text/css"
     id="style2">
	.st0{fill:#88C1FF;}
	.st1{fill:#2251D6;}
	.st2{fill:#FFFFFF;}
	.st3{fill:#E3E7F5;}
	.st4{fill:#1A3789;}
	.st5{fill:#222221;}
	.st6{fill-rule:evenodd;clip-rule:evenodd;fill:#2251D6;}
	.st7{fill:#FDFFFE;}
	.st8{fill-rule:evenodd;clip-rule:evenodd;fill:#1A3789;}
	.st9{fill:none;stroke:#88C1FF;stroke-width:4;stroke-miterlimit:10;}
	.st10{fill:#6A5588;}
	.st11{fill-rule:evenodd;clip-rule:evenodd;fill:#88C1FF;}
</style><g
     id="XMLID_433_"
     transform="translate(-198.32389,-215.22681)" /><style
     id="style2-3"
     type="text/css">
	.st0{fill:#88C1FF;}
	.st1{fill:#2251D6;}
	.st2{fill:#FFFFFF;}
	.st3{fill:#E3E7F5;}
	.st4{fill:#1A3789;}
	.st5{fill:#222221;}
	.st6{fill-rule:evenodd;clip-rule:evenodd;fill:#2251D6;}
	.st7{fill:#FDFFFE;}
	.st8{fill-rule:evenodd;clip-rule:evenodd;fill:#1A3789;}
	.st9{fill:none;stroke:#88C1FF;stroke-width:4;stroke-miterlimit:10;}
	.st10{fill:#6A5588;}
	.st11{fill-rule:evenodd;clip-rule:evenodd;fill:#88C1FF;}
</style><polygon
     transform="matrix(0.9779294,0,0,0.93063411,-227.07521,-2155.4417)"
     id="XMLID_1006_"
     class="st3"
     points="617.6,2339 612.7,2333.6 617.6,2329 610.6,2324.9 617.6,2316.1 232.2,2316.1 237.1,2323.6 232.2,2328.2 237.1,2332.3 232.2,2338.6 237.1,2344.8 232.2,2349.8 237.1,2353.5 232.2,2361.8 617.6,2361.8 611.1,2354.8 617.6,2349.8 612.3,2344.4 "
     style="fill:#2251d6;fill-opacity:1" /><g
     transform="matrix(1.1915507,0,0,1.1915507,-288.29244,-3436.7343)"
     id="XMLID_3005_"
     style="fill:#ffffff"><path
       inkscape:connector-curvature="0"
       id="XMLID_3006_"
       class="st4"
       d="m 261.5,2904.3 v 0 c 0,-4.4 3.2,-8 7.7,-8 2.5,0 4,0.8 5.5,2 0.2,0.2 0.4,0.4 0.4,0.7 0,0.5 -0.4,0.9 -0.9,0.9 -0.2,0 -0.4,-0.1 -0.6,-0.2 -1.2,-1 -2.5,-1.8 -4.4,-1.8 -3.4,0 -5.9,2.8 -5.9,6.3 v 0 c 0,3.5 2.6,6.3 5.9,6.3 1.9,0 3.2,-0.7 4.5,-1.9 0.1,-0.1 0.3,-0.2 0.5,-0.2 0.4,0 0.8,0.4 0.8,0.8 0,0.3 -0.1,0.5 -0.3,0.6 -1.5,1.4 -3.2,2.3 -5.7,2.3 -4.2,0.1 -7.5,-3.4 -7.5,-7.8 z"
       style="fill:#ffffff" /><path
       inkscape:connector-curvature="0"
       id="XMLID_3008_"
       class="st4"
       d="m 277.2,2904.3 v 0 c 0,-4.3 3.2,-8 7.8,-8 4.7,0 7.8,3.7 7.8,7.9 v 0 c 0,4.2 -3.2,7.9 -7.8,7.9 -4.7,0.1 -7.8,-3.6 -7.8,-7.8 z m 13.8,0 v 0 c 0,-3.5 -2.5,-6.4 -6,-6.4 -3.5,0 -6,2.8 -6,6.3 v 0 c 0,3.5 2.5,6.3 6,6.3 3.5,0 6,-2.7 6,-6.2 z"
       style="fill:#ffffff" /><path
       inkscape:connector-curvature="0"
       id="XMLID_3011_"
       class="st4"
       d="m 296.5,2897.4 c 0,-0.5 0.4,-0.9 0.9,-0.9 h 0.2 c 0.4,0 0.6,0.2 0.9,0.5 l 9.3,11.9 v -11.5 c 0,-0.5 0.4,-0.9 0.9,-0.9 0.5,0 0.8,0.4 0.8,0.9 v 13.8 c 0,0.5 -0.3,0.8 -0.8,0.8 h -0.1 c -0.4,0 -0.6,-0.2 -0.9,-0.5 l -9.5,-12.1 v 11.9 c 0,0.5 -0.4,0.9 -0.9,0.9 -0.5,0 -0.8,-0.4 -0.8,-0.9 z"
       style="fill:#ffffff" /><path
       inkscape:connector-curvature="0"
       id="XMLID_3013_"
       class="st4"
       d="m 313.1,2904.3 v 0 c 0,-4.4 3.2,-8 7.7,-8 2.5,0 4,0.8 5.5,2 0.2,0.2 0.4,0.4 0.4,0.7 0,0.5 -0.4,0.9 -0.9,0.9 -0.2,0 -0.4,-0.1 -0.6,-0.2 -1.2,-1 -2.5,-1.8 -4.4,-1.8 -3.4,0 -5.9,2.8 -5.9,6.3 v 0 c 0,3.5 2.6,6.3 5.9,6.3 1.9,0 3.2,-0.7 4.5,-1.9 0.1,-0.1 0.3,-0.2 0.5,-0.2 0.4,0 0.8,0.4 0.8,0.8 0,0.3 -0.1,0.5 -0.3,0.6 -1.5,1.4 -3.2,2.3 -5.7,2.3 -4.3,0.1 -7.5,-3.4 -7.5,-7.8 z"
       style="fill:#ffffff" /><path
       inkscape:connector-curvature="0"
       id="XMLID_3015_"
       class="st4"
       d="m 329.9,2897.5 c 0,-0.5 0.4,-0.9 0.9,-0.9 h 5.7 c 1.9,0 3.4,0.6 4.4,1.5 0.7,0.7 1.2,1.8 1.2,3 v 0 c 0,2.5 -1.7,4 -4.1,4.4 l 3.8,4.9 c 0.2,0.2 0.3,0.4 0.3,0.6 0,0.5 -0.4,0.9 -0.9,0.9 -0.4,0 -0.6,-0.2 -0.8,-0.5 l -4.3,-5.6 h -4.4 v 5.2 c 0,0.5 -0.4,0.9 -0.9,0.9 -0.5,0 -0.9,-0.4 -0.9,-0.9 z m 6.4,6.9 c 2.3,0 3.9,-1.2 3.9,-3.1 v 0 c 0,-1.9 -1.4,-3 -3.9,-3 h -4.7 v 6.2 h 4.7 z"
       style="fill:#ffffff" /><path
       inkscape:connector-curvature="0"
       id="XMLID_3018_"
       class="st4"
       d="m 345.7,2911.1 v -13.6 c 0,-0.5 0.4,-0.9 0.9,-0.9 h 9.5 c 0.4,0 0.8,0.3 0.8,0.8 0,0.4 -0.4,0.8 -0.8,0.8 h -8.6 v 5.2 h 7.7 c 0.4,0 0.8,0.4 0.8,0.8 0,0.4 -0.4,0.8 -0.8,0.8 h -7.7 v 5.4 h 8.7 c 0.4,0 0.8,0.3 0.8,0.8 0,0.5 -0.4,0.8 -0.8,0.8 h -9.6 c -0.5,-0.1 -0.9,-0.5 -0.9,-0.9 z"
       style="fill:#ffffff" /><path
       inkscape:connector-curvature="0"
       id="XMLID_3020_"
       class="st4"
       d="m 359.7,2904.3 v 0 c 0,-4.4 3.2,-8 7.7,-8 2.5,0 4,0.8 5.5,2 0.2,0.2 0.3,0.4 0.3,0.7 0,0.5 -0.4,0.9 -0.9,0.9 -0.2,0 -0.4,-0.1 -0.6,-0.2 -1.2,-1 -2.5,-1.8 -4.4,-1.8 -3.4,0 -5.9,2.8 -5.9,6.3 v 0 c 0,3.5 2.6,6.3 5.9,6.3 1.9,0 3.2,-0.7 4.5,-1.9 0.1,-0.1 0.3,-0.2 0.5,-0.2 0.4,0 0.8,0.4 0.8,0.8 0,0.3 -0.1,0.5 -0.3,0.6 -1.5,1.4 -3.2,2.3 -5.7,2.3 -4.2,0.1 -7.4,-3.4 -7.4,-7.8 z"
       style="fill:#ffffff" /><path
       inkscape:connector-curvature="0"
       id="XMLID_3022_"
       class="st4"
       d="m 376.6,2897.4 c 0,-0.5 0.4,-0.9 0.9,-0.9 0.5,0 0.9,0.4 0.9,0.9 v 13.8 c 0,0.5 -0.4,0.9 -0.9,0.9 -0.5,0 -0.9,-0.4 -0.9,-0.9 z"
       style="fill:#ffffff" /><path
       inkscape:connector-curvature="0"
       id="XMLID_3024_"
       class="st4"
       d="m 382.2,2904.3 v 0 c 0,-4.3 3.2,-8 7.8,-8 4.7,0 7.8,3.7 7.8,7.9 v 0 c 0,4.2 -3.2,7.9 -7.8,7.9 -4.7,0.1 -7.8,-3.6 -7.8,-7.8 z m 13.8,0 v 0 c 0,-3.5 -2.5,-6.4 -6,-6.4 -3.5,0 -6,2.8 -6,6.3 v 0 c 0,3.5 2.5,6.3 6,6.3 3.5,0 6,-2.7 6,-6.2 z m -6.5,-9.5 c 0,-0.1 0,-0.2 0.1,-0.3 l 1.3,-2 c 0.2,-0.3 0.5,-0.5 0.8,-0.5 0.5,0 1.2,0.3 1.2,0.7 0,0.2 -0.1,0.3 -0.3,0.5 l -1.6,1.6 c -0.3,0.3 -0.6,0.4 -1,0.4 -0.3,-0.1 -0.5,-0.2 -0.5,-0.4 z"
       style="fill:#ffffff" /><path
       inkscape:connector-curvature="0"
       id="XMLID_3028_"
       class="st4"
       d="m 401.4,2897.4 c 0,-0.5 0.4,-0.9 0.9,-0.9 h 0.2 c 0.4,0 0.6,0.2 0.9,0.5 l 9.3,11.9 v -11.5 c 0,-0.5 0.4,-0.9 0.9,-0.9 0.5,0 0.8,0.4 0.8,0.9 v 13.8 c 0,0.5 -0.3,0.8 -0.8,0.8 h -0.1 c -0.4,0 -0.6,-0.2 -0.9,-0.5 l -9.5,-12.1 v 11.9 c 0,0.5 -0.4,0.9 -0.9,0.9 -0.5,0 -0.8,-0.4 -0.8,-0.9 z"
       style="fill:#ffffff" /><path
       inkscape:connector-curvature="0"
       id="XMLID_3030_"
       class="st4"
       d="m 425.3,2897.5 c 0,-0.5 0.4,-0.9 0.9,-0.9 h 4.5 c 4.8,0 8.1,3.3 8.1,7.6 v 0 c 0,4.3 -3.3,7.7 -8.1,7.7 h -4.5 c -0.5,0 -0.9,-0.4 -0.9,-0.9 z m 5.3,12.8 c 3.9,0 6.3,-2.6 6.3,-6 v 0 c 0,-3.4 -2.5,-6.1 -6.3,-6.1 H 427 v 12.1 z"
       style="fill:#ffffff" /><path
       inkscape:connector-curvature="0"
       id="XMLID_3033_"
       class="st4"
       d="m 442.4,2911.1 v -13.6 c 0,-0.5 0.4,-0.9 0.9,-0.9 h 9.5 c 0.4,0 0.8,0.3 0.8,0.8 0,0.4 -0.3,0.8 -0.8,0.8 h -8.6 v 5.2 h 7.7 c 0.4,0 0.8,0.4 0.8,0.8 0,0.4 -0.3,0.8 -0.8,0.8 h -7.7 v 5.4 h 8.7 c 0.4,0 0.8,0.3 0.8,0.8 0,0.5 -0.3,0.8 -0.8,0.8 h -9.6 c -0.5,-0.1 -0.9,-0.5 -0.9,-0.9 z"
       style="fill:#ffffff" /><path
       inkscape:connector-curvature="0"
       id="XMLID_3035_"
       class="st4"
       d="m 457,2897.4 c 0,-0.5 0.4,-0.9 0.9,-0.9 0.5,0 0.9,0.4 0.9,0.9 v 12.9 h 7.9 c 0.4,0 0.8,0.4 0.8,0.8 0,0.4 -0.3,0.8 -0.8,0.8 h -8.8 c -0.5,0 -0.9,-0.4 -0.9,-0.9 z"
       style="fill:#ffffff" /><path
       inkscape:connector-curvature="0"
       id="XMLID_3037_"
       class="st4"
       d="m 477.1,2897.5 c 0,-0.5 0.4,-0.9 0.9,-0.9 h 4.9 c 3.5,0 5.7,1.8 5.7,4.9 v 0 c 0,3.3 -2.8,5 -6,5 h -3.7 v 4.6 c 0,0.5 -0.4,0.9 -0.9,0.9 -0.5,0 -0.9,-0.4 -0.9,-0.9 z m 5.5,7.5 c 2.5,0 4.2,-1.4 4.2,-3.4 v 0 c 0,-2.2 -1.6,-3.3 -4.1,-3.3 h -3.9 v 6.7 z"
       style="fill:#ffffff" /><path
       inkscape:connector-curvature="0"
       id="XMLID_3040_"
       class="st4"
       d="m 489.4,2910.8 6.2,-13.6 c 0.2,-0.5 0.5,-0.8 1.1,-0.8 h 0.1 c 0.5,0 0.9,0.3 1.1,0.8 l 6.2,13.6 c 0.1,0.2 0.1,0.3 0.1,0.4 0,0.5 -0.4,0.8 -0.8,0.8 -0.4,0 -0.7,-0.3 -0.9,-0.6 l -1.6,-3.5 h -8.4 l -1.6,3.6 c -0.2,0.4 -0.4,0.6 -0.8,0.6 -0.4,0 -0.8,-0.3 -0.8,-0.8 -0.1,-0.2 0,-0.3 0.1,-0.5 z m 10.8,-4.5 -3.5,-7.8 -3.5,7.8 z"
       style="fill:#ffffff" /><path
       inkscape:connector-curvature="0"
       id="XMLID_3043_"
       class="st4"
       d="m 506,2904.3 v 0 c 0,-4.2 3.1,-8 7.7,-8 2.3,0 3.8,0.6 5.2,1.6 0.2,0.2 0.3,0.4 0.3,0.7 0,0.5 -0.4,0.9 -0.9,0.9 -0.2,0 -0.4,-0.1 -0.5,-0.2 -1.1,-0.8 -2.3,-1.4 -4.2,-1.4 -3.4,0 -5.8,2.9 -5.8,6.3 v 0 c 0,3.7 2.3,6.4 6.1,6.4 1.7,0 3.4,-0.7 4.4,-1.5 v -3.8 h -4.1 c -0.4,0 -0.8,-0.4 -0.8,-0.8 0,-0.4 0.3,-0.8 0.8,-0.8 h 4.9 c 0.5,0 0.9,0.4 0.9,0.9 v 4.7 c 0,0.4 -0.2,0.8 -0.6,1 -1.4,1 -3.3,1.9 -5.6,1.9 -4.8,0 -7.8,-3.5 -7.8,-7.9 z"
       style="fill:#ffffff" /><path
       inkscape:connector-curvature="0"
       id="XMLID_3045_"
       class="st4"
       d="m 523.1,2904.3 v 0 c 0,-4.3 3.2,-8 7.8,-8 4.7,0 7.8,3.7 7.8,7.9 v 0 c 0,4.2 -3.2,7.9 -7.8,7.9 -4.7,0.1 -7.8,-3.6 -7.8,-7.8 z m 13.8,0 v 0 c 0,-3.5 -2.5,-6.4 -6,-6.4 -3.5,0 -6,2.8 -6,6.3 v 0 c 0,3.5 2.5,6.3 6,6.3 3.5,0.1 6,-2.7 6,-6.2 z"
       style="fill:#ffffff" /></g></svg>