<?xml version="1.0" encoding="UTF-8" standalone="no"?>
<!-- Generator: Adobe Illustrator 19.0.0, SVG Export Plug-In . SVG Version: 6.00 Build 0)  -->

<svg
   xmlns:dc="http://purl.org/dc/elements/1.1/"
   xmlns:cc="http://creativecommons.org/ns#"
   xmlns:rdf="http://www.w3.org/1999/02/22-rdf-syntax-ns#"
   xmlns:svg="http://www.w3.org/2000/svg"
   xmlns="http://www.w3.org/2000/svg"
   xmlns:sodipodi="http://sodipodi.sourceforge.net/DTD/sodipodi-0.dtd"
   xmlns:inkscape="http://www.inkscape.org/namespaces/inkscape"
   version="1.1"
   id="Capa_1"
   x="0px"
   y="0px"
   viewBox="0 0 474.29997 45.700001"
   xml:space="preserve"
   sodipodi:docname="titulo_01.svg"
   inkscape:version="0.92.1 r15371"
   width="474.29999"
   height="45.700001"><metadata
     id="metadata1439"><rdf:RDF><cc:Work
         rdf:about=""><dc:format>image/svg+xml</dc:format><dc:type
           rdf:resource="http://purl.org/dc/dcmitype/StillImage" /><dc:title></dc:title></cc:Work></rdf:RDF></metadata><defs
     id="defs1437" /><sodipodi:namedview
     pagecolor="#ffffff"
     bordercolor="#666666"
     borderopacity="1"
     objecttolerance="10"
     gridtolerance="10"
     guidetolerance="10"
     inkscape:pageopacity="0"
     inkscape:pageshadow="2"
     inkscape:window-width="1920"
     inkscape:window-height="1007"
     id="namedview1435"
     showgrid="false"
     inkscape:zoom="0.89224233"
     inkscape:cx="346.8212"
     inkscape:cy="-173.58762"
     inkscape:window-x="0"
     inkscape:window-y="25"
     inkscape:window-maximized="1"
     inkscape:current-layer="Capa_1"
     fit-margin-top="0"
     fit-margin-left="0"
     fit-margin-right="0"
     fit-margin-bottom="0" /><style
     type="text/css"
     id="style2">
	.st0{fill:#88C1FF;}
	.st1{fill:#2251D6;}
	.st2{fill:#FFFFFF;}
	.st3{fill:#E3E7F5;}
	.st4{fill:#1A3789;}
	.st5{fill:#222221;}
	.st6{fill-rule:evenodd;clip-rule:evenodd;fill:#2251D6;}
	.st7{fill:#FDFFFE;}
	.st8{fill-rule:evenodd;clip-rule:evenodd;fill:#1A3789;}
	.st9{fill:none;stroke:#88C1FF;stroke-width:4;stroke-miterlimit:10;}
	.st10{fill:#6A5588;}
	.st11{fill-rule:evenodd;clip-rule:evenodd;fill:#88C1FF;}
</style><g
     id="XMLID_433_"
     transform="translate(-3.81592,-5.20871)" /><style
     id="style2-3"
     type="text/css">
	.st0{fill:#88C1FF;}
	.st1{fill:#2251D6;}
	.st2{fill:#FFFFFF;}
	.st3{fill:#E3E7F5;}
	.st4{fill:#1A3789;}
	.st5{fill:#222221;}
	.st6{fill-rule:evenodd;clip-rule:evenodd;fill:#2251D6;}
	.st7{fill:#FDFFFE;}
	.st8{fill-rule:evenodd;clip-rule:evenodd;fill:#1A3789;}
	.st9{fill:none;stroke:#88C1FF;stroke-width:4;stroke-miterlimit:10;}
	.st10{fill:#6A5588;}
	.st11{fill-rule:evenodd;clip-rule:evenodd;fill:#88C1FF;}
</style><polygon
     transform="translate(-187.7,-467.8)"
     id="XMLID_2030_"
     class="st1"
     points="192.4,505.2 187.7,513.5 662,513.5 655.8,506.4 662,501.4 657,496 662,490.6 657.3,485.2 662,480.6 655.4,476.5 662,467.8 187.7,467.8 192.4,475.2 187.7,479.8 192.4,484 187.7,490.2 192.4,496.4 187.7,501.4 "
     style="fill:#2251d6" /><g
     transform="translate(-187.7,-467.8)"
     id="XMLID_3569_"><path
       inkscape:connector-curvature="0"
       id="XMLID_3570_"
       class="st2"
       d="m 287.9,484.8 c 0,-1 0.8,-1.8 1.8,-1.8 1,0 1.8,0.8 1.8,1.8 v 13.1 c 0,1 -0.8,1.8 -1.8,1.8 -1,0 -1.8,-0.8 -1.8,-1.8 z"
       style="fill:#ffffff" /><path
       inkscape:connector-curvature="0"
       id="XMLID_3572_"
       class="st2"
       d="m 295.6,484.8 c 0,-1 0.8,-1.8 1.8,-1.8 h 0.4 c 0.9,0 1.4,0.4 1.9,1.1 l 7,9.2 v -8.5 c 0,-1 0.8,-1.8 1.8,-1.8 1,0 1.8,0.8 1.8,1.8 v 13.1 c 0,1 -0.8,1.8 -1.8,1.8 h -0.1 c -0.9,0 -1.4,-0.4 -1.9,-1.1 l -7.2,-9.5 v 8.8 c 0,1 -0.8,1.8 -1.8,1.8 -1,0 -1.8,-0.8 -1.8,-1.8 v -13.1 z"
       style="fill:#ffffff" /><path
       inkscape:connector-curvature="0"
       id="XMLID_3574_"
       class="st2"
       d="m 314.4,484.8 c 0,-1 0.8,-1.8 1.8,-1.8 1,0 1.8,0.8 1.8,1.8 v 13.1 c 0,1 -0.8,1.8 -1.8,1.8 -1,0 -1.8,-0.8 -1.8,-1.8 z"
       style="fill:#ffffff" /><path
       inkscape:connector-curvature="0"
       id="XMLID_3576_"
       class="st2"
       d="m 321.4,491.4 v 0 c 0,-4.7 3.5,-8.6 8.6,-8.6 2.5,0 4.1,0.7 5.5,1.7 0.4,0.3 0.7,0.8 0.7,1.4 0,1 -0.8,1.8 -1.8,1.8 -0.5,0 -0.8,-0.2 -1.1,-0.4 -1,-0.8 -2.1,-1.2 -3.4,-1.2 -2.8,0 -4.8,2.3 -4.8,5.1 v 0 c 0,2.8 2,5.2 4.8,5.2 1.5,0 2.5,-0.5 3.6,-1.3 0.3,-0.2 0.7,-0.4 1.1,-0.4 0.9,0 1.7,0.8 1.7,1.7 0,0.6 -0.3,1 -0.6,1.3 -1.5,1.3 -3.2,2.1 -5.9,2.1 -4.8,0.1 -8.4,-3.7 -8.4,-8.4 z"
       style="fill:#ffffff" /><path
       inkscape:connector-curvature="0"
       id="XMLID_3578_"
       class="st2"
       d="m 339.7,484.8 c 0,-1 0.8,-1.8 1.8,-1.8 1,0 1.8,0.8 1.8,1.8 v 13.1 c 0,1 -0.8,1.8 -1.8,1.8 -1,0 -1.8,-0.8 -1.8,-1.8 z"
       style="fill:#ffffff" /><path
       inkscape:connector-curvature="0"
       id="XMLID_3580_"
       class="st2"
       d="m 346.7,491.4 v 0 c 0,-4.7 3.7,-8.6 8.8,-8.6 5.1,0 8.7,3.8 8.7,8.5 v 0 c 0,4.7 -3.7,8.5 -8.8,8.5 -5.1,0.1 -8.7,-3.7 -8.7,-8.4 z m 13.7,0 v 0 c 0,-2.9 -2.1,-5.2 -5,-5.2 -2.9,0 -4.9,2.3 -4.9,5.1 v 0 c 0,2.8 2.1,5.2 5,5.2 2.9,0 4.9,-2.3 4.9,-5.1 z"
       style="fill:#ffffff" /><path
       inkscape:connector-curvature="0"
       id="XMLID_3583_"
       class="st2"
       d="m 374.5,484.9 c 0,-1 0.8,-1.8 1.8,-1.8 h 4.6 c 5.2,0 8.8,3.6 8.8,8.2 v 0 c 0,4.6 -3.6,8.2 -8.8,8.2 h -4.6 c -1,0 -1.8,-0.8 -1.8,-1.8 z m 6.4,11.4 c 3,0 5,-2 5,-4.9 v 0 c 0,-2.9 -2,-5 -5,-5 h -2.8 v 9.9 z"
       style="fill:#ffffff" /><path
       inkscape:connector-curvature="0"
       id="XMLID_3586_"
       class="st2"
       d="M 392.9,497.8 V 485 c 0,-1 0.8,-1.8 1.8,-1.8 h 9.1 c 0.9,0 1.6,0.7 1.6,1.6 0,0.9 -0.7,1.6 -1.6,1.6 h -7.3 v 3.3 h 6.3 c 0.9,0 1.6,0.7 1.6,1.6 0,0.9 -0.7,1.6 -1.6,1.6 h -6.3 v 3.5 h 7.5 c 0.9,0 1.6,0.7 1.6,1.6 0,0.9 -0.7,1.6 -1.6,1.6 h -9.2 c -1.1,0 -1.9,-0.8 -1.9,-1.8 z"
       style="fill:#ffffff" /><path
       inkscape:connector-curvature="0"
       id="XMLID_3588_"
       class="st2"
       d="m 415.7,484.8 c 0,-1 0.8,-1.8 1.8,-1.8 1,0 1.8,0.8 1.8,1.8 v 11.5 h 6.7 c 0.9,0 1.6,0.7 1.6,1.6 0,0.9 -0.7,1.6 -1.6,1.6 h -8.5 c -1,0 -1.8,-0.8 -1.8,-1.8 z"
       style="fill:#ffffff" /><path
       inkscape:connector-curvature="0"
       id="XMLID_3590_"
       class="st2"
       d="m 429.3,497.2 5.7,-13 c 0.4,-0.9 1.1,-1.4 2.1,-1.4 h 0.2 c 1,0 1.7,0.5 2.1,1.4 l 5.7,13 c 0.1,0.3 0.2,0.5 0.2,0.7 0,1 -0.8,1.7 -1.7,1.7 -0.8,0 -1.4,-0.5 -1.7,-1.2 l -1.1,-2.6 h -7.2 l -1.2,2.7 c -0.3,0.7 -0.9,1.1 -1.7,1.1 -0.9,0 -1.7,-0.8 -1.7,-1.7 0.1,-0.1 0.2,-0.4 0.3,-0.7 z m 10.2,-4.5 -2.3,-5.4 -2.3,5.4 z"
       style="fill:#ffffff" /><path
       inkscape:connector-curvature="0"
       id="XMLID_3593_"
       class="st2"
       d="m 454.6,491.4 v 0 c 0,-4.7 3.6,-8.6 8.6,-8.6 2.5,0 4.1,0.6 5.6,1.6 0.4,0.3 0.8,0.8 0.8,1.5 0,1 -0.8,1.8 -1.8,1.8 -0.5,0 -0.8,-0.2 -1.1,-0.4 -1,-0.7 -2,-1.1 -3.6,-1.1 -2.6,0 -4.7,2.3 -4.7,5.1 v 0 c 0,3 2.1,5.2 5,5.2 1.3,0 2.5,-0.3 3.4,-1 v -2.4 h -2.4 c -0.9,0 -1.6,-0.7 -1.6,-1.6 0,-0.9 0.7,-1.6 1.6,-1.6 h 4.1 c 1,0 1.8,0.8 1.8,1.8 v 4 c 0,1.1 -0.4,1.8 -1.3,2.3 -1.3,0.8 -3.3,1.6 -5.8,1.6 -5.1,0.3 -8.6,-3.3 -8.6,-8.2 z"
       style="fill:#ffffff" /><path
       inkscape:connector-curvature="0"
       id="XMLID_3595_"
       class="st2"
       d="M 473.8,497.8 V 485 c 0,-1 0.8,-1.8 1.8,-1.8 h 9.1 c 0.9,0 1.6,0.7 1.6,1.6 0,0.9 -0.7,1.6 -1.6,1.6 h -7.3 v 3.3 h 6.3 c 0.9,0 1.6,0.7 1.6,1.6 0,0.9 -0.7,1.6 -1.6,1.6 h -6.3 v 3.5 h 7.5 c 0.9,0 1.6,0.7 1.6,1.6 0,0.9 -0.7,1.6 -1.6,1.6 h -9.2 c -1.1,0 -1.9,-0.8 -1.9,-1.8 z"
       style="fill:#ffffff" /><path
       inkscape:connector-curvature="0"
       id="XMLID_3597_"
       class="st2"
       d="m 489.2,497.8 c -0.4,-0.3 -0.7,-0.8 -0.7,-1.4 0,-0.9 0.8,-1.7 1.7,-1.7 0.5,0 0.8,0.2 1,0.3 1.2,0.9 2.6,1.5 4.2,1.5 1.5,0 2.4,-0.6 2.4,-1.6 v 0 c 0,-0.9 -0.6,-1.4 -3.3,-2.1 -3.3,-0.8 -5.5,-1.8 -5.5,-5 v 0 c 0,-3 2.4,-5 5.8,-5 2,0 3.7,0.5 5.2,1.5 0.4,0.2 0.8,0.7 0.8,1.4 0,0.9 -0.8,1.7 -1.7,1.7 -0.4,0 -0.6,-0.1 -0.9,-0.3 -1.2,-0.7 -2.3,-1.1 -3.5,-1.1 -1.4,0 -2.1,0.6 -2.1,1.4 v 0 c 0,1.1 0.7,1.4 3.6,2.2 3.3,0.9 5.2,2.1 5.2,4.9 v 0 c 0,3.3 -2.5,5.1 -6,5.1 -2.2,0.2 -4.4,-0.4 -6.2,-1.8 z"
       style="fill:#ffffff" /><path
       inkscape:connector-curvature="0"
       id="XMLID_3599_"
       class="st2"
       d="m 508.1,486.4 h -3.5 c -0.9,0 -1.7,-0.8 -1.7,-1.7 0,-0.9 0.8,-1.7 1.7,-1.7 h 10.6 c 0.9,0 1.7,0.8 1.7,1.7 0,0.9 -0.8,1.7 -1.7,1.7 h -3.5 v 11.5 c 0,1 -0.8,1.8 -1.8,1.8 -1,0 -1.8,-0.8 -1.8,-1.8 z"
       style="fill:#ffffff" /><path
       inkscape:connector-curvature="0"
       id="XMLID_3601_"
       class="st2"
       d="m 519.6,484.8 c 0,-1 0.8,-1.8 1.8,-1.8 1,0 1.8,0.8 1.8,1.8 v 13.1 c 0,1 -0.8,1.8 -1.8,1.8 -1,0 -1.8,-0.8 -1.8,-1.8 z"
       style="fill:#ffffff" /><path
       inkscape:connector-curvature="0"
       id="XMLID_3603_"
       class="st2"
       d="m 526.6,491.4 v 0 c 0,-4.7 3.7,-8.6 8.8,-8.6 5.1,0 8.7,3.8 8.7,8.5 v 0 c 0,4.7 -3.7,8.5 -8.8,8.5 -5.1,0 -8.7,-3.7 -8.7,-8.4 z m 13.8,0 v 0 c 0,-2.9 -2.1,-5.2 -5,-5.2 -2.9,0 -4.9,2.3 -4.9,5.1 v 0 c 0,2.8 2.1,5.2 5,5.2 2.9,0 4.9,-2.3 4.9,-5.1 z m -6,-10.3 c 0,-0.2 0.1,-0.4 0.2,-0.6 l 1.3,-2 c 0.3,-0.5 0.8,-0.8 1.3,-0.8 0.9,0 2,0.5 2,1.1 0,0.3 -0.2,0.6 -0.5,0.8 l -1.5,1.4 c -0.7,0.6 -1.2,0.8 -2,0.8 -0.4,-0.1 -0.8,-0.3 -0.8,-0.7 z"
       style="fill:#ffffff" /><path
       inkscape:connector-curvature="0"
       id="XMLID_3607_"
       class="st2"
       d="m 547.4,484.8 c 0,-1 0.8,-1.8 1.8,-1.8 h 0.4 c 0.9,0 1.4,0.4 1.9,1.1 l 7,9.2 v -8.5 c 0,-1 0.8,-1.8 1.8,-1.8 1,0 1.8,0.8 1.8,1.8 v 13.1 c 0,1 -0.8,1.8 -1.8,1.8 h -0.1 c -0.9,0 -1.4,-0.4 -1.9,-1.1 l -7.2,-9.5 v 8.8 c 0,1 -0.8,1.8 -1.8,1.8 -1,0 -1.8,-0.8 -1.8,-1.8 v -13.1 z"
       style="fill:#ffffff" /></g></svg>