<?xml version="1.0" encoding="UTF-8" standalone="no"?>
<!-- Generator: Adobe Illustrator 19.0.0, SVG Export Plug-In . SVG Version: 6.00 Build 0)  -->

<svg
   xmlns:dc="http://purl.org/dc/elements/1.1/"
   xmlns:cc="http://creativecommons.org/ns#"
   xmlns:rdf="http://www.w3.org/1999/02/22-rdf-syntax-ns#"
   xmlns:svg="http://www.w3.org/2000/svg"
   xmlns="http://www.w3.org/2000/svg"
   xmlns:sodipodi="http://sodipodi.sourceforge.net/DTD/sodipodi-0.dtd"
   xmlns:inkscape="http://www.inkscape.org/namespaces/inkscape"
   version="1.1"
   id="Capa_1"
   x="0px"
   y="0px"
   viewBox="0 0 481.50469 42.52998"
   xml:space="preserve"
   sodipodi:docname="titulo_08.svg"
   inkscape:version="0.92.1 r15371"
   width="481.5047"
   height="42.52998"><metadata
     id="metadata1439"><rdf:RDF><cc:Work
         rdf:about=""><dc:format>image/svg+xml</dc:format><dc:type
           rdf:resource="http://purl.org/dc/dcmitype/StillImage" /><dc:title /></cc:Work></rdf:RDF></metadata><defs
     id="defs1437" /><sodipodi:namedview
     pagecolor="#ffffff"
     bordercolor="#666666"
     borderopacity="1"
     objecttolerance="10"
     gridtolerance="10"
     guidetolerance="10"
     inkscape:pageopacity="0"
     inkscape:pageshadow="2"
     inkscape:window-width="1920"
     inkscape:window-height="1007"
     id="namedview1435"
     showgrid="false"
     inkscape:zoom="2.5236424"
     inkscape:cx="204.91629"
     inkscape:cy="38.612623"
     inkscape:window-x="0"
     inkscape:window-y="25"
     inkscape:window-maximized="1"
     inkscape:current-layer="Capa_1"
     fit-margin-top="0"
     fit-margin-left="0"
     fit-margin-right="0"
     fit-margin-bottom="0" /><style
     type="text/css"
     id="style2">
	.st0{fill:#88C1FF;}
	.st1{fill:#2251D6;}
	.st2{fill:#FFFFFF;}
	.st3{fill:#E3E7F5;}
	.st4{fill:#1A3789;}
	.st5{fill:#222221;}
	.st6{fill-rule:evenodd;clip-rule:evenodd;fill:#2251D6;}
	.st7{fill:#FDFFFE;}
	.st8{fill-rule:evenodd;clip-rule:evenodd;fill:#1A3789;}
	.st9{fill:none;stroke:#88C1FF;stroke-width:4;stroke-miterlimit:10;}
	.st10{fill:#6A5588;}
	.st11{fill-rule:evenodd;clip-rule:evenodd;fill:#88C1FF;}
</style><g
     id="XMLID_433_"
     transform="translate(-198.32388,-215.22685)" /><style
     id="style2-3"
     type="text/css">
	.st0{fill:#88C1FF;}
	.st1{fill:#2251D6;}
	.st2{fill:#FFFFFF;}
	.st3{fill:#E3E7F5;}
	.st4{fill:#1A3789;}
	.st5{fill:#222221;}
	.st6{fill-rule:evenodd;clip-rule:evenodd;fill:#2251D6;}
	.st7{fill:#FDFFFE;}
	.st8{fill-rule:evenodd;clip-rule:evenodd;fill:#1A3789;}
	.st9{fill:none;stroke:#88C1FF;stroke-width:4;stroke-miterlimit:10;}
	.st10{fill:#6A5588;}
	.st11{fill-rule:evenodd;clip-rule:evenodd;fill:#88C1FF;}
</style><polygon
     transform="matrix(1.2493635,0,0,0.93063411,-290.1022,-2155.4417)"
     id="XMLID_1006_"
     class="st3"
     points="611.1,2354.8 617.6,2349.8 612.3,2344.4 617.6,2339 612.7,2333.6 617.6,2329 610.6,2324.9 617.6,2316.1 232.2,2316.1 237.1,2323.6 232.2,2328.2 237.1,2332.3 232.2,2338.6 237.1,2344.8 232.2,2349.8 237.1,2353.5 232.2,2361.8 617.6,2361.8 "
     style="fill:#cad9ee;fill-opacity:1" /><g
     transform="matrix(0.85159077,0,0,0.85159077,-195.85824,-2403.512)"
     id="XMLID_1_"
     style="fill:#2251d6;fill-opacity:1"><path
       inkscape:connector-curvature="0"
       id="XMLID_3_"
       class="st2"
       d="m 263.9,2842.8 c 0,-1.2 1,-2.2 2.2,-2.2 h 6.8 c 2.5,0 4.4,0.7 5.7,2 1.1,1.1 1.7,2.6 1.7,4.5 v 0.1 c 0,3.1 -1.5,5 -3.9,6 l 3,3.7 c 0.4,0.5 0.7,1 0.7,1.7 0,1.2 -1,2 -2.1,2 -1,0 -1.6,-0.5 -2.1,-1.1 l -4.2,-5.3 h -3.5 v 4.3 c 0,1.2 -1,2.2 -2.2,2.2 -1.2,0 -2.2,-1 -2.2,-2.2 v -15.7 z m 8.7,7.4 c 2.1,0 3.3,-1.1 3.3,-2.8 v -0.1 c 0,-1.9 -1.3,-2.8 -3.4,-2.8 h -4.3 v 5.7 z"
       style="fill:#2251d6;fill-opacity:1" /><path
       inkscape:connector-curvature="0"
       id="XMLID_6_"
       class="st2"
       d="m 284.2,2858.2 v -15.4 c 0,-1.2 1,-2.2 2.2,-2.2 h 10.9 c 1.1,0 1.9,0.9 1.9,1.9 0,1 -0.9,1.9 -1.9,1.9 h -8.8 v 4 h 7.5 c 1.1,0 1.9,0.9 1.9,1.9 0,1 -0.9,1.9 -1.9,1.9 h -7.5 v 4.1 h 8.9 c 1.1,0 1.9,0.9 1.9,1.9 0,1 -0.9,1.9 -1.9,1.9 h -11.1 c -1.1,0.2 -2.1,-0.7 -2.1,-1.9 z"
       style="fill:#2251d6;fill-opacity:1" /><path
       inkscape:connector-curvature="0"
       id="XMLID_8_"
       class="st2"
       d="m 302.2,2850.5 v 0 c 0,-5.7 4.2,-10.2 10.3,-10.2 3,0 5,0.8 6.6,2 0.5,0.3 0.8,1 0.8,1.7 0,1.2 -1,2.1 -2.1,2.1 -0.6,0 -1,-0.2 -1.3,-0.4 -1.2,-0.9 -2.5,-1.4 -4,-1.4 -3.3,0 -5.7,2.8 -5.7,6.1 v 0.1 c 0,3.4 2.3,6.2 5.7,6.2 1.8,0 3,-0.6 4.3,-1.5 0.3,-0.3 0.8,-0.5 1.3,-0.5 1.1,0 2,0.9 2,2 0,0.7 -0.3,1.2 -0.7,1.5 -1.8,1.5 -3.9,2.5 -7,2.5 -5.9,0 -10.2,-4.5 -10.2,-10.2 z"
       style="fill:#2251d6;fill-opacity:1" /><path
       inkscape:connector-curvature="0"
       id="XMLID_10_"
       class="st2"
       d="m 323.8,2858.2 v -15.4 c 0,-1.2 1,-2.2 2.2,-2.2 h 10.9 c 1.1,0 1.9,0.9 1.9,1.9 0,1 -0.9,1.9 -1.9,1.9 h -8.8 v 4 h 7.5 c 1.1,0 1.9,0.9 1.9,1.9 0,1 -0.9,1.9 -1.9,1.9 h -7.5 v 4.1 h 8.9 c 1.1,0 1.9,0.9 1.9,1.9 0,1 -0.9,1.9 -1.9,1.9 h -11 c -1.2,0.2 -2.2,-0.7 -2.2,-1.9 z"
       style="fill:#2251d6;fill-opacity:1" /><path
       inkscape:connector-curvature="0"
       id="XMLID_12_"
       class="st2"
       d="m 342.7,2842.8 c 0,-1.2 1,-2.2 2.2,-2.2 h 5.9 c 4.7,0 7.5,2.8 7.5,6.8 v 0.1 c 0,4.6 -3.5,6.9 -8,6.9 H 347 v 3.9 c 0,1.2 -1,2.2 -2.2,2.2 -1.2,0 -2.2,-1 -2.2,-2.2 v -15.5 z m 7.8,7.8 c 2.2,0 3.4,-1.3 3.4,-3 v -0.1 c 0,-1.9 -1.4,-3 -3.5,-3 H 347 v 6 h 3.5 z"
       style="fill:#2251d6;fill-opacity:1" /><path
       inkscape:connector-curvature="0"
       id="XMLID_15_"
       class="st2"
       d="m 360.6,2850.5 v 0 c 0,-5.7 4.2,-10.2 10.3,-10.2 3,0 5,0.8 6.6,2 0.5,0.3 0.8,1 0.8,1.7 0,1.2 -1,2.1 -2.1,2.1 -0.6,0 -1,-0.2 -1.3,-0.4 -1.2,-0.9 -2.5,-1.4 -4,-1.4 -3.3,0 -5.7,2.8 -5.7,6.1 v 0.1 c 0,3.4 2.3,6.2 5.7,6.2 1.8,0 3,-0.6 4.3,-1.5 0.3,-0.3 0.8,-0.5 1.3,-0.5 1.1,0 2,0.9 2,2 0,0.7 -0.3,1.2 -0.7,1.5 -1.8,1.5 -3.9,2.5 -7,2.5 -5.9,0 -10.2,-4.5 -10.2,-10.2 z"
       style="fill:#2251d6;fill-opacity:1" /><path
       inkscape:connector-curvature="0"
       id="XMLID_17_"
       class="st2"
       d="m 382.4,2842.6 c 0,-1.2 1,-2.2 2.2,-2.2 1.2,0 2.2,1 2.2,2.2 v 15.7 c 0,1.2 -1,2.2 -2.2,2.2 -1.2,0 -2.2,-1 -2.2,-2.2 z"
       style="fill:#2251d6;fill-opacity:1" /><path
       inkscape:connector-curvature="0"
       id="XMLID_20_"
       class="st2"
       d="m 390.8,2850.5 v 0 c 0,-5.7 4.4,-10.2 10.5,-10.2 6.1,0 10.4,4.5 10.4,10.1 v 0.1 c 0,5.6 -4.4,10.2 -10.5,10.2 -6.1,0 -10.4,-4.6 -10.4,-10.2 z m 16.4,0 v 0 c 0,-3.4 -2.5,-6.2 -6,-6.2 -3.5,0 -5.9,2.8 -5.9,6.1 v 0.1 c 0,3.4 2.5,6.2 6,6.2 3.5,0 5.9,-2.8 5.9,-6.2 z m -7.1,-12.3 c 0,-0.3 0.1,-0.5 0.3,-0.8 l 1.5,-2.4 c 0.4,-0.6 0.9,-1 1.6,-1 1,0 2.4,0.6 2.4,1.3 0,0.4 -0.2,0.7 -0.6,1 l -1.7,1.6 c -0.8,0.8 -1.5,0.9 -2.4,0.9 -0.6,0.2 -1.1,-0.1 -1.1,-0.6 z"
       style="fill:#2251d6;fill-opacity:1" /><path
       inkscape:connector-curvature="0"
       id="XMLID_25_"
       class="st2"
       d="m 415.6,2842.7 c 0,-1.2 1,-2.2 2.2,-2.2 h 0.5 c 1,0 1.7,0.5 2.3,1.3 l 8.4,11 v -10.2 c 0,-1.2 1,-2.1 2.1,-2.1 1.1,0 2.1,1 2.1,2.1 v 15.7 c 0,1.2 -1,2.2 -2.2,2.2 h -0.1 c -1,0 -1.7,-0.5 -2.3,-1.3 l -8.7,-11.4 v 10.6 c 0,1.2 -1,2.1 -2.1,2.1 -1.1,0 -2.1,-1 -2.1,-2.1 v -15.7 z"
       style="fill:#2251d6;fill-opacity:1" /><path
       inkscape:connector-curvature="0"
       id="XMLID_28_"
       class="st2"
       d="m 446.3,2842.8 c 0,-1.2 1,-2.2 2.2,-2.2 h 5.5 c 6.2,0 10.5,4.2 10.5,9.8 v 0.1 c 0,5.5 -4.3,9.8 -10.5,9.8 h -5.5 c -1.2,0 -2.2,-1 -2.2,-2.2 z m 7.6,13.6 c 3.5,0 5.9,-2.4 5.9,-5.9 v -0.1 c 0,-3.5 -2.4,-5.9 -5.9,-5.9 h -3.3 v 11.9 z"
       style="fill:#2251d6;fill-opacity:1" /><path
       inkscape:connector-curvature="0"
       id="XMLID_32_"
       class="st2"
       d="m 468.3,2858.2 v -15.4 c 0,-1.2 1,-2.2 2.2,-2.2 h 10.9 c 1.1,0 1.9,0.9 1.9,1.9 0,1 -0.9,1.9 -1.9,1.9 h -8.8 v 4 h 7.5 c 1.1,0 1.9,0.9 1.9,1.9 0,1 -0.9,1.9 -1.9,1.9 h -7.5 v 4.1 h 8.9 c 1.1,0 1.9,0.9 1.9,1.9 0,1 -0.9,1.9 -1.9,1.9 h -11.1 c -1.2,0.2 -2.1,-0.7 -2.1,-1.9 z"
       style="fill:#2251d6;fill-opacity:1" /><path
       inkscape:connector-curvature="0"
       id="XMLID_34_"
       class="st2"
       d="m 487.1,2842.6 c 0,-1.2 1,-2.2 2.2,-2.2 1.2,0 2.2,1 2.2,2.2 v 13.8 h 8 c 1.1,0 2,0.9 2,2 0,1.1 -0.9,2 -2,2 h -10.2 c -1.2,0 -2.2,-1 -2.2,-2.2 z"
       style="fill:#2251d6;fill-opacity:1" /><path
       inkscape:connector-curvature="0"
       id="XMLID_36_"
       class="st2"
       d="m 513,2842.8 c 0,-1.2 1,-2.2 2.2,-2.2 h 7 c 2.3,0 4,0.6 5.1,1.7 0.9,0.9 1.4,2 1.4,3.3 v 0.1 c 0,2.2 -1.2,3.5 -2.6,4.2 2.3,0.9 3.7,2.2 3.7,4.8 v 0.1 c 0,3.6 -2.9,5.4 -7.4,5.4 h -7.2 c -1.2,0 -2.2,-1 -2.2,-2.2 z m 8.2,5.8 c 1.9,0 3.1,-0.6 3.1,-2.1 v -0.1 c 0,-1.3 -1,-2 -2.8,-2 h -4.3 v 4.2 z m 1.1,7.9 c 1.9,0 3.1,-0.7 3.1,-2.1 v -0.1 c 0,-1.3 -1,-2.1 -3.2,-2.1 h -5 v 4.3 z"
       style="fill:#2251d6;fill-opacity:1" /><path
       inkscape:connector-curvature="0"
       id="XMLID_40_"
       class="st2"
       d="m 533.5,2842.6 c 0,-1.2 1,-2.2 2.2,-2.2 1.2,0 2.2,1 2.2,2.2 v 15.7 c 0,1.2 -1,2.2 -2.2,2.2 -1.2,0 -2.2,-1 -2.2,-2.2 z"
       style="fill:#2251d6;fill-opacity:1" /><path
       inkscape:connector-curvature="0"
       id="XMLID_42_"
       class="st2"
       d="m 542.7,2858.2 v -15.4 c 0,-1.2 1,-2.2 2.2,-2.2 h 10.9 c 1.1,0 1.9,0.9 1.9,1.9 0,1 -0.9,1.9 -1.9,1.9 H 547 v 4 h 7.5 c 1.1,0 1.9,0.9 1.9,1.9 0,1 -0.9,1.9 -1.9,1.9 H 547 v 4.1 h 8.9 c 1.1,0 1.9,0.9 1.9,1.9 0,1 -0.9,1.9 -1.9,1.9 h -11.1 c -1.1,0.2 -2.1,-0.7 -2.1,-1.9 z"
       style="fill:#2251d6;fill-opacity:1" /><path
       inkscape:connector-curvature="0"
       id="XMLID_45_"
       class="st2"
       d="m 561.6,2842.7 c 0,-1.2 1,-2.2 2.2,-2.2 h 0.5 c 1,0 1.7,0.5 2.3,1.3 l 8.4,11 v -10.2 c 0,-1.2 1,-2.1 2.1,-2.1 1.1,0 2.1,1 2.1,2.1 v 15.7 c 0,1.2 -1,2.2 -2.2,2.2 h -0.1 c -1,0 -1.7,-0.5 -2.3,-1.3 l -8.7,-11.4 v 10.6 c 0,1.2 -1,2.1 -2.1,2.1 -1.1,0 -2.1,-1 -2.1,-2.1 v -15.7 z"
       style="fill:#2251d6;fill-opacity:1" /><path
       inkscape:connector-curvature="0"
       id="XMLID_47_"
       class="st2"
       d="m 591.4,2850.5 v 0 c 0,-5.7 4.4,-10.2 10.5,-10.2 6.1,0 10.4,4.5 10.4,10.1 v 0.1 c 0,5.6 -4.4,10.2 -10.5,10.2 -6.1,0 -10.4,-4.6 -10.4,-10.2 z m 16.4,0 v 0 c 0,-3.4 -2.5,-6.2 -6,-6.2 -3.5,0 -5.9,2.8 -5.9,6.1 v 0.1 c 0,3.4 2.5,6.2 6,6.2 3.4,0 5.9,-2.8 5.9,-6.2 z"
       style="fill:#2251d6;fill-opacity:1" /><path
       inkscape:connector-curvature="0"
       id="XMLID_53_"
       class="st2"
       d="m 624.2,2858.2 c -0.5,-0.3 -0.8,-1 -0.8,-1.6 0,-1.1 0.9,-2 2,-2 0.6,0 1,0.2 1.2,0.4 1.5,1.1 3.1,1.8 5,1.8 1.8,0 2.8,-0.7 2.8,-1.9 v -0.1 c 0,-1.1 -0.7,-1.7 -4,-2.5 -4,-1 -6.5,-2.1 -6.5,-6 v -0.1 c 0,-3.6 2.9,-5.9 6.9,-5.9 2.4,0 4.5,0.6 6.2,1.7 0.5,0.3 1,0.9 1,1.7 0,1.1 -0.9,2 -2,2 -0.4,0 -0.8,-0.1 -1.1,-0.3 -1.4,-0.8 -2.8,-1.3 -4.1,-1.3 -1.7,0 -2.5,0.8 -2.5,1.7 v 0.1 c 0,1.3 0.8,1.7 4.2,2.6 4,1 6.2,2.5 6.2,5.9 v 0.1 c 0,3.9 -3,6.1 -7.2,6.1 -2.5,0 -5.1,-0.8 -7.3,-2.4 z"
       style="fill:#2251d6;fill-opacity:1" /><path
       inkscape:connector-curvature="0"
       id="XMLID_61_"
       class="st2"
       d="m 642.6,2858.2 v -15.4 c 0,-1.2 1,-2.2 2.2,-2.2 h 10.9 c 1.1,0 1.9,0.9 1.9,1.9 0,1 -0.9,1.9 -1.9,1.9 h -8.8 v 4 h 7.5 c 1.1,0 1.9,0.9 1.9,1.9 0,1 -0.9,1.9 -1.9,1.9 h -7.5 v 4.1 h 8.9 c 1.1,0 1.9,0.9 1.9,1.9 0,1 -0.9,1.9 -1.9,1.9 h -11.1 c -1.2,0.2 -2.1,-0.7 -2.1,-1.9 z"
       style="fill:#2251d6;fill-opacity:1" /><path
       inkscape:connector-curvature="0"
       id="XMLID_64_"
       class="st2"
       d="m 661.4,2842.8 c 0,-1.2 1,-2.2 2.2,-2.2 h 6.8 c 2.5,0 4.4,0.7 5.7,2 1.1,1.1 1.7,2.6 1.7,4.5 v 0.1 c 0,3.1 -1.5,5 -3.9,6 l 3,3.7 c 0.4,0.5 0.7,1 0.7,1.7 0,1.2 -1,2 -2.1,2 -1,0 -1.6,-0.5 -2.1,-1.1 l -4.2,-5.3 h -3.5 v 4.3 c 0,1.2 -1,2.2 -2.2,2.2 -1.2,0 -2.2,-1 -2.2,-2.2 v -15.7 z m 8.8,7.4 c 2.1,0 3.3,-1.1 3.3,-2.8 v -0.1 c 0,-1.9 -1.3,-2.8 -3.4,-2.8 h -4.3 v 5.7 z"
       style="fill:#2251d6;fill-opacity:1" /><path
       inkscape:connector-curvature="0"
       id="XMLID_69_"
       class="st2"
       d="m 686.8,2858.9 -6.4,-15.3 c -0.1,-0.3 -0.3,-0.7 -0.3,-1 0,-1.2 1,-2.1 2.2,-2.1 1.1,0 1.9,0.6 2.2,1.5 l 4.9,12.7 5,-12.9 c 0.3,-0.7 1,-1.4 2.1,-1.4 1.2,0 2.1,0.9 2.1,2.1 0,0.3 -0.1,0.7 -0.2,1 l -6.4,15.4 c -0.5,1.1 -1.3,1.7 -2.4,1.7 h -0.3 c -1.3,0 -2.1,-0.6 -2.5,-1.7 z"
       style="fill:#2251d6;fill-opacity:1" /><path
       inkscape:connector-curvature="0"
       id="XMLID_72_"
       class="st2"
       d="m 702.1,2842.6 c 0,-1.2 1,-2.2 2.2,-2.2 1.2,0 2.2,1 2.2,2.2 v 15.7 c 0,1.2 -1,2.2 -2.2,2.2 -1.2,0 -2.2,-1 -2.2,-2.2 z"
       style="fill:#2251d6;fill-opacity:1" /><path
       inkscape:connector-curvature="0"
       id="XMLID_78_"
       class="st2"
       d="m 710.5,2850.5 v 0 c 0,-5.7 4.2,-10.2 10.3,-10.2 3,0 5,0.8 6.6,2 0.5,0.3 0.8,1 0.8,1.7 0,1.2 -1,2.1 -2.1,2.1 -0.6,0 -1,-0.2 -1.3,-0.4 -1.2,-0.9 -2.5,-1.4 -4,-1.4 -3.3,0 -5.7,2.8 -5.7,6.1 v 0.1 c 0,3.4 2.3,6.2 5.7,6.2 1.8,0 3,-0.6 4.3,-1.5 0.3,-0.3 0.8,-0.5 1.3,-0.5 1.1,0 2,0.9 2,2 0,0.7 -0.3,1.2 -0.7,1.5 -1.8,1.5 -3.9,2.5 -7,2.5 -5.9,0 -10.2,-4.5 -10.2,-10.2 z"
       style="fill:#2251d6;fill-opacity:1" /><path
       inkscape:connector-curvature="0"
       id="XMLID_87_"
       class="st2"
       d="m 732.3,2842.6 c 0,-1.2 1,-2.2 2.2,-2.2 1.2,0 2.2,1 2.2,2.2 v 15.7 c 0,1.2 -1,2.2 -2.2,2.2 -1.2,0 -2.2,-1 -2.2,-2.2 z"
       style="fill:#2251d6;fill-opacity:1" /><path
       inkscape:connector-curvature="0"
       id="XMLID_92_"
       class="st2"
       d="m 740.7,2850.5 v 0 c 0,-5.7 4.4,-10.2 10.5,-10.2 6.1,0 10.4,4.5 10.4,10.1 v 0.1 c 0,5.6 -4.4,10.2 -10.5,10.2 -6,0 -10.4,-4.6 -10.4,-10.2 z m 16.4,0 v 0 c 0,-3.4 -2.5,-6.2 -6,-6.2 -3.5,0 -5.9,2.8 -5.9,6.1 v 0.1 c 0,3.4 2.5,6.2 6,6.2 3.5,0 5.9,-2.8 5.9,-6.2 z"
       style="fill:#2251d6;fill-opacity:1" /></g><style
     id="style2-35"
     type="text/css">
	.st0{fill:#88C1FF;}
	.st1{fill:#2251D6;}
	.st2{fill:#FFFFFF;}
	.st3{fill:#E3E7F5;}
	.st4{fill:#1A3789;}
	.st5{fill:#222221;}
	.st6{fill-rule:evenodd;clip-rule:evenodd;fill:#2251D6;}
	.st7{fill:#FDFFFE;}
	.st8{fill-rule:evenodd;clip-rule:evenodd;fill:#1A3789;}
	.st9{fill:none;stroke:#88C1FF;stroke-width:4;stroke-miterlimit:10;}
	.st10{fill:#6A5588;}
	.st11{fill-rule:evenodd;clip-rule:evenodd;fill:#88C1FF;}
</style><style
     type="text/css"
     id="style2-3-2">
	.st0{fill:#88C1FF;}
	.st1{fill:#2251D6;}
	.st2{fill:#FFFFFF;}
	.st3{fill:#E3E7F5;}
	.st4{fill:#1A3789;}
	.st5{fill:#222221;}
	.st6{fill-rule:evenodd;clip-rule:evenodd;fill:#2251D6;}
	.st7{fill:#FDFFFE;}
	.st8{fill-rule:evenodd;clip-rule:evenodd;fill:#1A3789;}
	.st9{fill:none;stroke:#88C1FF;stroke-width:4;stroke-miterlimit:10;}
	.st10{fill:#6A5588;}
	.st11{fill-rule:evenodd;clip-rule:evenodd;fill:#88C1FF;}
</style></svg>