<?xml version="1.0" encoding="UTF-8" standalone="no"?>
<!-- Generator: Adobe Illustrator 19.0.0, SVG Export Plug-In . SVG Version: 6.00 Build 0)  -->

<svg
   xmlns:dc="http://purl.org/dc/elements/1.1/"
   xmlns:cc="http://creativecommons.org/ns#"
   xmlns:rdf="http://www.w3.org/1999/02/22-rdf-syntax-ns#"
   xmlns:svg="http://www.w3.org/2000/svg"
   xmlns="http://www.w3.org/2000/svg"
   xmlns:sodipodi="http://sodipodi.sourceforge.net/DTD/sodipodi-0.dtd"
   xmlns:inkscape="http://www.inkscape.org/namespaces/inkscape"
   version="1.1"
   id="Capa_1"
   x="0px"
   y="0px"
   viewBox="0 0 385.39999 45.700001"
   xml:space="preserve"
   sodipodi:docname="titulo_06.svg"
   inkscape:version="0.92.1 r15371"
   width="385.39999"
   height="45.700001"><metadata
     id="metadata1439"><rdf:RDF><cc:Work
         rdf:about=""><dc:format>image/svg+xml</dc:format><dc:type
           rdf:resource="http://purl.org/dc/dcmitype/StillImage" /><dc:title></dc:title></cc:Work></rdf:RDF></metadata><defs
     id="defs1437" /><sodipodi:namedview
     pagecolor="#ffffff"
     bordercolor="#666666"
     borderopacity="1"
     objecttolerance="10"
     gridtolerance="10"
     guidetolerance="10"
     inkscape:pageopacity="0"
     inkscape:pageshadow="2"
     inkscape:window-width="1920"
     inkscape:window-height="1007"
     id="namedview1435"
     showgrid="false"
     inkscape:zoom="2.5236424"
     inkscape:cx="235.81171"
     inkscape:cy="47.688182"
     inkscape:window-x="0"
     inkscape:window-y="25"
     inkscape:window-maximized="1"
     inkscape:current-layer="Capa_1"
     fit-margin-top="0"
     fit-margin-left="0"
     fit-margin-right="0"
     fit-margin-bottom="0" /><style
     type="text/css"
     id="style2">
	.st0{fill:#88C1FF;}
	.st1{fill:#2251D6;}
	.st2{fill:#FFFFFF;}
	.st3{fill:#E3E7F5;}
	.st4{fill:#1A3789;}
	.st5{fill:#222221;}
	.st6{fill-rule:evenodd;clip-rule:evenodd;fill:#2251D6;}
	.st7{fill:#FDFFFE;}
	.st8{fill-rule:evenodd;clip-rule:evenodd;fill:#1A3789;}
	.st9{fill:none;stroke:#88C1FF;stroke-width:4;stroke-miterlimit:10;}
	.st10{fill:#6A5588;}
	.st11{fill-rule:evenodd;clip-rule:evenodd;fill:#88C1FF;}
</style><g
     id="XMLID_433_"
     transform="translate(-186.8958,-213.60359)" /><style
     id="style2-3"
     type="text/css">
	.st0{fill:#88C1FF;}
	.st1{fill:#2251D6;}
	.st2{fill:#FFFFFF;}
	.st3{fill:#E3E7F5;}
	.st4{fill:#1A3789;}
	.st5{fill:#222221;}
	.st6{fill-rule:evenodd;clip-rule:evenodd;fill:#2251D6;}
	.st7{fill:#FDFFFE;}
	.st8{fill-rule:evenodd;clip-rule:evenodd;fill:#1A3789;}
	.st9{fill:none;stroke:#88C1FF;stroke-width:4;stroke-miterlimit:10;}
	.st10{fill:#6A5588;}
	.st11{fill-rule:evenodd;clip-rule:evenodd;fill:#88C1FF;}
</style><polygon
     transform="matrix(0.93063411,0,0,0.93063411,-204.66515,-2153.8184)"
     id="XMLID_1006_"
     class="st3"
     points="237.1,2353.5 232.2,2361.8 617.6,2361.8 611.1,2354.8 617.6,2349.8 612.3,2344.4 617.6,2339 612.7,2333.6 617.6,2329 610.6,2324.9 617.6,2316.1 232.2,2316.1 237.1,2323.6 232.2,2328.2 237.1,2332.3 232.2,2338.6 237.1,2344.8 232.2,2349.8 "
     style="fill:#e3e7f5" /><g
     transform="matrix(0.93063411,0,0,0.93063411,-204.66515,-2153.8184)"
     id="XMLID_590_"><path
       inkscape:connector-curvature="0"
       id="XMLID_591_"
       class="st1"
       d="m 266,2333.6 c 0,-1.1 0.8,-1.9 1.9,-1.9 h 9.7 c 1,0 1.7,0.8 1.7,1.7 0,0.9 -0.8,1.7 -1.7,1.7 h -7.8 v 3.7 h 6.7 c 1,0 1.7,0.8 1.7,1.7 0,1 -0.8,1.7 -1.7,1.7 h -6.7 v 5 c 0,1.1 -0.8,1.9 -1.9,1.9 -1.1,0 -1.9,-0.8 -1.9,-1.9 z"
       style="fill:#2251d6" /><path
       inkscape:connector-curvature="0"
       id="XMLID_593_"
       class="st1"
       d="m 282.5,2333.4 c 0,-1.1 0.8,-1.9 1.9,-1.9 1.1,0 1.9,0.8 1.9,1.9 v 13.9 c 0,1.1 -0.8,1.9 -1.9,1.9 -1.1,0 -1.9,-0.8 -1.9,-1.9 z"
       style="fill:#2251d6" /><path
       inkscape:connector-curvature="0"
       id="XMLID_596_"
       class="st1"
       d="m 290.7,2333.5 c 0,-1.1 0.8,-1.9 1.9,-1.9 h 0.4 c 0.9,0 1.5,0.4 2,1.1 l 7.4,9.7 v -9 c 0,-1 0.8,-1.9 1.9,-1.9 1,0 1.9,0.8 1.9,1.9 v 13.9 c 0,1.1 -0.8,1.9 -1.9,1.9 h -0.1 c -0.9,0 -1.5,-0.4 -2,-1.1 l -7.7,-10 v 9.3 c 0,1 -0.8,1.9 -1.9,1.9 -1.1,0 -1.9,-0.8 -1.9,-1.9 z"
       style="fill:#2251d6" /><path
       inkscape:connector-curvature="0"
       id="XMLID_600_"
       class="st1"
       d="m 317.8,2333.6 c 0,-1.1 0.8,-1.9 1.9,-1.9 h 4.9 c 5.5,0 9.3,3.8 9.3,8.7 v 0.1 c 0,4.9 -3.8,8.7 -9.3,8.7 h -4.9 c -1.1,0 -1.9,-0.8 -1.9,-1.9 z m 6.8,12 c 3.1,0 5.2,-2.1 5.2,-5.2 v 0 c 0,-3.1 -2.1,-5.2 -5.2,-5.2 h -3 v 10.5 h 3 z"
       style="fill:#2251d6" /><path
       inkscape:connector-curvature="0"
       id="XMLID_603_"
       class="st1"
       d="m 337.3,2347.2 v -13.6 c 0,-1.1 0.8,-1.9 1.9,-1.9 h 9.7 c 0.9,0 1.7,0.8 1.7,1.7 0,0.9 -0.8,1.7 -1.7,1.7 h -7.8 v 3.5 h 6.6 c 0.9,0 1.7,0.8 1.7,1.7 0,0.9 -0.8,1.7 -1.7,1.7 h -6.6 v 3.7 h 7.9 c 0.9,0 1.7,0.8 1.7,1.7 0,0.9 -0.8,1.7 -1.7,1.7 h -9.8 c -1.1,0 -1.9,-0.9 -1.9,-1.9 z"
       style="fill:#2251d6" /><path
       inkscape:connector-curvature="0"
       id="XMLID_606_"
       class="st1"
       d="m 353.9,2333.4 c 0,-1.1 0.8,-1.9 1.9,-1.9 1.1,0 1.9,0.8 1.9,1.9 v 12.2 h 7.1 c 1,0 1.7,0.8 1.7,1.7 0,1 -0.8,1.7 -1.7,1.7 h -9 c -1.1,0 -1.9,-0.8 -1.9,-1.9 z"
       style="fill:#2251d6" /><path
       inkscape:connector-curvature="0"
       id="XMLID_609_"
       class="st1"
       d="m 376.8,2333.6 c 0,-1.1 0.8,-1.9 1.9,-1.9 h 5.2 c 4.2,0 6.7,2.5 6.7,6 v 0.1 c 0,4 -3.1,6.1 -7,6.1 h -2.9 v 3.5 c 0,1.1 -0.8,1.9 -1.9,1.9 -1.1,0 -1.9,-0.8 -1.9,-1.9 v -13.8 z m 6.9,6.8 c 1.9,0 3,-1.1 3,-2.6 v 0 c 0,-1.7 -1.2,-2.6 -3.1,-2.6 h -3 v 5.3 h 3.1 z"
       style="fill:#2251d6" /><path
       inkscape:connector-curvature="0"
       id="XMLID_613_"
       class="st1"
       d="m 393.4,2333.6 c 0,-1.1 0.8,-1.9 1.9,-1.9 h 6 c 2.2,0 3.9,0.6 5.1,1.8 1,1 1.5,2.3 1.5,4 v 0.1 c 0,2.7 -1.4,4.4 -3.5,5.3 l 2.7,3.2 c 0.4,0.5 0.6,0.9 0.6,1.5 0,1.1 -0.9,1.8 -1.8,1.8 -0.9,0 -1.4,-0.4 -1.9,-1 l -3.7,-4.7 h -3.1 v 3.8 c 0,1.1 -0.8,1.9 -1.9,1.9 -1.1,0 -1.9,-0.8 -1.9,-1.9 z m 7.7,6.5 c 1.9,0 2.9,-1 2.9,-2.5 v -0.1 c 0,-1.6 -1.1,-2.5 -3,-2.5 h -3.8 v 5 h 3.9 z"
       style="fill:#2251d6" /><path
       inkscape:connector-curvature="0"
       id="XMLID_616_"
       class="st1"
       d="m 410.6,2340.4 v 0 c 0,-5 3.9,-9.1 9.3,-9.1 5.4,0 9.2,4 9.2,9 v 0.1 c 0,4.9 -3.9,9 -9.3,9 -5.4,0 -9.2,-4 -9.2,-9 z m 14.5,0 v 0 c 0,-3 -2.2,-5.5 -5.3,-5.5 -3.1,0 -5.2,2.4 -5.2,5.4 v 0.1 c 0,3 2.2,5.5 5.3,5.5 3.1,-0.1 5.2,-2.5 5.2,-5.5 z"
       style="fill:#2251d6" /><path
       inkscape:connector-curvature="0"
       id="XMLID_619_"
       class="st1"
       d="m 431.8,2340.4 v 0 c 0,-5 3.7,-9.1 9.1,-9.1 2.6,0 4.4,0.7 5.8,1.8 0.4,0.3 0.7,0.8 0.7,1.5 0,1 -0.8,1.9 -1.9,1.9 -0.5,0 -0.9,-0.2 -1.1,-0.4 -1.1,-0.8 -2.2,-1.2 -3.6,-1.2 -2.9,0 -5,2.4 -5,5.4 v 0.1 c 0,3 2.1,5.5 5,5.5 1.6,0 2.7,-0.5 3.8,-1.4 0.3,-0.2 0.7,-0.4 1.1,-0.4 1,0 1.8,0.8 1.8,1.8 0,0.6 -0.3,1.1 -0.6,1.4 -1.6,1.4 -3.4,2.2 -6.2,2.2 -5.1,-0.1 -8.9,-4.1 -8.9,-9.1 z"
       style="fill:#2251d6" /><path
       inkscape:connector-curvature="0"
       id="XMLID_621_"
       class="st1"
       d="m 450.9,2347.2 v -13.6 c 0,-1.1 0.8,-1.9 1.9,-1.9 h 9.7 c 0.9,0 1.7,0.8 1.7,1.7 0,0.9 -0.8,1.7 -1.7,1.7 h -7.8 v 3.5 h 6.6 c 0.9,0 1.7,0.8 1.7,1.7 0,0.9 -0.8,1.7 -1.7,1.7 h -6.6 v 3.7 h 7.9 c 0.9,0 1.7,0.8 1.7,1.7 0,0.9 -0.8,1.7 -1.7,1.7 h -9.8 c -1,0 -1.9,-0.9 -1.9,-1.9 z"
       style="fill:#2251d6" /><path
       inkscape:connector-curvature="0"
       id="XMLID_623_"
       class="st1"
       d="m 467.6,2333.6 c 0,-1.1 0.8,-1.9 1.9,-1.9 h 4.9 c 5.5,0 9.3,3.8 9.3,8.7 v 0.1 c 0,4.9 -3.8,8.7 -9.3,8.7 h -4.9 c -1.1,0 -1.9,-0.8 -1.9,-1.9 z m 6.8,12 c 3.1,0 5.2,-2.1 5.2,-5.2 v 0 c 0,-3.1 -2.1,-5.2 -5.2,-5.2 h -3 v 10.5 h 3 z"
       style="fill:#2251d6" /><path
       inkscape:connector-curvature="0"
       id="XMLID_626_"
       class="st1"
       d="m 487.2,2333.4 c 0,-1.1 0.8,-1.9 1.9,-1.9 1.1,0 1.9,0.8 1.9,1.9 v 13.9 c 0,1.1 -0.8,1.9 -1.9,1.9 -1.1,0 -1.9,-0.8 -1.9,-1.9 z"
       style="fill:#2251d6" /><path
       inkscape:connector-curvature="0"
       id="XMLID_628_"
       class="st1"
       d="m 495.4,2333.5 c 0,-1.1 0.8,-1.9 1.9,-1.9 h 0.4 c 0.8,0 1.4,0.4 1.7,1 l 4.6,7.5 4.7,-7.6 c 0.4,-0.6 0.9,-1 1.7,-1 h 0.4 c 1.1,0 1.9,0.8 1.9,1.9 v 13.8 c 0,1.1 -0.8,1.9 -1.9,1.9 -1,0 -1.9,-0.9 -1.9,-1.9 v -8.7 l -3.4,5.2 c -0.4,0.6 -0.9,1 -1.6,1 -0.7,0 -1.2,-0.4 -1.6,-1 l -3.3,-5.1 v 8.7 c 0,1 -0.8,1.9 -1.9,1.9 -1,0 -1.9,-0.8 -1.9,-1.9 v -13.8 z"
       style="fill:#2251d6" /><path
       inkscape:connector-curvature="0"
       id="XMLID_630_"
       class="st1"
       d="m 517.2,2333.4 c 0,-1.1 0.8,-1.9 1.9,-1.9 1.1,0 1.9,0.8 1.9,1.9 v 13.9 c 0,1.1 -0.8,1.9 -1.9,1.9 -1.1,0 -1.9,-0.8 -1.9,-1.9 z"
       style="fill:#2251d6" /><path
       inkscape:connector-curvature="0"
       id="XMLID_632_"
       class="st1"
       d="m 525.3,2347.2 v -13.6 c 0,-1.1 0.8,-1.9 1.9,-1.9 h 9.7 c 0.9,0 1.7,0.8 1.7,1.7 0,0.9 -0.8,1.7 -1.7,1.7 h -7.8 v 3.5 h 6.6 c 0.9,0 1.7,0.8 1.7,1.7 0,0.9 -0.8,1.7 -1.7,1.7 h -6.6 v 3.7 h 7.9 c 0.9,0 1.7,0.8 1.7,1.7 0,0.9 -0.8,1.7 -1.7,1.7 h -9.8 c -1,0 -1.9,-0.9 -1.9,-1.9 z"
       style="fill:#2251d6" /><path
       inkscape:connector-curvature="0"
       id="XMLID_634_"
       class="st1"
       d="m 542,2333.5 c 0,-1.1 0.8,-1.9 1.9,-1.9 h 0.4 c 0.9,0 1.5,0.4 2,1.1 l 7.4,9.7 v -9 c 0,-1 0.8,-1.9 1.9,-1.9 1,0 1.9,0.8 1.9,1.9 v 13.9 c 0,1.1 -0.8,1.9 -1.9,1.9 h -0.1 c -0.9,0 -1.5,-0.4 -2,-1.1 l -7.7,-10 v 9.3 c 0,1 -0.8,1.9 -1.9,1.9 -1.1,0 -1.9,-0.8 -1.9,-1.9 z"
       style="fill:#2251d6" /><path
       inkscape:connector-curvature="0"
       id="XMLID_639_"
       class="st1"
       d="M 565.7,2335.2 H 562 c -1,0 -1.8,-0.8 -1.8,-1.8 0,-1 0.8,-1.8 1.8,-1.8 h 11.2 c 1,0 1.8,0.8 1.8,1.8 0,1 -0.8,1.8 -1.8,1.8 h -3.7 v 12.1 c 0,1.1 -0.8,1.9 -1.9,1.9 -1.1,0 -1.9,-0.8 -1.9,-1.9 z"
       style="fill:#2251d6" /><path
       inkscape:connector-curvature="0"
       id="XMLID_641_"
       class="st1"
       d="m 576.3,2340.4 v 0 c 0,-5 3.9,-9.1 9.3,-9.1 5.4,0 9.2,4 9.2,9 v 0.1 c 0,4.9 -3.9,9 -9.3,9 -5.4,0 -9.2,-4 -9.2,-9 z m 14.5,0 v 0 c 0,-3 -2.2,-5.5 -5.3,-5.5 -3.1,0 -5.2,2.4 -5.2,5.4 v 0.1 c 0,3 2.2,5.5 5.3,5.5 3.1,0 5.2,-2.5 5.2,-5.5 z"
       style="fill:#2251d6" /></g></svg>