<?xml version="1.0" encoding="UTF-8" standalone="no"?>
<!-- Generator: Adobe Illustrator 19.0.0, SVG Export Plug-In . SVG Version: 6.00 Build 0)  -->

<svg
   xmlns:dc="http://purl.org/dc/elements/1.1/"
   xmlns:cc="http://creativecommons.org/ns#"
   xmlns:rdf="http://www.w3.org/1999/02/22-rdf-syntax-ns#"
   xmlns:svg="http://www.w3.org/2000/svg"
   xmlns="http://www.w3.org/2000/svg"
   xmlns:xlink="http://www.w3.org/1999/xlink"
   xmlns:sodipodi="http://sodipodi.sourceforge.net/DTD/sodipodi-0.dtd"
   xmlns:inkscape="http://www.inkscape.org/namespaces/inkscape"
   version="1.1"
   id="Capa_1"
   x="0px"
   y="0px"
   viewBox="0 0 841.9 2992.5"
   style="enable-background:new 0 0 841.9 2992.5;"
   xml:space="preserve"
   sodipodi:docname="fondo.svg"
   inkscape:version="0.92.1 r15371"><metadata
     id="metadata203"><rdf:RDF><cc:Work
         rdf:about=""><dc:format>image/svg+xml</dc:format><dc:type
           rdf:resource="http://purl.org/dc/dcmitype/StillImage" /></cc:Work></rdf:RDF></metadata><defs
     id="defs201" /><sodipodi:namedview
     pagecolor="#ffffff"
     bordercolor="#666666"
     borderopacity="1"
     objecttolerance="10"
     gridtolerance="10"
     guidetolerance="10"
     inkscape:pageopacity="0"
     inkscape:pageshadow="2"
     inkscape:window-width="1920"
     inkscape:window-height="1007"
     id="namedview199"
     showgrid="false"
     inkscape:zoom="0.89224234"
     inkscape:cx="312.07285"
     inkscape:cy="215.91666"
     inkscape:window-x="0"
     inkscape:window-y="25"
     inkscape:window-maximized="1"
     inkscape:current-layer="Capa_1" /><style
     type="text/css"
     id="style2">
	.st0{fill:#88C1FF;}
	.st1{fill:#73B4EF;}
	.st2{fill:#E3E7F5;}
	.st3{font-family:'GothamRounded-Bold';}
	.st4{font-size:16.1226px;}
	.st5{font-family:'GothamRounded-Book';}
	.st6{fill:#2251D6;}
	.st7{font-size:12.7542px;}
	.st8{clip-path:url(#XMLID_37_);}
	.st9{fill:#EB995E;}
	.st10{fill:#6A5588;}
	.st11{fill:#FBCFC9;}
	.st12{fill:#9279C8;}
	.st13{fill:#FFC69E;}
	.st14{fill:#7D67AB;}
	.st15{fill:#F39570;}
	.st16{fill:#FCFCF7;}
	.st17{fill:#AD6062;}
	.st18{fill:#D46367;}
	.st19{fill:#B9C2E5;}
	.st20{fill:#444867;}
	.st21{fill:#8CD2FF;}
	.st22{fill:#74AED4;}
	.st23{fill:#A286DE;}
	.st24{fill:#FFFFFF;}
	.st25{font-size:23.5262px;}
	.st26{fill:#C6CCE1;}
	.st27{fill:#323D5B;}
	.st28{fill:url(#XMLID_39_);}
	.st29{fill:url(#XMLID_40_);}
	.st30{fill:url(#XMLID_41_);}
	.st31{fill:none;stroke:#88C1FF;stroke-width:2;stroke-linecap:round;stroke-linejoin:round;stroke-miterlimit:10;}
	.st32{opacity:0.31;}
	.st33{clip-path:url(#XMLID_42_);fill:#2251D6;}
	.st34{fill:#1A3789;}
	.st35{font-size:21.8674px;}
	.st36{fill:#222221;}
	.st37{font-size:13.6419px;}
	.st38{fill-rule:evenodd;clip-rule:evenodd;fill:#2251D6;}
	.st39{fill:#FDFFFE;}
	.st40{fill:#E7B360;}
	.st41{font-size:13.7232px;}
	.st42{font-size:31.956px;}
	.st43{fill:#152B6B;}
	.st44{opacity:0.3;fill:#5F93A3;}
	.st45{fill:#5872CE;}
	.st46{fill:#FFD6B8;}
	.st47{fill:#FFBA87;}
	.st48{fill:#8C9BDB;}
	.st49{fill:#C8F6E7;}
	.st50{fill:#FFCE55;}
	.st51{fill:#D5D3DE;}
	.st52{fill:#A9A7B0;}
	.st53{fill:#828087;}
	.st54{fill:#C4C2CC;}
	.st55{fill:#806EAF;}
	.st56{fill-rule:evenodd;clip-rule:evenodd;fill:#1A3789;}
	.st57{font-size:24.8754px;}
	.st58{fill:none;stroke:#2251D6;stroke-miterlimit:10;}
	.st59{opacity:0.18;fill:#FFFFFF;}
	.st60{clip-path:url(#XMLID_45_);fill:#FFD6B8;}
	.st61{clip-path:url(#XMLID_47_);}
	.st62{clip-path:url(#XMLID_57_);}
	.st63{fill:none;stroke:#2251D6;stroke-width:2;stroke-miterlimit:10;}
	.st64{fill:none;stroke:#88C1FF;stroke-width:4;stroke-miterlimit:10;}
	.st65{clip-path:url(#XMLID_71_);}
	.st66{fill:#4B60D5;}
	.st67{fill:#262626;}
	.st68{fill:#F3A59C;}
	.st69{fill:#D3D6E2;}
	.st70{fill:#F9F9F9;}
	.st71{fill:#4A65C7;}
	.st72{fill:#FBF4F3;}
	.st73{fill:#6DA4FF;}
	.st74{fill:#C4C7CE;}
	.st75{fill:#E6708B;}
	.st76{fill:#A3B4FF;}
	.st77{fill:#6A7ABD;}
	.st78{clip-path:url(#XMLID_102_);}
	.st79{fill:#563551;}
	.st80{fill:#D6967A;}
	.st81{fill:#F69F80;}
	.st82{fill:#C97F5C;}
	.st83{fill:#F7A688;}
	.st84{fill:#EB696E;}
	.st85{fill:#E8936D;}
	.st86{fill:#FA681A;}
	.st87{fill:#769823;}
	.st88{fill:#FCD51E;}
	.st89{fill:#4EB4C7;}
	.st90{fill:#70AFE8;}
	.st91{fill:#432E47;}
	.st92{fill:#DA8A66;}
	.st93{fill:#7D4D76;}
	.st94{fill:#80D2E1;}
	.st95{fill:#48A6B8;}
	.st96{fill:#9EF0FF;}
	.st97{fill:none;stroke:#FFFFFF;stroke-miterlimit:10;}
	.st98{fill:#CACEDB;}
	.st99{fill-rule:evenodd;clip-rule:evenodd;fill:#88C1FF;}
	.st100{font-size:28.1301px;}
	.st101{clip-path:url(#XMLID_216_);}
	.st102{fill:#F6B6CF;}
	.st103{fill:#31AC84;}
	.st104{fill:#293349;}
	.st105{opacity:0.66;fill:#333D5B;}
	.st106{fill:#E5C0A8;}
	.st107{fill:#E5A377;}
	.st108{fill:#93A2D2;}
	.st109{fill:#F5B75B;}
	.st110{fill:#EE914D;}
	.st111{opacity:0.87;fill:#A35B26;}
	.st112{fill:#5BC0A1;}
	.st113{fill:#333D5B;}
	.st114{fill:#E295B5;}
	.st115{fill:#7382C0;}
	.st116{fill:#4F64AD;}
	.st117{fill:#E6E6E6;}
	.st118{fill:#F8F8F8;}
	.st119{fill:#E59D98;}
	.st120{fill:#623B53;}
</style><rect
     id="XMLID_48_"
     x="0"
     y="952"
     class="st0"
     width="841.9"
     height="490.7" /><path
     id="XMLID_818_"
     class="st1"
     d="M456.6,1029.9c-17.7,33.5-135.5,8.9-146.5,57.1c-11.8,52.1,69.7,86.4,63.2,105.3  c-6.4,18.9-250.2,90.8-203,171.8c38.5,66,282.8-23.1,407.7-25.6c110.5-2.2,199,78.7,326.5,77.7V952.7H426  C460.8,980.4,468.7,1007.2,456.6,1029.9z" /><rect
     id="XMLID_35_"
     x="3.9"
     y="1764.1"
     class="st2"
     width="841.9"
     height="254.9" /><rect
     id="XMLID_5239_"
     x="0"
     y="2737.8"
     class="st2"
     width="841.9"
     height="255.3" /><rect
     id="XMLID_429_"
     x="0"
     y="-0.5"
     class="st2"
     width="841.9"
     height="950.2" /><circle
     id="XMLID_2183_"
     class="st6"
     cx="420.6"
     cy="559.8"
     r="4" /><circle
     id="XMLID_2182_"
     class="st6"
     cx="420.6"
     cy="584"
     r="4" /><circle
     id="XMLID_2181_"
     class="st6"
     cx="420.9"
     cy="719.4"
     r="4" /><circle
     id="XMLID_2180_"
     class="st6"
     cx="420.9"
     cy="743"
     r="4" /><circle
     id="XMLID_2179_"
     class="st6"
     cx="420.9"
     cy="766.5"
     r="4" /><circle
     id="XMLID_2178_"
     class="st6"
     cx="420.9"
     cy="695.8"
     r="4" /><circle
     id="XMLID_2177_"
     class="st6"
     cx="420.9"
     cy="672.2"
     r="4" /><circle
     id="XMLID_2176_"
     class="st6"
     cx="420.9"
     cy="837.3"
     r="4" /><circle
     id="XMLID_2175_"
     class="st6"
     cx="420.9"
     cy="813.7"
     r="4" /><circle
     id="XMLID_2174_"
     class="st6"
     cx="420.9"
     cy="790.1"
     r="4" /><g
     id="XMLID_2170_"><circle
       id="XMLID_2173_"
       class="st6"
       cx="492.8"
       cy="700"
       r="1.4" /><circle
       id="XMLID_2172_"
       class="st6"
       cx="492.8"
       cy="710.2"
       r="1.4" /><circle
       id="XMLID_2171_"
       class="st6"
       cx="492.8"
       cy="720.3"
       r="1.4" /></g><circle
     id="XMLID_2169_"
     class="st6"
     cx="420.6"
     cy="622.8"
     r="16.4" /><circle
     id="XMLID_2168_"
     class="st6"
     cx="421.6"
     cy="874.2"
     r="16.4" /><path
     id="XMLID_2161_"
     class="st6"
     d="M460.3,661.6H459c-0.8,0-1.4-0.6-1.4-1.4v-1.3c0-0.8-0.6-1.4-1.4-1.4l0,0  c-0.8,0-1.4,0.6-1.4,1.4v1.3c0,0.8-0.6,1.4-1.4,1.4H452c-0.8,0-1.4,0.6-1.4,1.4l0,0c0,0.8,0.6,1.4,1.4,1.4h1.3  c0.8,0,1.4,0.6,1.4,1.4v1.3c0,0.8,0.6,1.4,1.4,1.4l0,0c0.8,0,1.4-0.6,1.4-1.4v-1.3c0-0.8,0.6-1.4,1.4-1.4h1.3c0.8,0,1.4-0.6,1.4-1.4  l0,0C461.7,662.3,461.1,661.6,460.3,661.6z" /><polyline
     id="XMLID_1966_"
     class="st31"
     points="434.4,530 422.6,541.8 410.7,530 " /><path
     id="XMLID_3486_"
     class="st16"
     d="M804.8,432.2H24.4c-5.5,0-10-4.5-10-10V31.7c0-5.5,4.5-10,10-10h780.5c5.5,0,10,4.5,10,10  v390.5C814.8,427.7,810.4,432.2,804.8,432.2z" /><g
     id="XMLID_5393_"><defs
       id="defs30"><path
         id="XMLID_62_"
         d="M804.8,432.2H24.4c-5.5,0-10-4.5-10-10V31.7c0-5.5,4.5-10,10-10h780.5c5.5,0,10,4.5,10,10v390.5    C814.8,427.7,810.4,432.2,804.8,432.2z" /></defs><clipPath
       id="XMLID_42_"><use
         xlink:href="#XMLID_62_"
         style="overflow:visible;"
         id="use32" /></clipPath><path
       id="XMLID_3485_"
       class="st33"
       d="M918,178.2c-285.2-195-577.6,40.8-582.7,93.9c-5,50.9,70.6,75.4,70.8,156.4   c0,1.2,0,2.4-0.1,3.6h608.2c4.6,0,8.3-4.3,8.3-9.5V292.3C992.9,247.2,958.2,205.7,918,178.2z"
       clip-path="url(#XMLID_42_)" /></g><rect
     id="XMLID_92_"
     x="0"
     y="1446.4"
     class="st34"
     width="851.6"
     height="310.4"
     style="fill:#486ed7;fill-opacity:1" /><rect
     id="XMLID_97_"
     x="-1.2"
     y="2021.3"
     class="st0"
     width="852.2"
     height="316.3" /><rect
     id="XMLID_86_"
     x="0"
     y="2340.6"
     class="st34"
     width="841.9"
     height="394.4" /><path
     id="XMLID_60_"
     class="st36"
     d="M254.9,1741.8" /><circle
     id="XMLID_69_"
     class="st6"
     cx="423.9"
     cy="1261.8"
     r="4" /><circle
     id="XMLID_68_"
     class="st6"
     cx="423.9"
     cy="1240.6"
     r="4" /><circle
     id="XMLID_66_"
     class="st6"
     cx="423.9"
     cy="1219.3"
     r="4" /><circle
     id="XMLID_90_"
     class="st6"
     cx="423.9"
     cy="1402.1"
     r="4" /><circle
     id="XMLID_87_"
     class="st6"
     cx="423.9"
     cy="1380.8"
     r="4" /><circle
     id="XMLID_78_"
     class="st6"
     cx="423.9"
     cy="1359.6"
     r="4" /><circle
     id="XMLID_123_"
     class="st6"
     cx="423.9"
     cy="1424.8"
     r="4" /><g
     id="XMLID_38_"><circle
       id="XMLID_425_"
       class="st6"
       cx="784.4"
       cy="60"
       r="2.1" /><circle
       id="XMLID_424_"
       class="st6"
       cx="784.4"
       cy="74.7"
       r="2.1" /><circle
       id="XMLID_423_"
       class="st6"
       cx="784.4"
       cy="89.3"
       r="2.1" /></g><g
     id="XMLID_433_" /><circle
     id="XMLID_111_"
     class="st6"
     cx="423.9"
     cy="1494.1"
     r="16.4" /><path
     id="XMLID_794_"
     class="st38"
     d="M420.9,2372.7c11.5,0,20.7,9.3,20.8,20.8c0.2,16.6-20.1,26-20.8,26c-0.8,0-20.8-11.1-20.8-26  C400.1,2382.1,409.4,2372.7,420.9,2372.7L420.9,2372.7z" /><path
     id="XMLID_5401_"
     class="st6"
     d="M65.6,331.3h-1.3c-0.8,0-1.4-0.6-1.4-1.4v-1.3c0-0.8-0.6-1.4-1.4-1.4l0,0  c-0.8,0-1.4,0.6-1.4,1.4v1.3c0,0.8-0.6,1.4-1.4,1.4h-1.3c-0.8,0-1.4,0.6-1.4,1.4l0,0c0,0.8,0.6,1.4,1.4,1.4h1.3  c0.8,0,1.4,0.6,1.4,1.4v1.3c0,0.8,0.6,1.4,1.4,1.4l0,0c0.8,0,1.4-0.6,1.4-1.4v-1.3c0-0.8,0.6-1.4,1.4-1.4h1.3c0.8,0,1.4-0.6,1.4-1.4  l0,0C67.1,332,66.4,331.3,65.6,331.3z" /><path
     id="XMLID_49_"
     class="st6"
     d="M724.1,134.2h-1.3c-0.8,0-1.5-0.7-1.5-1.5v-1.3c0-0.8-0.7-1.5-1.5-1.5l0,0  c-0.8,0-1.5,0.7-1.5,1.5v1.3c0,0.8-0.7,1.5-1.5,1.5h-1.3c-0.8,0-1.5,0.7-1.5,1.5l0,0c0,0.8,0.7,1.5,1.5,1.5h1.3  c0.8,0,1.5,0.7,1.5,1.5v1.3c0,0.8,0.7,1.5,1.5,1.5l0,0c0.8,0,1.5-0.7,1.5-1.5v-1.3c0-0.8,0.7-1.5,1.5-1.5h1.3c0.8,0,1.5-0.7,1.5-1.5  l0,0C725.6,134.9,724.9,134.2,724.1,134.2z" /><path
     id="XMLID_98_"
     class="st0"
     d="M331,1441.3c0,0,51.3,23.1,25.2,67.8c-26.2,44.7-78.3,41.5-69.2,136.3  c9.1,94.8-67.4,99.4-124.8,90.2S55.2,1692.6,12,1687.2c-43.3-5.4-43.3-5.4-43.3-5.4v-240.5H331z" /><path
     id="XMLID_993_"
     class="st6"
     d="M677.3,170.9c-4.8-14.8,24.8-23.9,30.5-11.9C713.6,170.9,682.1,185.7,677.3,170.9z" /><line
     id="XMLID_133_"
     class="st58"
     x1="423.8"
     y1="1135.5"
     x2="423.8"
     y2="1050" /><circle
     id="XMLID_148_"
     class="st6"
     cx="423.9"
     cy="1697.6"
     r="4" /><circle
     id="XMLID_99_"
     class="st6"
     cx="423.9"
     cy="1924"
     r="4" /><circle
     id="XMLID_96_"
     class="st6"
     cx="423.9"
     cy="1967.3"
     r="4" /><circle
     id="XMLID_20_"
     class="st6"
     cx="423.9"
     cy="1946.1"
     r="4" /><circle
     id="XMLID_796_"
     class="st6"
     cx="423.9"
     cy="2120.1"
     r="4" /><circle
     id="XMLID_791_"
     class="st6"
     cx="423.9"
     cy="2077.6"
     r="4" /><circle
     id="XMLID_789_"
     class="st6"
     cx="423.9"
     cy="2184.6"
     r="4" /><circle
     id="XMLID_211_"
     class="st6"
     cx="423.9"
     cy="2163.4"
     r="4" /><circle
     id="XMLID_75_"
     class="st6"
     cx="423.9"
     cy="2142.2"
     r="4" /><circle
     id="XMLID_988_"
     class="st6"
     cx="423.9"
     cy="2246.2"
     r="4" /><circle
     id="XMLID_978_"
     class="st6"
     cx="423.9"
     cy="2225"
     r="4" /><circle
     id="XMLID_976_"
     class="st6"
     cx="423.9"
     cy="2203.8"
     r="4" /><circle
     id="XMLID_332_"
     class="st2"
     cx="423"
     cy="2456.9"
     r="4" /><circle
     id="XMLID_124_"
     class="st6"
     cx="423"
     cy="2476.7"
     r="4" /><circle
     id="XMLID_129_"
     class="st6"
     cx="423"
     cy="2496.5"
     r="4" /><circle
     id="XMLID_135_"
     class="st6"
     cx="423"
     cy="2516.3"
     r="4" /><circle
     id="XMLID_151_"
     class="st2"
     cx="423"
     cy="2536.1"
     r="4" /><circle
     id="XMLID_154_"
     class="st6"
     cx="423"
     cy="2555.9"
     r="4" /><circle
     id="XMLID_155_"
     class="st6"
     cx="423"
     cy="2575.7"
     r="4" /><circle
     id="XMLID_161_"
     class="st2"
     cx="423"
     cy="2595.5"
     r="4" /><circle
     id="XMLID_162_"
     class="st6"
     cx="423"
     cy="2615.3"
     r="4" /><circle
     id="XMLID_164_"
     class="st6"
     cx="423"
     cy="2635.1"
     r="4" /><circle
     id="XMLID_165_"
     class="st6"
     cx="423"
     cy="2655"
     r="4" /><circle
     id="XMLID_325_"
     class="st6"
     cx="423"
     cy="2674.8"
     r="4" /><circle
     id="XMLID_76_"
     class="st6"
     cx="422.6"
     cy="2077.6"
     r="16.4" /><polyline
     id="XMLID_22_"
     class="st31"
     points="434.4,1654.7 422.6,1666.5 410.7,1654.7 " /><rect
     id="XMLID_95_"
     x="620.8"
     y="1487.8"
     class="st2"
     width="172.8"
     height="209.8" /><rect
     id="XMLID_9_"
     x="254.9"
     y="1860"
     class="st63"
     width="333.3"
     height="47.5" /><line
     id="XMLID_2_"
     class="st64"
     x1="620.8"
     y1="1697.6"
     x2="793.6"
     y2="1697.6" /><line
     id="XMLID_64_"
     class="st58"
     x1="422.6"
     y1="1877.3"
     x2="422.6"
     y2="1896.4" /><circle
     id="XMLID_131_"
     class="st6"
     cx="422.6"
     cy="1804"
     r="16.4" /><ellipse
     id="XMLID_16_"
     class="st98"
     cx="133"
     cy="2961.8"
     rx="108"
     ry="6.2" /><circle
     id="XMLID_118_"
     class="st34"
     cx="131.3"
     cy="2850.4"
     r="111.4" /><g
     id="XMLID_24_"><defs
       id="defs104"><circle
         id="XMLID_26_"
         cx="131"
         cy="2852.4"
         r="112.5" /></defs><clipPath
       id="XMLID_216_"><use
         xlink:href="#XMLID_26_"
         style="overflow:visible;"
         id="use106" /></clipPath><g
       id="XMLID_176_"
       class="st101"
       clip-path="url(#XMLID_216_)"><path
         id="XMLID_684_"
         class="st102"
         d="M-4.4,2870.1c0,0,5.8,14.1-13.5,26l-4.8-22.9L-4.4,2870.1z" /><path
         id="XMLID_681_"
         class="st103"
         d="M-51,2627.9l-8.3,103c-0.1,0.5-0.3,1.2-0.4,1.8c-3,13.6-0.9,27.9,5.9,40.2l53.9,96.3    l-36.9,6.2l-59.3-99.9c-4.6-9.3-5.9-19.7-3.7-29.7l9.4-99C-90.4,2646.9-86.2,2624.7-51,2627.9z" /><path
         id="XMLID_680_"
         class="st104"
         d="M-33.9,2606.5h-78.2v-75.3c0-22.6,18.3-40.9,40.9-40.9h0c20.6,0,37.3,16.7,37.3,37.3    V2606.5z" /><path
         id="XMLID_679_"
         class="st102"
         d="M425.4,3319.9h-34.2v-24.5c0-9.1,7.4-16.5,16.5-16.5h1.7c8.8,0,16,7.2,16,16V3319.9z" /><path
         id="XMLID_678_"
         class="st102"
         d="M332.8,3322h-33.7v-24.5c0-9.1,7.4-16.5,16.5-16.5h1.2c8.8,0,16,7.2,16,16V3322z" /><path
         id="XMLID_677_"
         class="st102"
         d="M-63.7,2553.8h-37.4c-7.2,0-4.4,33-4.4,40.2l-8.8,39.3c0,3.1,2.6,5.7,5.7,5.7l51.5,19.4    c2.9,0,16.2,0.5,3.2-19.3c-2.2-3.3-6-17.8-6.5-21.7l-5.9-52.8C-66.3,2561.4-60.6,2553.8-63.7,2553.8z" /><path
         id="XMLID_676_"
         class="st102"
         d="M-38.8,2595.9c-3.1,5.2-15.4,3.8-23.6,4.2l-30.2-9.1c-24.7,0-43.2-13.4-43.2-38.1v-42.3    c0-14.1,11.5-25.6,25.6-25.6h50.5c0.4,0,0.7,0,1.1,0c15.4,0.5,26.2,9,23.9,29l-6,17.7c0,2.7,11.2,24.3,9.4,26.3    C-46.8,2575.9-33.1,2586.5-38.8,2595.9z" /><path
         id="XMLID_675_"
         class="st104"
         d="M356.8,3301.5l-75.4,2.9l39-371.1c1.9-22.6,2.5-113.2,10-119.6l121.4,6.2    c5.9,1.6,3,75.5-8.3,144l-3.7,335.6c-7.5,3.2-31.4,3.9-64,2.1c-9.1-0.5-13-132.6-14.8-131.8C361,3169.7,359.1,3299.9,356.8,3301.5    z" /><path
         id="XMLID_673_"
         class="st105"
         d="M371.1,3170.5l-13.7,130.9l-75.3,2.9l38.9-371.1c0,0-8.8-91.9-8.8-120.6l139.9,7.2" /><path
         id="XMLID_672_"
         class="st46"
         d="M156.5,2883.8l-3-1c1.8,3.4,0.2,9.5-6.4,6.6c-1.8-0.8-0.6,0.4-0.5,2.8    c0.1,3.3-4.3,4.4-8.1,1.9c-0.3-0.2,6.5,4.9-4.9,3.8c-1.2-0.1-25-10.8-32-14.2c-1.3-0.7-12.9-7.3-18.4-9l8.9-27.2    c1.1-0.1,9.3,3.2,13.8,4.1l21.3-9c2.6,0.1,6.2,0.3,8.9,13.8l6.8,4.6c0.2,0.1,4.9,3.8,4.9,3.8s20.2,15.5,12.4,18.8    C159,2884.1,157.7,2884.2,156.5,2883.8z" /><path
         id="XMLID_671_"
         class="st47"
         d="M160.4,2877.3l3.9-3.4c0.3-0.3,2.6-1.9,4.1-4.3c0.2-0.3,4.8-0.6,7-2.4    c1.6-1.2,6.6-6.1,6.5-6.3l-8.5-22.6c-7.7,3.1-23.8,6.3-25.5,6.4l-8.6-0.5c-3.5-0.7-7.5-0.7-13.2,2.7l-8.2,4.9    c-3.1,1.6-7.5,9.1-6.7,12.4c0.8,3.4,8.2,4.3,15-6.8c0,0,5.6,0.1,9.5-1C136.5,2856.3,155.1,2869.9,160.4,2877.3z" /><path
         id="XMLID_670_"
         class="st47"
         d="M117.9,2898.3c-1.1-0.5-1.7-1.7-1.6-2.9l0.1-1.7c0.1-1-0.9,0.5-2.3,1.3    c-0.6,0.4-1.4,0.5-2.1,0.5c-0.5-0.1-1.2-0.2-2-0.5c-3-1.1-2.2-4.6-3.1-4.5c-10.2,0.5-6.8-5.1-6.3-5.7l2.3-2.2    c0.7-0.2,6.2-0.9,6.1,4.1c0,1.5,6.9-5.4,9.7,3.1l3.8-1c2-0.5,4.6,1.5,4.3,5.1c-0.1,1,2-2.3,4-1.2l0.2,0.1c0.9,0.4,1.5,1.3,1.6,2.3    c0,2.2-1.2,5.2-2.5,5.4c-6.1,1.4-5.2-3.3-5.7-2.8C123,2899.2,120,2899.4,117.9,2898.3z" /><path
         id="XMLID_669_"
         class="st106"
         d="M153.6,2882.8c0,0-9.4-7.8-12.6-9.6C141,2873.1,144,2872.4,153.6,2882.8z" /><path
         id="XMLID_668_"
         class="st106"
         d="M146.2,2889.2c0,0-7.4-5.9-9.8-7.7C136.4,2881.5,138.8,2881,146.2,2889.2z" /><path
         id="XMLID_667_"
         class="st106"
         d="M138.6,2894.1c0,0-6.2-4-8.3-4.9C130.3,2889.2,132.2,2888.5,138.6,2894.1z" /><path
         id="XMLID_666_"
         class="st107"
         d="M155.3,2860.4c0,0-4.2,3.6-11.2,1.7C144.1,2862.1,150.7,2866,155.3,2860.4z" /><path
         id="XMLID_665_"
         class="st6"
         d="M323.5,2593.4l-24.1,116.9c-0.1,0.8-0.3,1.6-0.4,2.6c-3.4,19-14,35.8-30.1,47.6l-113.5,74.6    l23.8,40.6l145.5-87.8c11.3-9.1,18.8-21.6,21.3-35.4l29.6-144.2C375.4,2608.2,366.3,2583.1,323.5,2593.4z" /><path
         id="XMLID_664_"
         class="st108"
         d="M-23.6,2709.7c0,0-1.8,18.9-29.3,9.7C-53,2719.5-31.8,2721-23.6,2709.7z" /><g
         id="XMLID_658_"><rect
           id="XMLID_663_"
           x="299.9"
           y="2855.3"
           class="st109"
           width="134.6"
           height="90.9" /><rect
           id="XMLID_660_"
           x="299.9"
           y="2935.4"
           class="st110"
           width="134.6"
           height="10.8" /><rect
           id="XMLID_659_"
           x="323"
           y="2878.4"
           class="st24"
           width="18.8"
           height="44.6" /></g><path
         id="XMLID_657_"
         class="st102"
         d="M368.9,2901l-7.9,9.6c-3.4,1.5-22,3.5-21.2,7.1c0.4,1.9,6.9,4.5,10.2,2.8    c1-0.5-1.5,6-5.2,11.4c-1.9,2.8-2.4,8.5-1.9,8.6c18.5,2.5,34.9,7.8,37.8,2.1c1.7-3.3,5-11.8,5-11.8l8.8-23.5c0,0-3.9-0.2-9-2    C376.5,2902,368.9,2901,368.9,2901z" /><path
         id="XMLID_656_"
         class="st102"
         d="M367,2950.1c-1.4-0.1-2.3-0.9-3.8-2.4l-1.2-1.5c-0.3-1.1-0.9,0.8-2.1,2.2    c-0.3,0.4-1.4,1.1-2.1,1.5c-0.6,0.3-1.9,0.2-2.7-0.1c-2.4-0.7-3.6-3.8-4.4-3.3c-9,5.1-8.7-5.1-8.5-6l1-0.8    c0.6-0.4,6.2-3.3,8.2,1.9c0.6,1.6,5.2-8.3,11.6-0.4l3.7-2.5c2-1.2,5.5-0.2,6.6,3.7c0.3,1.1,1.2-3.2,3.8-2.8l0.2,0    c1.1,0.1,2.2,0.8,2.6,1.8c0.9,2.3-1,5.2-2,6.5c-3.4,4-5.2-2.1-5.7-1.6C370.5,2948.3,369.3,2950.4,367,2950.1z" /><path
         id="XMLID_653_"
         class="st102"
         d="M404.9,2541.8l-38.9-3.5c-10.5,0.5-13.2-10.4-13.2-7.3l-6.7,32.4    c-1.2,11-6.1,14.6-6.1,14.6c-12.6,3.4-1.9,42.6,0.7,42.6l63.9-1.7c3.1,0,2.7-36.9-0.8-43.3l-8.2-29.7    C395.4,2542.6,400.6,2542.2,404.9,2541.8z" /><path
         id="XMLID_639_"
         class="st102"
         d="M-97.6,3319.4h-26.8V3292c0-7.5,6.1-13.6,13.6-13.6h0c7.3,0,13.2,5.9,13.2,13.2V3319.4z" /><path
         id="XMLID_611_"
         class="st102"
         d="M-38.7,3316.4h-26.8v-33.2c0-4.3,1.7-15.4,6-15.4h13.8c4.2,0,6.9,11,6.9,15.2V3316.4z" /><g
         id="XMLID_502_"><g
           id="XMLID_1143_"><g
             id="XMLID_1144_"><path
               id="XMLID_1146_"
               class="st109"
               d="M-17.1,2874.6c0,0-4.8-9.5-14.3-11.6l-16.5-1.2c-1.1-0.7-2.6-0.6-3-0.6l-101.9-1.8       c-1.5,0-3.4,5.4-5.8,12.7c-6.5,19.8-10.8,89.5-1.1,128.9l8.3,100.3c0,4.3,4.2,118.6,4,183.2c0,9.6,6.7,14.8,16.2,14.5l54.8,0.9       c5.1-0.2,11.1,0.2,11.9-2.8c10.8-39.6,6.2-203.4,6.2-207.8l1-27.3l0.5,231.7c0,3.4,5.8,2.8,10.8,1.2c2.6-0.8,5.1,1.4,7.4-0.2       l8.9-6.7c2.9-5.7,2-142.7,2-147.5L-17.1,2874.6z" /></g></g></g><path
         id="XMLID_499_"
         class="st110"
         d="M-64.4,3298.2c0,0,18.9-1,25.7-3.6l-18.6-232.1L-64.4,3298.2z" /><path
         id="XMLID_498_"
         class="st109"
         d="M259.3,3340.7l1.6,5.1c0,0,21.8,0.7,29.2,0.6l36.4,0c3.8-6.6,6.9-11.6,8.3-18.2    c0.3-1.5,0.4-3,0.3-4.6l0,0c-0.4-4.6-0.7-7.8-2.3-12.1v-1.5h-33.7l-11.4,11.3c-10.4,3.9-21.6-1.4-26.7,6.6    C258.7,3331.6,258.4,3334.4,259.3,3340.7z" /><path
         id="XMLID_497_"
         class="st109"
         d="M352,3340.7l1.6,5.1c0,0,21.8,0.7,29.2,0.6l36.4,0c3.8-6.6,6.9-11.6,8.3-18.2    c0.3-1.5,0.4-3,0.3-4.6l0,0c-0.4-4.6-0.5-6.1-2.4-11.6v-2.6h-34.2l-10.9,11.9c-10.4,3.9-21.6-1.4-26.7,6.6    C351.3,3331.6,351,3334.4,352,3340.7z" /><path
         id="XMLID_494_"
         class="st110"
         d="M-55.3,3335.1L-55.3,3335.1c-1,3.4-4.1,5.7-7.6,5.7c-7,0-18.2,0-23.2,0l-36.4,0    c-3.8-6.6-6.9-11.6-8.3-18.2c-0.3-1.5-0.4-3-0.3-4.6l0,0c0.4-4.6,1.7-9.1,4.1-13.2l0.2-0.4h30.3l1.5,7.5c2.5,3.7,5.9,6.7,9.8,8.9    c3.5,1.9,4,3.1,13.1,7.1C-66.9,3330.2-63.6,3331.8-55.3,3335.1z" /><path
         id="XMLID_491_"
         class="st110"
         d="M3.7,3335.1L3.7,3335.1c-1,3.4-4.1,5.7-7.6,5.7c-7,0-18.2,0-23.2,0l-36.4,0    c-3.8-6.6-6.9-11.6-8.3-18.2c-0.3-1.5-0.4-3-0.3-4.6l0,0c0.4-4.6,1.7-9.1,4.1-13.2l0.2-0.4h30.3l1.5,7.5c2.5,3.7,5.9,6.7,9.8,8.9    c3.5,1.9,4,3.1,13.1,7.1C-8,3330.2-4.6,3331.8,3.7,3335.1z" /><path
         id="XMLID_490_"
         class="st111"
         d="M-60.9,3340.8c0,0,4.8-2.3,5.6-5.7c0,0-8.9-3.6-14.5-6.1l-2-6.4l22.1,9.1    C-49.7,3331.7-45.3,3341.5-60.9,3340.8z" /><path
         id="XMLID_487_"
         class="st112"
         d="M-32.3,2772.6c-3-10.8-3-22.3-0.1-33.1l3.8-14.2c0.9-5.4,2.6-10.6,5-15.6    c4.7-9.6,9.4-19-0.1-34.2c-8.3-13.3-28-38.3-34.3-48.1c-4.9,9,20.2,27.4,2.9,27.6c-17.3,0.2-37.9-8.8-47.7-22.9c0,0,0,0,0,0    c-1.9-3.5-5.3-5.9-9.2-5.9h-9.8c-18.2,0-33,14.9-33,33l27.2,97.7c-0.5,12.8-40.3,117.7-25.5,120.6l130.9-2    c3.6-0.1,6.7-2.6,7.3-6.2C-11.3,2847.9-24.1,2802.3-32.3,2772.6z" /><path
         id="XMLID_484_"
         class="st0"
         d="M-114.3,2626.2l52.6,117.9c0.3,0.7,0.7,1.5,1,2.4c7.8,17.6,21.5,31.9,38.7,40.5l123.4,54.8    l-15.1,41.7l-150.9-60.8c-12.3-6.8-22.1-17.5-27.8-30.3l-62.5-133C-154.9,2659.2-154.9,2623.5-114.3,2626.2z" /><g
         id="XMLID_482_"><path
           id="XMLID_483_"
           class="st113"
           d="M-48.6,2536.7c0,0-0.1,0-0.1,0c-1-0.1-1.7-0.9-1.6-1.8c0.1-1.8-1.2-3.3-3-3.4     c-0.8,0-1.7,0.2-2.3,0.8c-0.6,0.6-1,1.3-1.1,2.2c-0.1,1-0.9,1.7-1.8,1.6c-1-0.1-1.7-0.9-1.6-1.8c0.1-1.8,0.9-3.4,2.2-4.6     c1.3-1.2,3.1-1.8,4.8-1.7c3.7,0.2,6.5,3.4,6.2,7.1C-46.9,2536-47.7,2536.7-48.6,2536.7z" /></g><path
         id="XMLID_481_"
         class="st114"
         d="M-61.9,2599.9c0,0-20.5,9.5-35-9.8C-96.9,2590.1-78.3,2599.8-61.9,2599.9z" /><path
         id="XMLID_480_"
         class="st113"
         d="M-37.9,2572.9c0,0-5.7,0.9-11.7-1.8C-49.6,2571.1-39.9,2577.1-37.9,2572.9z" /><path
         id="XMLID_479_"
         class="st104"
         d="M-136.2,2544.1l94.1-25.5c3-0.9,10.6-2.5,11.1-3.9l-2.9-11.8c-2.2-5.4-5-10.3-8.2-13.7    c-11.1-11.7-22.4-11.3-26.3-10.7c-0.6,0.1-12.9,1.2-13.6,1.3l-41.8,3.4c-10.2,0-18.4,8.5-19.7,9.7c-4.4,4-7.9,15.5-7.7,16.2    l7.8,31.1C-142.4,2543.3-139.3,2545-136.2,2544.1z" /><path
         id="XMLID_478_"
         class="st104"
         d="M-75.3,2606.5h-76V2530c0-22,17.8-39.8,39.8-39.8h0c20,0,36.2,16.2,36.2,36.2V2606.5z" /><g
         id="XMLID_468_"><g
           id="XMLID_475_"><path
             id="XMLID_477_"
             class="st102"
             d="M-97.6,2547c2,7.6,7.1,13.3,11.5,12.8c4.4-0.5,6.3-7,4.3-14.6c-2-7.6-7.1-13.3-11.5-12.8      C-97.6,2532.9-99.6,2539.4-97.6,2547z" /><path
             id="XMLID_476_"
             class="st114"
             d="M-88.7,2540.4c0,0-14.5,6.8,3.3,11.7C-85.4,2552.1-94.1,2547.4-88.7,2540.4z" /></g><ellipse
           id="XMLID_472_"
           class="st110"
           cx="-88"
           cy="2556.4"
           rx="1.8"
           ry="1.2" /></g><path
         id="XMLID_467_"
         class="st102"
         d="M330.8,2551.8c3.1,5.2,15.4,3.8,23.6,4.2l30.2-9.1c24.7,0,34.6-18,34.6-42.6l8.6-37.8    c0-14.1-11.5-25.6-25.6-25.6h-50.5c-0.4,0-0.7,0-1.1,0c-15.4,0.5-26.2,9-23.9,29l6,17.7c0,2.7-11.2,24.3-9.4,26.3    C338.9,2531.7,325.2,2542.4,330.8,2551.8z" /><path
         id="XMLID_466_"
         class="st115"
         d="M467.6,2710.4l-6.2-111.4c-8.8-15.3-18.2-19.5-32-24.8l-26.1-0.3    c1.6,3.6-2.5,10.8-4.8,14.2c-10,14.6-26.1,26.9-46.3,26.9c-20.2,0-13.3-21.1-13.1-28c0.1-2.6,0.8-6.7,0.9-9.1    c-11.7,5.5-19.8,16.6-19.8,28.8l-5.3,98.2c0,19.2-2.9,91.5-2.4,127.7c0.1,6.9,4.5,15.6,11.3,14.1c1.6-0.4,8.5,0.1,9.5,0.2    l121.2-0.2C454.2,2803.8,468.1,2723.1,467.6,2710.4z" /><path
         id="XMLID_460_"
         class="st116"
         d="M413.9,2574.3l11.4,142.1c0.2,0.8,0.3,1.6,0.5,2.5c3.9,18.8,1.5,38.4-6.6,55.4l-64.1,132    l44.8,9l70.6-136.9c5.4-12.7,6.9-27,4.1-40.8L461.8,2601C461.8,2601,456.5,2570.2,413.9,2574.3z" /><path
         id="XMLID_459_"
         class="st113"
         d="M412,2424.7c2.9,2.4,4.7,7.7,12.5,11c0,0,6.3,1.5,5.2,20.1c-0.8,13.8-6.5,30.4-6.5,30.4    c-15.4,7.2-18.5-1-23.5,9.5c-12.5,26.6-24.9-1.1-39.6-19c-11.9-14.4-27.4,1.3-35.2-8.4c-6.2-7.8,1.5-5.7-2.8-17.2    c-4.7-12.5,0.2-26.4,15.6-27.4c12.4-0.8,11.6-13,33.8-6.6C390,2422.4,401.3,2415.8,412,2424.7z" /><path
         id="XMLID_458_"
         class="st113"
         d="M389.2,2546.4L389.2,2546.4c21.3,0,32-21.3,32-41.1l6.5-62.4h-38.5V2546.4z" /><g
         id="XMLID_401_"><path
           id="XMLID_456_"
           class="st102"
           d="M397,2495c0.4,7.8-2.8,14.8-7.1,15.7c-4.3,0.8-8.1-4.8-8.5-12.7     c-0.4-7.8,2.8-14.8,7.1-15.7C392.9,2481.5,396.7,2487.1,397,2495z" /><path
           id="XMLID_450_"
           class="st114"
           d="M386.6,2491.3c0,0,15.8,2.1,0.4,12.2C387,2503.5,393.8,2496.4,386.6,2491.3z" /></g><path
         id="XMLID_398_"
         class="st114"
         d="M347.5,2556c0,0,11.3,7,32-9.6C379.5,2546.4,359.2,2556.9,347.5,2556z" /><circle
         id="XMLID_390_"
         class="st113"
         cx="341"
         cy="2487.6"
         r="3.7" /><path
         id="XMLID_178_"
         class="st113"
         d="M330.7,2530.2c0,0,7.7,1.2,15.9-2.4C346.6,2527.8,333.4,2535.9,330.7,2530.2z" /></g></g><circle
     id="XMLID_119_"
     class="st6"
     cx="705.8"
     cy="1489.9"
     r="25.8" /><g
     id="XMLID_315_"><animateTransform
       attributeName="transform"
       type="rotate"
       from="0 705.8 1489.9"
       to="360 705.8 1489.9"
       repeatCount="indefinite"
       dur="3.3s" /><path
       id="XMLID_2809_"
       class="st117"
       d="M721.4,1477.3l2.8-11.5l-23.2-5.6l-2.8,11.5c-1,4.2-0.2,8.7,2.4,12.2l3.7,5.2l-5.7,2.9   c-3.9,2-6.7,5.5-7.7,9.7l-2.8,11.5l23.2,5.6l2.8-11.5c1-4.2,0.2-8.7-2.4-12.2l-3.7-5.2l5.7-2.9   C717.6,1485.1,720.4,1481.6,721.4,1477.3z" /><g
       id="XMLID_2802_"><path
         id="XMLID_2806_"
         class="st118"
         d="M704.8,1488c0.6,0.8,0.3,1.9-0.6,2.4l-4,2c-3.9,2-6.7,5.5-7.7,9.7l-2.8,11.5l-2.4-0.6    l2.8-11.5c1-4.2,3.9-7.8,7.7-9.7l5.7-2.9l-3.7-5.2c-2.5-3.5-3.4-8-2.4-12.2l2.8-11.5l2.4,0.6l-2.8,11.5c-1,4.2-0.2,8.7,2.4,12.2    L704.8,1488z" /><path
         id="XMLID_2803_"
         class="st118"
         d="M708.1,1488.7c-0.9,0.4-1.2,1.6-0.6,2.4l2.6,3.7c2.5,3.5,3.4,8,2.4,12.2l-2.8,11.5    l2.4,0.6l2.8-11.5c1-4.2,0.2-8.7-2.4-12.2l-3.7-5.2l5.7-2.9c3.9-2,6.7-5.5,7.7-9.7l2.8-11.5l-2.4-0.6l-2.8,11.5    c-1,4.2-3.8,7.8-7.7,9.7L708.1,1488.7z" /></g><path
       id="XMLID_2799_"
       class="st0"
       d="M702.6,1482.8l3.8,5.7l6-3.3c2-1.1,3.7-2.8,4.9-4.8l-16.8-4.1   C700.6,1478.6,701.4,1480.9,702.6,1482.8z" /><rect
       id="XMLID_1427_"
       x="697.7"
       y="1501.9"
       transform="matrix(0.2364 -0.9717 0.9717 0.2364 -934.3172 1835.5806)"
       class="st0"
       width="6"
       height="20.6" /><path
       id="XMLID_1424_"
       class="st0"
       d="M705.4,1494.9l2.6-10.9l-0.5-0.2l-2.6,10.9c-0.5,0.3-0.4,0.6-0.1,0.6l0,0   C705.1,1495.3,705.3,1495.1,705.4,1494.9z" /><path
       id="XMLID_1421_"
       class="st0"
       d="M707.5,1498.2c-0.6-0.1-1,1.4-0.4,1.6C708.1,1500,708.5,1498.4,707.5,1498.2z" /><path
       id="XMLID_1418_"
       class="st0"
       d="M704.9,1500.4c-1-0.2-1.4,1.3-0.4,1.6C706,1502.3,706.3,1500.7,704.9,1500.4z" /><path
       id="XMLID_1415_"
       class="st0"
       d="M698.3,1498.9c-1.5-0.4-2.1,2-0.6,2.4C699.7,1501.8,700.3,1499.4,698.3,1498.9z" /><path
       id="XMLID_1412_"
       class="st0"
       d="M709.4,1502.3c-1.1-0.3-1.7,2.1-0.6,2.4C710.4,1505,711,1502.7,709.4,1502.3z" /><path
       id="XMLID_1326_"
       class="st0"
       d="M700.6,1503.7c-1-0.2-1.4,1.3-0.4,1.6C701.7,1505.7,702.1,1504.1,700.6,1503.7z" /><path
       id="XMLID_1318_"
       class="st0"
       d="M707.2,1506.8c-0.5-0.1-1.2,0.7-0.7,0.8C707,1507.7,707.7,1506.9,707.2,1506.8z" /><path
       id="XMLID_1309_"
       class="st0"
       d="M695.9,1504c-0.5-0.1-1.2,0.7-0.7,0.8C695.8,1504.9,696.4,1504.2,695.9,1504z" /><path
       id="XMLID_1289_"
       class="st0"
       d="M701.9,1495.9c-0.6-0.1-1,1.4-0.4,1.6C702.5,1497.7,702.9,1496.1,701.9,1495.9z" /><g
       id="XMLID_1185_"><g
         id="XMLID_1191_"><rect
           id="XMLID_1282_"
           x="710.1"
           y="1447.2"
           transform="matrix(0.2364 -0.9717 0.9717 0.2364 -875.087 1808.5973)"
           class="st68"
           width="6"
           height="27.7" /></g><path
         id="XMLID_1186_"
         class="st119"
         d="M719.6,1459.6c-0.2,0-0.3,0.1-0.5,0.1c-1.9,0.5-3.8,0.7-5.8,0.8    c-4.6,0.2-9.3,0.1-13.8-0.9c-0.1,0-0.2,0-0.3-0.1l1.1-4.6L719.6,1459.6z" /></g><g
       id="XMLID_1157_"><rect
         id="XMLID_1159_"
         x="696.3"
         y="1504.2"
         transform="matrix(0.2364 -0.9717 0.9717 0.2364 -941.051 1838.6473)"
         class="st68"
         width="6"
         height="27.7" /><path
         id="XMLID_1158_"
         class="st119"
         d="M711.8,1518c-0.3,0-0.7,0.1-1,0.1c-7,0.6-14.1,0.4-21-0.7c-1.5-0.2-2.9-0.5-4.4-0.8    l1.1-4.7L711.8,1518z" /></g><path
       id="XMLID_1141_"
       class="st120"
       d="M705.8,1513.1C705.8,1513.1,705.8,1513.1,705.8,1513.1   C705.8,1513.1,705.8,1513.1,705.8,1513.1z" /><path
       id="XMLID_322_"
       class="st0"
       d="M693.9,1508.8c-0.3-0.1-0.2,0.1-0.2,0.4c-0.1,0.3-0.4,0.6-0.1,0.7c0.3,0.1,0.6-0.1,0.7-0.4   C694.3,1509.1,694.2,1508.8,693.9,1508.8z" /></g></svg>