<?xml version="1.0" encoding="utf-8"?>
<!-- Generator: Adobe Illustrator 19.0.0, SVG Export Plug-In . SVG Version: 6.00 Build 0)  -->
<svg version="1.1" id="Capa_1" xmlns="http://www.w3.org/2000/svg" xmlns:xlink="http://www.w3.org/1999/xlink" x="0px" y="0px"
	 viewBox="0 0 841.9 595.3" style="enable-background:new 0 0 841.9 595.3;" xml:space="preserve">
<style type="text/css">
	.st0{fill:#3C57A0;}
	.st1{fill:#FDFEFE;}
	.st2{fill:#E7B461;}
	.st3{fill:#EAC0A1;}
	.st4{opacity:0.3;fill:#5F93A3;}
	.st5{fill:#586EB1;}
	.st6{fill:#FFFFFF;}
	.st7{fill:#F0D1BA;}
	.st8{fill:#E6B38B;}
	.st9{fill:#8D9ACC;}
	.st10{fill:#C4DEDA;}
	.st11{fill:#F0C95D;}
	.st12{clip-path:url(#XMLID_2_);}
	.st13{clip-path:url(#XMLID_3_);}
</style>
<path id="XMLID_1506_" class="st0" d="M572.7,182.6h-1.3c-0.8,0-1.5-0.7-1.5-1.5v-1.3c0-0.8-0.7-1.5-1.5-1.5l0,0
	c-0.8,0-1.5,0.7-1.5,1.5v1.3c0,0.8-0.7,1.5-1.5,1.5H564c-0.8,0-1.5,0.7-1.5,1.5l0,0c0,0.8,0.7,1.5,1.5,1.5h1.3
	c0.8,0,1.5,0.7,1.5,1.5v1.3c0,0.8,0.7,1.5,1.5,1.5l0,0c0.8,0,1.5-0.7,1.5-1.5v-1.3c0-0.8,0.7-1.5,1.5-1.5h1.3c0.8,0,1.5-0.7,1.5-1.5
	l0,0C574.2,183.3,573.5,182.6,572.7,182.6z">
	<animate attributeType="CSS" attributeName="opacity" values="1;0.3;1" dur="2s" repeatCount="indefinite" begin="1s" />
</path>
<path id="XMLID_1505_" class="st1" d="M256.1,290h-1.3c-0.8,0-1.4-0.6-1.4-1.4v-1.3c0-0.8-0.6-1.4-1.4-1.4l0,0
	c-0.8,0-1.4,0.6-1.4,1.4v1.3c0,0.8-0.6,1.4-1.4,1.4h-1.3c-0.8,0-1.4,0.6-1.4,1.4l0,0c0,0.8,0.6,1.4,1.4,1.4h1.3
	c0.8,0,1.4,0.6,1.4,1.4v1.3c0,0.8,0.6,1.4,1.4,1.4l0,0c0.8,0,1.4-0.6,1.4-1.4v-1.3c0-0.8,0.6-1.4,1.4-1.4h1.3c0.8,0,1.4-0.6,1.4-1.4
	l0,0C257.6,290.7,256.9,290,256.1,290z">
	<animate attributeType="CSS" attributeName="opacity" values="1;0.3;1" dur="2s" repeatCount="indefinite" begin="0.5s" />
</path>
<path id="XMLID_1502_" class="st2" d="M644.9,341.1h-1.3c-0.8,0-1.4-0.6-1.4-1.4v-1.3c0-0.8-0.6-1.4-1.4-1.4l0,0
	c-0.8,0-1.4,0.6-1.4,1.4v1.3c0,0.8-0.6,1.4-1.4,1.4h-1.3c-0.8,0-1.4,0.6-1.4,1.4l0,0c0,0.8,0.6,1.4,1.4,1.4h1.3
	c0.8,0,1.4,0.6,1.4,1.4v1.3c0,0.8,0.6,1.4,1.4,1.4l0,0c0.8,0,1.4-0.6,1.4-1.4v-1.3c0-0.8,0.6-1.4,1.4-1.4h1.3c0.8,0,1.4-0.6,1.4-1.4
	l0,0C646.3,341.8,645.7,341.1,644.9,341.1z">
	<animate attributeType="CSS" attributeName="opacity" values="1;0.3;1" dur="2s" repeatCount="indefinite" begin="2s" />
</path>
<path id="XMLID_1499_" class="st2" d="M219.3,338h-1.3c-0.8,0-1.4-0.6-1.4-1.4v-1.3c0-0.8-0.6-1.4-1.4-1.4l0,0
	c-0.8,0-1.4,0.6-1.4,1.4v1.3c0,0.8-0.6,1.4-1.4,1.4H211c-0.8,0-1.4,0.6-1.4,1.4l0,0c0,0.8,0.6,1.4,1.4,1.4h1.3
	c0.8,0,1.4,0.6,1.4,1.4v1.3c0,0.8,0.6,1.4,1.4,1.4l0,0c0.8,0,1.4-0.6,1.4-1.4v-1.3c0-0.8,0.6-1.4,1.4-1.4h1.3c0.8,0,1.4-0.6,1.4-1.4
	l0,0C220.8,338.6,220.1,338,219.3,338z">
	<animate attributeType="CSS" attributeName="opacity" values="1;0.3;1" dur="2s" repeatCount="indefinite" begin="0s" />
</path>
<path id="XMLID_1496_" class="st3" d="M597.4,265.2h-1.3c-0.8,0-1.4-0.6-1.4-1.4v-1.3c0-0.8-0.6-1.4-1.4-1.4l0,0
	c-0.8,0-1.4,0.6-1.4,1.4v1.3c0,0.8-0.6,1.4-1.4,1.4h-1.3c-0.8,0-1.4,0.6-1.4,1.4l0,0c0,0.8,0.6,1.4,1.4,1.4h1.3
	c0.8,0,1.4,0.6,1.4,1.4v1.3c0,0.8,0.6,1.4,1.4,1.4l0,0c0.8,0,1.4-0.6,1.4-1.4v-1.3c0-0.8,0.6-1.4,1.4-1.4h1.3c0.8,0,1.4-0.6,1.4-1.4
	l0,0C598.8,265.9,598.2,265.2,597.4,265.2z">
	<animate attributeType="CSS" attributeName="opacity" values="1;0.3;1" dur="2s" repeatCount="indefinite" begin="1.5s" />
</path>
<path id="XMLID_1495_" class="st0" d="M526,219.3c-4.8-14.8,24.8-23.9,30.5-11.9C562.2,219.3,530.8,234.1,526,219.3z"/>
<g id="XMLID_298_">
	<path id="XMLID_1492_" class="st4" d="M503.9,407.9l-30.6-274c-0.5-4-4.1-7-8.1-6.5l-55.3,6.2c-1.8-3.9-6-6.4-10.6-5.9l-26,2.9
		l-0.3-2.7c-0.6-5.8-5.9-10-11.7-9.3l-0.2,0c-5.8,0.6-10,5.9-9.3,11.7l0.3,2.7l-26,2.9c-4.5,0.5-8.1,3.9-9,8.1l-55.3,6.2
		c-4,0.5-7,4.1-6.5,8.1l30.6,274c0.5,4,4.1,7,8.1,6.5l203.4-22.7C501.4,415.6,504.3,412,503.9,407.9z M362.5,131.6
		c-2.3,0.2-4.3-1.5-4.5-3.8c-0.2-2.3,1.5-4.3,3.8-4.5c2.3-0.2,4.3,1.5,4.5,3.8C366.5,129.4,364.8,131.4,362.5,131.6z"/>
	<g id="XMLID_1475_">
		<path id="XMLID_1476_" class="st5" d="M486.4,130.1c-0.2,0-0.5,0-0.7,0l-203.6,21.4c-1.8,0.2-3.4,1.1-4.5,2.4
			c-1.1,1.4-1.6,3.1-1.5,4.9L304.9,433c0.4,3.6,3.6,6.3,7.3,6l203.6-21.4c3.7-0.4,6.3-3.7,6-7.3l-28.8-274.1
			C492.7,132.7,489.8,130.1,486.4,130.1z"/>
	</g>
	<g id="XMLID_1470_">
		<path id="XMLID_1474_" class="st6" d="M311.2,428.6l-28-266.8c-0.2-2,1.3-3.8,3.3-4l196.3-20.6c2-0.2,3.8,1.3,4,3.3l28,266.8
			c0.2,2-1.3,3.8-3.3,4l-196.3,20.6C313.2,432.1,311.4,430.7,311.2,428.6z"/>
		<path id="XMLID_1471_" class="st5" d="M314.9,432.6c-2.2,0-4.1-1.7-4.3-3.9l-28-266.8c-0.1-1.2,0.2-2.3,0.9-3.2
			c0.7-0.9,1.8-1.5,2.9-1.6l196.3-20.6c2.4-0.3,4.5,1.5,4.8,3.9l28,266.8c0.3,2.4-1.5,4.5-3.9,4.8l-196.3,20.6
			C315.2,432.6,315,432.6,314.9,432.6z M483.1,137.8c-0.1,0-0.2,0-0.3,0l-196.3,20.6c-0.8,0.1-1.5,0.5-2,1.1
			c-0.5,0.6-0.7,1.4-0.7,2.2l28,266.8c0.2,1.6,1.6,2.8,3.3,2.7l196.3-20.6c1.6-0.2,2.8-1.7,2.7-3.3l-28-266.8
			C486,139,484.7,137.8,483.1,137.8z"/>
	</g>
	<path id="XMLID_1469_" class="st4" d="M420.1,132l-26,2.7l-0.3-2.7c-0.6-5.8-5.8-10-11.6-9.4l-0.2,0c-5.8,0.6-10,5.8-9.4,11.6
		l0.3,2.7l-26,2.7c-5.7,0.6-9.8,5.7-9.2,11.4l0,0.2c0.6,5.7,5.7,9.8,11.4,9.2l73.3-7.7c5.7-0.6,9.8-5.7,9.2-11.4l0-0.2
		C430.9,135.5,425.8,131.4,420.1,132z"/>
	<g id="XMLID_1466_">
		<path id="XMLID_1467_" class="st5" d="M382.9,120.5c-0.3,0-0.7,0-1,0.1l-0.2,0c-2.6,0.3-5,1.6-6.7,3.6c-1.7,2.1-2.4,4.6-2.2,7.3
			l0.4,3.3l-26.7,2.8c-5.3,0.6-9.2,5.3-8.6,10.7l0,0.2c0.5,5,4.7,8.7,9.6,8.7h0c0.3,0,0.7,0,1-0.1l73.3-7.7
			c5.3-0.6,9.2-5.3,8.6-10.7l0-0.2c-0.6-5.3-5.3-9.2-10.7-8.6l-26.7,2.8l-0.4-3.3C392.2,124.3,388,120.5,382.9,120.5z"/>
	</g>
	<g id="XMLID_1461_">
		<circle id="XMLID_1465_" class="st6" cx="382.7" cy="129" r="4.2"/>
		<path id="XMLID_1462_" class="st5" d="M382.7,133.8c-2.5,0-4.6-1.9-4.8-4.3c-0.1-1.3,0.2-2.6,1.1-3.6c0.8-1,2-1.6,3.3-1.8
			c2.7-0.3,5.1,1.7,5.3,4.3c0.1,1.3-0.2,2.6-1.1,3.6c-0.8,1-2,1.6-3.3,1.8C383,133.8,382.8,133.8,382.7,133.8z M382.7,125.5
			c-0.1,0-0.2,0-0.4,0c-0.9,0.1-1.8,0.6-2.4,1.3c-0.6,0.7-0.9,1.6-0.8,2.6c0.2,1.9,1.9,3.3,3.8,3.1c0.9-0.1,1.8-0.6,2.4-1.3
			c0.6-0.7,0.9-1.6,0.8-2.6C386,126.8,384.5,125.5,382.7,125.5z"/>
	</g>
	<g id="XMLID_1447_">
		<g id="XMLID_1454_">
			<g id="XMLID_1455_">
				<path id="XMLID_1460_" class="st6" d="M340.2,213.8l-27,2.8c-2,0.2-3.7-1.2-3.9-3.2l-2.8-27c-0.2-2,1.2-3.7,3.2-3.9l27-2.8
					c2-0.2,3.7,1.2,3.9,3.2l2.8,27C343.5,211.9,342.1,213.6,340.2,213.8z"/>
				<path id="XMLID_1457_" class="st5" d="M312.8,217.3c-2.2,0-4-1.6-4.2-3.8l-2.8-27c-0.1-1.1,0.2-2.2,0.9-3.1
					c0.7-0.9,1.7-1.4,2.9-1.6l27-2.8c2.4-0.2,4.4,1.5,4.7,3.8l2.8,27c0.2,2.3-1.5,4.4-3.8,4.7l-27,2.8
					C313.1,217.3,312.9,217.3,312.8,217.3z M337,180.3c-0.1,0-0.2,0-0.3,0l-27,2.8c-0.8,0.1-1.5,0.5-1.9,1.1
					c-0.5,0.6-0.7,1.4-0.6,2.1l2.8,27c0.2,1.6,1.6,2.7,3.2,2.6l27-2.8c1.6-0.2,2.7-1.6,2.6-3.2l-2.8-27
					C339.7,181.5,338.4,180.3,337,180.3z"/>
			</g>
		</g>
		<g id="XMLID_1450_">
			<path id="XMLID_1451_" class="st5" d="M323.6,204l-7.6-5.8c-0.3-0.2-0.4-0.7-0.1-0.9c0.2-0.3,0.7-0.4,0.9-0.1l6.6,5l8.6-9.7
				c0.2-0.3,0.7-0.3,1-0.1c0.3,0.2,0.3,0.7,0.1,1L323.6,204z"/>
		</g>
	</g>
	<g id="XMLID_548_">
		<g id="XMLID_1439_">
			<g id="XMLID_1440_">
				<path id="XMLID_1446_" class="st6" d="M345.2,261.5l-27,2.8c-2,0.2-3.7-1.2-3.9-3.2l-2.8-27c-0.2-2,1.2-3.7,3.2-3.9l27-2.8
					c2-0.2,3.7,1.2,3.9,3.2l2.8,27C348.5,259.5,347.1,261.3,345.2,261.5z"/>
				<path id="XMLID_1441_" class="st5" d="M317.8,265c-2.2,0-4-1.6-4.2-3.8l-2.8-27c-0.2-2.3,1.5-4.4,3.8-4.7l27-2.8
					c2.4-0.2,4.4,1.5,4.7,3.8l2.8,27c0.2,2.3-1.5,4.4-3.8,4.7l-27,2.8C318.1,265,317.9,265,317.8,265z M342,228c-0.1,0-0.2,0-0.3,0
					l-27,2.8c-1.6,0.2-2.7,1.6-2.6,3.2l2.8,27c0.2,1.6,1.6,2.7,3.2,2.6l27-2.8c1.6-0.2,2.7-1.6,2.6-3.2l-2.8-27
					C344.7,229.2,343.4,228,342,228z"/>
			</g>
		</g>
		<g id="XMLID_595_">
			<path id="XMLID_1438_" class="st5" d="M328.6,251.7l-7.6-5.8c-0.3-0.2-0.4-0.7-0.1-0.9c0.2-0.3,0.6-0.4,0.9-0.1l6.6,5l8.6-9.7
				c0.2-0.3,0.7-0.3,1-0.1c0.3,0.2,0.3,0.7,0.1,1L328.6,251.7z"/>
		</g>
	</g>
	<g id="XMLID_520_">
		<g id="XMLID_521_">
			<g id="XMLID_522_">
				<path id="XMLID_541_" class="st6" d="M350.2,309.2l-27,2.8c-2,0.2-3.7-1.2-3.9-3.2l-2.8-27c-0.2-2,1.2-3.7,3.2-3.9l27-2.8
					c2-0.2,3.7,1.2,3.9,3.2l2.8,27C353.6,307.2,352.1,309,350.2,309.2z"/>
				<path id="XMLID_523_" class="st5" d="M322.8,312.7c-2.2,0-4-1.6-4.2-3.8l-2.8-27c-0.1-1.1,0.2-2.2,0.9-3.1
					c0.7-0.9,1.7-1.4,2.9-1.6l27-2.8c2.4-0.2,4.4,1.5,4.7,3.8l2.8,27c0.1,1.1-0.2,2.2-0.9,3.1c-0.7,0.9-1.7,1.4-2.9,1.6l-27,2.8
					C323.1,312.7,322.9,312.7,322.8,312.7z M347,275.7c-0.1,0-0.2,0-0.3,0l-27,2.8c-0.8,0.1-1.5,0.5-1.9,1.1
					c-0.5,0.6-0.7,1.4-0.6,2.1l2.8,27c0.2,1.6,1.6,2.7,3.2,2.6l27-2.8c0.8-0.1,1.5-0.5,1.9-1.1c0.5-0.6,0.7-1.4,0.6-2.1l-2.8-27
					C349.7,276.8,348.4,275.7,347,275.7z"/>
			</g>
		</g>
	</g>
	<g id="XMLID_513_">
		<g id="XMLID_514_">
			<g id="XMLID_515_">
				<path id="XMLID_519_" class="st6" d="M355.2,356.9l-27,2.8c-2,0.2-3.7-1.2-3.9-3.2l-2.8-27c-0.2-2,1.2-3.7,3.2-3.9l27-2.8
					c2-0.2,3.7,1.2,3.9,3.2l2.8,27C358.6,354.9,357.1,356.7,355.2,356.9z"/>
				<path id="XMLID_516_" class="st5" d="M327.8,360.4c-2.2,0-4-1.6-4.2-3.8l-2.8-27c-0.2-2.3,1.5-4.4,3.8-4.7l27-2.8
					c2.4-0.2,4.4,1.5,4.7,3.8l2.8,27c0.1,1.1-0.2,2.2-0.9,3.1c-0.7,0.9-1.7,1.4-2.9,1.6l-27,2.8
					C328.1,360.4,327.9,360.4,327.8,360.4z M352,323.4c-0.1,0-0.2,0-0.3,0l-27,2.8c-1.6,0.2-2.7,1.6-2.6,3.2l2.8,27
					c0.2,1.6,1.6,2.7,3.2,2.6l27-2.8c0.8-0.1,1.5-0.5,1.9-1.1c0.5-0.6,0.7-1.4,0.6-2.1l-2.8-27C354.7,324.5,353.5,323.4,352,323.4z"
					/>
			</g>
		</g>
	</g>
	<g id="XMLID_505_">
		<g id="XMLID_506_">
			<g id="XMLID_507_">
				<path id="XMLID_512_" class="st6" d="M360.2,404.6l-27,2.8c-2,0.2-3.7-1.2-3.9-3.2l-2.8-27c-0.2-2,1.2-3.7,3.2-3.9l27-2.8
					c2-0.2,3.7,1.2,3.9,3.2l2.8,27C363.6,402.6,362.1,404.4,360.2,404.6z"/>
				<path id="XMLID_508_" class="st5" d="M332.8,408.1c-2.2,0-4-1.6-4.2-3.8l-2.8-27c-0.2-2.3,1.5-4.4,3.8-4.7l27-2.8
					c2.4-0.3,4.4,1.5,4.7,3.8l2.8,27c0.2,2.3-1.5,4.4-3.8,4.7l-27,2.8C333.1,408.1,332.9,408.1,332.8,408.1z M357,371.1
					c-0.1,0-0.2,0-0.3,0l-27,2.8c-1.6,0.2-2.7,1.6-2.6,3.2l2.8,27c0.2,1.6,1.6,2.7,3.2,2.6l27-2.8c1.6-0.2,2.7-1.6,2.6-3.2l-2.8-27
					C359.7,372.2,358.5,371.1,357,371.1z"/>
			</g>
		</g>
	</g>
	<g id="XMLID_493_">
		<g id="XMLID_503_">
			<path id="XMLID_504_" class="st5" d="M355.8,191c-0.3,0-0.6-0.3-0.7-0.6c0-0.4,0.2-0.7,0.6-0.7l18.8-2c0.4,0,0.7,0.2,0.7,0.6
				c0,0.4-0.2,0.7-0.6,0.7L355.8,191C355.8,191,355.8,191,355.8,191z"/>
		</g>
		<g id="XMLID_500_">
			<path id="XMLID_501_" class="st5" d="M356.7,200.1c-0.3,0-0.6-0.3-0.7-0.6c0-0.4,0.2-0.7,0.6-0.7l106.2-11.1
				c0.4,0,0.7,0.2,0.7,0.6c0,0.4-0.2,0.7-0.6,0.7L356.7,200.1C356.8,200.1,356.8,200.1,356.7,200.1z"/>
		</g>
		<g id="XMLID_495_">
			<path id="XMLID_496_" class="st5" d="M382.9,188.1c-0.3,0-0.6-0.3-0.7-0.6c0-0.4,0.2-0.7,0.6-0.7l6.5-0.7c0.4,0,0.7,0.2,0.7,0.6
				c0,0.4-0.2,0.7-0.6,0.7L382.9,188.1C383,188.1,382.9,188.1,382.9,188.1z"/>
		</g>
	</g>
	<g id="XMLID_399_">
		<g id="XMLID_488_">
			<path id="XMLID_492_" class="st5" d="M360.8,238.8c-0.3,0-0.6-0.3-0.7-0.6c0-0.4,0.2-0.7,0.6-0.7l18.8-2c0.4,0,0.7,0.2,0.7,0.6
				c0,0.4-0.2,0.7-0.6,0.7L360.8,238.8C360.8,238.8,360.8,238.8,360.8,238.8z"/>
		</g>
		<g id="XMLID_454_">
			<path id="XMLID_474_" class="st5" d="M361.8,247.9c-0.3,0-0.6-0.3-0.7-0.6c0-0.4,0.2-0.7,0.6-0.7l106.2-11.1
				c0.4,0,0.7,0.2,0.7,0.6c0,0.4-0.2,0.7-0.6,0.7L361.8,247.9C361.8,247.9,361.8,247.9,361.8,247.9z"/>
		</g>
		<g id="XMLID_426_">
			<path id="XMLID_427_" class="st5" d="M387.9,236c-0.3,0-0.6-0.3-0.7-0.6c0-0.4,0.2-0.7,0.6-0.7l77.6-8.1c0.4,0,0.7,0.2,0.7,0.6
				c0,0.4-0.2,0.7-0.6,0.7L387.9,236C388,236,388,236,387.9,236z"/>
		</g>
	</g>
	<g id="XMLID_367_">
		<g id="XMLID_381_">
			<path id="XMLID_396_" class="st5" d="M365.8,286.6c-0.3,0-0.6-0.3-0.7-0.6c0-0.4,0.2-0.7,0.6-0.7l18.8-2c0.4,0,0.7,0.2,0.7,0.6
				c0,0.4-0.2,0.7-0.6,0.7L365.8,286.6C365.9,286.6,365.8,286.6,365.8,286.6z"/>
		</g>
		<g id="XMLID_377_">
			<path id="XMLID_379_" class="st5" d="M366.8,295.8c-0.3,0-0.6-0.3-0.7-0.6c0-0.4,0.2-0.7,0.6-0.7l106.2-11.1
				c0.4,0,0.7,0.2,0.7,0.6c0,0.4-0.2,0.7-0.6,0.7L366.8,295.8C366.8,295.8,366.8,295.8,366.8,295.8z"/>
		</g>
		<g id="XMLID_373_">
			<path id="XMLID_376_" class="st5" d="M393,283.8c-0.3,0-0.6-0.3-0.7-0.6c0-0.4,0.2-0.7,0.6-0.7l6.5-0.7c0.4,0,0.7,0.2,0.7,0.6
				c0,0.4-0.2,0.7-0.6,0.7L393,283.8C393,283.8,393,283.8,393,283.8z"/>
		</g>
	</g>
	<g id="XMLID_337_">
		<g id="XMLID_360_">
			<path id="XMLID_364_" class="st5" d="M370.8,334.5c-0.3,0-0.6-0.3-0.7-0.6c0-0.4,0.2-0.7,0.6-0.7l102.1-10.7
				c0.4,0,0.7,0.2,0.7,0.6c0,0.4-0.2,0.7-0.6,0.7L370.8,334.5C370.9,334.5,370.9,334.5,370.8,334.5z"/>
		</g>
		<g id="XMLID_354_">
			<path id="XMLID_356_" class="st5" d="M420.6,338.5c-0.3,0-0.6-0.3-0.7-0.6c0-0.4,0.2-0.7,0.6-0.7l57.4-6c0.4,0,0.7,0.2,0.7,0.6
				c0,0.4-0.2,0.7-0.6,0.7L420.6,338.5C420.6,338.5,420.6,338.5,420.6,338.5z"/>
		</g>
	</g>
	<g id="XMLID_313_">
		<g id="XMLID_333_">
			<path id="XMLID_336_" class="st5" d="M375.9,382.3c-0.3,0-0.6-0.3-0.7-0.6c0-0.4,0.2-0.7,0.6-0.7l18.8-2c0.4,0,0.7,0.2,0.7,0.6
				c0,0.4-0.2,0.7-0.6,0.7L375.9,382.3C375.9,382.3,375.9,382.3,375.9,382.3z"/>
		</g>
		<g id="XMLID_317_">
			<path id="XMLID_329_" class="st5" d="M376.8,391.4c-0.3,0-0.6-0.3-0.7-0.6c0-0.4,0.2-0.7,0.6-0.7l106.2-11.1
				c0.4,0,0.7,0.2,0.7,0.6c0,0.4-0.2,0.7-0.6,0.7L376.8,391.4C376.9,391.4,376.8,391.4,376.8,391.4z"/>
		</g>
		<g id="XMLID_314_">
			<path id="XMLID_316_" class="st5" d="M403,379.4c-0.3,0-0.6-0.3-0.7-0.6c0-0.4,0.2-0.7,0.6-0.7l6.5-0.7c0.4,0,0.7,0.2,0.7,0.6
				c0,0.4-0.2,0.7-0.6,0.7L403,379.4C403,379.4,403,379.4,403,379.4z"/>
		</g>
	</g>
	<g id="XMLID_311_">
		<path id="XMLID_312_" class="st5" d="M405.4,340c-0.3,0-0.6-0.3-0.7-0.6c0-0.4,0.2-0.7,0.6-0.7l6.5-0.7c0.4,0,0.7,0.2,0.7,0.6
			c0,0.4-0.2,0.7-0.6,0.7L405.4,340C405.4,340,405.4,340,405.4,340z"/>
	</g>
	<g id="XMLID_309_">
		<path id="XMLID_310_" class="st5" d="M371.8,343.6c-0.3,0-0.6-0.3-0.7-0.6c0-0.4,0.2-0.7,0.6-0.7l30.4-3.2c0.4,0,0.7,0.2,0.7,0.6
			c0,0.4-0.2,0.7-0.6,0.7L371.8,343.6C371.8,343.6,371.8,343.6,371.8,343.6z"/>
	</g>
	<g id="XMLID_307_">
		<path id="XMLID_308_" class="st5" d="M409.2,282.1c-0.3,0-0.6-0.3-0.7-0.6c0-0.4,0.2-0.7,0.6-0.7l23.8-2.5c0.4,0,0.7,0.2,0.7,0.6
			c0,0.4-0.2,0.7-0.6,0.7L409.2,282.1C409.3,282.1,409.3,282.1,409.2,282.1z"/>
	</g>
	<g id="XMLID_305_">
		<path id="XMLID_306_" class="st5" d="M416,378.1c-0.3,0-0.6-0.3-0.7-0.6c0-0.4,0.2-0.7,0.6-0.7l27.1-2.8c0.4,0,0.7,0.2,0.7,0.6
			c0,0.4-0.2,0.7-0.6,0.7L416,378.1C416,378.1,416,378.1,416,378.1z"/>
	</g>
	<g id="XMLID_303_">
		<path id="XMLID_304_" class="st5" d="M450.3,374.5c-0.3,0-0.6-0.3-0.7-0.6c0-0.4,0.2-0.7,0.6-0.7l31.3-3.3c0.4,0,0.7,0.2,0.7,0.6
			c0,0.4-0.2,0.7-0.6,0.7L450.3,374.5C450.3,374.5,450.3,374.5,450.3,374.5z"/>
	</g>
	<g id="XMLID_301_">
		<path id="XMLID_302_" class="st6" d="M367.2,139.3c-0.3,0-0.6-0.3-0.7-0.6c0-0.4,0.2-0.7,0.6-0.7l15.8-1.7c0.4,0,0.7,0.2,0.7,0.6
			c0,0.4-0.2,0.7-0.6,0.7L367.2,139.3C367.3,139.3,367.3,139.3,367.2,139.3z"/>
	</g>
	<g id="XMLID_299_">
		<path id="XMLID_300_" class="st6" d="M391.3,136.8c-0.3,0-0.6-0.3-0.7-0.6c0-0.4,0.2-0.7,0.6-0.7l5.8-0.6c0.4,0,0.7,0.2,0.7,0.6
			c0,0.4-0.2,0.7-0.6,0.7L391.3,136.8C391.4,136.8,391.3,136.8,391.3,136.8z"/>
	</g>
</g>
<g id="XMLID_290_">
	<path id="XMLID_297_" class="st4" d="M264.3,414.5l15.2-36.8c0,0-9.4-60.8-6.9-67.4c2.4-6.6,15.3-34.1,15.3-34.1l4.6,43.6
		l12.2,10.3c0,0,11.2-22.8,12.9-27.6c1.7-4.7,7.6-22.6,12.6-26.7c5-4.1,17.1-3.5,13.5,10.9c-3.5,14.4-14.6,35.6-13.8,42
		c0.8,6.4,9.6,32.8-6.7,65.3S302,437,302,437L264.3,414.5z"/>
	<path id="XMLID_296_" class="st7" d="M258.9,415l15.2-36.8c0,0-9.4-60.8-6.9-67.4c2.4-6.6,20.6-34.7,20.6-34.7l5,48l6.4,6.5
		c0,0,11.2-22.8,12.9-27.6c1.7-4.7,7.6-22.6,12.6-26.7c5-4.1,17.1-3.5,13.5,10.9c-3.5,14.4-14.6,35.6-13.8,42
		c0.8,6.4,9.6,32.8-6.7,65.3c-16.3,32.5-21.2,43-21.2,43L258.9,415z"/>
	<g id="XMLID_294_">
		<path id="XMLID_295_" class="st8" d="M331.2,274.2c1.9,2,2.9,5.5,1.5,11c-3.5,14.4-14.6,35.6-13.8,42c0.8,6.4,9.6,32.8-6.7,65.3
			c-13.5,27-19.2,38.8-20.7,42l5.2,3.1c0,0,4.9-10.5,21.2-43c16.3-32.5,7.5-58.9,6.7-65.3c-0.8-6.4,10.3-27.6,13.8-42
			C340.7,277.6,336,274.2,331.2,274.2z"/>
	</g>
	
		<rect id="XMLID_293_" x="240.7" y="414" transform="matrix(-0.8964 -0.4432 0.4432 -0.8964 320.0412 950.7964)" class="st9" width="60.9" height="47.9"/>
	<g id="XMLID_291_">
		<path id="XMLID_292_" class="st6" d="M269.3,313.5c-0.1,0-0.2,0-0.4-0.1c-0.3-0.2-0.5-0.6-0.3-0.9l2.8-5.7
			c0.2-0.3,0.6-0.5,0.9-0.3c0.3,0.2,0.5,0.6,0.3,0.9l-2.8,5.7C269.7,313.3,269.5,313.4,269.3,313.5z"/>
	</g>
</g>
<g id="XMLID_255_">
	<path id="XMLID_287_" class="st4" d="M579.8,295.1c0.1,0,0.2,0,0.4,0c0,0,0.1,0,0.1,0c0.7-0.1,1.2-0.8,1.1-1.6
		c-0.1-0.4-1.7-8.6-15.6-9.5c-5.2-0.3-11.7,1.3-18.5,3c-5,1.2-10.1,2.5-14.7,2.9c-1.4-2.7-2.5-4.4-3.1-4.7l-1.6-0.9
		c-20.8-12.1-32.1-18.3-34.4-19c-1.4-0.4-3-0.6-4.6-0.4c-3.5,0.4-7.1,2.2-10.5,5.2c-1.6,1.4-4.1,3.6-7,6
		c-10.5,8.9-16.2,14-17.8,16.4l-22.6-0.8l0-0.2l-0.7,0.2h0l-12.5,4c-0.6,0.2-1.1,0.6-1.4,1.1l-4.1-0.1c-0.7,0-1.4,0.6-1.4,1.3
		c0,0.7,0.6,1.4,1.3,1.4l4.1,0.1c0.3,0.5,0.7,0.9,1.3,1.2l12.9,5.1l0-0.3l22.6,0.8c0,9.2,0.1,19.8,0.7,20.7c0.4,0.8,1.8,1.5,3.5,1.7
		c0,3.1,0,5.5,0.1,6.2c0.2,1.7,3.1,2.9,6.1,2.6c0,0,0,0,0,0c0.4,0,0.8-0.1,1.2-0.2c0.1,2.3,0.3,4.2,0.7,4.7c0.6,0.7,2.8,0.9,4.5,0.7
		c0,0,0,0,0,0c3.4-0.4,5.5-2.2,5.7-5c0.3-3.9,0.6-8.3,0.7-10.3l2.9,1.7c0.7,0.8,8.3,9.4,10.6,14.4c4.8,10.4,15.3,21.6,23.9,25.5
		c7.4,3.4,10.6,7,10.6,7l1,1.5l-18.1,14.3l33.5,42.4l53.6-42.3l-33.5-42.4l-1.7,1.3c-4.6-11.3-11-26.7-16.7-39.7l19.2,0.6v0l7.4,0.2
		l0,0l7.5,0.3c0.4,0,0.8,0,1.2,0c4.3-0.5,7.7-4.1,7.8-8.4l0-0.2C585.7,299.7,583.3,296.4,579.8,295.1z M547.9,289.7
		c6.6-1.6,12.9-3.2,17.7-2.9c11.6,0.7,13,7,13.1,7.3c0.1,0.5,0.4,0.8,0.8,1c-0.7-0.2-1.5-0.4-2.3-0.4l-7.5-0.3v0l-7.4-0.2l0,0
		l-28-0.9c-0.1-0.2-0.2-0.4-0.3-0.6C538.4,292,543.2,290.8,547.9,289.7z"/>
	<path id="XMLID_286_" class="st7" d="M469,325c0,0-0.1,11.1,0.7,12c0.7,0.8,8.5,1.6,9-3.9c0.4-5.3,0.7-11.4,0.7-11.4l3.9,2.3
		c0.5-0.9,7-11.6,7-11.6c-1.1-7.6-20.5-11.7-20.5-11.7L469,325z"/>
	<path id="XMLID_285_" class="st8" d="M477.8,319.2c0,0-0.3,6.1-0.7,11.4c-0.4,4.4-5.4,4.7-7.8,4.3c0.1,1.1,0.2,1.9,0.4,2.1
		c0.7,0.8,8.5,1.6,9-3.9c0.4-5.3,0.7-11.4,0.7-11.4l3.9,2.3C483.8,323.2,477.8,319.2,477.8,319.2z"/>
	<path id="XMLID_282_" class="st7" d="M461.8,302.8c0,0-0.4,25.2-0.1,27.5c0.3,2.3,9.2,4.2,11.4-3c2.2-7.2,0.9-28.6,0.9-28.6
		L461.8,302.8z"/>
	<path id="XMLID_281_" class="st8" d="M472.5,299.2c0.3,6.2,0.7,20.1-1,25.6c-1.7,5.4-7.1,5.7-9.8,4.5c0,0.5,0,0.8,0.1,1
		c0.3,2.3,9.2,4.2,11.4-3c2.2-7.2,0.9-28.6,0.9-28.6L472.5,299.2z"/>
	<path id="XMLID_278_" class="st7" d="M457.6,290.1c0,0-0.3,30.6,0.5,32.1c0.8,1.5,7.4,3.5,10.1-4.1c1.9-5.4,2.4-17.3,2.4-24.2
		c0-0.9,31.2-3.3,31.2-2.5c0,0.4,2-3.5,2-3.5c-2-0.2-6.4-10.2-11.3-10c-10,0.3-22.2,11-22.2,11C469.8,287.6,457.6,290.1,457.6,290.1
		z"/>
	<path id="XMLID_277_" class="st8" d="M501.7,286.1c-0.6,1.1-1.5,3-1.6,2.7c0-0.7-31.2,1.6-31.2,2.5c0.1,6.9-0.5,18.8-2.4,24.2
		c-2,5.8-6.4,6-8.7,5.1c0.1,0.8,0.1,1.4,0.2,1.6c0.8,1.5,7.4,3.5,10.1-4.1c1.9-5.4,2.4-17.3,2.4-24.2c0-0.9,31.2-3.3,31.2-2.5
		c0,0.4,2-3.5,2-3.5C503.2,287.8,502.5,287.1,501.7,286.1z"/>
	<path id="XMLID_276_" class="st7" d="M532.8,281.4c-4-2.3-32.1-18.7-35.9-19.9c-3.7-1.2-9.1-0.3-14.4,4.6
		c-5.8,5.2-24.7,20.5-25.1,23c-0.4,2.5,5.5,8.7,18.4,1c12.8-7.6,16.6-9.6,16.6-9.6l11.3,7.3l-20.4,36.3c0,0,8.3,9.3,10.8,14.6
		c4.9,10.5,15.3,21.4,23.5,25.1c7.7,3.5,10.9,7.3,10.9,7.3l8.7,12.5l31.1-21.8C568.4,361.8,536.8,283.7,532.8,281.4z"/>
	<path id="XMLID_275_" class="st8" d="M531.1,369.5c0,0-3.2-3.8-10.9-7.3c-8.2-3.7-18.7-14.6-23.5-25.1
		c-2.5-5.4-13.1-13.5-13.1-13.5l-0.3,0.5c0,0,8.3,9.3,10.8,14.6c4.9,10.5,15.3,21.4,23.5,25.1c7.7,3.5,10.9,7.3,10.9,7.3l8.7,12.5
		l2.5-1.7L531.1,369.5z"/>
	
		<rect id="XMLID_274_" x="535.3" y="367.6" transform="matrix(0.7848 -0.6197 0.6197 0.7848 -120.7815 434.9154)" class="st9" width="61.4" height="47.5"/>
	<g id="XMLID_258_">
		<g id="XMLID_272_">
			<path id="XMLID_273_" class="st5" d="M423.7,295.2C423.7,295.2,423.7,295.2,423.7,295.2l-7.8-0.3c-0.7,0-1.3-0.7-1.3-1.4
				c0-0.7,0.7-1.3,1.4-1.3l7.8,0.3c0.7,0,1.3,0.7,1.3,1.4C425.1,294.6,424.5,295.2,423.7,295.2z"/>
		</g>
		<g id="XMLID_270_">
			<path id="XMLID_271_" class="st10" d="M537.8,303.8l-104.1-3.5l-12.1-4.8c-1.7-0.7-1.6-3.1,0.1-3.6l12.4-4l104.1,3.5L537.8,303.8
				z"/>
		</g>
		<g id="XMLID_268_">
			<path id="XMLID_269_" class="st10" d="M580.2,307.1l-61.4-2l0.5-16.2l61.4,2c4.4,0.1,7.9,3.9,7.8,8.3l0,0.2
				C588.4,303.7,584.7,307.2,580.2,307.1z"/>
		</g>
		<g id="XMLID_266_">
			
				<rect id="XMLID_267_" x="566.2" y="290.4" transform="matrix(0.9994 3.324454e-02 -3.324454e-02 0.9994 10.2402 -18.7596)" class="st11" width="6.1" height="16.3"/>
		</g>
		<g id="XMLID_264_">
			<path id="XMLID_265_" class="st10" d="M434,288l-12.3,3.9c-1.7,0.6-1.8,3-0.1,3.6l12,4.7L434,288z"/>
		</g>
		<g id="XMLID_262_">
			
				<rect id="XMLID_263_" x="511.3" y="290.6" transform="matrix(0.9994 3.323492e-02 -3.323492e-02 0.9994 10.1506 -16.9575)" class="st9" width="7.8" height="12.4"/>
		</g>
		<g id="XMLID_260_">
			<path id="XMLID_261_" class="st5" d="M583.7,290.7c-0.6,0-1.2-0.5-1.3-1.1c-0.1-0.3-1.5-6.6-13.1-7.3c-4.8-0.3-11.1,1.3-17.7,2.9
				c-8,2-16.3,4-22.5,2.7c-1.8-0.4-3-1.1-3.5-2.3c-0.7-1.5-0.1-3,0-3.1c0.3-0.7,1.1-0.9,1.8-0.6c0.7,0.3,0.9,1.1,0.6,1.8l0,0
				c0,0-0.2,0.4,0,0.7c0.2,0.4,0.8,0.7,1.7,0.8c5.6,1.2,13.6-0.8,21.3-2.7c6.8-1.7,13.3-3.3,18.5-3c13.9,0.9,15.5,9.1,15.6,9.5
				c0.1,0.7-0.4,1.4-1.1,1.6C583.8,290.7,583.8,290.7,583.7,290.7z"/>
		</g>
	</g>
	<path id="XMLID_257_" class="st7" d="M535.9,309.2c0,0-11.6-0.7-14.6-2.3c-3-1.6-21.2-12.6-25.2-13.9c-1.9-0.6-19.4-3.8-23-4
		c-3.3-0.2-10.7,9.7-2.5,15.4c8.2,5.7,29.9,14.3,32.7,16.6c2.8,2.3,8.1,6.2,8.6,9.5c0.5,3.3,2.5,17.7,9.6,25
		c3,3.1,10.5,7.4,16.7,8.1C546.7,364.6,535.9,309.2,535.9,309.2z"/>
	<path id="XMLID_256_" class="st8" d="M523.3,354.2c-7.1-7.2-8.7-23.4-9.1-26.7c-0.5-3.3-5.8-7.2-8.6-9.5
		c-2.8-2.3-24.6-10.9-32.7-16.6c-4.7-3.3-4.3-8-2.4-11.3c-3.3,2.7-6.5,9.8,0,14.3c8.2,5.7,29.9,14.3,32.7,16.6
		c2.8,2.3,8.1,6.2,8.6,9.5c0.5,3.3,2.5,17.7,9.6,25c3,3.1,10.5,7.4,16.7,8.1C538.1,363.5,527.4,358.3,523.3,354.2z"/>
</g>
<g id="XMLID_251_">
	<path id="XMLID_252_" class="st8" d="M485.9,295.3l-0.4,0.6c-0.1,0-6.3-3.6-9.6-2.2c-0.8,0.4-1.4,1-1.7,1.9
		c-0.2,0.6-0.1,1.3,0.2,1.9c1.7,3,9.5,4.5,9.5,4.5l-0.2,0.7c-0.3-0.1-7.8-1.5-9.9-4.6c0-0.1-0.1-0.1-0.1-0.2
		c-0.4-0.8-0.5-1.6-0.3-2.4c0.4-1.2,1.1-2,2.1-2.4C479.3,291.6,485.7,295.2,485.9,295.3z"/>
</g>
<g id="XMLID_245_">
	<path id="XMLID_246_" class="st8" d="M304.7,381.8l-0.2-0.7c0.1,0,9.7-2.6,14.8-9.8l0.6,0.4C314.6,379.1,304.8,381.7,304.7,381.8z"
		/>
</g>
<g id="XMLID_241_">
	<path id="XMLID_242_" class="st8" d="M507,304.4c-1,4.9-5.7,6.9-5.7,6.9l-0.3-0.6c0.1,0,5.2-2.2,5.5-7.7l0.7,0
		C507.2,303.5,507.1,304,507,304.4z"/>
</g>
<g id="XMLID_47_">
	<defs>
		<rect id="XMLID_57_" x="457.8" y="303" width="9.3" height="15.6"/>
	</defs>
	<clipPath id="XMLID_2_">
		<use xlink:href="#XMLID_57_"  style="overflow:visible;"/>
	</clipPath>
	<g id="XMLID_71_" class="st12">
		<path id="XMLID_102_" class="st8" d="M463.7,312.4c-0.4,1.4-0.9,2.6-1.6,3.3c-0.5,0.5-1.1,0.8-1.7,0.7c-4.6-0.7-4.4-5.6-4.4-5.7
			l0.5,0.1c0,0.2-0.1,4.3,3.9,5c0.5,0.1,0.9-0.1,1.3-0.5c2.1-2.3,2.7-10.7,2.7-10.8l0.5,0.1C465,304.7,464.7,309,463.7,312.4z"/>
	</g>
</g>
<g id="XMLID_37_">
	<defs>
		
			<rect id="XMLID_39_" x="319.6" y="279.8" transform="matrix(0.9371 0.349 -0.349 0.9371 120.7572 -95.0842)" width="9.3" height="15.6"/>
	</defs>
	<clipPath id="XMLID_3_">
		<use xlink:href="#XMLID_39_"  style="overflow:visible;"/>
	</clipPath>
	<g id="XMLID_40_" class="st13">
		<path id="XMLID_41_" class="st8" d="M324.9,289.5c-0.9,1.1-1.8,2.1-2.7,2.5c-0.7,0.3-1.3,0.3-1.8,0c-4-2.3-2.2-6.8-2.2-6.9
			l0.5,0.2c-0.1,0.2-1.6,4,2,6c0.4,0.2,0.8,0.2,1.4,0c2.8-1.4,6.3-9.1,6.3-9.2l0.5,0.3C328.7,282.7,327,286.7,324.9,289.5z"/>
	</g>
</g>
</svg>
