<?xml version="1.0" encoding="utf-8"?>
<!-- Generator: Adobe Illustrator 19.0.0, SVG Export Plug-In . SVG Version: 6.00 Build 0)  -->
<svg version="1.1" id="Capa_1" xmlns="http://www.w3.org/2000/svg" xmlns:xlink="http://www.w3.org/1999/xlink" x="0px" y="0px"
	 viewBox="0 0 570 290" style="enable-background:new 0 0 570 290;" xml:space="preserve">
<style type="text/css">
	.st0{fill:#FFFFFF;}
	.st1{fill:#2E3F7A;}
	.st2{fill:#2C3560;}
	.st3{fill:#3C57A0;}
	.st4{fill:#F0D1BA;}
	.st5{fill:#806EAC;}
	.st6{fill:#E6B38B;}
	.st7{fill:#8E79B2;}
	.st8{fill:#FCFCF8;}
	.st9{opacity:0.18;fill:#FFFFFF;}
</style>
<path id="XMLID_2885_" class="st0" d="M318.2,102.1H317c-0.8,0-1.4-0.6-1.4-1.4v-1.3c0-0.8-0.6-1.4-1.4-1.4l0,0
	c-0.8,0-1.4,0.6-1.4,1.4v1.3c0,0.8-0.6,1.4-1.4,1.4H310c-0.8,0-1.4,0.6-1.4,1.4l0,0c0,0.8,0.6,1.4,1.4,1.4h1.3
	c0.8,0,1.4,0.6,1.4,1.4v1.3c0,0.8,0.6,1.4,1.4,1.4l0,0c0.8,0,1.4-0.6,1.4-1.4v-1.3c0-0.8,0.6-1.4,1.4-1.4h1.3c0.8,0,1.4-0.6,1.4-1.4
	l0,0C319.7,102.8,319,102.1,318.2,102.1z"/>
<path id="XMLID_2882_" class="st0" d="M530,168.4h-1.3c-0.8,0-1.4-0.6-1.4-1.4v-1.3c0-0.8-0.6-1.4-1.4-1.4l0,0
	c-0.8,0-1.4,0.6-1.4,1.4v1.3c0,0.8-0.6,1.4-1.4,1.4h-1.3c-0.8,0-1.4,0.6-1.4,1.4l0,0c0,0.8,0.6,1.4,1.4,1.4h1.3
	c0.8,0,1.4,0.6,1.4,1.4v1.3c0,0.8,0.6,1.4,1.4,1.4l0,0c0.8,0,1.4-0.6,1.4-1.4v-1.3c0-0.8,0.6-1.4,1.4-1.4h1.3c0.8,0,1.4-0.6,1.4-1.4
	l0,0C531.5,169,530.8,168.4,530,168.4z"/>
<g id="XMLID_2876_">
	<rect id="XMLID_2881_" x="341.8" y="158.8" class="st1" width="39.3" height="73.3"/>
	<rect id="XMLID_2880_" x="391" y="204.8" class="st1" width="39.3" height="27.4"/>
	<rect id="XMLID_2879_" x="290.9" y="225.1" class="st1" width="39.3" height="7.1"/>
	<rect id="XMLID_2878_" x="440.2" y="136.4" class="st1" width="39.3" height="95.7"/>
	<rect id="XMLID_2877_" x="489.5" y="197.4" class="st1" width="39.3" height="34.8"/>
</g>
<rect id="XMLID_2875_" x="486.2" y="116.9" class="st2" width="14.3" height="14.3"/>
<g id="XMLID_2871_">
	<path id="XMLID_2872_" class="st3" d="M527.3,95.5c-2.6,0-4.7-2.1-4.7-4.7c0-2.6,2.1-4.7,4.7-4.7s4.7,2.1,4.7,4.7
		C532.1,93.3,529.9,95.5,527.3,95.5z M527.3,87.4c-1.9,0-3.4,1.5-3.4,3.4c0,1.9,1.5,3.4,3.4,3.4c1.9,0,3.4-1.5,3.4-3.4
		C530.7,88.9,529.2,87.4,527.3,87.4z"/>
</g>
<g id="XMLID_2867_">
	<path id="XMLID_2868_" class="st2" d="M447.7,76.8c-4.1,0-7.5-3.4-7.5-7.5c0-4.1,3.4-7.5,7.5-7.5c4.1,0,7.5,3.4,7.5,7.5
		C455.2,73.4,451.8,76.8,447.7,76.8z M447.7,64c-2.9,0-5.3,2.4-5.3,5.3c0,2.9,2.4,5.3,5.3,5.3c2.9,0,5.3-2.4,5.3-5.3
		C453.1,66.4,450.7,64,447.7,64z"/>
</g>
<rect id="XMLID_2866_" x="278.8" y="132" class="st3" width="14.3" height="14.3"/>
<g id="XMLID_2862_">
	<path id="XMLID_2863_" class="st2" d="M343.3,84.6c-2.6,0-4.7-2.1-4.7-4.7c0-2.6,2.1-4.7,4.7-4.7s4.7,2.1,4.7,4.7
		C348.1,82.5,345.9,84.6,343.3,84.6z M343.3,76.5c-1.9,0-3.4,1.5-3.4,3.4c0,1.9,1.5,3.4,3.4,3.4c1.9,0,3.4-1.5,3.4-3.4
		C346.7,78,345.2,76.5,343.3,76.5z"/>
</g>
<g id="XMLID_2858_">
	<path id="XMLID_2859_" class="st2" d="M295.4,94.8c-4.1,0-7.5-3.4-7.5-7.5c0-4.1,3.4-7.5,7.5-7.5c4.1,0,7.5,3.4,7.5,7.5
		C302.9,91.5,299.5,94.8,295.4,94.8z M295.4,82c-2.9,0-5.3,2.4-5.3,5.3c0,2.9,2.4,5.3,5.3,5.3c2.9,0,5.3-2.4,5.3-5.3
		C300.7,84.4,298.3,82,295.4,82z"/>
</g>
<g id="XMLID_2747_">
	<path id="XMLID_2857_" class="st4" d="M153.1,130.7c0,0,22.2,18.4,26.9,21.2c4.7,2.8,24.5,4.7,38.3,0.5c13.8-4.2,23.6-1.8,38.8,1.8
		c15.2,3.6,25.9,10.5,35.7,15c9.8,4.5,21.1,15.7,21.1,15.7L257.6,207l-35.8,25.2c0,0-23.5-0.8-43.6-10.3c-20.1-9.5-29-19.5-29-19.5
		l-48.3-33.1L153.1,130.7z"/>
	<g id="XMLID_2853_">
		<path id="XMLID_2854_" class="st5" d="M196.3,212.7c0.3,0,0.6,0,0.8-0.1l128-18.3c3.2-0.5,5.4-3.4,4.9-6.6
			c-0.5-3.2-3.4-5.4-6.6-4.9l-128,18.3c-3.2,0.5-5.4,3.4-4.9,6.6C191,210.6,193.5,212.7,196.3,212.7z"/>
	</g>
	<g id="XMLID_2847_">
		<path id="XMLID_2852_" class="st4" d="M233.9,151.5c0,0,20.5,10.4,32.1,14.6c11.6,4.2,27.9,8.4,32.9,7.9c5-0.4,8.2-2.8,11.5-1.7
			c3.3,1.1,6.6,10.4-4.7,16.2c-11.2,5.9-30.1,1.7-32.9,0.6s-22.2-1.6-27.8-2.4c0,0-18.1,7.9-23.6,6.8
			C215.9,192.7,233.9,151.5,233.9,151.5z"/>
		<g id="XMLID_2848_">
			<path id="XMLID_2849_" class="st6" d="M222.7,194.3c6.4,0,20.9-6.2,22.5-6.9c2.3,0.3,6.7,0.6,11.4,0.8c6.8,0.4,14.5,0.9,16.1,1.5
				c2.2,0.8,21.6,5.5,33.3-0.6c7.7-4,8.2-9.4,8-11.5c-0.2-2.7-1.7-5-3.4-5.7c-2.1-0.7-4.1-0.1-6.4,0.5c-1.5,0.4-3.3,0.9-5.3,1.1
				c-5,0.4-21.4-3.8-32.7-7.9c-11.5-4.1-31.9-14.5-32.1-14.6l-0.4,0.9c0.2,0.1,20.7,10.5,32.2,14.6c11.5,4.1,27.9,8.4,33.2,8
				c2.1-0.2,3.9-0.7,5.5-1.1c2.2-0.6,4-1.1,5.8-0.5c1.2,0.4,2.6,2.2,2.8,4.8c0.1,1.9-0.3,6.8-7.5,10.5c-10.8,5.6-29.4,1.8-32.5,0.6
				c-1.8-0.7-9.2-1.1-16.4-1.6c-4.7-0.3-9.2-0.5-11.4-0.8l-0.1,0l-0.1,0.1c-0.2,0.1-18,7.8-23.4,6.8l-0.2,0.9
				C221.8,194.3,222.2,194.3,222.7,194.3z"/>
		</g>
	</g>
	<g id="XMLID_2836_">
		<path id="XMLID_2846_" class="st4" d="M276.5,221.3c0,0-1.5,7.1-4.8,9.6c-3.3,2.6-15.9,1.5-20.7,0.3c-4.8-1.3-10.2-4.9-13.2-7.7
			c-3.1-2.9-11.5-12.2-13.4-16.2c-1.8-4,1.9-13.8,9.8-9.1c7.9,4.7,13,8.8,13,8.8l16.3,2.3L276.5,221.3z"/>
		<g id="XMLID_2837_">
			<path id="XMLID_2838_" class="st6" d="M250.8,231.6c-4.9-1.3-10.3-4.9-13.4-7.8c-3.2-3-11.6-12.3-13.5-16.3
				c-1-2.1-0.5-5.5,1.1-7.9c2.1-3.3,5.7-4,9.5-1.8c7.2,4.3,12.2,8.2,13,8.8l16.3,2.3l13.3,12.3l-0.1,0.3c-0.1,0.3-1.6,7.3-5,9.9
				c-1.8,1.4-5.8,1.7-8.9,1.7C258.3,233,253.3,232.3,250.8,231.6z M263.3,209.7l-16.3-2.3l-0.1-0.1c-0.1,0-5.2-4.1-13-8.8
				c-1.3-0.8-2.6-1.2-3.7-1.2c-2.2,0-3.6,1.4-4.4,2.7c-1.4,2.1-1.8,5.2-1,7c1.8,3.9,10.2,13.1,13.3,16c3,2.8,8.3,6.4,13,7.6
				c2.4,0.7,7.3,1.3,12,1.3c4.1,0,7.1-0.5,8.3-1.5c2.8-2.2,4.3-7.8,4.6-9.1L263.3,209.7z"/>
		</g>
	</g>
	<g id="XMLID_2825_">
		<path id="XMLID_2835_" class="st4" d="M299.5,208.5c0,0-2.4,6.9-4.3,8.3c-2,1.4-15.3,5-19.2,4.3c-3.9-0.7-8.6-1.6-13.4-5.6
			c-4.8-4.1-10.3-11.5-12.7-14c-3.8-4,4.2-14.7,11.3-10.9c7.1,3.8,11.9,8,11.9,8s3.6-1.5,7.9-0.2c4.3,1.2,6.7,0.6,6.7,0.6l15.6-2.3
			L299.5,208.5z"/>
		<g id="XMLID_2826_">
			<path id="XMLID_2827_" class="st6" d="M275.8,221.7c-3.4-0.6-8.6-1.4-13.6-5.7c-3.3-2.8-7-7.2-9.7-10.4c-1.3-1.5-2.4-2.8-3.1-3.6
				c-1.3-1.4-1.5-3.5-0.5-5.9c1.4-3.3,4.9-6.6,9-6.6c1.2,0,2.3,0.3,3.4,0.9c6.3,3.3,10.8,7,11.8,7.9c0.6-0.2,2.2-0.7,4.2-0.7
				c1.3,0,2.5,0.2,3.7,0.5c2.2,0.6,3.8,0.8,4.8,0.8c1.1,0,1.6-0.1,1.7-0.2l16.3-2.4l-4,12.5c-0.1,0.3-2.4,7.1-4.5,8.6
				c-1.9,1.4-13.3,4.5-18.4,4.5l0,0C276.6,221.8,276.2,221.7,275.8,221.7z M287.8,199.6c0,0-0.7,0.2-1.9,0.2c-1.5,0-3.2-0.3-5.1-0.8
				c-1.1-0.3-2.3-0.5-3.4-0.5c-2.4,0-4.1,0.7-4.2,0.7l-0.3,0.1l-0.2-0.2c0,0-4.8-4.2-11.8-7.9c-0.9-0.5-1.9-0.8-2.9-0.8
				c-3.6,0-6.8,3.1-8.1,6c-0.9,2-0.8,3.8,0.3,4.9c0.8,0.8,1.9,2.1,3.2,3.7c2.7,3.2,6.3,7.5,9.5,10.3c4.5,3.8,8.8,4.8,13.1,5.5
				c0.3,0,0.7,0.1,1.1,0.1l0,0c4.7,0,16.1-3.1,17.8-4.3c1.5-1.1,3.5-6.2,4.2-8.1l3.5-11L287.8,199.6z"/>
		</g>
	</g>
	<g id="XMLID_2814_">
		<path id="XMLID_2824_" class="st4" d="M254.1,231.8c0,0,2.3,4.1-0.3,8c-2.6,3.8-11.2,5.1-13.4,4.3c-2.2-0.8-15.3-8.2-17.3-11.2
			c-2-3-7.6-13.4-7.4-15.9c0.2-2.5,4.2-8,8.6-5.8c4.3,2.2,14.1,12.6,18,15.8C246.1,230.1,254.1,231.8,254.1,231.8z"/>
		<g id="XMLID_2815_">
			<path id="XMLID_2816_" class="st6" d="M240.2,244.5c-2.2-0.8-15.4-8.2-17.6-11.4c-1.9-2.8-7.6-13.4-7.5-16.2
				c0.1-2.3,3.2-6.8,7-6.8c0.8,0,1.5,0.2,2.3,0.6c2.9,1.5,7.9,6.3,12.4,10.6c2.3,2.2,4.3,4.2,5.7,5.2c3.8,3.1,11.6,4.7,11.6,4.7
				l0.2,0l0.1,0.2c0.1,0.2,2.4,4.4-0.3,8.5c-2.2,3.3-8.4,4.8-11.9,4.8l0,0C241.4,244.8,240.7,244.7,240.2,244.5z M241.9,227.3
				c-1.4-1.1-3.4-3.1-5.7-5.3c-4.2-4-9.4-9-12.2-10.4c-0.6-0.3-1.2-0.5-1.8-0.5c-3.1,0-5.9,3.9-6,5.9c-0.1,2.3,5.2,12.4,7.3,15.6
				c1.9,2.8,14.8,10.2,17.1,11c0.4,0.1,1,0.2,1.7,0.2l0,0c3.3,0,9.1-1.4,11.1-4.3c2.1-3.1,0.8-6.5,0.4-7.3
				C252.4,231.9,245.5,230.3,241.9,227.3z"/>
		</g>
	</g>
	<g id="XMLID_2810_">
		<path id="XMLID_2811_" class="st6" d="M275.4,202.6c0-0.1,0.1-2.5-2.1-4.2l-0.6,0.8c1.8,1.4,1.7,3.4,1.7,3.4L275.4,202.6z"/>
	</g>
	<g id="XMLID_2804_">
		<path id="XMLID_2805_" class="st6" d="M268,219.5c5.5-1.6,6.5-6.8,6.5-7l-1-0.2c0,0.2-0.9,4.9-5.9,6.3L268,219.5z"/>
	</g>
	<g id="XMLID_2797_">
		<path id="XMLID_2798_" class="st6" d="M301.4,182c3.4,0,6.3-2.5,7.3-3.6l-0.7-0.6c-1.1,1.3-5,4.6-8.9,2.8
			c-1.1-0.5-1.8-1.2-2.1-2.1c-0.6-1.7,0.3-3.6,0.3-3.6l-0.9-0.4c0,0.1-1.1,2.3-0.4,4.4c0.4,1.2,1.3,2.1,2.6,2.7
			C299.6,181.9,300.5,182,301.4,182z"/>
	</g>
	<g id="XMLID_2793_">
		<path id="XMLID_2794_" class="st6" d="M237.9,223.9c7.1-1.9,9-9.3,9-9.6L246,214c0,0.1-1.8,7.1-8.4,8.9L237.9,223.9z"/>
	</g>
	<g id="XMLID_2789_">
		<path id="XMLID_2790_" class="st6" d="M230.5,210.9c0.3,0,0.7,0,1-0.1c2.2-0.5,3.6-2.6,3.9-4.3c0.5-3.1-4.5-7-4.7-7.1l-0.6,0.8
			c1.3,1,4.7,4.1,4.3,6.2c-0.2,1.4-1.5,3.1-3.2,3.5c-1.8,0.4-3.7-0.7-5.4-3.2l-0.8,0.6C227.1,210.1,229,210.9,230.5,210.9z"/>
	</g>
	<g id="XMLID_2785_">
		<path id="XMLID_2786_" class="st6" d="M221.4,221.8c0.9,0,1.7-0.4,2.5-1.2c1-1,1.5-2.2,1.5-3.5c-0.1-2.7-2.7-4.8-2.9-4.9l-0.6,0.8
			c0,0,2.4,2,2.5,4.2c0,1-0.4,1.9-1.2,2.8c-0.7,0.7-1.5,1-2.2,0.9c-1.8-0.3-3.3-3.1-3.8-4.1l-0.9,0.4c0.1,0.2,1.9,4.2,4.5,4.7
			C221,221.8,221.2,221.8,221.4,221.8z"/>
	</g>
	<g id="XMLID_2781_">
		<path id="XMLID_2782_" class="st6" d="M223.2,233.3c6.3-2.1,8.2-6.3,8.2-6.5l-0.9-0.4c0,0-1.8,4-7.7,6L223.2,233.3z"/>
	</g>
	<g id="XMLID_2777_">
		<path id="XMLID_2778_" class="st6" d="M205.3,204.9c9.2,0,17.4-2.5,18-2.7l-0.3-0.9c-0.2,0.1-23,6.9-34.9-2.1l-0.6,0.8
			C192.4,203.8,199.1,204.9,205.3,204.9z"/>
	</g>
	<g id="XMLID_2766_">
		<path id="XMLID_2776_" class="st4" d="M318.2,194.9c0,0-3.9-0.2-7.4-0.4c-3.5-0.3-12.7,1.4-14.5,7.5c-1.8,6.1,2.3,9.8,7.8,10.3
			c5.5,0.6,10.5-2.2,12.9-5.7C321.1,200.6,318.2,194.9,318.2,194.9z"/>
		<g id="XMLID_2767_">
			<path id="XMLID_2768_" class="st6" d="M304.1,212.8c-3.3-0.3-6-1.8-7.5-3.9c-1.3-1.9-1.6-4.4-0.8-7c1.7-5.7,9.6-7.9,14.1-7.9
				c0.3,0,0.6,0,0.8,0c3.5,0.3,7.3,0.4,7.4,0.4l0.3,0l0.1,0.3c0.1,0.2,3,6-1.2,12.2c-2.5,3.7-7.1,6-11.9,6
				C305.1,212.9,304.6,212.8,304.1,212.8z M310.7,194.9c-0.2,0-0.5,0-0.8,0c-3.6,0-11.6,1.8-13.2,7.2c-0.7,2.4-0.5,4.5,0.6,6.2
				c1.3,1.9,3.8,3.2,6.8,3.5c5.6,0.6,10.4-2.5,12.5-5.5c3.4-5,1.7-9.8,1.2-10.9C316.9,195.3,313.7,195.2,310.7,194.9z"/>
		</g>
	</g>
	<g id="XMLID_2762_">
		<path id="XMLID_2763_" class="st6" d="M303,212.1c0.2,0,5.9-0.8,7.1-4.4c1.2-3.8-4.7-6.4-4.9-6.5l-0.4,0.9c0.1,0,5.3,2.3,4.4,5.3
			c-1,3.1-6.2,3.8-6.3,3.8L303,212.1z"/>
	</g>
	<g id="XMLID_2753_">
		<path id="XMLID_2754_" class="st7" d="M333.8,222c-12.8-18.9-17.5-41.7-13.1-64.1c4.3-22.4,17.1-41.8,36-54.6
			c14.2-9.6,30.8-14.7,47.8-14.7c28.5,0,55,14.1,70.9,37.6c12.8,18.9,17.5,41.7,13.1,64.1c-4.3,22.4-17.1,41.8-36,54.6
			c-14.2,9.6-30.8,14.7-47.8,14.7C376.3,259.6,349.8,245.5,333.8,222z M363.2,112.8c-16.4,11.1-27.4,27.8-31.2,47.2
			c-3.7,19.4,0.3,39.1,11.4,55.4c13.8,20.3,36.7,32.5,61.3,32.5c14.8,0,29.1-4.4,41.4-12.7c16.4-11.1,27.4-27.8,31.2-47.2
			c3.7-19.4-0.3-39.1-11.4-55.4c-13.8-20.3-36.7-32.5-61.3-32.5C389.8,100.1,375.5,104.5,363.2,112.8z"/>
	</g>
	<g id="XMLID_2751_">
		<path id="XMLID_2752_" class="st8" d="M425.7,114.2l2.6-7.3c-4.5-1.6-9.2-2.7-13.9-3.3l-1.1,7.7
			C417.5,111.8,421.7,112.8,425.7,114.2z"/>
	</g>
	<g id="XMLID_2749_">
		<path id="XMLID_2750_" class="st8" d="M465.1,154.7l7.4-2.4c-2.1-6.4-5-12.5-8.8-18.2c-5.8-8.5-13.1-15.5-21.8-20.8l-4,6.6
			c7.7,4.7,14.3,11,19.4,18.6C460.6,143.5,463.2,149,465.1,154.7z"/>
	</g>
	<path id="XMLID_2748_" class="st3" d="M178.1,148.9c4.1,5.1-37.3,56.9-47.6,55.5c-10.3-1.4-79.2-63.8-79.2-63.8L121.8,98
		C121.8,98,172.4,141.9,178.1,148.9z"/>
</g>
<circle id="XMLID_2744_" class="st9" cx="405" cy="175.3" r="74.8"/>
</svg>
