<?xml version="1.0" encoding="utf-8"?>
<!-- Generator: Adobe Illustrator 19.0.0, SVG Export Plug-In . SVG Version: 6.00 Build 0)  -->
<svg version="1.1" id="Capa_1" xmlns="http://www.w3.org/2000/svg" xmlns:xlink="http://www.w3.org/1999/xlink" x="0px" y="0px"
	 viewBox="0 0 480 377.8" style="enable-background:new 0 0 480 377.8;" xml:space="preserve">
<style type="text/css">
	.st0{fill:#6B5689;}
	.st1{clip-path:url(#XMLID_28_);}
	.st2{fill:#4D5EA4;}
	.st3{fill:#262626;}
	.st4{fill:#E0A19D;}
	.st5{fill:#D4D6E2;}
	.st6{fill:#FAFAFA;}
	.st7{fill:#4D63A8;}
	.st8{fill:#586EB1;}
	.st9{fill:#E4E8F6;}
	.st10{fill:#FBF4F3;}
	.st11{fill:#759BD2;}
	.st12{fill:#C4C7CF;}
	.st13{fill:#D26F8B;}
	.st14{fill:#8D9ACC;}
	.st15{fill:#A4B0DA;}
	.st16{fill:#6A7AB8;}
</style>
<g id="XMLID_122_">
	<rect id="XMLID_130_" x="595.1" y="555.1" class="st0" width="4.9" height="4"/>
</g>
<g id="XMLID_2190_">
	<defs>
		<rect id="XMLID_2191_" x="24.1" y="17.2" width="426.5" height="360.6"/>
	</defs>
	<clipPath id="XMLID_28_">
		<use xlink:href="#XMLID_2191_"  style="overflow:visible;"/>
	</clipPath>
	<g id="XMLID_2223_" class="st1">
		<path id="XMLID_2417_" class="st2" d="M233.2,413.4c29.3-43.1,41.3-66.4,42.7-84.5c1.9-24.2-16.6-44.2-27.5-24.1
			c-17.3,32-44.5,86.1-47.4,94C198,406.7,228.8,419.9,233.2,413.4z"/>
		<path id="XMLID_2414_" class="st2" d="M233.2,413.4c29.3-43.1,41.3-66.4,42.7-84.5c1.9-24.2-16.8-47-27.7-26.9
			c-17.3,32-44.3,88.9-47.2,96.8C198,406.7,228.8,419.9,233.2,413.4z"/>
		<path id="XMLID_2411_" class="st3" d="M233.2,413.4c-0.8,1.7-3.9,2.1-8,1.3c-3.1-0.5-6.7-1.7-10.5-3.4c-6.4-2.9-11.3-6.6-13.2-9.5
			c-0.7-1.2-1-2.2-0.6-3c0.4-0.9,1.4-1.4,2.9-1.6c3.4-0.5,9.4,0.8,15.6,3.7c4.5,2.1,8.4,4.5,10.8,6.8
			C232.7,409.9,233.8,412,233.2,413.4z"/>
		<path id="XMLID_2408_" class="st4" d="M230.3,407.7c-1.7,2.4-3.4,4.7-5.1,7.1c-13.8,18.8-26.6,34.8-27.2,33.8l-15.3-8.7
			c0,0,8.2-16.8,18.8-38.1c0.8-1.5,1.5-3.1,2.3-4.6c3.4-0.5,9.4,0.8,15.6,3.7C224,402.9,227.8,405.4,230.3,407.7z"/>
		<path id="XMLID_2405_" class="st3" d="M182.7,439.9c-9.9,9.6-19.1,14.6-34.9,20.7c-3.7,1.4-2.2,3.7,1,3.8c4,0.2,20.4-2.3,33.3-3.5
			c7.9-0.7,13.8,0.1,17.1-1.9c2.5-1.5,1.7-9.2,1.3-12.6C200.4,446.5,183.9,438.7,182.7,439.9z"/>
		<path id="XMLID_2402_" class="st4" d="M183,439.3c0,0-13.4,10.6-18.4,13.6c-5,3,1.9,4,11.6,1.8c11.2-2.6,24.2-8.1,24.2-8.1
			S191.6,438.1,183,439.3z"/>
		<path id="XMLID_2399_" class="st3" d="M248.2,302c-1.2,2.2-2.5,4.6-3.8,7.1c-1.3,5.2-2,10.7-2,16.3c0,17.5,6.8,33.3,18,45.1
			c10-17.9,14.7-30.7,15.6-41.6C277.8,304.7,259.1,281.9,248.2,302z"/>
		<g id="XMLID_2389_">
			<path id="XMLID_2396_" class="st4" d="M231.5,218.9l-8.4-5c0,0-3.8,1.4-6.1,1.2c-2.2-0.2-5.6-1.4-6.3-1.2c-0.7,0.2-6.9,2-8.3,0.6
				c-1.3-1.4,0.7-1,2.2-2c1.5-1,4.4-2.5,5.4-2.6c0,0-2.3-1.9-4.8-2.6c-2.3-0.6-5.2-1-7.2-0.6c-1.9,0.4-4.8,0.7-6.4,0.4
				c0,0-3,0.9-3.9,0.9c-0.9-0.1-1.2-1.2,1-2.3c2.1-1.1,5.9-3,5.9-3s-3.8-0.1-5.4,0c-1.6,0.1-2.1-1.6,0.5-2.2
				c2.6-0.7,9.2-1.4,12.7-1.6c3.5-0.2,5.1,0.4,7.1,1.2c1.9,0.8,7.9,3.5,9.3,3.6c1.4,0.1,3.3,0.6,4.5,1.4c1.2,0.8,10.7,6.1,10.7,6.1
				L231.5,218.9z"/>
			<g id="XMLID_2394_">
				<path id="XMLID_2395_" class="st3" d="M210.1,210.2l0-0.5c2.7-0.1,6.7-2.5,6.7-2.5l0.3,0.4C216.9,207.7,212.9,210.1,210.1,210.2
					z"/>
			</g>
			<g id="XMLID_2392_">
				<path id="XMLID_2393_" class="st3" d="M214.1,207.5c-0.5,0-2-0.1-3.5-1.2c-0.4-0.3-0.7-0.5-1.1-0.8c-1.3-1-2.6-1.9-4.2-2.5
					c-5.5-1.8-10.7,0-10.8,0l-0.2-0.5c0.1,0,5.4-1.8,11.1,0c1.7,0.6,3.1,1.6,4.4,2.6c0.3,0.3,0.7,0.5,1,0.8c1.6,1.2,3.3,1.1,3.3,1.1
					l0,0.5C214.2,207.5,214.2,207.5,214.1,207.5z"/>
			</g>
			<g id="XMLID_2390_">
				<path id="XMLID_2391_" class="st3" d="M191.4,207.5l-0.2-0.5c0.2-0.1,5.8-2.6,9-2.7c2.7-0.1,5.9,1.1,6.1,1.1l-0.2,0.5
					c0,0-3.4-1.2-5.9-1.1C197.1,205,191.5,207.5,191.4,207.5z"/>
			</g>
		</g>
		<path id="XMLID_2388_" class="st5" d="M308.2,263.4c6.7-11.7-12.5-24.7-38.5-37.2c-21-10.2-39.4-17.6-41.1-18.3
			c-1.7-0.8-9.3,15.9-7.4,17.7c3,2.7,19.6,19.2,32.5,27C266.8,260.4,296.8,283.4,308.2,263.4z"/>
		<path id="XMLID_2387_" class="st5" d="M304.8,176.1c-3,8.8-35.8,86.7-16.3,96.3c19.5,9.6,43.2-63.5,44-96.7
			C332.9,162.4,312.2,154.6,304.8,176.1z"/>
		<g id="XMLID_2376_">
			<path id="XMLID_2386_" class="st6" d="M308.5,203.2l-9.2-9.2l-1.9,1.9c-0.3,0.7-0.5,1.5-0.8,2.2l2.7-2.7l7.8,7.8l-7.8,7.8
				l-5.3-5.3c-0.1,0.4-0.2,0.7-0.4,1.1l5.7,5.7L308.5,203.2z"/>
			<path id="XMLID_2383_" class="st6" d="M330.4,186.4l-9.2-9.2l-9.2,9.2l9.2,9.2L330.4,186.4z M321.1,178.7l7.8,7.8l-7.8,7.8
				l-7.8-7.8L321.1,178.7z"/>
			<path id="XMLID_2382_" class="st6" d="M287.1,269.2l4,4c0.5,0.1,1,0.1,1.5,0l-4.1-4.1l7.8-7.8l6,6c0.2-0.2,0.4-0.5,0.7-0.8
				l-6.7-6.7L287.1,269.2z"/>
			<path id="XMLID_2381_" class="st6" d="M319.1,236.2c0.3-0.7,0.5-1.4,0.8-2.1c-1.9,1.3-3.1,3.4-3.1,5.9c0,0.6,0.1,1.1,0.2,1.7
				c0.3-0.7,0.6-1.4,0.8-2.1C317.9,238.3,318.3,237.1,319.1,236.2z"/>
			<path id="XMLID_2378_" class="st6" d="M305.9,240.5l14.1-8.1l-14.1-8.1V240.5z M306.9,226l11,6.4l-11,6.4V226z"/>
			<path id="XMLID_2377_" class="st6" d="M326.1,214.1c0.3-1.3,0.7-2.6,1-3.9v-4.7l1,0.6c0.1-0.3,0.2-0.7,0.2-1l-2.3-1.3V214.1z"/>
		</g>
		<path id="XMLID_2373_" class="st7" d="M330.4,90.1c0,0-5.2-2.1-9,0.3c-3.8,2.4-2.1,6.7-3.1,7.8c-1.1,1.1-4.5,3.5-4.5,7.2
			c0,5.9,14.4,27.2,24.7,25.6C341,130.6,330.4,90.1,330.4,90.1z"/>
		<path id="XMLID_2370_" class="st4" d="M346.2,119.6c0,0,2.9,31.2,12.3,39.8l-27.7,6.9c0,0,3.6-18.2-1.4-37.2L346.2,119.6z"/>
		<path id="XMLID_2367_" class="st3" d="M351.2,145.5c-3.7-11.8-5-25.9-5-25.9l-16.7,9.4c1.5,5.7,2.2,11.3,2.5,16.4
			c3,1.3,6.2,2,9.7,2C345,147.5,348.3,146.8,351.2,145.5z"/>
		<path id="XMLID_2364_" class="st4" d="M344.1,89.8c28.3,7.2,1.7,58.7-18.1,52C306.1,135.2,315.8,82.7,344.1,89.8z"/>
		<path id="XMLID_2361_" class="st8" d="M421.6,171.2c-1.3-11.2-13.4-11.7-19.6-14.7c-6.1-2.9,0.3-15.6-7.2-23.7
			c-6.7-7.3-20-2.3-24.2-6.9c-4.3-4.5,3.1-11,1.7-17.3c-1.3-5.8-6.8-5.5-9-9.7c-1.9-3.6,0-11.7-5.1-14.6c-6.1-3.4-11.4-1-16.1-1.5
			c-4.8-0.6-18.4-6.5-23.2,0.1c-1.9,2.6-2.8,6.6-0.1,10.9c5.6,9.2,25.1,4.4,25.9,6.5c0.9,0.9-5.1,11.4,0.4,14.5
			c1.9,1.1,5.3-3.7,8.3-5.2c-0.1,7.5-2.2,15.4-5.6,21.6c0,0,0,0,0,0l0,0h0c-1.5,5.3-0.9,47.3,22,61
			C392.7,205.8,423.9,190.6,421.6,171.2z"/>
		<path id="XMLID_2358_" class="st2" d="M376.6,157c-2-4.3,3.5-13-1-18.4c-4.9-5.9-12.3,0.2-20.2-7.5c-4.9-4.9-0.7-19.3-0.7-19.3
			s-0.7,1.4-1.9,3.6c-0.8,5.5-2.6,11-5.1,15.6c0,0,0,0,0,0l0,0h0c-1.1,4-1.1,28.8,8.8,46.7c9.1,11.4,25.5,6.6,28.1-2.7
			C387.1,166.3,377.3,158.5,376.6,157z"/>
		<path id="XMLID_2355_" class="st4" d="M354.5,105.8c6.5,3.1-1.1,16.2-6.4,13.6C342.7,116.8,348,102.7,354.5,105.8z"/>
		<path id="XMLID_2354_" class="st9" d="M418.9,305.1c1.2,15-97.1,15.2-98.9,3.4c-3.5-22.9-16.4-135.3-8.1-143.2
			c5.7-5.3,52.8-11.3,63.5-5.4C390.7,168.3,418.5,300.1,418.9,305.1z"/>
		<path id="XMLID_2351_" class="st4" d="M319.1,162.3c2.3-2.8,42.9-7.2,42.9-4.3c0,3.8-9.9,10.6-25.8,11.5
			C325.2,170,316.8,165.1,319.1,162.3z"/>
		<path id="XMLID_2348_" class="st8" d="M343.3,284.3c41.3-0.5,69,3.7,75,19c3.4,8.8,1.9,34-26.2,34c-53,0-146.5-3.2-146.6-30.2
			C245.6,286,304.5,284.7,343.3,284.3z"/>
		<path id="XMLID_2345_" class="st4" d="M269.6,343.2c10,23.1,54.4,84.6,62.7,99.8l10.2-10.7c-4.1-13-12.8-46.8-26.9-71.4
			C304.6,342.1,259.2,319.1,269.6,343.2z"/>
		<path id="XMLID_2342_" class="st8" d="M330.1,391.9c-4-9.5-11.8-31.5-20.4-45.8c-13.9-23.1-28.9-45.8-39-50.4
			c-10.1-4.6-31.2,0.2-24.7,22.1c7.9,26.7,53,93.3,56.7,94.1C306.5,412.9,332.1,396.8,330.1,391.9z"/>
		<path id="XMLID_2339_" class="st3" d="M339.4,422.5l-13.7,10.1c0,0,0.7,1.1-1.9,8.8c-1.5,4.6-1.9,9.5-3.7,13.4
			c-0.9,1.8-8.3,3.8-9.2,5.2c-2,3.3,7.9,4.6,14.2,2.6c4.9-1.5,8.5-11.1,14.4-18.7c5.2-6.8,6.3-9.5,6.4-11
			C346.4,428.8,339.4,422.5,339.4,422.5z"/>
		<circle id="XMLID_2336_" class="st10" cx="352.1" cy="119.7" r="2.1"/>
		<path id="XMLID_2333_" class="st3" d="M330,393.3c-1.4,4.1-12,11.7-19.7,15.9c0.4,0.5,0.7,1.1,1.1,1.6c8.7-0.1,16.6-2.5,22.5-6.4
			C332.7,400.8,331.4,397.1,330,393.3z"/>
		<path id="XMLID_2330_" class="st4" d="M325.8,432.5c0,0,0.7,1.1-1.9,8.8c-1.1,3.4-1.6,6.9-2.6,10.2l0,0c6-1.5,18.1-29,18.1-29
			l-2-6.6L322.2,427L325.8,432.5z"/>
		<g id="XMLID_2328_">
			<path id="XMLID_2329_" class="st11" d="M360.8,105.8c-0.4-2.3-4-2.6-6.8-2.8c-1-0.1-1.9-0.1-2.7-0.3c-1.8-0.4-2.1-1.4-2.4-2.5
				c-0.3-1-0.6-2-2-3.3c-2-1.9-7.1-0.9-11.2-0.2c-1.6,0.3-3.1,0.6-4.2,0.7c-3.3,0.2-9.3-0.1-12.2-4.8c-2.2-3.6-0.2-8.7-0.1-9l1,0.4
				c0,0-1.9,4.9,0,8c2.6,4.2,8.2,4.5,11.2,4.3c1.1-0.1,2.5-0.3,4.1-0.6c4.3-0.8,9.7-1.8,12.1,0.4c1.5,1.5,2,2.8,2.3,3.8
				c0.3,1,0.5,1.5,1.6,1.8c0.7,0.1,1.6,0.2,2.5,0.3c3.2,0.2,7.3,0.6,7.8,3.7L360.8,105.8z"/>
		</g>
		<g id="XMLID_2326_">
			<path id="XMLID_2327_" class="st11" d="M349.3,93.7c-0.9-0.6-1.3-1.5-1.7-2.4c-0.6-1.4-1.2-2.9-4.3-3.6c-2.6-0.6-7,1.3-10.9,3
				c-3.9,1.7-7.3,3.2-9.1,2.4c-0.7-0.3-1.3-0.9-1.5-1.7c-0.9-2.6,1.2-6.7,1.3-6.9l0.9,0.5c0,0-2,3.9-1.2,6.1c0.2,0.5,0.5,0.9,1,1.1
				c1.4,0.6,4.9-0.9,8.2-2.4c4.2-1.9,8.6-3.8,11.5-3.1c3.6,0.8,4.4,2.7,5,4.3c0.3,0.8,0.6,1.5,1.3,2L349.3,93.7z"/>
		</g>
		<g id="XMLID_2324_">
			<path id="XMLID_2325_" class="st3" d="M319.2,123.3c-3.4-2.8-1.7-6.2,0.3-10.1c0.3-0.5,0.5-1.1,0.8-1.6c1.5-3.1,1.9-5.6,1-7.5
				c-0.8-1.8-2.3-2.3-2.4-2.3l0.3-1c0.1,0,2.1,0.6,3.1,2.8c0.9,2.1,0.6,5-1.1,8.4c-0.3,0.6-0.6,1.1-0.8,1.7
				c-2.2,4.3-3.2,6.7-0.6,8.8L319.2,123.3z"/>
		</g>
		<g id="XMLID_2288_">
			<path id="XMLID_2323_" class="st6" d="M310.2,212.2l6,3.5l-5.6,3.2c0,0.4,0.1,0.8,0.1,1.1l7.5-4.3l-8.1-4.7
				C310.1,211.4,310.2,211.8,310.2,212.2z"/>
			<path id="XMLID_2320_" class="st6" d="M368.8,224.6l-9.2-9.2l-9.2,9.2l9.2,9.2L368.8,224.6z M359.6,216.9l7.8,7.8l-7.8,7.8
				l-7.8-7.8L359.6,216.9z"/>
			<path id="XMLID_2317_" class="st6" d="M402.8,246l-9.2-9.2l-9.2,9.2l9.2,9.2L402.8,246z M393.5,238.3l7.8,7.8l-7.8,7.8l-7.8-7.8
				L393.5,238.3z"/>
			<path id="XMLID_2314_" class="st6" d="M379.4,190.6l8.2-8.2c-0.4-1.1-0.8-2.2-1.2-3.2l-7-7l-9.2,9.2L379.4,190.6z M387.1,181.4
				l-7.8,7.8l-7.8-7.8l7.8-7.8L387.1,181.4z"/>
			<path id="XMLID_2311_" class="st6" d="M380.5,212.6v16.2l14.1-8.1L380.5,212.6z M381.5,214.4l11,6.4l-11,6.4V214.4z"/>
			<path id="XMLID_2308_" class="st6" d="M326.3,282.8c3.9,0,7.1-3.2,7.1-7.1c0-3.9-3.2-7.1-7.1-7.1c-3.9,0-7.1,3.2-7.1,7.1
				C319.2,279.6,322.4,282.8,326.3,282.8z M326.3,269.6c3.4,0,6.1,2.7,6.1,6.1s-2.7,6.1-6.1,6.1s-6.1-2.7-6.1-6.1
				S322.9,269.6,326.3,269.6z"/>
			<path id="XMLID_2305_" class="st6" d="M320.8,191.2l9.2-9.2l-9.2-9.2l-9.2,9.2L320.8,191.2z M328.6,182l-7.8,7.8L313,182l7.8-7.8
				L328.6,182z"/>
			<path id="XMLID_2302_" class="st6" d="M372.8,280.4c3.9,0,7.1-3.2,7.1-7.1c0-3.9-3.2-7.1-7.1-7.1c-3.9,0-7.1,3.2-7.1,7.1
				C365.7,277.2,368.8,280.4,372.8,280.4z M372.8,267.2c3.4,0,6.1,2.7,6.1,6.1c0,3.4-2.7,6.1-6.1,6.1c-3.4,0-6.1-2.7-6.1-6.1
				C366.7,269.9,369.4,267.2,372.8,267.2z"/>
			<path id="XMLID_2301_" class="st6" d="M413.5,278.8l-6.6,3.8v-12.7l5.3,3.1c-0.1-0.4-0.2-0.9-0.3-1.3l-6-3.5v16.2l7.9-4.5
				C413.7,279.5,413.6,279.2,413.5,278.8z"/>
			<path id="XMLID_2298_" class="st6" d="M342.8,264.5l14.1-8.1l-14.1-8.1V264.5z M343.9,250l11,6.4l-11,6.4V250z"/>
			<path id="XMLID_2295_" class="st6" d="M316.4,235.5c0,3.9,3.2,7.1,7.1,7.1c3.9,0,7.1-3.2,7.1-7.1c0-3.9-3.2-7.1-7.1-7.1
				C319.6,228.4,316.4,231.6,316.4,235.5z M329.6,235.5c0,3.4-2.7,6.1-6.1,6.1s-6.1-2.7-6.1-6.1s2.7-6.1,6.1-6.1
				S329.6,232.2,329.6,235.5z"/>
			<path id="XMLID_2292_" class="st6" d="M349.1,197.4c0,3.9,3.2,7.1,7.1,7.1c3.9,0,7.1-3.2,7.1-7.1s-3.2-7.1-7.1-7.1
				C352.3,190.3,349.1,193.5,349.1,197.4z M362.3,197.4c0,3.4-2.7,6.1-6.1,6.1s-6.1-2.7-6.1-6.1s2.7-6.1,6.1-6.1
				S362.3,194,362.3,197.4z"/>
			<path id="XMLID_2289_" class="st6" d="M325.8,199.2v16.2l14.1-8.1L325.8,199.2z M326.8,201l11,6.4l-11,6.4V201z"/>
		</g>
		<g id="XMLID_2279_">
			<path id="XMLID_2285_" class="st6" d="M270.3,255.2l9.2-9.2l-9.2-9.2l-9.2,9.2L270.3,255.2z M278.1,246l-7.8,7.8l-7.8-7.8
				l7.8-7.8L278.1,246z"/>
			<path id="XMLID_2284_" class="st6" d="M282.7,268.9c1,0.4,2,0.7,2.9,1l-2.9-1.7V268.9z"/>
			<path id="XMLID_2283_" class="st6" d="M265.4,224.2c-0.4-0.2-0.7-0.4-1.1-0.5l-6,3.5v-6.3c-0.3-0.2-0.7-0.3-1-0.5v8.5
				L265.4,224.2z"/>
			<path id="XMLID_2280_" class="st6" d="M236.4,233.8l9.2-9.2l-9.2-9.2l-9.2,9.2L236.4,233.8z M244.1,224.6l-7.8,7.8l-7.8-7.8
				l7.8-7.8L244.1,224.6z"/>
		</g>
		<g id="XMLID_2275_">
			<path id="XMLID_2276_" class="st6" d="M290.8,247.6c-3.9,0-7.1-3.2-7.1-7.1c0-3.9,3.2-7.1,7.1-7.1c3.9,0,7.1,3.2,7.1,7.1
				C297.9,244.4,294.7,247.6,290.8,247.6z M290.8,234.4c-3.4,0-6.1,2.7-6.1,6.1s2.7,6.1,6.1,6.1c3.4,0,6.1-2.7,6.1-6.1
				S294.1,234.4,290.8,234.4z"/>
		</g>
		<path id="XMLID_2274_" class="st5" d="M381.4,184c-2,11.4-12.1,92.4-34,95.7c-18.2,2.8-15.2-44.6,5.2-102.4
			C362,150.5,386.7,154.2,381.4,184z"/>
		<g id="XMLID_2262_">
			<path id="XMLID_2271_" class="st4" d="M265.1,267.5c0,0-22.3-1.9-22.8-8.8c-0.5-7.2-0.4-13.2-0.5-15.5c-0.1-2.3-2.1-5.8-2.8-6.5
				c-1.2-1.2-6-3-8.4-4c-0.9-0.3-1.1-2,1.2-1.6c3.3,0.6,7.2,1.3,8.3,2c0,0-1.2-2.3-2.2-2.7c-0.9-0.5-5.6-2.9-7.4-4
				c-1-0.6-0.8-2.5,2.3-1.4c1,0.4,2.5,0.9,2.5,0.9s-0.3-1.4,1.9-1c2.5,0.5,6,1.3,6,1.3s1.5-2.9,4.8,0.1c2.1,1.9,6.4,8.7,7.7,11.4
				c0.9,2-0.7,10.8,0.7,15c1.4,4.2,6.5,4.4,10.1,5.2L265.1,267.5z"/>
			<g id="XMLID_2269_">
				<path id="XMLID_2270_" class="st3" d="M243.8,241.3l-0.4-0.3c1.5-1.8,3.3-1.7,4.9-1.4c0.7,0.1,1.5-0.4,2.4-1
					c0.7-0.5,1.4-0.9,2.2-1.1c1.7-0.4,3,1,3.1,1.1l-0.4,0.3c0,0-1.1-1.2-2.6-0.9c-0.6,0.2-1.3,0.6-2,1c-1,0.6-1.9,1.2-2.8,1.1
					C246.7,239.8,245.1,239.7,243.8,241.3z"/>
			</g>
			<g id="XMLID_2267_">
				
					<rect id="XMLID_2268_" x="239" y="235" transform="matrix(0.6687 0.7435 -0.7435 0.6687 255.1378 -102.06)" class="st3" width="6.3" height="0.5"/>
			</g>
			<g id="XMLID_2265_">
				<path id="XMLID_2266_" class="st3" d="M247.1,235.7c0-0.1-3.6-5.1-4.4-5.9c-0.5-0.6-4.8-2.5-7.5-3.7l0.2-0.5
					c0.7,0.3,6.9,2.9,7.7,3.8c0.7,0.9,4.2,5.8,4.4,6L247.1,235.7z"/>
			</g>
			<g id="XMLID_2263_">
				<path id="XMLID_2264_" class="st3" d="M251.5,235.7c-1.7-2.4-6.6-8.8-8.3-9.2l0.1-0.5c2.2,0.5,8.4,9.1,8.6,9.4L251.5,235.7z"/>
			</g>
		</g>
		<path id="XMLID_2261_" class="st12" d="M359.6,264.4c-0.1-13.4-23-13.2-51.7-11c-23.3,1.7-46.9,1.8-49.2,1.9
			c-2.2,0.1-1.4,22.1,3.9,22.8c3.1,0.4,29.3,3.9,44.5,4.2C322.2,282.5,359.7,287.4,359.6,264.4z"/>
		<g id="XMLID_2252_">
			<path id="XMLID_2260_" class="st6" d="M349.3,254v1.3l1.5-0.9C350.3,254.2,349.8,254.1,349.3,254z"/>
			<path id="XMLID_2257_" class="st6" d="M274.7,259.8V276l14.1-8.1L274.7,259.8z M275.7,261.6l11,6.4l-11,6.4V261.6z"/>
			<path id="XMLID_2256_" class="st6" d="M309.2,253.2c-0.4,0-0.9,0.1-1.3,0.1l2.3,2.3l-7.8,7.8l-7.8-7.8l1.5-1.5
				c-0.5,0-1,0.1-1.5,0.1l-1.5,1.5l9.2,9.2l9.2-9.2L309.2,253.2z"/>
			<path id="XMLID_2253_" class="st6" d="M332.7,273.6c3.9,0,7.1-3.2,7.1-7.1c0-3.9-3.2-7.1-7.1-7.1c-3.9,0-7.1,3.2-7.1,7.1
				C325.6,270.4,328.8,273.6,332.7,273.6z M332.7,260.4c3.4,0,6.1,2.7,6.1,6.1s-2.7,6.1-6.1,6.1c-3.4,0-6.1-2.7-6.1-6.1
				S329.3,260.4,332.7,260.4z"/>
		</g>
		<g id="XMLID_2239_">
			<path id="XMLID_2251_" class="st6" d="M335.4,259.9c0,0.4,0,0.8,0,1.1c2,1,3.4,3.1,3.4,5.4c0,1.7-0.7,3.3-1.9,4.4
				c0.1,0.4,0.2,0.7,0.3,1.1c1.6-1.3,2.6-3.3,2.6-5.5C339.8,263.5,337.9,260.9,335.4,259.9z"/>
			<path id="XMLID_2248_" class="st6" d="M356.8,215.4l9.2,9.2l9.2-9.2l-9.2-9.2L356.8,215.4z M366,223.2l-7.8-7.8l7.8-7.8l7.8,7.8
				L366,223.2z"/>
			<path id="XMLID_2247_" class="st6" d="M346.2,198.2l-0.4-0.2c-0.1,0.2-0.1,0.4-0.2,0.5L346.2,198.2z"/>
			<path id="XMLID_2244_" class="st6" d="M349.3,239v16.2l14.1-8.1L349.3,239z M350.3,240.8l11,6.4l-11,6.4V240.8z"/>
			<path id="XMLID_2241_" class="st6" d="M362.6,195.3c3.9,0,7.1-3.2,7.1-7.1s-3.2-7.1-7.1-7.1c-3.9,0-7.1,3.2-7.1,7.1
				S358.7,195.3,362.6,195.3z M362.6,182.1c3.4,0,6.1,2.7,6.1,6.1s-2.7,6.1-6.1,6.1c-3.4,0-6.1-2.7-6.1-6.1S359.3,182.1,362.6,182.1
				z"/>
			<path id="XMLID_2240_" class="st6" d="M382.1,177.7c0-0.5,0-0.9,0.1-1.4l-4.1-4.1l3.2-3.2c-0.1-0.4-0.2-0.8-0.3-1.1l-4.3,4.3
				L382.1,177.7z"/>
		</g>
		<g id="XMLID_2237_">
			<path id="XMLID_2238_" class="st12" d="M335.8,253.3l-1-0.2c1.5-8.5,6.9-41.9,7-42.2l1,0.2C342.7,211.4,337.3,244.8,335.8,253.3z
				"/>
		</g>
		<g id="XMLID_2235_">
			<path id="XMLID_2236_" class="st12" d="M347.1,255.7c-16.1-5.2-50.6-1.2-50.9-1.1l-0.1-1c0.3,0,35.1-4.1,51.4,1.2L347.1,255.7z"
				/>
		</g>
		<g id="XMLID_2233_">
			<path id="XMLID_2234_" class="st3" d="M348,112.6l-0.5-0.2c0.1-0.2,1.8-5.6,5.1-5.8l0,0.5C349.7,107.4,348,112.6,348,112.6z"/>
		</g>
		<path id="XMLID_2232_" class="st13" d="M342,117.7c4.2,3.3-1.8,11.5-6.4,8.4C331.1,123,337.8,114.4,342,117.7z"/>
		<g id="XMLID_2230_">
			<path id="XMLID_2231_" class="st3" d="M329.3,111.1c-3,0-4.2-1.9-4.2-2l0.9-0.5c0.1,0.1,1.5,2.3,5.7,1.1l0.3,1
				C331,111,330.1,111.1,329.3,111.1z"/>
		</g>
		<g id="XMLID_2228_">
			<path id="XMLID_2229_" class="st3" d="M319.9,109.1c-3,0-3.8-1.9-3.8-2l1-0.4c0,0.1,0.7,1.7,3.9,1.2l0.2,1
				C320.7,109.1,320.3,109.1,319.9,109.1z"/>
		</g>
		<g id="XMLID_2226_">
			<path id="XMLID_2227_" class="st12" d="M222,225.4l-2.1-0.4c2.4-14.1,7.9-17.9,8.1-18l1.2,1.7C229.2,208.8,224.3,212.3,222,225.4
				z"/>
		</g>
		<g id="XMLID_2224_">
			<path id="XMLID_2225_" class="st12" d="M261,278.4c-7.3-11.6-3.5-23-3.3-23.5l2,0.7c0,0.1-3.6,10.9,3.1,21.7L261,278.4z"/>
		</g>
	</g>
	<g id="XMLID_2192_" class="st1">
		<g id="XMLID_2201_">
			<path id="XMLID_2220_" class="st14" d="M257.5,283.6H93.4c-3.3,0-5.9-2.7-5.9-5.9v-0.1h175.9v0.1
				C263.4,281,260.7,283.6,257.5,283.6z"/>
			<g id="XMLID_2216_">
				<path id="XMLID_2217_" class="st3" d="M259.5,278.2H89v-0.5c0-2.2,1.8-4,3.9-4h163.2c2.2,0,3.9,1.8,3.9,3.9v0.5L259.5,278.2z
					 M90.1,277.1H259c-0.2-1.4-1.4-2.4-2.8-2.4H92.9C91.5,274.7,90.3,275.8,90.1,277.1z"/>
			</g>
			<g id="XMLID_2212_">
				<path id="XMLID_2213_" class="st3" d="M206.1,278.2H88c-1.3,0-2.5-0.8-2.9-2l-30.7-86.8c-0.3-0.9-0.2-2,0.4-2.8
					c0.6-0.8,1.5-1.3,2.5-1.3h118.1c1.3,0,2.5,0.8,2.9,2l30.7,86.8c0.3,1,0.2,2-0.4,2.8C208,277.7,207.1,278.2,206.1,278.2z
					 M57.3,186.3c-0.7,0-1.3,0.3-1.6,0.9c-0.4,0.5-0.5,1.2-0.3,1.8l30.7,86.8c0.3,0.8,1,1.3,1.9,1.3h118.1c0.7,0,1.3-0.3,1.6-0.9
					c0.4-0.5,0.5-1.2,0.3-1.8l-30.7-86.8c-0.3-0.8-1-1.3-1.9-1.3H57.3z"/>
			</g>
			<path id="XMLID_2209_" class="st14" d="M204.1,278.3H85.9c-1.1,0-2-0.7-2.4-1.7l-30.7-86.8c-0.6-1.7,0.6-3.4,2.4-3.4h118.1
				c1.1,0,2,0.7,2.4,1.7l30.7,86.8C207,276.5,205.8,278.3,204.1,278.3z"/>
			<path id="XMLID_2206_" class="st15" d="M133.3,211.4c1.7,6.5-2.2,11.8-8.6,11.8c-6.4,0-13-5.3-14.7-11.8
				c-1.7-6.5,2.2-11.8,8.6-11.8C125.1,199.5,131.6,204.8,133.3,211.4z"/>
			<g id="XMLID_2202_">
				<path id="XMLID_2203_" class="st16" d="M122.7,223.7c-6.7,0-13.5-5.5-15.2-12.2c-0.9-3.4-0.3-6.6,1.5-9c1.7-2.2,4.4-3.5,7.6-3.5
					c6.7,0,13.5,5.5,15.2,12.2c0.9,3.4,0.3,6.6-1.5,9C128.6,222.5,125.8,223.7,122.7,223.7z M116.6,200c-2.9,0-5.3,1.1-6.8,3.1
					c-1.6,2.1-2.1,5-1.3,8.1c1.6,6.3,8,11.5,14.2,11.5c2.9,0,5.3-1.1,6.8-3.1c1.6-2.1,2.1-5,1.3-8.1
					C129.2,205.2,122.8,200,116.6,200z"/>
			</g>
		</g>
		<g id="XMLID_2197_">
			<path id="XMLID_2198_" class="st3" d="M223.5,282.1h-8.8V279h8.8V282.1z M215.8,281h6.7v-1h-6.7V281z"/>
		</g>
		<g id="XMLID_2193_">
			<path id="XMLID_2194_" class="st3" d="M235.9,282.1h-8.8V279h8.8V282.1z M228.2,281h6.7v-1h-6.7V281z"/>
		</g>
	</g>
</g>
</svg>
