<?xml version="1.0" encoding="utf-8"?>
<!-- Generator: Adobe Illustrator 19.0.0, SVG Export Plug-In . SVG Version: 6.00 Build 0)  -->
<svg version="1.1" id="Capa_1" xmlns="http://www.w3.org/2000/svg" xmlns:xlink="http://www.w3.org/1999/xlink" x="0px" y="0px"
	 viewBox="0 0 841.9 595.3" style="enable-background:new 0 0 841.9 595.3;" xml:space="preserve">
<style type="text/css">
	.st0{fill:#3C57A0;}
	.st1{fill:#8EBBE7;}
	.st2{clip-path:url(#XMLID_2_);}
	.st3{fill:#DD9662;}
	.st4{fill:#6B5689;}
	.st5{fill:#EDCBC9;}
	.st6{fill:#8E79B2;}
	.st7{fill:#EAC0A1;}
	.st8{fill:#7D68A7;}
	.st9{fill:#DB9074;}
	.st10{fill:#FCFCF8;}
	.st11{fill:#AD6063;}
	.st12{fill:#D06468;}
	.st13{fill:#BAC2E3;}
	.st14{fill:#454968;}
	.st15{fill:#8FC9F1;}
	.st16{fill:#75AED4;}
	.st17{fill:#9986BB;}
	.st18{fill:#C6CCE1;}
	.st19{fill:#E4E8F6;}
	.st20{fill:#333D5B;}
	.st21{fill:#FFFFFF;}
	.st22{fill:url(#XMLID_3_);}
	.st23{fill:url(#XMLID_4_);}
	.st24{fill:url(#XMLID_5_);}
</style>
<path id="XMLID_2189_" class="st0" d="M280.8,509.8l380-0.1c33.6,0,50.6-40.8,26.7-64.3c-0.5-0.5-1-1-1.5-1.4
	c-32.8-30.8-43.8-31.5-43.8-95.4s-46.6-76-81.4-65.1c-34.8,10.9-71.2,15.5-102.9-37.7s-132.5-44.9-134.4,51.7
	c-1.6,83.1-71.4,96.4-80.1,170.5C240.7,490.2,258.3,509.8,280.8,509.8z"/>
<path id="XMLID_1965_" class="st1" d="M580,231.4h-1.3c-0.8,0-1.4-0.6-1.4-1.4v-1.3c0-0.8-0.6-1.4-1.4-1.4l0,0
	c-0.8,0-1.4,0.6-1.4,1.4v1.3c0,0.8-0.6,1.4-1.4,1.4h-1.3c-0.8,0-1.4,0.6-1.4,1.4l0,0c0,0.8,0.6,1.4,1.4,1.4h1.3
	c0.8,0,1.4,0.6,1.4,1.4v1.3c0,0.8,0.6,1.4,1.4,1.4l0,0c0.8,0,1.4-0.6,1.4-1.4v-1.3c0-0.8,0.6-1.4,1.4-1.4h1.3c0.8,0,1.4-0.6,1.4-1.4
	l0,0C581.4,232,580.8,231.4,580,231.4z"/>
<path id="XMLID_1961_" class="st1" d="M612.5,248.3h-1.3c-0.8,0-1.4-0.6-1.4-1.4v-1.3c0-0.8-0.6-1.4-1.4-1.4l0,0
	c-0.8,0-1.4,0.6-1.4,1.4v1.3c0,0.8-0.6,1.4-1.4,1.4h-1.3c-0.8,0-1.4,0.6-1.4,1.4l0,0c0,0.8,0.6,1.4,1.4,1.4h1.3
	c0.8,0,1.4,0.6,1.4,1.4v1.3c0,0.8,0.6,1.4,1.4,1.4l0,0c0.8,0,1.4-0.6,1.4-1.4v-1.3c0-0.8,0.6-1.4,1.4-1.4h1.3c0.8,0,1.4-0.6,1.4-1.4
	l0,0C613.9,248.9,613.3,248.3,612.5,248.3z"/>
<g id="XMLID_1568_">
	<defs>
		<rect id="XMLID_1569_" x="253.6" y="79.6" width="381.7" height="399.2"/>
	</defs>
	<clipPath id="XMLID_2_">
		<use xlink:href="#XMLID_1569_"  style="overflow:visible;"/>
	</clipPath>
	<g id="XMLID_1570_" class="st2">
		
			<ellipse id="XMLID_1953_" transform="matrix(-0.1696 0.9855 -0.9855 -0.1696 691.7918 -208.7799)" class="st3" cx="433.9" cy="187.1" rx="14.1" ry="9.7"/>
		<path id="XMLID_1950_" class="st4" d="M440.5,173.9c-0.7,11.8-4.7,25.8-4.7,25.8L410.5,141C410.5,141,441.9,151.3,440.5,173.9z"/>
		<path id="XMLID_1949_" class="st5" d="M433.5,281.4c-8.8,15.8,28.2,64,102.4,94.3c56.4,23.1,55.4-10.8,16.4-47
			C511.1,290.6,449.3,252.9,433.5,281.4z"/>
		<path id="XMLID_1946_" class="st6" d="M491.8,284.2c-13.9-10.3-49.5-18.9-83.2-14.7c-34.7,4.4-68.7,16.6-83.2,38.4
			c-22.2,33.5,14.3,190.9,39.8,216.9c25.5,26,163.1,3,153.2-39.3C488.7,358.3,501.4,291.3,491.8,284.2z"/>
		<polygon id="XMLID_1943_" class="st7" points="431.4,275 424.4,225 381.7,223.3 388.7,275.5 422.2,276.9 		"/>
		<path id="XMLID_1940_" class="st8" d="M323,333.2c0,0-3.6,13.2-0.6,23.6c2.4,8.2,9.5,12.7,11.1,16.7c1.5,4-1.7,12.8,4.6,21.6
			c6.9,9.5,14.4,7.6,21.3,14.3c6.7,6.4,12.1,26.3,45.8,25.6L323,333.2z"/>
		<path id="XMLID_1937_" class="st7" d="M391,136.4c-21.1,4.4-34.1,25.8-28.2,46.6c0,0,6.1,32,14.5,51.2
			c13,29.5,74.8,31.1,64.4-25.9l-5.5-40.6c-2.9-21.4-23.3-35.9-44.5-31.5L391,136.4z"/>
		<path id="XMLID_1934_" class="st9" d="M364.1,169.8c4.7,2.4,34.7,18.5,67.8-4.5c1.2-0.8,2.3-1.7,3.3-2.7
			c-5.2-18.5-24-30.4-43.4-26.4l-0.8,0.2c-2.7,0.6-5.3,1.4-7.7,2.5c-0.9,1.1-2,2-3.3,2.2c-0.4,0.1-0.8,0.2-1.3,0.2
			c-9.4,5.9-15.7,15.9-17,26.9C362.4,168.8,363.2,169.3,364.1,169.8z"/>
		<path id="XMLID_1933_" class="st10" d="M335.3,303.8c17.3-9.5,46.9,28.6,79.6,91.1c27.4,52.4-23.9,50.4-56.2,11.4
			C321.8,361.9,312.6,316.3,335.3,303.8z"/>
		<path id="XMLID_1930_" class="st4" d="M375.9,166.8c4.5,3.4-5.6,7.2-0.2,8.7c8.5,2.4,13,11.2,10.5,19.1
			c-2.5,7.8-14.8,23.2-14.8,23.2s-15.1-31.6-16.3-43.9C353.9,161.6,373,164.6,375.9,166.8z"/>
		<path id="XMLID_1927_" class="st4" d="M364.1,167.1c-5.7-2.9-9.9-9.1-7.9-17.7c2.1-9,17.3-9.6,23.8-10.9c6.5-1.4,7-15.9,15.2-17.6
			c8.2-1.7,9.2,5.8,9.2,5.8s3.1-22.6,19.5-19.1c16.4,3.4,31.2,39,8,55C398.7,185.6,368.7,169.4,364.1,167.1z"/>
		<path id="XMLID_1924_" class="st9" d="M378.1,235.8c0.2,0.5,0.5,0.9,0.8,1.4l0,0c0,0,0,0,0,0c0.4,0.7,0.8,1.3,1.3,1.9
			c0.1,0.1,0.2,0.2,0.2,0.3c0.1,0.1,0.1,0.2,0.2,0.2l0,0c0,0,0,0,0,0c16.1,21.6,61.3,21.8,62.3-18.1c0-0.5,0-0.9,0-1.4
			c0-2.3-0.2-4.6-0.5-7.2c-5.2-2.8-26.6-5.7-42,6.4c-14.2,8.7-19.4-22-19.4-22l-13,8c0,0,0,0,0,0c0.3,1.1,0.6,2.3,0.9,3.4
			c0,0.1,0.1,0.2,0.1,0.3c0.3,1.1,0.6,2.2,0.9,3.3c0,0.2,0.1,0.3,0.1,0.5c0.3,1.1,0.6,2.2,1,3.3c0,0.2,0.1,0.3,0.1,0.5
			c0.3,1.1,0.7,2.3,1.1,3.4c0,0,0,0.1,0,0.1c0.4,1.1,0.7,2.2,1.1,3.3c0.1,0.2,0.1,0.3,0.2,0.5c0.4,1,0.7,2.1,1.1,3.1
			c0.1,0.2,0.1,0.4,0.2,0.6c0.4,1,0.8,2,1.1,3c0.1,0.2,0.1,0.3,0.2,0.5c0.4,1,0.8,2,1.2,3c0.2,0.5,0.5,1,0.7,1.5
			C378.1,235.7,378.1,235.8,378.1,235.8z"/>
		
			<ellipse id="XMLID_1921_" transform="matrix(0.6207 0.7841 -0.7841 0.6207 297.2702 -215.1097)" class="st7" cx="370.9" cy="199.7" rx="14.1" ry="9.7"/>
		<path id="XMLID_1918_" class="st11" d="M384.5,244.1l0.9,6.5c1.2,1.6,2.7,2.9,4.7,3.6c4.3,1.5,8.4,0,11.1,0.1
			c2.7,0.1,6.5,13.4,20.5,10.4c3.5-0.8,5.8-3.2,7.3-6.2l-1.2-8.5C414.7,257.7,395.8,254.5,384.5,244.1z"/>
		<g id="XMLID_1656_">
			<path id="XMLID_1917_" class="st12" d="M429.7,207.6c-10.7-10.5-8.7-27.7-8.7-28.4l1.3,0.2c0,0.2-2,17.3,8.3,27.3L429.7,207.6z"
				/>
		</g>
		<g id="XMLID_1654_">
			<path id="XMLID_1655_" class="st4" d="M400.5,190.5c-0.5,0-1.1-0.3-1.2-0.9c-0.3-0.7,0.1-1.5,0.8-1.7l17.2-6.2
				c0.7-0.3,1.5,0.1,1.7,0.8c0.3,0.7-0.1,1.5-0.8,1.7l-17.2,6.2C400.8,190.5,400.7,190.5,400.5,190.5z"/>
		</g>
		<g id="XMLID_1651_">
			<path id="XMLID_1652_" class="st4" d="M425.3,179.6c-0.2,0-0.3,0-0.5-0.1c-0.7-0.3-1-1-0.8-1.7c0.1-0.2,1.6-4.4,6.3-6
				c4-1.4,6.8,0.8,7.7,2.2c0.4,0.6,0.3,1.4-0.3,1.8c-0.6,0.4-1.4,0.3-1.8-0.3c-0.2-0.2-1.7-2.2-4.7-1.1c-3.4,1.2-4.6,4.2-4.6,4.4
				C426.3,179.3,425.8,179.6,425.3,179.6z"/>
		</g>
		<g id="XMLID_1649_">
			<path id="XMLID_1650_" class="st12" d="M417.6,222c-7.8,0-13.5-3.6-13.6-3.7l0.7-1.1c0.1,0.1,12.6,8,25.9-0.4l0.7,1.1
				C426.6,221,421.8,222,417.6,222z"/>
		</g>
		<g id="XMLID_1647_">
			<path id="XMLID_1648_" class="st12" d="M378,203.3c-4.2-9.6-12.9-10.6-13-10.6l0.1-1.3c0.4,0,9.6,1.1,14.1,11.4L378,203.3z"/>
		</g>
		<g id="XMLID_1645_">
			<path id="XMLID_1646_" class="st13" d="M422,157.6l-0.6-1.2c19.4-9.7,12.8-31.5,12.5-32.4l1.3-0.4
				C435.2,123.9,442.4,147.4,422,157.6z"/>
		</g>
		<g id="XMLID_1643_">
			<path id="XMLID_1644_" class="st13" d="M391.1,163.7l-0.1-1.3c28.4-2.5,32-28.5,32-28.8l1.3,0.2
				C424.3,134.1,420.6,161.1,391.1,163.7z"/>
		</g>
		<g id="XMLID_1641_">
			<path id="XMLID_1642_" class="st13" d="M407.3,144.2l-0.8-1c7.8-6.5,4.4-20.8,4.4-21l1.3-0.3
				C412.2,122.5,415.7,137.1,407.3,144.2z"/>
		</g>
		<g id="XMLID_1639_">
			<path id="XMLID_1640_" class="st12" d="M428.4,241.3l-0.3-1.3c1.3-0.2,2.4-1,3.1-2.1c0.7-1.1,1-2.4,0.8-3.7
				c-0.5-2.7-3.1-4.4-5.8-3.9l-0.7,0.1l-1-5.1l1.3-0.3l0.7,3.8c3.1-0.3,6,1.9,6.7,5c0.3,1.6,0,3.3-1,4.7
				C431.5,240,430,241,428.4,241.3z"/>
		</g>
		
			<ellipse id="XMLID_1636_" transform="matrix(3.196199e-02 -0.9995 0.9995 3.196199e-02 181.3454 598.7177)" class="st9" cx="399.8" cy="205.7" rx="5.4" ry="6.9"/>
		<path id="XMLID_1635_" class="st10" d="M454,319.2l-29.6-15.4c-13.7,52.1-18.6,48.2-32.5,91.3c-12.7,39.3,32.1,69.4,48.8-9.5
			C446.5,357.5,452.1,331.6,454,319.2z"/>
		<g id="XMLID_1633_">
			<path id="XMLID_1634_" class="st12" d="M398,228.9c-0.4-4.1-5.2-6.5-5.2-6.6l0.6-1.2c0.2,0.1,5.5,2.8,6,7.6L398,228.9z"/>
		</g>
		<polygon id="XMLID_1632_" class="st10" points="386.7,260.6 422.2,276.9 410.5,297.9 382.7,274.4 		"/>
		<polygon id="XMLID_1631_" class="st10" points="422.2,276.9 440.9,291 434.8,269.8 429.1,258.6 		"/>
		<g id="XMLID_1629_">
			<path id="XMLID_1630_" class="st12" d="M408.7,193.7c-1.2,0-2.1-0.2-2.2-0.2l0.3-1.3c0,0,4.4,0.8,5.9-1.3l1.1,0.8
				C412.7,193.3,410.4,193.7,408.7,193.7z"/>
		</g>
		<g id="XMLID_1627_">
			<path id="XMLID_1628_" class="st12" d="M429.5,187.9c-1.2,0-2.1-0.2-2.2-0.2l0.3-1.3c0,0,4.4,0.8,5.9-1.3l1.1,0.8
				C433.4,187.5,431.1,187.9,429.5,187.9z"/>
		</g>
		<circle id="XMLID_1624_" class="st14" cx="412.2" cy="190" r="2.1"/>
		<circle id="XMLID_1621_" class="st14" cx="432.8" cy="184.3" r="2.1"/>
		<path id="XMLID_1618_" class="st15" d="M453.5,320.3l-0.1,0.1c-1.6,2.8-5.1,3.9-8,2.5c-0.1-0.1-0.3-0.1-0.4-0.2l-0.5-0.3
			l-17.9-10.2c-0.1,0-0.1-0.1-0.2-0.1c-0.7-0.5-1.4-1-1.8-1.7c-1.3-1.9-1.5-4.4-0.3-6.5l0.1-0.1c0.7-1.2,1.6-2,2.8-2.5
			c0.6-0.3,1.3-0.5,2-0.5c1.2-0.1,2.5,0.1,3.7,0.8l14.5,8.3l0.6,0.3l3.3,1.9C454.2,313.5,455.2,317.3,453.5,320.3z"/>
		<path id="XMLID_1615_" class="st16" d="M452.5,321.6c-0.2-1.9-1.3-3.7-3.1-4.8l-3.3-1.9l-0.6-0.3l-14.5-8.3
			c-1.2-0.7-2.5-0.9-3.7-0.8c-0.7,0.1-1.3,0.3-2,0.5c-0.7,0.3-1.3,0.8-1.8,1.3c0.1,1,0.4,2,1,2.9c0.5,0.7,1.1,1.3,1.8,1.7
			c0.1,0.1,0.1,0.1,0.2,0.1l17.9,10.2l0.5,0.3c0.1,0.1,0.3,0.1,0.4,0.2C447.9,324,450.7,323.5,452.5,321.6z"/>
		<g id="XMLID_1589_">
			<path id="XMLID_1612_" class="st7" d="M447.9,310c-1,5.5-1.9,10.3-2.5,12.9c-0.1-0.1-0.3-0.1-0.4-0.2l-0.5-0.3l-17.9-10.2
				c-0.1,0-0.1-0.1-0.2-0.1c-0.7-0.5-1.4-1-1.8-1.7l2.5-9.2l0.7-2.7l1.1-4c0,0-0.1-0.2-0.3-0.7c-0.6-1.3-2-4.4-2.5-5.7
				c-0.6-1.8-6.1-4.3-9.5-6.2c-3.4-1.8-14.6-6.8-16.8-8.5c-2.2-1.7-1.5-3.7-1.7-5.9c-0.2-2.1-2.9-10.6-3.3-13.5
				c-0.5-2.8-2.3-14.2-3.1-18.3c-0.8-4-1.9-12.5,0.6-13.2c3.1-0.8,4.6,5.6,5.8,11.6c0.8,4,1.9,8.5,1.9,8.5s0.1,0,0.2,0
				c0.6-0.1,2.1-0.2,3,0c1.1,0.2,5.4,1.9,5.4,1.9s0.2-0.9,2.1-1.5c2-0.6,12.7,6.3,12.7,6.3c3.5-2.3,9.1,5.8,9.6,7.3
				c0.5,1.5-1,4.4-2.1,5.8c-1.2,1.3-1.5,2.7,0,4.1c1.5,1.3,16.9,6.3,21.1,13.3C453,281,450.2,297.3,447.9,310z"/>
			<g id="XMLID_1610_">
				<path id="XMLID_1611_" class="st12" d="M392.4,231.1l-0.1-0.7c0.5-0.1,0.8-0.3,1.1-0.7c1-1.6,0.1-4.8,0-4.9l0.6-0.2
					c0,0.1,1,3.6-0.1,5.4C393.6,230.7,393.1,231,392.4,231.1z"/>
			</g>
			<g id="XMLID_1608_">
				<path id="XMLID_1609_" class="st12" d="M401.3,268.1c-0.1-1.4-1.1-4.5-2.1-7.3c-0.7-1.9-1.3-3.7-1.5-4.7
					c-0.3-1.5-1.6-9.5-0.8-11.4c0.7-1.8,3-2.4,3.4-2.5l0.1,0.7l0-0.3l0,0.3c-0.3,0-2.3,0.6-2.9,2.1c-0.6,1.5,0.4,8.4,0.9,11
					c0.2,0.9,0.8,2.7,1.4,4.6c1,2.8,2,5.9,2.1,7.5L401.3,268.1z"/>
			</g>
			<g id="XMLID_1606_">
				<path id="XMLID_1607_" class="st12" d="M408.7,263.6c-1.9-6.9-0.2-18.7-0.2-19.2l0.7,0.1c0,0.1-1.7,12.2,0.1,19L408.7,263.6z"/>
			</g>
			<g id="XMLID_1604_">
				<path id="XMLID_1605_" class="st12" d="M410.5,274c-2.4-2.1-1.2-4.2-1.2-4.3l0.6,0.3l-0.3-0.2l0.3,0.2c0,0.1-0.9,1.7,1.1,3.5
					L410.5,274z"/>
			</g>
			<g id="XMLID_1602_">
				<path id="XMLID_1603_" class="st12" d="M403,273.1c-1.3-1.1-0.8-2.8-0.8-2.8l0.6,0.2c0,0.1-0.4,1.3,0.6,2.1L403,273.1z"/>
			</g>
			<g id="XMLID_1600_">
				<path id="XMLID_1601_" class="st12" d="M418.9,262l-1.6-5.5l0.1-0.1c1.7-2.2,0.5-5.7,0.5-5.8l0.6-0.2c0.1,0.2,1.3,3.8-0.5,6.3
					l1.5,5.1L418.9,262z"/>
			</g>
			<g id="XMLID_1598_">
				<path id="XMLID_1599_" class="st12" d="M419.1,264.1c-1-6.9,4.2-14.6,4.4-15l0.5,0.4c-0.1,0.1-5.3,7.8-4.3,14.5L419.1,264.1z"/>
			</g>
			<g id="XMLID_1596_">
				<path id="XMLID_1597_" class="st12" d="M429.5,264.7l-0.6-0.2c1.2-4.7,0.9-9.6,0.9-9.7l0.7,0
					C430.4,254.9,430.7,259.9,429.5,264.7z"/>
			</g>
			<g id="XMLID_1594_">
				<path id="XMLID_1595_" class="st12" d="M431.6,258.6c-0.3-0.3-0.6-0.4-0.9-0.4c-0.2,0-0.4,0.2-0.4,0.2l-0.5-0.4
					c0,0,0.3-0.4,0.8-0.5c0.5,0,0.9,0.1,1.4,0.6L431.6,258.6z"/>
			</g>
			<g id="XMLID_1592_">
				<path id="XMLID_1593_" class="st12" d="M433.1,294.6c-1.1,0-4.2-0.5-4.4-0.5l0.1-0.7c0,0,3.3,0.5,4.3,0.5L433.1,294.6z"/>
			</g>
			<g id="XMLID_1590_">
				<path id="XMLID_1591_" class="st12" d="M408,251c-1.4-2.6-3.3-3.1-3.4-3.1l0.1-0.6c0.1,0,2.3,0.5,3.8,3.4L408,251z"/>
			</g>
		</g>
		<g id="XMLID_1587_">
			<path id="XMLID_1588_" class="st17" d="M375.3,322.2c-13-27.5-26.2-27.2-26.4-27.2l-0.1-1.3c0.6,0,14.2-0.3,27.6,28L375.3,322.2z
				"/>
		</g>
		<g id="XMLID_1585_">
			<path id="XMLID_1586_" class="st17" d="M479.2,327.3l-1.2-0.5c11.7-26.6,0.2-44.4,0.1-44.6l1.1-0.7
				C479.3,281.6,491.2,300,479.2,327.3z"/>
		</g>
		<g id="XMLID_1581_">
			<path id="XMLID_1582_" class="st5" d="M451.1,344.3l-25.9-14.1l5.4-9.9l25.9,14.1L451.1,344.3z M427,329.7l23.5,12.8l4.1-7.6
				l-23.5-12.8L427,329.7z"/>
		</g>
		<circle id="XMLID_1578_" class="st6" cx="447.6" cy="336" r="2.8"/>
		<path id="XMLID_1575_" class="st4" d="M345.5,485.9c6.5,18.4,13.4,32.6,19.7,39c25.5,26,163.1,3,153.2-39.3
			c-4.5-19.4-8.1-37.4-10.9-54C436.9,401,367.5,463.3,345.5,485.9z"/>
		<g id="XMLID_1573_">
			<path id="XMLID_1574_" class="st17" d="M497.3,412.7c-20.2-19.9-52.1-13.4-52.4-13.4l-0.3-1.3c0.3-0.1,32.8-6.7,53.6,13.7
				L497.3,412.7z"/>
		</g>
		<g id="XMLID_1571_">
			<path id="XMLID_1572_" class="st4" d="M434.4,159.7l-0.7-1.1c18.6-11.8,10.8-31.9,10.5-32.7l1.2-0.5
				C445.5,125.6,453.9,147.4,434.4,159.7z"/>
		</g>
	</g>
</g>
<g id="XMLID_1510_">
	<path id="XMLID_1567_" class="st0" d="M687.6,514.2c0,0-5.9-30.3-99.3-30.3c-54.1,0-81.6-76.9-163.5-33.8
		c-83.4,43.9-106.1,25.9-125.9,64L687.6,514.2z"/>
	<g id="XMLID_1511_">
		<path id="XMLID_1566_" class="st18" d="M678.3,312.1l5.8,187.3c0.1,3.7-2.9,6.8-6.6,6.8H650L678.3,312.1z"/>
		<path id="XMLID_1565_" class="st18" d="M364.4,508.5c-0.4,3.8,2.7,7.2,6.5,7.2h282.2c3.4,0,6.2-2.6,6.5-5.9l0.3-3.6H364.7
			L364.4,508.5z"/>
		<polygon id="XMLID_1564_" class="st19" points="382.9,312.1 364.7,506.2 660,506.2 678.3,312.1 		"/>
		<path id="XMLID_1563_" class="st20" d="M672.8,288.3H388.5c-3.1,0-5.6,2.5-5.6,5.6v18.2h295.4v-18.2
			C678.3,290.8,675.8,288.3,672.8,288.3z"/>
		<g id="XMLID_1541_">
			<g id="XMLID_1560_">
				<circle id="XMLID_1562_" class="st21" cx="651.2" cy="300.2" r="4.8"/>
				<path id="XMLID_1561_" class="st21" d="M651.2,300.2L651.2,300.2c-0.7,0-1.2-0.5-1.2-1.2v-11.2c0-0.7,0.5-1.2,1.2-1.2l0,0
					c0.7,0,1.2,0.5,1.2,1.2V299C652.4,299.6,651.8,300.2,651.2,300.2z"/>
			</g>
			<g id="XMLID_1557_">
				<circle id="XMLID_1559_" class="st21" cx="613.1" cy="300.2" r="4.8"/>
				<path id="XMLID_1558_" class="st21" d="M613.1,300.2L613.1,300.2c-0.7,0-1.2-0.5-1.2-1.2v-11.2c0-0.7,0.5-1.2,1.2-1.2l0,0
					c0.7,0,1.2,0.5,1.2,1.2V299C614.3,299.6,613.8,300.2,613.1,300.2z"/>
			</g>
			<g id="XMLID_1554_">
				<circle id="XMLID_1556_" class="st21" cx="575.1" cy="300.2" r="4.8"/>
				<path id="XMLID_1555_" class="st21" d="M575.1,300.2L575.1,300.2c-0.7,0-1.2-0.5-1.2-1.2v-11.2c0-0.7,0.5-1.2,1.2-1.2l0,0
					c0.7,0,1.2,0.5,1.2,1.2V299C576.2,299.6,575.7,300.2,575.1,300.2z"/>
			</g>
			<g id="XMLID_1551_">
				<circle id="XMLID_1553_" class="st21" cx="537" cy="300.2" r="4.8"/>
				<path id="XMLID_1552_" class="st21" d="M537,300.2L537,300.2c-0.7,0-1.2-0.5-1.2-1.2v-11.2c0-0.7,0.5-1.2,1.2-1.2l0,0
					c0.7,0,1.2,0.5,1.2,1.2V299C538.2,299.6,537.7,300.2,537,300.2z"/>
			</g>
			<g id="XMLID_1548_">
				<circle id="XMLID_1550_" class="st21" cx="498.9" cy="300.2" r="4.8"/>
				<path id="XMLID_1549_" class="st21" d="M498.9,300.2L498.9,300.2c-0.7,0-1.2-0.5-1.2-1.2v-11.2c0-0.7,0.5-1.2,1.2-1.2l0,0
					c0.7,0,1.2,0.5,1.2,1.2V299C500.1,299.6,499.6,300.2,498.9,300.2z"/>
			</g>
			<g id="XMLID_1545_">
				<circle id="XMLID_1547_" class="st21" cx="460.9" cy="300.2" r="4.8"/>
				<path id="XMLID_1546_" class="st21" d="M460.9,300.2L460.9,300.2c-0.7,0-1.2-0.5-1.2-1.2v-11.2c0-0.7,0.5-1.2,1.2-1.2l0,0
					c0.7,0,1.2,0.5,1.2,1.2V299C462.1,299.6,461.5,300.2,460.9,300.2z"/>
			</g>
			<g id="XMLID_1542_">
				<circle id="XMLID_1544_" class="st21" cx="422.8" cy="300.2" r="4.8"/>
				<path id="XMLID_1543_" class="st21" d="M422.8,300.2L422.8,300.2c-0.7,0-1.2-0.5-1.2-1.2v-11.2c0-0.7,0.5-1.2,1.2-1.2l0,0
					c0.7,0,1.2,0.5,1.2,1.2V299C424,299.6,423.5,300.2,422.8,300.2z"/>
			</g>
		</g>
		<g id="XMLID_1537_">
			<path id="XMLID_1540_" class="st0" d="M453.2,451.1h-13.7c-1.7,0-3-1.4-2.8-3.1l1.3-13.7c0.1-1.5,1.4-2.6,2.8-2.6h13.7
				c1.7,0,3,1.4,2.8,3.1l-1.3,13.7C455.9,450,454.7,451.1,453.2,451.1z"/>
			<linearGradient id="XMLID_3_" gradientUnits="userSpaceOnUse" x1="472.9753" y1="441.4243" x2="493.671" y2="441.4243">
				<stop  offset="0" style="stop-color:#5E9DD7"/>
				<stop  offset="1" style="stop-color:#3D5AA2"/>
			</linearGradient>
			<path id="XMLID_1539_" class="st22" d="M489.5,451.1h-13.7c-1.7,0-3-1.4-2.8-3.1l1.3-13.7c0.1-1.5,1.4-2.6,2.8-2.6h13.7
				c1.7,0,3,1.4,2.8,3.1l-1.3,13.7C492.2,450,491,451.1,489.5,451.1z"/>
			<path id="XMLID_1538_" class="st0" d="M598.5,451.1h-13.7c-1.7,0-3-1.4-2.8-3.1l1.3-13.7c0.1-1.5,1.4-2.6,2.8-2.6h13.7
				c1.7,0,3,1.4,2.8,3.1l-1.3,13.7C601.2,450,600,451.1,598.5,451.1z"/>
		</g>
		<linearGradient id="XMLID_4_" gradientUnits="userSpaceOnUse" x1="407.1451" y1="356.5144" x2="503.3574" y2="356.5144">
			<stop  offset="0" style="stop-color:#5E9DD7"/>
			<stop  offset="1" style="stop-color:#3D5AA2"/>
		</linearGradient>
		<path id="XMLID_1536_" class="st23" d="M496.1,378.5h-85.8c-1.9,0-3.3-1.6-3.1-3.5l4.1-37.6c0.2-1.6,1.5-2.9,3.1-2.9h85.8
			c1.9,0,3.3,1.6,3.1,3.5l-4.1,37.6C499.1,377.2,497.7,378.5,496.1,378.5z"/>
		<g id="XMLID_1518_">
			<path id="XMLID_1535_" class="st18" d="M486.1,487.5h-13.7c-1.7,0-3-1.4-2.8-3.1l1.3-13.7c0.1-1.5,1.4-2.6,2.8-2.6h13.7
				c1.7,0,3,1.4,2.8,3.1l-1.3,13.7C488.8,486.4,487.6,487.5,486.1,487.5z"/>
			<path id="XMLID_1534_" class="st18" d="M449.8,487.5h-13.7c-1.7,0-3-1.4-2.8-3.1l1.3-13.7c0.1-1.5,1.4-2.6,2.8-2.6h13.7
				c1.7,0,3,1.4,2.8,3.1l-1.3,13.7C452.5,486.4,451.2,487.5,449.8,487.5z"/>
			<path id="XMLID_1533_" class="st18" d="M413.4,487.5h-13.7c-1.7,0-3-1.4-2.8-3.1l1.3-13.7c0.1-1.5,1.4-2.6,2.8-2.6h13.7
				c1.7,0,3,1.4,2.8,3.1l-1.3,13.7C416.1,486.4,414.9,487.5,413.4,487.5z"/>
			<path id="XMLID_1532_" class="st18" d="M634.9,451.1h-13.7c-1.7,0-3-1.4-2.8-3.1l1.3-13.7c0.1-1.5,1.4-2.6,2.8-2.6h13.7
				c1.7,0,3,1.4,2.8,3.1l-1.3,13.7C637.6,450,636.4,451.1,634.9,451.1z"/>
			<path id="XMLID_1531_" class="st18" d="M562.2,451.1h-13.7c-1.7,0-3-1.4-2.8-3.1l1.3-13.7c0.1-1.5,1.4-2.6,2.8-2.6h13.7
				c1.7,0,3,1.4,2.8,3.1l-1.3,13.7C564.9,450,563.7,451.1,562.2,451.1z"/>
			<path id="XMLID_1530_" class="st18" d="M525.9,451.1h-13.7c-1.7,0-3-1.4-2.8-3.1l1.3-13.7c0.1-1.5,1.4-2.6,2.8-2.6h13.7
				c1.7,0,3,1.4,2.8,3.1l-1.3,13.7C528.6,450,527.3,451.1,525.9,451.1z"/>
			<path id="XMLID_1529_" class="st18" d="M416.8,451.1h-13.7c-1.7,0-3-1.4-2.8-3.1l1.3-13.7c0.1-1.5,1.4-2.6,2.8-2.6h13.7
				c1.7,0,3,1.4,2.8,3.1l-1.3,13.7C419.6,450,418.3,451.1,416.8,451.1z"/>
			<path id="XMLID_1528_" class="st18" d="M638.3,414.8h-13.7c-1.7,0-3-1.4-2.8-3.1l1.3-13.7c0.1-1.5,1.4-2.6,2.8-2.6h13.7
				c1.7,0,3,1.4,2.8,3.1l-1.3,13.7C641,413.7,639.8,414.8,638.3,414.8z"/>
			<path id="XMLID_1527_" class="st18" d="M602,414.8h-13.7c-1.7,0-3-1.4-2.8-3.1l1.3-13.7c0.1-1.5,1.4-2.6,2.8-2.6h13.7
				c1.7,0,3,1.4,2.8,3.1l-1.3,13.7C604.7,413.7,603.4,414.8,602,414.8z"/>
			<path id="XMLID_1526_" class="st18" d="M565.6,414.8h-13.7c-1.7,0-3-1.4-2.8-3.1l1.3-13.7c0.1-1.5,1.4-2.6,2.8-2.6h13.7
				c1.7,0,3,1.4,2.8,3.1l-1.3,13.7C568.3,413.7,567.1,414.8,565.6,414.8z"/>
			<path id="XMLID_1525_" class="st18" d="M529.3,414.8h-13.7c-1.7,0-3-1.4-2.8-3.1L514,398c0.1-1.5,1.4-2.6,2.8-2.6h13.7
				c1.7,0,3,1.4,2.8,3.1l-1.3,13.7C532,413.7,530.8,414.8,529.3,414.8z"/>
			<path id="XMLID_1524_" class="st18" d="M492.9,414.8h-13.7c-1.7,0-3-1.4-2.8-3.1l1.3-13.7c0.1-1.5,1.4-2.6,2.8-2.6h13.7
				c1.7,0,3,1.4,2.8,3.1l-1.3,13.7C495.6,413.7,494.4,414.8,492.9,414.8z"/>
			<path id="XMLID_1523_" class="st18" d="M456.6,414.8h-13.7c-1.7,0-3-1.4-2.8-3.1l1.3-13.7c0.1-1.5,1.4-2.6,2.8-2.6h13.7
				c1.7,0,3,1.4,2.8,3.1l-1.3,13.7C459.3,413.7,458.1,414.8,456.6,414.8z"/>
			<path id="XMLID_1522_" class="st18" d="M420.3,414.8h-13.7c-1.7,0-3-1.4-2.8-3.1L405,398c0.1-1.5,1.4-2.6,2.8-2.6h13.7
				c1.7,0,3,1.4,2.8,3.1l-1.3,13.7C423,413.7,421.7,414.8,420.3,414.8z"/>
			<path id="XMLID_1521_" class="st18" d="M641.7,378.5H628c-1.7,0-3-1.4-2.8-3.1l1.3-13.7c0.1-1.5,1.4-2.6,2.8-2.6H643
				c1.7,0,3,1.4,2.8,3.1l-1.3,13.7C644.4,377.3,643.2,378.5,641.7,378.5z"/>
			<path id="XMLID_1520_" class="st18" d="M605.4,378.5h-13.7c-1.7,0-3-1.4-2.8-3.1l1.3-13.7c0.1-1.5,1.4-2.6,2.8-2.6h13.7
				c1.7,0,3,1.4,2.8,3.1l-1.3,13.7C608.1,377.3,606.9,378.5,605.4,378.5z"/>
			<path id="XMLID_1519_" class="st18" d="M532.7,378.5H519c-1.7,0-3-1.4-2.8-3.1l1.3-13.7c0.1-1.5,1.4-2.6,2.8-2.6H534
				c1.7,0,3,1.4,2.8,3.1l-1.3,13.7C535.4,377.3,534.2,378.5,532.7,378.5z"/>
		</g>
		<g id="XMLID_1516_">
			<path id="XMLID_1517_" class="st20" d="M521.2,445.1c-0.3,0-0.6-0.1-0.7-0.4l-3.8-4.7c-0.3-0.4-0.3-1,0.1-1.3
				c0.4-0.3,1-0.3,1.3,0.1l3.2,4l12.5-9c0.4-0.3,1-0.2,1.3,0.2c0.3,0.4,0.2,1-0.2,1.3l-13.2,9.6C521.6,445,521.4,445.1,521.2,445.1z
				"/>
		</g>
		<g id="XMLID_1514_">
			<path id="XMLID_1515_" class="st20" d="M638,372.5c-0.3,0-0.6-0.1-0.7-0.4l-3.8-4.7c-0.3-0.4-0.3-1,0.1-1.3
				c0.4-0.3,1-0.3,1.3,0.1l3.2,4l12.5-9c0.4-0.3,1-0.2,1.3,0.2c0.3,0.4,0.2,1-0.2,1.3l-13.2,9.6C638.4,372.4,638.2,372.5,638,372.5z
				"/>
		</g>
		<linearGradient id="XMLID_5_" gradientUnits="userSpaceOnUse" x1="505.8934" y1="477.7628" x2="526.589" y2="477.7628">
			<stop  offset="0" style="stop-color:#5E9DD7"/>
			<stop  offset="1" style="stop-color:#3D5AA2"/>
		</linearGradient>
		<path id="XMLID_1513_" class="st24" d="M522.4,487.5h-13.7c-1.7,0-3-1.4-2.8-3.1l1.3-13.7c0.1-1.5,1.4-2.6,2.8-2.6h13.7
			c1.7,0,3,1.4,2.8,3.1l-1.3,13.7C525.1,486.4,523.9,487.5,522.4,487.5z"/>
		<path id="XMLID_1512_" class="st0" d="M569,378.5h-13.7c-1.7,0-3-1.4-2.8-3.1l1.3-13.7c0.1-1.5,1.4-2.6,2.8-2.6h13.7
			c1.7,0,3,1.4,2.8,3.1l-1.3,13.7C571.7,377.3,570.5,378.5,569,378.5z"/>
	</g>
</g>
<circle id="XMLID_1509_" class="st0" cx="538.7" cy="261.8" r="1.7"/>
<circle id="XMLID_1508_" class="st0" cx="486.7" cy="240.1" r="1.7"/>
<circle id="XMLID_1507_" class="st19" cx="1176.3" cy="678" r="1.7"/>
</svg>
