<?xml version="1.0" encoding="utf-8"?>
<!-- Generator: Adobe Illustrator 19.0.0, SVG Export Plug-In . SVG Version: 6.00 Build 0)  -->
<svg version="1.1" id="Capa_1" xmlns="http://www.w3.org/2000/svg" xmlns:xlink="http://www.w3.org/1999/xlink" x="0px" y="0px"
	 viewBox="0 0 479.7 353" style="enable-background:new 0 0 479.7 353;" xml:space="preserve">
<style type="text/css">
	.st0{fill:#2E3F7A;}
	.st1{clip-path:url(#XMLID_10_);}
	.st2{fill:#573652;}
	.st3{fill:#D6977B;}
	.st4{fill:#DE9A83;}
	.st5{fill:#CA805D;}
	.st6{fill:#E0A18C;}
	.st7{fill:#D16870;}
	.st8{fill:#DB9170;}
	.st9{fill:#D06635;}
	.st10{fill:#77993C;}
	.st11{fill:#F4D22D;}
	.st12{fill:#52ADC2;}
	.st13{fill:#72ADE1;}
	.st14{fill:#8EBBE7;}
	.st15{fill:#432E47;}
	.st16{fill:#D98966;}
	.st17{fill:#7E4E77;}
	.st18{fill:#82C0D3;}
	.st19{fill:#FFFFFF;}
	.st20{fill:#49A7B8;}
	.st21{fill:#9ECEE4;}
	.st22{fill:none;stroke:#FFFFFF;stroke-miterlimit:10;}
</style>
<path id="XMLID_2742_" class="st0" d="M64.1,212.7c13.9-49.2,72.4-16.9,108-40.4c35.6-23.5-17.2-136.1,49.4-149.8
	c78.8-16.2,78.3,88.6,103.3,94.8c39.1,9.7,73.9-33,109.8,0.8c34.8,32.8,8.5,147.5-135.9,185.2S47.4,272.1,64.1,212.7z"/>
<g id="XMLID_2519_">
	<defs>
		<rect id="XMLID_2520_" x="112.6" y="16.7" width="264.3" height="296.3"/>
	</defs>
	<clipPath id="XMLID_10_">
		<use xlink:href="#XMLID_2520_"  style="overflow:visible;"/>
	</clipPath>
	<g id="XMLID_2521_" class="st1">
		<g id="XMLID_2522_">
			<g id="XMLID_2525_">
				<path id="XMLID_2741_" class="st2" d="M287.6,525.9c0,0-7.9,4.1-16.4,8.1c-8.5,4-17.7,8.1-20.3,7.9c-7.2-0.4-10.7,0.9-11.4,2.8
					c-0.7,1.9,0.4,5.8,6.7,7.4c6.8,1.7,27-0.4,30.9,0s19.5,6.4,25,4.4c5.5-1.9,5.8-6.9,4.6-12c-1.2-5.1-3.9-14.3-2.7-17.7
					C305.2,523.5,287.6,525.9,287.6,525.9z"/>
				<path id="XMLID_2740_" class="st3" d="M305.9,542.1c-1.3-5.2-3.1-12.3-2-15.2c0.2-0.5,0-0.8-0.5-1.1c-7.4-1.3-19.2,1.8-19.2,1.8
					h0c-3.1,1.6-8,4-13.1,6.4c-4.5,2.1-9.1,4.2-12.9,5.7l0,0c0,0-2.1,3.5,4.5,3.5c6.6,0,13.5-1.4,19.7-1.8
					C288.4,541.2,300.3,544.4,305.9,542.1z"/>
				<path id="XMLID_2739_" class="st2" d="M315.8,553.7c0,0,2.5,11.3,4.2,15.8c1.7,4.5,3.2,14.4-0.3,16.8c-3.5,2.4-17.1,0-22.3,0
					c-5.2,0-18,2.8-30.2,1c-12.3-1.8-20.5-7.6-17.9-12.1c1.9-3.5,17.3-2.8,26-4.4c3.4-0.6,14-6.7,19.5-7.6c5.5-0.9,7.3-6.1,8.3-9.5
					C304.1,550.3,315.8,553.7,315.8,553.7z"/>
				<path id="XMLID_2736_" class="st4" d="M327.1,471.1c-3.8-24.5-19.8-48.6-19.8-48.6s-21.7-9-23.6,6.6
					c-1.8,14.7,18.2,121.8,14,128.8c-4.1,7.1-22.7,9.9-30.7,13.8c-2.5,1.2-4.3,3.2,1.4,5.1c5.4,1.8,13.2,1.4,21.8-0.4
					c15.6-3.2,29.2,0,29.3-8.4l-2.2-8.5C318.3,554.5,330.7,494.6,327.1,471.1z"/>
				<path id="XMLID_2735_" class="st5" d="M322,500.3c-11.5,0-21.7,5.7-27.9,14.4c3.1,22.1,5.2,40.4,3.5,43.2
					c-0.1,0.1-0.1,0.2-0.2,0.3c5.6,5.8,13.3,9.6,21.9,10.3c0-0.1,0.1-0.3,0.1-0.4l-2.2-8.5c0.7-3.4,6.9-33.1,9.4-58.9
					C325.2,500.4,323.6,500.3,322,500.3z"/>
				<g id="XMLID_2717_">
					<path id="XMLID_2734_" class="st6" d="M200.5,236.3c0,0-18.3-5.2-20-5.2c-1.7,0-10.7,5.5-15.7,8.1c-4.9,2.6-11.8,4.3-12.6,4.7
						c-0.8,0.3-2.2-0.7,0.1-2.5c2.3-1.8,10.9-6.5,10.9-6.5s-15.5,5.5-16.9,6c-1.4,0.5-2.7-1-2.1-2c0,0-1.4,0.2-1.8,0.5
						c-1.4,0.8-2.9-1.8,0.3-3.9c3.2-2,15.9-8,16.1-9.3c0.2-1.3-14.7,2.4-17.4,2.8c-2.7,0.4-2.5-2.7,5.4-5.7c7.9-3,19.2-6.1,21.8-8
						c2.6-1.9-0.2-4-2.1-5.1c-1.9-1-7.6-6.9-4.9-8.7c2.7-1.8,4.3,2.3,6.7,2.7c2.4,0.4,6.5,0.4,12.1,4.3c5.5,3.8,9.6,8,9.6,8
						l20.4,5.6L200.5,236.3z"/>
					<g id="XMLID_2732_">
						
							<rect id="XMLID_2733_" x="143.5" y="235.3" transform="matrix(-0.9037 0.4282 -0.4282 -0.9037 388.2287 383.6634)" class="st7" width="14.8" height="0.3"/>
					</g>
					<g id="XMLID_2730_">
						<path id="XMLID_2731_" class="st7" d="M162.4,223.1l0.3,0.2c-0.3,0.4-1,3-0.2,4.5c0.1,0.2,0.3,0.4,0.5,0.6
							c0.6,0.7,1.5,1.8,2.1,3.6c0.8,2.3,3.2,3,3.2,3l-0.1,0.3c-0.1,0-2.6-0.8-3.4-3.2c-0.6-1.7-1.5-2.8-2.1-3.5
							c-0.2-0.3-0.4-0.5-0.5-0.7C161.3,226.4,162,223.7,162.4,223.1z"/>
					</g>
					<g id="XMLID_2728_">
						<path id="XMLID_2729_" class="st7" d="M179.4,231.1c0,0,2.1-1.1,3.1-3.3l0.3,0.1c-1.1,2.3-3.1,3.4-3.2,3.4L179.4,231.1z"/>
					</g>
					<g id="XMLID_2726_">
						<path id="XMLID_2727_" class="st7" d="M141,226.6c0.1,0,1.3-0.6,2-0.3c0.2,0.1,0.4,0.3,0.4,0.6c0,0.3,0,0.6-0.2,0.8
							c0,0,0,0,0,0c-0.6,0.7-1.8,0.9-1.9,0.9l0-0.3c0,0,1.2-0.2,1.7-0.8c0,0,0,0,0,0c0.1-0.2,0.2-0.4,0.1-0.6c0-0.2-0.1-0.3-0.3-0.4
							c-0.5-0.2-1.4,0.1-1.7,0.3L141,226.6z"/>
					</g>
					<g id="XMLID_2724_">
						<path id="XMLID_2725_" class="st7" d="M141.6,237.2c0.2-0.1,1.7-0.7,2.3-0.3c0.1,0.1,0.2,0.2,0.3,0.4c0.1,0.9-1.8,1.7-2,1.8
							l-0.1-0.3c0.7-0.3,1.8-0.9,1.8-1.4c0-0.1,0-0.1-0.1-0.1c-0.3-0.2-1.4,0.1-2,0.3L141.6,237.2z"/>
					</g>
					<g id="XMLID_2722_">
						<path id="XMLID_2723_" class="st7" d="M144.8,238.8c0.1,0,1.4-0.7,2.2-0.4c0.2,0.1,0.4,0.3,0.5,0.5c0.1,0.3,0.1,0.5-0.1,0.7
							c0,0-0.1,0.1-0.1,0.1c-0.5,0.6-1.7,0.8-1.7,0.8l-0.1-0.3c0.3-0.1,1.2-0.3,1.5-0.7c0,0,0,0,0.1-0.1c0.1-0.1,0.1-0.3,0-0.4
							c0-0.1-0.1-0.2-0.3-0.3c-0.5-0.2-1.5,0.2-1.9,0.4L144.8,238.8z"/>
					</g>
					<g id="XMLID_2720_">
						<path id="XMLID_2721_" class="st7" d="M151.7,242.3c0.3-0.1,1.6-0.5,2-0.2c0.1,0.1,0.1,0.2,0.1,0.3c0,0.7-1.6,1.2-1.9,1.3
							l-0.1-0.3c0.7-0.2,1.7-0.6,1.7-1c-0.2-0.2-1,0-1.7,0.2L151.7,242.3z"/>
					</g>
					<g id="XMLID_2718_">
						<path id="XMLID_2719_" class="st7" d="M162.4,202.3l0.3-0.2c0,0,1,1.9,2,2.1c0.2,0,0.4,0,0.6-0.2c0.2-0.2,0.3-0.4,0.3-0.6
							c0-0.6-1-1.3-1.3-1.6l0.2-0.3c0.1,0,1.4,0.9,1.5,1.8c0,0.3-0.1,0.6-0.4,0.9c-0.3,0.2-0.6,0.3-0.9,0.2
							C163.5,204.4,162.4,202.4,162.4,202.3z"/>
					</g>
				</g>
				<path id="XMLID_2716_" class="st5" d="M191.6,216.8c0,0-3,10.5-10.4,14.3c3.6,0.7,19.3,5.2,19.3,5.2l9.9-14.3L191.6,216.8z"/>
				<g id="XMLID_2680_">
					<animateTransform
					attributeName="transform"
					type="rotate"
					values="-10 240 84;0 240 84;-5 240 84;6 240 84;0 240 84;-10 240 84;2 240 84;-10 240 84"
					dur="2s"
					repeatCount="indefinite"/>
					<path id="XMLID_2715_" class="st8" d="M200.4,77.3c0,0,2,4.2,2.6,5.3c0.6,1.2,2.3,4.3,2.5,4.4c0.3,0.1,0.8-0.2,1-0.6
						c0,0,0.7,1.5,1,2.1c0.3,0.5,1.5-0.3,1.9-1c0,0,1,1.5,1.3,1.6c0.3,0.1,1-0.2,1.4-1.4c0.4-1.1,0.5-1.7,0-2.6
						c-0.5-0.9-1.2-2-1.2-2s1.3-0.2,1.5-0.2c0.3,0.1,2.1,1.1,3,0.8c0,0,5.4,4.2,12.1,4.9c1.7,0.2,4.1,0.3,4.1,0.3l0.3,0.3
						c0,0-1.5-10.7-4.7-14.3c-3.2-3.6-14.5-10.3-18-7.7C205.9,70,200.4,77.3,200.4,77.3z"/>
					<path id="XMLID_2712_" class="st4" d="M205.4,74.6c-0.5,0.2-0.9,0.3-1.1,0.4c-0.3,0.2-0.9,0.9-1,1.8
						C204,76.1,204.7,75.3,205.4,74.6z"/>
					<path id="XMLID_2709_" class="st4" d="M241.2,80.7c0,0-3.1-3-5.3-4.3c-2.3-1.3-6.9-4.4-9-6c-2-1.7-5.8-5.8-7.1-6.1
						c-1.3-0.3-4,0.3-7.6,0.2c-3.6-0.1-6.4-0.3-7.2,0.9c-0.9,1.2-1.3,2.5-2.6,5.3c-1.4,2.8-2.8,6.6-2.2,7.2c0.6,0.6,1.2,0.5,2.7-0.7
						c0.2-0.1,0.4-0.3,0.6-0.5c0.1-0.9,0.6-1.6,1-1.8c0.1-0.1,0.5-0.2,1.1-0.4c0.5-0.7,1-1.3,1.4-2c1-1.7,1.5-2.7,1.5-2.7
						s2.3,0.5,3.9,0.2c1.1-0.3,5.3,1.1,7.6,2c0-0.1,0-0.3,0-0.4c0,0.1,0,0.3,0,0.4c1,0.4,1.7,0.6,1.7,0.6l-1.3,0.3c0,0-0.2,0-0.4,0
						c0,2.5,0,4.7,0,7c0.4,0.1,0.7,0.1,0.8,0.2c0.5,0.2,3.8,4.5,6.7,6c2.9,1.5,4.8,3.3,4.8,3.3l6.9,4.9l7.8-10.6L241.2,80.7z"/>
					<g id="XMLID_2707_">
						<path id="XMLID_2708_" class="st9" d="M231.4,86.8c-2.3,0-4.4-0.7-4.6-0.7l0.1-0.4c0,0,4.8,1.5,7.4,0.1l0.2,0.4
							C233.7,86.7,232.6,86.8,231.4,86.8z"/>
					</g>
					<g id="XMLID_2705_">
						<path id="XMLID_2706_" class="st9" d="M213.1,70.2l-0.2-0.4c2.4-1.5,2.3-3.4,2.3-3.4l0.4,0C215.5,66.5,215.6,68.6,213.1,70.2z
							"/>
					</g>
					<g id="XMLID_2700_">
						<path id="XMLID_2704_" class="st2" d="M188.7,95.4L188.7,95.4c-0.2-0.2-0.2-0.5,0-0.7l3.5-3.6c0.2-0.2,0.5-0.2,0.7,0l0,0
							c0.2,0.2,0.2,0.5,0,0.7l-3.5,3.6C189.3,95.6,189,95.7,188.7,95.4z"/>
						<path id="XMLID_2703_" class="st10" d="M190.5,93.6L190.5,93.6c-0.9-0.9-0.9-2.2-0.1-3.1l28.2-29.3c0.8-0.9,2.2-0.9,3.1-0.1
							l0,0c0.9,0.8,0.9,2.2,0.1,3.1l-28.2,29.3C192.8,94.5,191.4,94.5,190.5,93.6z"/>
						<path id="XMLID_2702_" class="st2" d="M210.3,77.2l-3.9-3.8l14.9-15.5c1-1.1,2.8-1.1,3.8-0.1l0,0c1.1,1,1.1,2.8,0.1,3.8
							L210.3,77.2z"/>
						
							<rect id="XMLID_2701_" x="218.8" y="60.7" transform="matrix(0.7198 0.6941 -0.6941 0.7198 104.7879 -136.5518)" class="st11" width="5.5" height="1.7"/>
					</g>
					<g id="XMLID_2698_">
						<path id="XMLID_2699_" class="st9" d="M208.5,70l-0.4-0.2c0.9-1.6,0.5-3.2,0.5-3.2l0.4-0.1C209,66.6,209.4,68.3,208.5,70z"/>
					</g>
					<g id="XMLID_2696_">
						<path id="XMLID_2697_" class="st9" d="M205.3,85c0,0-0.4-1.3-1-1.8c-0.1-0.1-0.2-0.1-0.3-0.1c-0.2,0-0.4,0.3-0.4,0.4l-0.4-0.2
							c0-0.1,0.3-0.5,0.7-0.6c0.2,0,0.4,0,0.7,0.2c0.6,0.5,1.1,1.9,1.1,2L205.3,85z"/>
					</g>
					<g id="XMLID_2694_">
						<path id="XMLID_2695_" class="st9" d="M206.6,86.7l-0.3-0.3c0.5-0.5,0.8-2.2,0.6-3.2c-0.2-1.1-1.5-3.6-1.5-3.6l0.4-0.2
							c0.1,0.1,1.3,2.6,1.5,3.7C207.6,84.4,207.2,86.1,206.6,86.7z"/>
					</g>
					<g id="XMLID_2692_">
						<path id="XMLID_2693_" class="st9" d="M209.4,88l-0.3-0.2c0.3-0.5,0.8-1.5,0.6-2.3c-0.1-0.6-1.6-3.6-2.4-5.1l0.4-0.2
							c0.1,0.2,2.3,4.4,2.4,5.2C210.3,86.3,209.9,87.3,209.4,88z"/>
					</g>
					<g id="XMLID_2690_">
						<path id="XMLID_2691_" class="st9" d="M207.9,88.3l-0.2-0.4c0.1-0.1,0.3-0.2,0.3-0.4c0-0.3-1-1.5-1.2-1.6l0.2-0.3
							c0.1,0.1,1.3,1.5,1.4,2C208.4,87.9,208,88.2,207.9,88.3z"/>
					</g>
					<g id="XMLID_2688_">
						<path id="XMLID_2689_" class="st9" d="M210.9,88.8l-0.3-0.2c0,0,0.2-0.3,0.2-0.7c0-0.3-0.6-1-0.9-1.5l0.3-0.3
							c0.2,0.2,1,1.2,1,1.7C211.2,88.3,210.9,88.8,210.9,88.8z"/>
					</g>
					<g id="XMLID_2686_">
						<path id="XMLID_2687_" class="st9" d="M215.6,84.1l-0.3-0.3c1.7-1.6,1.5-3.4,1.5-3.4l0.4,0C217.2,80.4,217.4,82.3,215.6,84.1z
							"/>
					</g>
					<path id="XMLID_2683_" class="st4" d="M213,72.6c-1.3,0.1-5.6,1.3-7.6,2c-0.6,0.8-1.3,1.5-2,2.1c-0.1,1,0.5,2.2,3.1,2.8
						c4.7,1.1,9.7-0.1,9.7-0.1s2.4,0.3,3.7,0.6c0-2.3,0-4.5,0-7C218.5,72.8,214.4,72.4,213,72.6z"/>
					<g id="XMLID_2681_">
						<path id="XMLID_2682_" class="st9" d="M205.3,79l-0.1-0.4c0.9-0.1,3.2-0.7,3.8-1.6c0.1-0.2,0.1-0.4,0.1-0.6
							c-0.4-1.3-3.3-1-4.4-0.8l-0.1-0.4c0.2,0,4.3-0.8,4.8,1.1c0.1,0.3,0.1,0.6-0.1,0.9C208.6,78.4,205.4,79,205.3,79z"/>
					</g>
				</g>
				<path id="XMLID_2679_" class="st5" d="M232.1,89.5c0.3,0.2,7.3,5.3,7.3,5.3l7.8-10.6l-3.6-2C241.1,85.7,236.6,89.2,232.1,89.5z"
					/>
				<path id="XMLID_2678_" class="st3" d="M294.7,397.2c0,0,16.1,24.1,19.8,48.6c3.8,24.5-9.9,88.7-9.9,88.7l-19.8-2.4
					c0,0-15.6-112.8-13.7-128.4C273,388.2,294.7,397.2,294.7,397.2z"/>
				<path id="XMLID_2677_" class="st12" d="M311.7,532.3c2.4-4,5.2-65.6,2.1-85.4c-3.8-24.9-19.6-48.8-20.3-49.8l-0.5-0.7l-0.8-0.3
					c-0.3-0.1-6.8-2.8-13.4-2.8c-8.2,0-13.2,4.1-14.1,11.7c-0.9,7.6,6,44.3,8.4,74.2c1.9,23.2-1.5,34.2,0,43.7
					C274.7,532.4,306.9,540.2,311.7,532.3z"/>
				<path id="XMLID_2676_" class="st12" d="M289.9,534c0,0,16.2,4.9,25.7-2.3c5.5-4.2,3.6-9.4,2.2-14.9c-1.4-5.5-4.1-9.2-2.8-15
					c1.2-5.8,3.2-13.3,4.2-22.1c1-8.9-3.2-28.7-6.3-35.2c-3.1-6.6-23.3,25.8-17,48.9C302.2,516.3,289.9,534,289.9,534z"/>
				<path id="XMLID_2675_" class="st13" d="M267.2,266.2c0,0-16.9,33.5-16,64.3s17,113.5,20.8,119.9c3.7,6.4,7.3,13.2,18.4,9.8
					c11.1-3.4,16-61.4,19-87.3c3-25.8,2.7-35.5,2.7-35.5s15.6-12.8,15.6-35.7c0-20.6-5.9-28.4-5.9-28.4L267.2,266.2z"/>
				<path id="XMLID_2674_" class="st14" d="M302,139.6l-63.3-37.1c-4.7-2.9,2.2-22.9,6.7-21l71,30.4c7.9,3.4,11.6,12.6,8.2,20.5
					c-3.4,7.9-12.6,11.6-20.5,8.2C303.3,140.4,302.6,140,302,139.6z"/>
				<path id="XMLID_2673_" class="st13" d="M249.3,271.7c0,0-8.8,35.5-5.1,66.1c4.5,37.3,32.5,102.8,37.2,108.5
					c4.7,5.7,9,13.9,24.2,5.8c10.3-5.5,4.4-56.2,3.1-82.2c-1.4-26-3.2-35.4-3.2-35.4s15.6-14.9,13.2-37.7c-2.3-22-8.3-25.1-8.3-25.1
					H249.3z"/>
				<path id="XMLID_2672_" class="st2" d="M318.8,95.7c0,0-3.8,9.5,6.6,13.9c10.5,4.5,18.1-1.6,24.7,5.8c6.7,7.3-1.5,19.9,8.6,21.9
					s25.8,8.2,23.5,22s-22.5,39.2-63.7,33.8c-32.6-4.3-29-19.5-27-38.6c2-19.2-4-29.1,1.4-34.8C298.4,113.8,318.8,95.7,318.8,95.7z"
					/>
				<path id="XMLID_2671_" class="st15" d="M275.1,70.8c0,0-9.3-0.9-10.3,5.7c-1.1,6.6,4.4,11.1,3.2,15.5s11.7,6.8,11.6-0.8
					C279.5,83.6,275.1,70.8,275.1,70.8z"/>
				<path id="XMLID_2668_" class="st4" d="M275.5,187.2c-5.4-2.3,6.8-30.5,7.1-40.4c0.4-17.4-2.4-26.3-2.4-26.3l12.8-0.3l1.7,0
					l12.8-0.3c0,0-5.7,10,2.3,31.3c0,0-6.5,3.7-11.4,9.5C290.6,170.1,278.9,188.7,275.5,187.2z"/>
				<path id="XMLID_2667_" class="st5" d="M292.4,121.7l1.7,0l1.9-1.5l11.1-7.8c-0.1,1.5-1.5,14.6-1.6,16.8
					c-5.5,8.2-13.6,14.4-23,17.6c0.1-4.2-0.1-7.9-0.3-11.2c-0.2-4.6-0.7-8.3-1.3-10.9c-0.2-1.1-0.4-2-0.5-2.7L292.4,121.7z"/>
				<path id="XMLID_2664_" class="st4" d="M293,72.4c36.3,5,11.6,66-22.8,60.2c-7.5-1.3-8.5-15-6.9-27.5
					C266.6,79.8,277.8,70.3,293,72.4z"/>
				<path id="XMLID_2663_" class="st2" d="M291.3,105.2c0,0-5.6-7.5-0.8-13.8c2.7-3.6,2.8-6.2,1.1-7.9c-3.4-3.5-11.7-1.2-15.3-3
					c-6.9-3.5-8.9-14.7-3.4-15.4c5.5-0.7,8.6,4.2,14.2,4s10.5-1.8,14.8-0.8c2.9,0.7,20.4,2.7,17.3,25.9c-0.6,4.6-7.3,13.9-6.8,23.8
					c0.1,3.2,0.2,9-5.8,7.2C299.4,123.3,295.8,104.1,291.3,105.2z"/>
				<path id="XMLID_2660_" class="st4" d="M292.9,114c-7.4-5.7,2.9-19.9,10.1-15.5C311.1,103.5,300.3,119.7,292.9,114z"/>
				<path id="XMLID_2659_" class="st16" d="M294.6,111.6c-5.1-3.9,2-13.7,6.9-10.6C307,104.4,299.6,115.5,294.6,111.6z"/>
				<path id="XMLID_2656_" class="st4" d="M267.1,89.1c0,0-2.1,5.9-4.8,10.4c-2.5,4.1-4.4,5.1-4.9,6.1c-1.5,3.4,11.9,6.4,11.9,6.4
					L267.1,89.1z"/>
				<path id="XMLID_2655_" class="st16" d="M265.2,110.2c0.7-0.8-1.5-1.9-3.6-3.1c-1.6-0.8-3.1-2.1-3.8-1.4
					C256.1,107.4,264.6,111,265.2,110.2z"/>
				<g id="XMLID_2653_">
					<path id="XMLID_2654_" class="st17" d="M299.2,91.4c1.2,0.2,2.4-0.2,3.7-0.6c2.3-0.7,4.6-1.4,7.1,0.8c1.6,1.4,3.7,1.6,5.5,0.7
						c2-1.1,3-3.4,2.6-6.3l-0.7,0.1c0.3,2.6-0.5,4.6-2.3,5.6c-1.5,0.8-3.3,0.6-4.7-0.6c-2.8-2.5-5.5-1.6-7.8-0.9
						c-1.8,0.5-3.3,1-4.7,0c-1.6-1.2-1.7-3.2-1.8-5.3c-0.1-2-0.2-4-1.8-4.9c-1.5-0.8-4.3-1-7.5-1.2c-3.7-0.2-7.9-0.5-10.5-1.9
						c-4.5-2.4-3.7-9.7-3.7-9.8l-0.7-0.1c0,0.3-0.9,7.9,4.1,10.5c2.7,1.4,7,1.7,10.8,2c3,0.2,5.9,0.4,7.2,1.1
						c1.3,0.7,1.4,2.4,1.5,4.3c0.1,2.1,0.2,4.4,2.1,5.8C298.1,91.1,298.6,91.3,299.2,91.4z"/>
				</g>
				<g id="XMLID_2651_">
					<path id="XMLID_2652_" class="st9" d="M267,119.2c3.4,0.5,6.1-2.4,6.2-2.6l-1-1c0,0-2.3,2.5-5,2.1c-2.5-0.3-2.8-3.6-2.8-3.8
						l-1.4,0.1C263,114.4,263.4,118.7,267,119.2z"/>
				</g>
				<path id="XMLID_2650_" class="st14" d="M245,287.4c-3.8-5.7,5.7-19.3,10.2-28.7c4.5-9.4,8.7-20.4,8.7-25.5
					c0-10.5-2.6-14.9-5.7-19c-3.1-4.1-9.6-13.3,2.6-29.5c1.2-1.6-1.1-30.1,2.4-34.9s19.1-6.6,36.6-4.7c17.5,1.9,27.9,6.4,31.6,17.2
					c3.8,10.9,6.6,30.9,2.6,46.3c-4,15.3-13,42.3-13,48.9c0,6.6,8.9,27,8.9,36.4c0,2.6-1.2,9.7-14.8,10.6c-20.1,1.4-27-4.5-45.9-9.1
					C260,293,248.7,293.1,245,287.4z"/>
				<path id="XMLID_2649_" class="st18" d="M327.8,556.1c2.4-4,5.2-65.6,2.1-85.4c-3.8-24.9-19.6-48.8-20.3-49.8l-0.5-0.7l-0.8-0.3
					c-0.3-0.1-6.8-2.8-13.4-2.8c-8.2,0-13.2,4.1-14.1,11.7c-1.6,13.5,13.9,118.5,15.3,123.7C297.4,557,323,564.1,327.8,556.1z"/>
				<g id="XMLID_2645_">
					<path id="XMLID_2646_" class="st19" d="M299.6,126c-0.9,0.8-1.9,1.2-2.9,1.2c-1.5,0-2.9-0.8-3.9-2.2c-1-1.4-1.5-3.2-1.5-5.1
						c0-2.5,0.9-4.8,2.4-6.1c0.9-0.8,1.9-1.2,2.9-1.2c1.5,0,2.9,0.8,3.9,2.2c1,1.4,1.5,3.2,1.5,5.1C302,122.4,301.1,124.7,299.6,126
						z M294.6,114.9c-1.2,1.1-1.9,3-1.9,5c0,1.6,0.4,3.1,1.2,4.2c0.7,1,1.7,1.6,2.7,1.6c0.7,0,1.4-0.3,2-0.8c1.2-1.1,1.9-3,1.9-5
						c0-1.6-0.4-3.1-1.2-4.2c-0.7-1-1.7-1.6-2.7-1.6C295.9,114.1,295.2,114.3,294.6,114.9z"/>
				</g>
				<path id="XMLID_2644_" class="st18" d="M306,557.8c0,0,16.2,4.9,25.7-2.3c5.5-4.2,3.6-9.4,2.2-14.9c-1.4-5.5-4.1-9.2-2.8-15
					c1.2-5.8,3.2-13.3,4.2-22.1c1-8.9-3.2-28.7-6.3-35.2c-3.1-6.6-23.3,25.8-17,48.9C318.3,540.1,306,557.8,306,557.8z"/>
				<g id="XMLID_2642_">
					<path id="XMLID_2643_" class="st20" d="M264.2,320.7c-11-10.3-6.9-24.4-6.9-24.5l1.3,0.4c0,0.1-3.8,13.4,6.5,23.1L264.2,320.7z
						"/>
				</g>
				<g id="XMLID_2640_">
					<path id="XMLID_2641_" class="st20" d="M311.2,424.5c-3.8-3.1-10-1.2-10-1.2l-0.4-1.3c0.3-0.1,6.9-2.1,11.3,1.5L311.2,424.5z"
						/>
				</g>
				<g id="XMLID_2638_">
					
						<rect id="XMLID_2639_" x="280.8" y="447.3" transform="matrix(0.7268 0.6869 -0.6869 0.7268 385.1888 -72.2575)" class="st20" width="5.2" height="1.4"/>
				</g>
				<g id="XMLID_2636_">
					<path id="XMLID_2637_" class="st21" d="M316.5,557.5c-11.7,0-20.9-6.2-21.1-6.3l0.8-1.1c0.2,0.1,20.7,13.9,38.7-0.5l0.9,1.1
						C329.3,555.8,322.6,557.5,316.5,557.5z"/>
				</g>
				<path id="XMLID_2633_" class="st13" d="M297.2,261.1c2.1,0,3.7-1,3.7-2.3s-1.6-2.3-3.7-2.3c-2.1,0-3.7,1-3.7,2.3
					S295,261.1,297.2,261.1z M297.2,257.7c1.6,0,2.6,0.7,2.6,1.1s-1,1.1-2.6,1.1c-1.6,0-2.6-0.7-2.6-1.1S295.6,257.7,297.2,257.7z"
					/>
				<path id="XMLID_2632_" class="st13" d="M291.4,286.6c-0.9,0.2-1,1.2-1.2,2.1c0,0.3-0.1,1-0.3,1.1c-0.2,0.1-0.5-0.4-0.8-0.7
					c-0.3-0.4-0.7-0.9-1.2-1c-0.9-0.3-1.8,0.2-2.1,0.5l0.9,1c0,0,0.4-0.3,0.7-0.2c0.1,0,0.4,0.4,0.6,0.6c0.5,0.6,1.2,1.5,2.2,1.1
					c0.2-0.1,0.3-0.1,0.5-0.2c0.5-0.4,0.7-1.3,0.8-2c0-0.3,0.1-0.8,0.1-0.9c0.3-0.1,0.5,0,0.4,0l1-1
					C293,286.8,292.5,286.3,291.4,286.6z"/>
				<path id="XMLID_2631_" class="st13" d="M300.1,273.5c0.6-0.4,0.9-0.8,1.1-1.2c0.2-0.5,0.5-1,1.6-1.6l-0.7-1.2
					c-1.5,0.8-1.9,1.6-2.2,2.2c-0.2,0.3-0.2,0.5-0.5,0.6c-0.7,0.4-1.4-0.1-1.5-0.1l-0.8,1.1c0,0,0.7,0.5,1.6,0.5
					C299.2,273.9,299.6,273.8,300.1,273.5z"/>
				<path id="XMLID_2630_" class="st13" d="M304.1,294.3c0.6-0.4,0.9-0.8,1.1-1.2c0.2-0.5,0.5-1,1.6-1.6l-0.7-1.2
					c-1.5,0.8-1.9,1.6-2.2,2.2c-0.2,0.3-0.2,0.5-0.5,0.6c-0.7,0.4-1.4-0.1-1.5-0.1l-0.8,1.1c0,0,0.7,0.5,1.6,0.5
					C303.2,294.6,303.7,294.5,304.1,294.3z"/>
				<path id="XMLID_2627_" class="st13" d="M309,159.4c-2.1,0-3.7,1-3.7,2.3c0,1.3,1.6,2.3,3.7,2.3c2.1,0,3.7-1,3.7-2.3
					C312.7,160.3,311.1,159.4,309,159.4z M309,162.7c-1.6,0-2.6-0.7-2.6-1.1c0-0.5,1-1.1,2.6-1.1c1.6,0,2.6,0.7,2.6,1.1
					C311.6,162.1,310.6,162.7,309,162.7z"/>
				<path id="XMLID_2626_" class="st13" d="M329.4,204.6c0,1.3,1.6,2.3,3.7,2.3c0.4,0,0.9-0.1,1.2-0.1c0.1-0.4,0.2-0.8,0.3-1.3
					c-0.4,0.1-0.9,0.2-1.5,0.2c-1.6,0-2.6-0.7-2.6-1.1c0-0.5,1-1.1,2.6-1.1c0.7,0,1.4,0.2,1.8,0.4c0.1-0.4,0.1-0.8,0.2-1.2
					c-0.6-0.2-1.3-0.3-2-0.3C331,202.3,329.4,203.3,329.4,204.6z"/>
				<path id="XMLID_2625_" class="st13" d="M245.1,282.9c0.9,0.7,2,1.2,2.9,1.2c0.6,0,1.1-0.2,1.5-0.6c0.4-0.5,0.5-1.3,0.1-2.1
					c-0.3-0.7-0.9-1.4-1.6-2c-0.8-0.7-1.8-1.1-2.6-1.1c-0.1,0.4-0.3,0.8-0.4,1.1c0,0,0.1,0,0.1,0c0.6,0,1.4,0.4,2.1,0.9
					c0.6,0.5,1,1,1.3,1.5c0.2,0.4,0.2,0.7,0.1,0.9c-0.1,0.2-0.4,0.2-0.6,0.2c-0.6,0-1.4-0.4-2.1-0.9c-0.6-0.5-1-1-1.2-1.5
					c-0.1,0.5-0.3,1.1-0.3,1.6C244.5,282.4,244.8,282.7,245.1,282.9z"/>
				<path id="XMLID_2624_" class="st13" d="M309.9,235.6l0.3-1.4c-1.7-0.4-2.5,0-3.1,0.2c-0.3,0.1-0.5,0.2-0.8,0.1c-0.8-0.2-1-1-1-1
					l-1.3,0.3c0,0,0.2,0.8,0.9,1.4c0.3,0.3,0.7,0.5,1.2,0.6c0.7,0.2,1.2,0,1.6-0.2C308.2,235.5,308.7,235.3,309.9,235.6z"/>
				<path id="XMLID_2621_" class="st13" d="M278.3,233.7c2.1,0,3.7-1,3.7-2.3s-1.6-2.3-3.7-2.3c-2.1,0-3.7,1-3.7,2.3
					S276.2,233.7,278.3,233.7z M278.3,230.3c1.6,0,2.6,0.7,2.6,1.1c0,0.5-1,1.1-2.6,1.1c-1.6,0-2.6-0.7-2.6-1.1
					C275.8,231,276.8,230.3,278.3,230.3z"/>
				<path id="XMLID_2618_" class="st13" d="M287.6,208.6c0-1.3-1.6-2.3-3.7-2.3c-2.1,0-3.7,1-3.7,2.3c0,1.3,1.6,2.3,3.7,2.3
					C286,210.8,287.6,209.9,287.6,208.6z M281.3,208.6c0-0.5,1-1.1,2.6-1.1c1.6,0,2.6,0.7,2.6,1.1c0,0.5-1,1.1-2.6,1.1
					C282.3,209.7,281.3,209,281.3,208.6z"/>
				<path id="XMLID_2617_" class="st13" d="M272.1,217.4c-0.2,0.3-0.2,0.5-0.5,0.6c-0.7,0.4-1.4-0.1-1.5-0.1l-0.8,1.1
					c0,0,0.7,0.5,1.6,0.5c0.4,0,0.8-0.1,1.3-0.3c0.6-0.4,0.9-0.8,1.1-1.2c0.2-0.5,0.5-1,1.6-1.6l-0.7-1.2
					C272.7,216,272.4,216.8,272.1,217.4z"/>
				<path id="XMLID_2616_" class="st13" d="M293.7,245.4c0.3,0,0.5,0.1,0.4,0l1.1-0.8c-0.1-0.1-0.6-0.7-1.7-0.6
					c-0.9,0.1-1.2,1.1-1.5,1.9c-0.1,0.3-0.3,1-0.4,1c-0.2,0-0.5-0.4-0.7-0.8c-0.3-0.5-0.6-1-1-1.2c-0.9-0.4-1.8-0.1-2.2,0.2l0.8,1.1
					c0,0,0.4-0.3,0.8-0.1c0.1,0.1,0.3,0.4,0.5,0.7c0.4,0.6,1,1.6,2.1,1.5c0.2,0,0.4-0.1,0.5-0.2c0.6-0.4,0.9-1.2,1.1-1.9
					C293.5,246,293.7,245.5,293.7,245.4z"/>
				<path id="XMLID_2615_" class="st13" d="M290.6,166.9c0.1,0.4,0.3,0.8,0.7,1.1c0.5,0.5,1.1,0.6,1.5,0.6c0.5,0.1,1,0.1,2,1l0.9-1
					c-1.3-1.2-2.1-1.3-2.7-1.4c-0.4-0.1-0.5-0.1-0.8-0.3c-0.6-0.6-0.4-1.4-0.4-1.4l-1.3-0.4C290.6,165.2,290.3,166,290.6,166.9z"/>
				<path id="XMLID_2614_" class="st13" d="M292.3,220.5c-0.9-0.4-1.8-0.1-2.2,0.2l0.8,1.1c0,0,0.4-0.3,0.8-0.1
					c0.1,0.1,0.3,0.4,0.5,0.7c0.4,0.6,1,1.6,2.1,1.5c0.2,0,0.4-0.1,0.5-0.2c0.6-0.4,0.9-1.2,1.1-1.9c0.1-0.3,0.2-0.8,0.3-0.9
					c0.3,0,0.5,0.1,0.4,0l1.1-0.8c-0.1-0.1-0.6-0.7-1.7-0.6c-0.9,0.1-1.2,1.1-1.5,1.9c-0.1,0.3-0.3,1-0.4,1c-0.2,0-0.5-0.4-0.7-0.8
					C293.1,221.2,292.8,220.7,292.3,220.5z"/>
				<path id="XMLID_2613_" class="st13" d="M293.5,153c0.7,0.2,1.2,0,1.6-0.2c0.5-0.2,1-0.4,2.2-0.1l0.3-1.4c-1.7-0.4-2.5,0-3.1,0.2
					c-0.3,0.1-0.5,0.2-0.8,0.1c-0.8-0.2-1-1-1-1l-1.3,0.3c0,0,0.2,0.8,0.9,1.4C292.6,152.7,293,152.9,293.5,153z"/>
				<path id="XMLID_2612_" class="st13" d="M278.8,267.4c0.1,0.1,0.3,0.2,0.4,0.3c0.7,0.2,1.4-0.1,2.1-0.3c0.3-0.1,0.8-0.3,0.9-0.4
					c0.2,0.2,0.2,0.4,0.2,0.3l1.3,0.4c0-0.1,0.2-0.9-0.6-1.6c-0.7-0.7-1.6-0.3-2.4,0c-0.3,0.1-0.9,0.4-1.1,0.3
					c-0.1-0.1,0.1-0.6,0.2-1c0.2-0.5,0.4-1,0.3-1.6c-0.2-0.9-1-1.4-1.5-1.6l-0.4,1.3c0,0,0.5,0.2,0.6,0.5c0,0.1-0.1,0.5-0.2,0.8
					C278.4,265.6,278,266.7,278.8,267.4z"/>
				<path id="XMLID_2609_" class="st13" d="M282.1,180.7c2.1,0,3.7-1,3.7-2.3c0-1.3-1.6-2.3-3.7-2.3c-2.1,0-3.7,1-3.7,2.3
					C278.3,179.7,279.9,180.7,282.1,180.7z M282.1,177.3c1.6,0,2.6,0.7,2.6,1.1c0,0.5-1,1.1-2.6,1.1c-1.6,0-2.6-0.7-2.6-1.1
					C279.5,178,280.5,177.3,282.1,177.3z"/>
				<path id="XMLID_2608_" class="st13" d="M286.9,191.8c0,0,0.5-0.2,0.8,0c0.1,0.1,0.2,0.5,0.3,0.7c0.3,0.7,0.6,1.8,1.7,1.8
					c0.2,0,0.4,0,0.5-0.1c0.7-0.2,1.1-1,1.4-1.6c0.1-0.3,0.4-0.8,0.4-0.8c0.3,0,0.4,0.2,0.4,0.1l1.3-0.6c-0.1-0.1-0.4-0.8-1.5-0.9
					c-0.9-0.1-1.4,0.8-1.8,1.6c-0.2,0.3-0.5,0.9-0.6,1c-0.2,0-0.4-0.5-0.5-0.9c-0.2-0.5-0.4-1-0.8-1.4c-0.8-0.6-1.7-0.4-2.2-0.2
					L286.9,191.8z"/>
				<path id="XMLID_2607_" class="st13" d="M271.1,252.1c0.7,0.2,1.2,0,1.6-0.2c0.5-0.2,1-0.4,2.2-0.1l0.3-1.4
					c-1.7-0.4-2.5,0-3.1,0.2c-0.3,0.1-0.5,0.2-0.8,0.1c-0.8-0.2-1-1-1-1l-1.3,0.3c0,0,0.2,0.8,0.9,1.4
					C270.2,251.8,270.6,252,271.1,252.1z"/>
				<path id="XMLID_2606_" class="st13" d="M263.1,265.7c-0.8-0.4-1.6,0.3-2.2,0.9c-0.3,0.2-0.7,0.7-0.9,0.7c-0.2-0.1-0.2-0.6-0.2-1
					c0-0.5,0-1.1-0.3-1.6c-0.5-0.8-1.5-1-2-0.9l0.1,1.4c0,0,0.5,0,0.7,0.3c0.1,0.1,0.1,0.5,0.1,0.8c0,0.7,0,1.9,1,2.3
					c0.2,0.1,0.4,0.1,0.5,0.1c0.7,0,1.3-0.6,1.9-1.1c0.2-0.2,0.6-0.6,0.7-0.6c0.3,0.1,0.4,0.3,0.3,0.2l1.4-0.1
					C264.2,266.9,264.1,266.1,263.1,265.7z"/>
				<path id="XMLID_2605_" class="st13" d="M263.4,236.8c-0.1,0.4-0.2,0.8-0.3,1.2c0.2,0,0.5-0.1,0.8-0.1c1.6,0,2.6,0.7,2.6,1.1
					c0,0.5-1,1.1-2.6,1.1c-0.5,0-0.9-0.1-1.3-0.2c-0.1,0.4-0.2,0.7-0.3,1.1c0.5,0.1,1,0.2,1.6,0.2c2.1,0,3.7-1,3.7-2.3
					c0-1.3-1.6-2.3-3.7-2.3C263.7,236.8,263.6,236.8,263.4,236.8z"/>
				<path id="XMLID_2604_" class="st13" d="M259.9,282l-0.6-0.3c0,0.1-0.7,1.6,0.3,2.9c0.5,0.6,1,0.7,1.4,0.9c0.5,0.1,1,0.3,1.8,1.3
					l1.1-0.9c-1.1-1.3-1.9-1.6-2.5-1.8c-0.4-0.1-0.5-0.2-0.7-0.4c-0.5-0.6-0.2-1.4-0.2-1.4L259.9,282z"/>
				<path id="XMLID_2601_" class="st13" d="M273.2,278.3c2.1,0,3.7-1,3.7-2.3s-1.6-2.3-3.7-2.3c-2.1,0-3.7,1-3.7,2.3
					S271,278.3,273.2,278.3z M273.2,275c1.6,0,2.6,0.7,2.6,1.1s-1,1.1-2.6,1.1c-1.6,0-2.6-0.7-2.6-1.1S271.6,275,273.2,275z"/>
				<path id="XMLID_2600_" class="st13" d="M326.3,233.3c-0.1,0.3-0.3,1-0.4,1c-0.2,0-0.5-0.4-0.7-0.8c-0.3-0.5-0.6-1-1-1.2
					c-0.9-0.4-1.8-0.1-2.2,0.2l0.8,1.1c0,0,0.4-0.3,0.8-0.1c0.1,0.1,0.3,0.4,0.5,0.7c0.4,0.6,1,1.6,2.1,1.5c0,0,0,0,0.1,0
					c0.4-1.4,0.8-2.8,1.2-4.2C326.8,231.8,326.5,232.6,326.3,233.3z"/>
				<path id="XMLID_2597_" class="st13" d="M323.9,297.9c-2.1,0-3.7,1-3.7,2.3c0,1.3,1.5,2.2,3.6,2.3c1.7-0.8,2.9-1.7,3.8-2.7
					C327.3,298.7,325.8,297.9,323.9,297.9z M323.9,301.3c-1.6,0-2.6-0.7-2.6-1.1c0-0.5,1-1.1,2.6-1.1c1.6,0,2.6,0.7,2.6,1.1
					C326.5,300.6,325.5,301.3,323.9,301.3z"/>
				<path id="XMLID_2596_" class="st13" d="M315.9,264.6l1.3,0.4c0-0.1,0.2-0.9-0.6-1.6c-0.7-0.7-1.6-0.3-2.4,0
					c-0.3,0.1-0.9,0.4-1.1,0.3c-0.1-0.1,0.1-0.6,0.2-1c0.2-0.5,0.4-1,0.3-1.6c-0.2-0.9-1-1.4-1.5-1.6l-0.4,1.3c0,0,0.5,0.2,0.6,0.5
					c0,0.1-0.1,0.5-0.2,0.8c-0.3,0.7-0.7,1.8,0.2,2.5c0.1,0.1,0.3,0.2,0.4,0.3c0.7,0.2,1.4-0.1,2.1-0.3c0.3-0.1,0.8-0.3,0.9-0.4
					C315.9,264.5,315.9,264.7,315.9,264.6z"/>
				<path id="XMLID_2593_" class="st13" d="M314.6,279.2c0-1.3-1.6-2.3-3.7-2.3c-2.1,0-3.7,1-3.7,2.3c0,1.3,1.6,2.3,3.7,2.3
					C313,281.5,314.6,280.5,314.6,279.2z M308.3,279.2c0-0.5,1-1.1,2.6-1.1s2.6,0.7,2.6,1.1c0,0.5-1,1.1-2.6,1.1
					S308.3,279.7,308.3,279.2z"/>
				<path id="XMLID_2592_" class="st13" d="M298.8,206.2c0,0-0.2,0.8,0,1.7c0.1,0.4,0.3,0.8,0.7,1.1c0.5,0.5,1.1,0.6,1.5,0.6
					c0.5,0.1,1,0.1,2,1l0.9-1c-1.3-1.2-2.1-1.3-2.7-1.4c-0.4-0.1-0.5-0.1-0.8-0.3c-0.6-0.6-0.4-1.4-0.4-1.4L298.8,206.2z"/>
				<path id="XMLID_2591_" class="st13" d="M274.2,213.8c0.7-4.1,3.2-8.2,6-16.6c2.7-8.4,0.9-17.4,0.9-17.4s-12.3,6.5-27.3,22.6
					c0.1,5.6,2.8,9.4,4.5,11.7c3.1,4.1,5.7,8.5,5.7,19c0,4.6-3.5,14-7.5,22.8c10.1-2.5,13.8-9.1,15.7-14.6
					C275.2,232.6,273.4,218,274.2,213.8z"/>
				<path id="XMLID_2590_" class="st13" d="M322.4,212.6c0.3,0,0.4,0.2,0.4,0.1l1.3-0.6c-0.1-0.1-0.4-0.8-1.5-0.9
					c-0.9-0.1-1.4,0.8-1.8,1.6c-0.2,0.3-0.5,0.9-0.6,1c-0.2,0-0.4-0.5-0.5-0.9c-0.2-0.5-0.4-1-0.8-1.4c-0.8-0.6-1.7-0.4-2.2-0.2
					l0.6,1.3c0,0,0.5-0.2,0.8,0c0.1,0.1,0.2,0.5,0.3,0.7c0.3,0.7,0.6,1.8,1.7,1.8c0.2,0,0.4,0,0.5-0.1c0.7-0.2,1.1-1,1.4-1.6
					C322.1,213.1,322.3,212.6,322.4,212.6z"/>
				<path id="XMLID_2589_" class="st13" d="M323.1,280.1c0.6-0.4,0.9-0.8,1.1-1.2c0.2-0.5,0.5-1,1.6-1.6l-0.7-1.2
					c-1.5,0.8-1.9,1.6-2.2,2.2c-0.2,0.3-0.2,0.5-0.5,0.6c-0.7,0.4-1.4-0.1-1.5-0.1l-0.8,1.1c0,0,0.7,0.5,1.6,0.5
					C322.2,280.4,322.6,280.3,323.1,280.1z"/>
				<path id="XMLID_2586_" class="st13" d="M316.4,250.7c2.1,0,3.7-1,3.7-2.3c0-1.3-1.6-2.3-3.7-2.3c-2.1,0-3.7,1-3.7,2.3
					C312.7,249.7,314.3,250.7,316.4,250.7z M316.4,247.3c1.6,0,2.6,0.7,2.6,1.1c0,0.5-1,1.1-2.6,1.1c-1.6,0-2.6-0.7-2.6-1.1
					C313.9,247.9,314.9,247.3,316.4,247.3z"/>
				<path id="XMLID_2585_" class="st13" d="M303.1,175.1l0.2,1.4c0,0,0.5,0,0.7,0.3c0.1,0.1,0.1,0.5,0.1,0.8c0,0.7,0.1,1.9,1.2,2.2
					c0.2,0.1,0.4,0.1,0.5,0.1c0.7,0,1.3-0.7,1.8-1.2c0.2-0.2,0.6-0.6,0.6-0.7c0.3,0.1,0.4,0.3,0.4,0.2l1.4-0.2
					c0-0.1-0.2-0.9-1.2-1.3c-0.9-0.3-1.6,0.4-2.1,1c-0.2,0.3-0.7,0.7-0.8,0.7c-0.2-0.1-0.2-0.6-0.2-1c0-0.5-0.1-1.1-0.4-1.5
					C304.5,175.2,303.6,175.1,303.1,175.1z"/>
				<path id="XMLID_2582_" class="st13" d="M306.1,196.5c0,1.3,1.6,2.3,3.7,2.3c2.1,0,3.7-1,3.7-2.3c0-1.3-1.6-2.3-3.7-2.3
					C307.7,194.2,306.1,195.2,306.1,196.5z M312.4,196.5c0,0.5-1,1.1-2.6,1.1c-1.6,0-2.6-0.7-2.6-1.1c0-0.5,1-1.1,2.6-1.1
					C311.4,195.4,312.4,196,312.4,196.5z"/>
				<path id="XMLID_2579_" class="st13" d="M316.4,224.4c0-1.3-1.6-2.3-3.7-2.3c-2.1,0-3.7,1-3.7,2.3c0,1.3,1.6,2.3,3.7,2.3
					C314.8,226.7,316.4,225.7,316.4,224.4z M310.2,224.4c0-0.5,1-1.1,2.6-1.1c1.6,0,2.6,0.7,2.6,1.1c0,0.5-1,1.1-2.6,1.1
					C311.2,225.6,310.2,224.9,310.2,224.4z"/>
				<path id="XMLID_2578_" class="st13" d="M323.7,153.3c-0.1,0.3-0.3,1-0.4,1c-0.2,0-0.5-0.4-0.7-0.8c-0.3-0.5-0.6-1-1-1.2
					c-0.9-0.4-1.8-0.1-2.2,0.2l0.8,1.1c0,0,0.4-0.3,0.8-0.1c0.1,0.1,0.3,0.4,0.5,0.7c0.4,0.6,1,1.6,2.1,1.5c0.2,0,0.4-0.1,0.5-0.2
					c0.6-0.4,0.9-1.2,1.1-1.9c0-0.2,0.1-0.4,0.2-0.5c-0.4-0.3-0.7-0.6-1.1-0.9C323.9,152.6,323.8,153,323.7,153.3z"/>
				<path id="XMLID_2577_" class="st13" d="M332.2,164.8c-0.2-0.7-0.4-1.3-0.6-1.9c-0.5-0.2-1-0.3-1.3-0.4c-0.4-0.1-0.5-0.1-0.8-0.3
					c-0.6-0.6-0.4-1.4-0.4-1.4l-1.3-0.4c0,0-0.2,0.8,0,1.7c0.1,0.4,0.3,0.8,0.7,1.1c0.5,0.5,1.1,0.6,1.5,0.6c0.5,0.1,1,0.1,2,1
					L332.2,164.8z"/>
				<path id="XMLID_2574_" class="st13" d="M330.4,175.1c0-1.3-1.6-2.3-3.7-2.3c-2.1,0-3.7,1-3.7,2.3s1.6,2.3,3.7,2.3
					C328.8,177.4,330.4,176.4,330.4,175.1z M326.7,176.2c-1.6,0-2.6-0.7-2.6-1.1c0-0.5,1-1.1,2.6-1.1c1.6,0,2.6,0.7,2.6,1.1
					C329.2,175.6,328.2,176.2,326.7,176.2z"/>
				<path id="XMLID_2573_" class="st13" d="M327.4,194.6l0.9-1c-1.3-1.2-2.1-1.3-2.7-1.4c-0.4-0.1-0.5-0.1-0.8-0.3
					c-0.6-0.6-0.4-1.4-0.4-1.4l-1.3-0.4c0,0-0.2,0.8,0,1.7c0.1,0.4,0.3,0.8,0.7,1.1c0.5,0.5,1.1,0.6,1.5,0.6
					C326,193.7,326.5,193.8,327.4,194.6z"/>
				<path id="XMLID_2572_" class="st14" d="M277.1,146.1c-7.3-2.2-15,2-17.2,9.4l-20.4,69.2l-46-8.6c-4.6-0.9-10,18.6-3.3,21.9
					c6.7,3.3,50.5,18.5,50.5,18.5c0.9,0.4,2,0.7,3,0.9c7.5,1.4,14.7-2.7,17.4-9.5c0.6-1,1.1-2.1,1.5-3.3l24-81.2
					C288.6,155.9,284.4,148.2,277.1,146.1z"/>
				<g id="XMLID_2530_">
					<path id="XMLID_2571_" class="st13" d="M209.1,230.8c0,0-0.6,0.7-0.6,1.6c0,0.4,0,0.8,0.2,1.3c0.3,0.7,0.7,1,1.1,1.2
						c0.4,0.3,0.9,0.6,1.4,1.7l1.3-0.5c-0.7-1.6-1.4-2-1.9-2.4c-0.3-0.2-0.5-0.3-0.6-0.6c-0.3-0.7,0.2-1.4,0.2-1.4L209.1,230.8z"/>
					<path id="XMLID_2570_" class="st13" d="M197.8,240c0.4-0.4,0.8-0.8,0.9-1.3c0.2-0.9-0.4-1.7-0.7-2l-0.9,1c0,0,0.4,0.3,0.3,0.7
						c0,0.1-0.3,0.4-0.5,0.6c-0.3,0.3-0.8,0.8-0.9,1.3c0.4,0.2,0.9,0.3,1.3,0.5C197.2,240.6,197.6,240.3,197.8,240z"/>
					<path id="XMLID_2569_" class="st13" d="M284.9,154.2c-0.8,0-1.2-0.8-1.2-0.8l-1.2,0.6c0,0,0.4,0.8,1.2,1.2
						c0.3,0.2,0.8,0.3,1.3,0.4c0.7,0,1.1-0.3,1.5-0.5c-0.1-0.5-0.3-0.9-0.5-1.3c-0.1,0-0.1,0.1-0.2,0.1
						C285.3,154.1,285.2,154.2,284.9,154.2z"/>
					<path id="XMLID_2566_" class="st13" d="M201.5,219.2c-1.1,0.7-1.1,2.5,0,4.4c1.1,1.8,2.8,2.7,3.9,2c1.1-0.7,1.1-2.5,0-4.4
						C204.3,219.4,202.6,218.5,201.5,219.2z M204.8,224.6c-0.4,0.2-1.5-0.3-2.3-1.6c-0.8-1.3-0.8-2.5-0.4-2.8
						c0.4-0.2,1.5,0.3,2.3,1.6C205.2,223.1,205.2,224.3,204.8,224.6z"/>
					<path id="XMLID_2565_" class="st13" d="M194.3,228.2c0.5,0.5,1.1,0.6,1.5,0.6c0.5,0.1,1,0.1,2,1l0.9-1
						c-1.3-1.2-2.1-1.3-2.7-1.4c-0.4-0.1-0.5-0.1-0.8-0.3c-0.6-0.6-0.4-1.4-0.4-1.4l-1.3-0.4c0,0-0.2,0.8,0,1.7
						C193.7,227.4,194,227.8,194.3,228.2z"/>
					<path id="XMLID_2564_" class="st13" d="M231.1,246.3c-0.8-0.1-1.2-0.8-1.2-0.9l-1.3,0.5c0,0,0.3,0.8,1.1,1.3
						c0.3,0.2,0.7,0.4,1.3,0.4c0.7,0.1,1.2-0.2,1.6-0.4c0.4-0.3,0.9-0.5,2.2-0.5l0.1-1.4c-1.7-0.1-2.5,0.3-3,0.6
						C231.6,246.2,231.4,246.3,231.1,246.3z"/>
					<path id="XMLID_2561_" class="st13" d="M237.1,230.3c0.2-1.3-1.2-2.5-3.3-2.9c-2.1-0.4-3.8,0.3-4.1,1.6
						c-0.2,1.3,1.2,2.5,3.3,2.9C235.1,232.3,236.8,231.6,237.1,230.3z M233.2,230.8c-1.5-0.3-2.4-1.1-2.3-1.5
						c0.1-0.4,1.2-0.9,2.7-0.6c1.5,0.3,2.4,1.1,2.3,1.5C235.8,230.6,234.7,231,233.2,230.8z"/>
					<path id="XMLID_2560_" class="st13" d="M219.8,221.6c0,0,0.4,0.3,0.3,0.7c0,0.1-0.3,0.4-0.5,0.6c-0.5,0.5-1.3,1.3-0.9,2.4
						c0.1,0.2,0.2,0.3,0.3,0.4c0.5,0.5,1.4,0.5,2.1,0.5c0.3,0,0.9,0,0.9,0c0.1,0.3,0.1,0.5,0.1,0.4l1.1,0.9c0.1-0.1,0.5-0.7,0.1-1.7
						c-0.3-0.9-1.4-0.9-2.2-0.9c-0.3,0-1,0-1.1-0.1c-0.1-0.2,0.3-0.6,0.6-0.9c0.4-0.4,0.8-0.8,0.9-1.3c0.1-0.6,0-1-0.3-1.4l-0.9-0.2
						L219.8,221.6z"/>
					<path id="XMLID_2559_" class="st13" d="M200.5,241.9c-0.3-0.9-1.4-0.9-2.2-0.9c-0.2,0-0.6,0-0.9-0.1c1,0.4,2,0.8,3.1,1.2
						C200.6,242,200.6,242,200.5,241.9z"/>
					<path id="XMLID_2556_" class="st13" d="M215.7,242.3c-1.7,1.3-2.2,3.2-1.3,4.4c0.9,1.2,2.9,1,4.5-0.3c1.7-1.3,2.2-3.2,1.3-4.4
						C219.3,240.9,217.3,241,215.7,242.3z M219.3,242.8c0.3,0.4,0,1.6-1.2,2.6c-1.2,1-2.5,1-2.8,0.6c-0.3-0.4,0-1.6,1.2-2.6
						C217.7,242.4,219,242.4,219.3,242.8z"/>
					<path id="XMLID_2555_" class="st13" d="M245,246.3c0.2-0.3,0.5-0.7,0.6-0.7c0.3,0.1,0.4,0.2,0.4,0.2l1.3-0.4
						c0-0.1-0.3-0.8-1.3-1.1c-0.9-0.3-1.5,0.6-2,1.2c-0.2,0.3-0.6,0.8-0.8,0.8c-0.2,0-0.3-0.6-0.3-1c-0.1-0.5-0.2-1.1-0.5-1.5
						c-0.7-0.7-1.6-0.7-2.1-0.6l0.3,1.3c0,0,0.5-0.1,0.8,0.2c0.1,0.1,0.2,0.5,0.2,0.8c0.1,0.7,0.3,1.9,1.4,2.1c0.2,0,0.4,0,0.5,0
						C244.1,247.5,244.6,246.8,245,246.3z"/>
					<path id="XMLID_2554_" class="st13" d="M259.8,243.1c-2.1,0.4-3.5,1.6-3.3,2.9s2,2,4.1,1.6c0.2,0,0.4-0.1,0.5-0.1
						c0.3-0.5,0.6-1,0.8-1.6c-0.4,0.2-0.9,0.4-1.5,0.5c-1.5,0.3-2.6-0.2-2.7-0.7c-0.1-0.4,0.8-1.3,2.3-1.5c1.1-0.2,2,0,2.4,0.3
						c0,0,0-0.1,0.1-0.1l0.3-1C262,243.1,261,242.9,259.8,243.1z"/>
					<path id="XMLID_2553_" class="st13" d="M247.8,256.2c0.7,0.3,1.2,0.2,1.6,0.1c0.5-0.1,1-0.2,2.2,0.3l0.6-1.3
						c-1.6-0.7-2.4-0.5-3-0.4c-0.4,0.1-0.5,0.1-0.8,0c-0.7-0.3-0.8-1.2-0.8-1.2l-1.4,0.1c0,0,0.1,0.9,0.6,1.6
						C247,255.7,247.4,256,247.8,256.2z"/>
					<path id="XMLID_2552_" class="st13" d="M247.4,202.1c0.2,0,0.4-0.1,0.5-0.2c0.6-0.4,0.9-1.2,1.1-1.9c0.1-0.3,0.2-0.8,0.3-0.9
						c0.3,0,0.5,0.1,0.4,0l1.1-0.8c-0.1-0.1-0.6-0.7-1.7-0.6c-0.9,0.1-1.2,1.1-1.5,1.9c-0.1,0.3-0.3,1-0.4,1c-0.1,0-0.3-0.3-0.5-0.5
						l-0.5,1.6C246.5,202.1,246.9,202.2,247.4,202.1z"/>
					<path id="XMLID_2549_" class="st13" d="M263,177c2.1,0,3.7-1,3.7-2.3c0-1.3-1.6-2.3-3.7-2.3c-2.1,0-3.7,1-3.7,2.3
						C259.3,176,260.9,177,263,177z M263,173.6c1.6,0,2.6,0.7,2.6,1.1c0,0.5-1,1.1-2.6,1.1c-1.6,0-2.6-0.7-2.6-1.1
						C260.5,174.3,261.5,173.6,263,173.6z"/>
					<path id="XMLID_2548_" class="st13" d="M274.1,199.7c-0.4,0.1-0.5,0.1-0.8,0c-0.7-0.3-0.8-1.2-0.8-1.2l-1.4,0.1
						c0,0,0.1,0.9,0.6,1.6c0.2,0.3,0.6,0.6,1,0.8c0.7,0.3,1.2,0.2,1.6,0.1c0.3-0.1,0.5-0.1,0.9-0.1l0.4-1.3
						C275,199.5,274.5,199.6,274.1,199.7z"/>
					<path id="XMLID_2547_" class="st13" d="M275.8,169.7c0,0-0.2,0.8,0,1.7c0.1,0.4,0.3,0.8,0.7,1.1c0.5,0.5,1.1,0.6,1.5,0.6
						c0.5,0.1,1,0.1,2,1l0.9-1c-1.3-1.2-2.1-1.3-2.7-1.4c-0.4-0.1-0.5-0.1-0.8-0.3c-0.6-0.6-0.4-1.4-0.4-1.4L275.8,169.7z"/>
					<path id="XMLID_2546_" class="st13" d="M264.5,162.4c-0.1,0.3-0.3,1-0.4,1c-0.2,0-0.5-0.4-0.7-0.8c-0.3-0.5-0.6-1-1-1.2
						c-0.9-0.4-1.8-0.1-2.2,0.2l0.8,1.1c0,0,0.4-0.3,0.8-0.1c0.1,0.1,0.3,0.4,0.5,0.7c0.4,0.6,1,1.6,2.1,1.5c0.2,0,0.4-0.1,0.5-0.2
						c0.6-0.4,0.9-1.2,1.1-1.9c0.1-0.3,0.2-0.8,0.3-0.9c0.3,0,0.5,0.1,0.4,0l1.1-0.8c-0.1-0.1-0.6-0.7-1.7-0.6
						C265,160.6,264.7,161.6,264.5,162.4z"/>
					<path id="XMLID_2543_" class="st13" d="M274.2,160.5c0,1.3,1.6,2.3,3.7,2.3c2.1,0,3.7-1,3.7-2.3c0-1.3-1.6-2.3-3.7-2.3
						C275.8,158.2,274.2,159.2,274.2,160.5z M277.9,159.4c1.6,0,2.6,0.7,2.6,1.1c0,0.5-1,1.1-2.6,1.1c-1.6,0-2.6-0.7-2.6-1.1
						C275.3,160,276.3,159.4,277.9,159.4z"/>
					<path id="XMLID_2542_" class="st13" d="M259.4,199.5c0.1,0.1,0.2,0.5,0.3,0.7c0.2,0.7,0.6,1.8,1.7,1.9c0.2,0,0.4,0,0.5-0.1
						c0.7-0.2,1.1-1,1.4-1.6c0.2-0.3,0.4-0.7,0.5-0.8c0.3,0,0.4,0.2,0.4,0.1l1.3-0.5c-0.1-0.1-0.4-0.8-1.5-0.9
						c-0.9-0.1-1.4,0.8-1.8,1.5c-0.2,0.3-0.5,0.9-0.6,0.9c-0.2,0-0.4-0.5-0.5-0.9c-0.2-0.5-0.3-1.1-0.7-1.4
						c-0.7-0.6-1.7-0.5-2.2-0.3l0.5,1.3C258.6,199.5,259.1,199.3,259.4,199.5z"/>
					<path id="XMLID_2541_" class="st13" d="M253,187.8c0.7,0.3,1.2,0.2,1.6,0.1c0.5-0.1,1-0.2,2.2,0.3l0.6-1.3
						c-1.6-0.7-2.4-0.5-3-0.4c-0.4,0.1-0.5,0.1-0.8,0c-0.7-0.3-0.8-1.2-0.8-1.2l-1.4,0.1c0,0,0.1,0.9,0.6,1.6
						C252.2,187.3,252.6,187.6,253,187.8z"/>
					<path id="XMLID_2540_" class="st13" d="M246.2,232.2c0.2,0.3,0.6,0.6,1,0.8c0.7,0.3,1.2,0.2,1.6,0.1c0.5-0.1,1-0.2,2.2,0.3
						l0.6-1.3c-1.6-0.7-2.4-0.5-3-0.4c-0.4,0.1-0.5,0.1-0.8,0c-0.7-0.3-0.8-1.2-0.8-1.2l-1.4,0.1
						C245.6,230.7,245.6,231.5,246.2,232.2z"/>
					<path id="XMLID_2539_" class="st13" d="M247.7,216.2c-0.2-0.9-1.1-1.4-1.6-1.5l-0.4,1.3c0,0,0.5,0.1,0.6,0.5
						c0,0.1-0.1,0.5-0.2,0.8c-0.2,0.7-0.6,1.8,0.2,2.5c0.1,0.1,0.3,0.2,0.5,0.3c0.7,0.2,1.4-0.1,2.1-0.4c0.3-0.1,0.8-0.4,0.8-0.4
						c0.2,0.2,0.2,0.4,0.3,0.3l1.4,0.3c0-0.1,0.1-0.9-0.7-1.6c-0.7-0.6-1.6-0.2-2.4,0.1c-0.3,0.1-0.9,0.4-1.1,0.4
						c-0.1-0.1,0-0.6,0.2-1C247.7,217.2,247.8,216.7,247.7,216.2z"/>
					<path id="XMLID_2538_" class="st13" d="M263.9,154.1c2.1,0,3.7-1,3.7-2.3s-1.6-2.3-3.7-2.3c-0.2,0-0.4,0-0.6,0
						c-0.5,0.5-0.9,1-1.3,1.5c0.4-0.2,1.1-0.4,1.9-0.4c1.6,0,2.6,0.7,2.6,1.1c0,0.5-1,1.1-2.6,1.1c-1.3,0-2.3-0.5-2.5-0.9
						c-0.2,0.4-0.4,0.7-0.6,1.1C261.5,153.7,262.6,154.1,263.9,154.1z"/>
					<path id="XMLID_2535_" class="st13" d="M266.8,217.5c0.8-1,0.2-2.8-1.5-4.1c-1.6-1.3-3.5-1.6-4.3-0.6c-0.8,1-0.2,2.8,1.5,4.1
						C264.1,218.3,266,218.5,266.8,217.5z M263.2,216c-1.2-1-1.6-2.1-1.3-2.5c0.3-0.4,1.5-0.2,2.7,0.8c1.2,1,1.6,2.1,1.3,2.5
						C265.6,217.2,264.4,217,263.2,216z"/>
					<path id="XMLID_2534_" class="st13" d="M258.3,228.7c0.1,0.1,0.2,0.5,0.3,0.7c0.2,0.7,0.6,1.8,1.7,1.9c0.2,0,0.4,0,0.5-0.1
						c0.7-0.2,1.1-1,1.4-1.6c0.2-0.3,0.4-0.7,0.5-0.8c0.3,0,0.4,0.2,0.4,0.1l1.3-0.5c-0.1-0.1-0.4-0.8-1.5-0.9
						c-0.9-0.1-1.4,0.8-1.8,1.5c-0.2,0.3-0.5,0.9-0.6,0.9c-0.2,0-0.4-0.5-0.5-0.9c-0.2-0.5-0.3-1.1-0.7-1.4
						c-0.7-0.6-1.7-0.5-2.2-0.3l0.5,1.3C257.5,228.6,258,228.5,258.3,228.7z"/>
					<path id="XMLID_2531_" class="st13" d="M272.6,190.9c0.7-1.1-0.1-2.8-1.9-3.9c-1.8-1.2-3.7-1.2-4.4-0.1
						c-0.7,1.1,0.1,2.8,1.9,3.9C270,192,271.9,192,272.6,190.9z M267.3,187.5c0.2-0.4,1.4-0.4,2.8,0.5c1.3,0.9,1.8,1.9,1.5,2.3
						c-0.2,0.4-1.4,0.4-2.8-0.5C267.5,189,267,187.9,267.3,187.5z"/>
				</g>
				<g id="XMLID_2528_">
					<path id="XMLID_2529_" class="st13" d="M188,237.3c-2-16.4,4.8-21.6,5.1-21.8l0.8,1.1l-0.4-0.6l0.4,0.6c-0.1,0-6.4,5-4.5,20.5
						L188,237.3z"/>
				</g>
				<g id="XMLID_2526_">
					
						<rect id="XMLID_2527_" x="238.3" y="224.6" transform="matrix(0.9845 0.1753 -0.1753 0.9845 43.2813 -39.1906)" class="st13" width="10.2" height="1.4"/>
				</g>
			</g>
			<g id="XMLID_2523_">
				<path id="XMLID_2524_" class="st13" d="M237.3,102.1c-1.9-13.4,6.6-20.9,6.9-21.2l0.9,1.1c-0.1,0.1-8.3,7.3-6.5,20L237.3,102.1z
					"/>
			</g>
		</g>
	</g>
</g>
<line id="XMLID_2516_" class="st22" x1="196.2" y1="122.5" x2="196.2" y2="205.1"/>
<g id="XMLID_2514_">
	<path id="XMLID_2515_" class="st2" d="M271.4,89.8c-0.2-0.2-0.3-0.6-0.2-0.9c0.2-0.4,0.6-0.5,1-0.4l9.5,4.4c0.4,0.2,0.5,0.6,0.4,1
		c-0.2,0.4-0.6,0.5-1,0.4l-9.5-4.4C271.6,89.9,271.5,89.9,271.4,89.8z"/>
</g>
<circle id="XMLID_2513_" class="st2" cx="274.8" cy="96.9" r="1.9"/>
</svg>
