<?xml version="1.0" encoding="utf-8"?>
<!-- Generator: Adobe Illustrator 19.0.0, SVG Export Plug-In . SVG Version: 6.00 Build 0)  -->
<svg version="1.1" id="Capa_1" xmlns="http://www.w3.org/2000/svg" xmlns:xlink="http://www.w3.org/1999/xlink" x="0px" y="0px"
	 viewBox="0 0 416 544" style="enable-background:new 0 0 416 544;" xml:space="preserve">
<style type="text/css">
	.st0{fill:#454968;}
	.st1{fill:#F0D1BA;}
	.st2{fill:#E6B38B;}
	.st3{fill:#2E3F7A;}
	.st4{fill:#FCFCF8;}
	.st5{fill:#D6D4DF;}
	.st6{fill:#A9A7B0;}
	.st7{fill:#828087;}
	.st8{fill:#C4C3CD;}
</style>
<g id="XMLID_2420_">
	<path id="XMLID_2512_" class="st0" d="M149.1,293.7l43.4,83.6c4.3,8.3,14.9,11,22.6,5.7l0.3-0.2c6.5-4.4,8.7-13,5.1-20l-35.1-68.1
		l6-6l-0.4-4.1L149.1,293.7z"/>
	<path id="XMLID_2511_" class="st1" d="M64.3,391.1c0,0,78.8-33,81-39c2.2-6-2.6-20.3-3.1-25.7c-0.5-5.5,2.8-12.7,9-19.2
		c6.1-6.5,6.7-8.8,10.5-9.9c3.8-1.1,24.3,1.5,27,1.4s3.2,8.2-8.4,12.7c-11.6,4.5-13.6,4.3-13.6,4.3l-1.4,8.5l26.1,49.9
		c0,0-3.4,6.5-15.1,12.8c-11.7,6.3-95.4,64.7-95.4,64.7L64.3,391.1z"/>
	<g id="XMLID_2509_">
		<path id="XMLID_2510_" class="st1" d="M191.3,288.6c0,0,13.4,0.8,9.8,12.8c-2.5,8.4-9.3,13.3-9.3,13.3s-13.2,11.6-17.3,12.3
			s-7.2-5-3.4-9.3c3.8-4.4,12.6-17.3,12.6-17.3S183.6,293.1,191.3,288.6z"/>
	</g>
	<g id="XMLID_2505_">
		<path id="XMLID_2506_" class="st2" d="M175.5,325.4l-0.3-0.6c0.1,0,6.2-3.1,6.8-6.3c0.2-0.8,0-1.6-0.6-2.3
			c-0.4-0.5-0.9-0.7-1.6-0.8c-3.3-0.2-8.6,5.1-8.6,5.1l-0.5-0.5c0.2-0.2,5.4-5.3,8.9-5.3c0.1,0,0.2,0,0.2,0c0.8,0,1.5,0.4,2,1
			c0.7,0.9,0.9,1.8,0.7,2.8C182,322.1,175.8,325.2,175.5,325.4z"/>
	</g>
	<g id="XMLID_2501_">
		<path id="XMLID_2502_" class="st2" d="M194.6,311.3c-3.2-0.3-5.2-3.9-5.3-4.1l0.6-0.3c0,0,1.9,3.4,4.7,3.7L194.6,311.3z"/>
	</g>
	<g id="XMLID_2499_">
		<path id="XMLID_2500_" class="st1" d="M201,301.9c0,0,4.3,0.2,7.5,4c3.2,3.8-2,17.8-16.8,26.1c-3.7,2.1-11.8,5.1-14.8,5.5
			c-3,0.4-7.2-5.8-1-10.9c6.1-5.1,9.2-5.2,15.1-11.1C197,309.5,201,301.9,201,301.9z"/>
	</g>
	<g id="XMLID_2495_">
		<path id="XMLID_2496_" class="st2" d="M177.5,336.5l-0.2-0.6c0,0,4.9-1.3,6-3.7c0.3-0.7,0.3-1.4-0.1-2.2c-1.5-2.9-8.2,0.5-8.2,0.6
			l-0.3-0.6c0.3-0.2,7.3-3.7,9.1-0.3c0.5,1,0.6,1.9,0.2,2.8C182.7,335.2,177.7,336.5,177.5,336.5z"/>
	</g>
	<g id="XMLID_2491_">
		<path id="XMLID_2492_" class="st2" d="M151.5,335.1l-0.2-0.6c0.1,0,9.2-2.5,14.1-9.3l0.5,0.4C160.9,332.5,151.6,335,151.5,335.1z"
			/>
	</g>
	<g id="XMLID_2487_">
		<path id="XMLID_2488_" class="st2" d="M164.7,326.1c-4.8,0.1-7.5-3.9-7.6-3.9l0.5-0.4c0,0,3.1,4.4,8.2,3.5l0.1,0.7
			C165.5,326,165.1,326.1,164.7,326.1z"/>
	</g>
	<g id="XMLID_2483_">
		<path id="XMLID_2484_" class="st2" d="M157.6,367.2c-8.4,0.1-12.1-9.2-12.1-9.3l0.6-0.2c0.2,0.5,4.4,11.2,14.5,8.5l0.2,0.6
			C159.6,367.1,158.6,367.2,157.6,367.2z"/>
	</g>
	<g id="XMLID_2479_">
		<path id="XMLID_2480_" class="st2" d="M178.7,370.2c-1.7-4.4,2.9-12.1,3.1-12.5l0.6,0.3c0,0.1-4.7,7.8-3.1,11.9L178.7,370.2z"/>
	</g>
	<g id="XMLID_2477_">
		<path id="XMLID_2478_" class="st1" d="M207.3,316.4c0,0,1.9-0.1,4.3,0.7c2.5,0.8,7.5,5.3,3.7,11.2c-3.7,5.9-9.4,9-13.5,12.1
			c-4.1,3-12.5,8-19.9,9.2c-7.4,1.1-10.5-9,1.3-13.7c8.9-3.5,7.2-2.3,11.6-5.7C199.2,326.7,207.3,316.4,207.3,316.4z"/>
	</g>
	<g id="XMLID_2473_">
		<path id="XMLID_2474_" class="st2" d="M180.8,349.1l-0.2-0.6c0.1,0,5.2-2.1,6-4.5c0.2-0.6,0.1-1.1-0.2-1.6
			c-1.9-3.1-9.1,1.3-9.2,1.3l-0.3-0.6c0.3-0.2,7.9-4.8,10.1-1.1c0.4,0.7,0.5,1.4,0.3,2.2C186.3,346.9,181.1,349,180.8,349.1z"/>
	</g>
	<g id="XMLID_2471_">
		<path id="XMLID_2472_" class="st1" d="M213.6,330.7c0,0,8.6,1.8,5.3,9.9c-3.3,8.1-26.5,19.5-32.9,14.8c-2.8-2-1-6.9,6.6-9.5
			C200.2,343.2,211.4,333.8,213.6,330.7z"/>
	</g>
	<g id="XMLID_2467_">
		<path id="XMLID_2468_" class="st2" d="M189.7,356.1l-0.3-0.6c0,0,4.4-2,5.2-4.1c0.2-0.5,0.2-0.9,0-1.3c-0.2-0.4-0.5-0.7-1-0.8
			c-2.2-0.7-6.4,1.5-6.5,1.5l-0.3-0.6c0.2-0.1,4.5-2.4,7-1.6c0.6,0.2,1.1,0.6,1.4,1.2c0.3,0.6,0.3,1.2,0.1,1.8
			C194.4,354,189.9,356,189.7,356.1z"/>
	</g>
	<g id="XMLID_2463_">
		<path id="XMLID_2464_" class="st2" d="M199.2,342.4c-4.2-0.7-5-5.9-5-6.1l0.7-0.1c0,0,0.8,5,4.5,5.5L199.2,342.4z"/>
	</g>
	<g id="XMLID_2459_">
		<path id="XMLID_2460_" class="st2" d="M191.6,332.4c-4.7-2-4.5-8.1-4.5-8.2l0.7,0c0,0.1-0.2,5.7,4.1,7.5L191.6,332.4z"/>
	</g>
	<g id="XMLID_2455_">
		<path id="XMLID_2456_" class="st2" d="M204.8,352.6c-3.2-0.4-4.3-5.2-4.4-5.4l0.6-0.1c0,0,1.1,4.6,3.8,4.9L204.8,352.6z"/>
	</g>
	<g id="XMLID_2451_">
		<path id="XMLID_2452_" class="st2" d="M177.9,307.4c-1.4,0-2.8-0.2-3.7-0.7c-0.7-0.4-1.2-1-1.4-1.7c-1.6-5.5,2.8-7.1,2.9-7.1
			l0.2,0.6c-0.2,0.1-3.9,1.4-2.5,6.3c0.2,0.5,0.5,1,1.1,1.3c3.1,1.7,10.8-0.6,10.9-0.7l0.2,0.6C185.4,306.2,181.4,307.4,177.9,307.4
			z"/>
	</g>
	<circle id="XMLID_2450_" class="st2" cx="205.2" cy="369.7" r="5.4"/>
	<g id="XMLID_2432_">
		<g id="XMLID_2434_">
			<g id="XMLID_2447_">
				<path id="XMLID_2448_" class="st3" d="M133,293.7c4.3-2.1,6.9-7.2,7.2-14.5c0.4-7.6-1.7-16.5-5.8-25.1
					c-7.4-15.1-19.9-25.6-29.1-24.2c-1,0.2-2,0.5-2.9,0.9l-21.3,10.4l-0.8,0.5c-8.3,5.3-8.5,22.4-0.4,39c7.9,16.2,21.7,27,30.9,23.7
					l0.6-0.1L133,293.7z"/>
			</g>
			
				<ellipse id="XMLID_2446_" transform="matrix(-0.8993 0.4373 -0.4373 -0.8993 349.9276 437.2801)" class="st4" cx="124.6" cy="258.9" rx="29.2" ry="52.8"/>
			<path id="XMLID_2445_" class="st4" d="M147.7,306.4c61.6-40.6,135.4-37.6,135.4-37.6l-68.4-140.6c0,0-43.2,59.9-113.2,83.3
				L147.7,306.4z"/>
			
				<ellipse id="XMLID_2444_" transform="matrix(-0.8993 0.4373 -0.4373 -0.8993 559.5506 268.157)" class="st5" cx="248.9" cy="198.5" rx="43.3" ry="78.2"/>
			<path id="XMLID_2443_" class="st6" d="M201.6,142.6c18.8,4.6,39.9,24.5,53.7,52.8c13.8,28.3,16.3,57.2,8.4,74.9
				c-18.8-4.6-39.9-24.5-53.7-52.8C196.2,189.1,193.6,160.2,201.6,142.6z"/>
			<g id="XMLID_2441_">
				<path id="XMLID_2442_" class="st7" d="M252.6,220.4l-28.8,19.7c-5.1-6.7-9.8-14.3-13.8-22.6c-4.1-8.3-7.1-16.7-9.3-24.9
					l33.2-10.5L252.6,220.4z"/>
			</g>
			<g id="XMLID_2439_">
				
					<ellipse id="XMLID_2440_" transform="matrix(-0.8993 0.4373 -0.4373 -0.8993 549.9846 275.8745)" class="st4" cx="243.2" cy="201.3" rx="11.8" ry="21.3"/>
			</g>
			<g id="XMLID_2435_">
				<path id="XMLID_2436_" class="st4" d="M208.4,218.2c-9.3-19-13.9-39-12.9-56.1c0.9-17.5,7.5-30.1,18.5-35.5
					c2.4-1.2,5.1-2,7.8-2.4c22.2-3.2,50.7,19.7,67.7,54.6c19.3,39.6,16.8,80.7-5.6,91.6c-2.4,1.2-5.1,2-7.8,2.4
					C253.8,276,225.3,253.1,208.4,218.2z M215.5,129.8c-9.8,4.8-15.7,16.3-16.5,32.5c-0.9,16.6,3.6,35.9,12.6,54.4
					c16.3,33.5,43.2,55.7,64,52.6c2.4-0.3,4.7-1,6.8-2.1c20.6-10,22.4-49,4-86.9c-16.3-33.5-43.2-55.7-64-52.6
					C219.9,128,217.6,128.7,215.5,129.8z"/>
			</g>
		</g>
		<path id="XMLID_2433_" class="st8" d="M215.5,129.8c-5.3,2.6-9.4,7.1-12.2,13.3c6.8,2,13.8,5.9,20.7,11.4l31.4-14.6
			c-11.2-9-22.9-13.6-33.1-12.1C219.9,128,217.6,128.7,215.5,129.8z"/>
	</g>
	<g id="XMLID_2421_">
		<animateTransform attributeName="transform"
		type="scale"
		values="1;1.1;1"
		repeatCount="indefinite"
		dur="1.5s"/>
		<animateTransform attributeName="transform"
		type="translate"
		values="0 0;-20 -20;0 0"
		additive="sum"
		repeatCount="indefinite"
		dur="1.5s"/>
		<g id="XMLID_2430_">
			
				<rect id="XMLID_2431_" x="310" y="260.8" transform="matrix(0.8189 0.5739 -0.5739 0.8189 209.4729 -138.2021)" class="st4" width="27.5" height="4"/>
		</g>
		<g id="XMLID_2428_">
			
				<rect id="XMLID_2429_" x="329.2" y="211.1" transform="matrix(0.9962 8.753671e-02 -8.753671e-02 0.9962 19.9679 -29.2044)" class="st4" width="27.5" height="4"/>
		</g>
		<g id="XMLID_2426_">
			
				<rect id="XMLID_2427_" x="332.7" y="146.6" transform="matrix(0.4225 0.9064 -0.9064 0.4225 338.6648 -210.7915)" class="st4" width="4" height="27.5"/>
		</g>
		<g id="XMLID_2424_">
			
				<rect id="XMLID_2425_" x="299.3" y="105.1" transform="matrix(0.8191 0.5737 -0.5737 0.8191 122.6704 -151.3319)" class="st4" width="4" height="27.5"/>
		</g>
		<g id="XMLID_2422_">
			
				<rect id="XMLID_2423_" x="249.5" y="85.8" transform="matrix(0.9962 8.760381e-02 -8.760381e-02 0.9962 9.6907 -21.6484)" class="st4" width="4" height="27.5"/>
		</g>
	</g>
</g>
</svg>
